<?xml version="1.0" standalone="no"?>
<!DOCTYPE svg
  PUBLIC '-//W3C//DTD SVG 1.1//EN'
  'http://www.w3.org/Graphics/SVG/1.1/DTD/svg11.dtd'><svg version="1.1" xmlns="http://www.w3.org/2000/svg"><defs><font horiz-adv-x="0" id="font"><font-face ascent="750" bbox="-99 -284 1290 924" cap-height="700" descent="-250" font-family="Danmark" font-stretch="normal" font-style="normal" font-weight="700" units-per-em="1000" x-height="478" /><missing-glyph d="" horiz-adv-x="0" /><glyph d="" glyph-name=".null" horiz-adv-x="0" unicode="" /><glyph d="" glyph-name="nonmarkingreturn" horiz-adv-x="250" unicode="" /><glyph d="" glyph-name="space" horiz-adv-x="300" unicode=" " /><glyph d="M75 638Q91 643 105 656.5Q119 670 129.5 687.5Q140 705 146.5 723.5Q153 742 153 757H189Q189 742 195.5 723.5Q202 705 212.5 687.5Q223 670 237 656.5Q251 643 267 638Q255 610 241.5 576Q228 542 217 494.5Q206 447 198.5 380.5Q191 314 191 221H151Q151 314 143.5 380.5Q136 447 125 494.5Q114 542 100.5 576Q87 610 75 638ZM93 72Q93 104 115.5 127.5Q138 151 171 151Q203 151 226.5 127.5Q250 104 250 72Q250 39 226.5 16.5Q203 -6 171 -6Q138 -6 115.5 16.5Q93 39 93 72Z" glyph-name="exclam" horiz-adv-x="342" unicode="!" /><glyph d="M75 700 192 700L116 385H75ZM269 700 386 700L310 385H269Z" glyph-name="quotedbl" horiz-adv-x="461" unicode="&quot;" /><glyph d="M410 225 262 225V0H212V225H75V274H212V426H75V475H212V700H262V475H410V700H459V475H597V426H459V274H597V225H459V0H410ZM262 274 410 274V426H262Z" glyph-name="numbersign" horiz-adv-x="672" unicode="#" /><glyph d="M490 153Q490 196 467.5 221Q445 246 400 263V42Q438 52 464 78.5Q490 105 490 153ZM177 560Q177 522 194.5 497.5Q212 473 244 457V656Q215 646 196 623.5Q177 601 177 560ZM82 218 127 218Q130 190 137.5 162.5Q145 135 158.5 111.5Q172 88 192.5 70Q213 52 244 43V310L218 319Q156 341 115.5 386Q75 431 75 505Q75 583 120.5 635.5Q166 688 244 702V833H288V440Q304 435 321 431Q338 427 356 422V833H400V701Q430 695 452.5 681Q475 667 489 647L502 700H542V522H484Q477 583 452 612Q427 641 400 652V410Q438 400 472.5 385Q507 370 533.5 347Q560 324 576 291.5Q592 259 592 212Q592 170 578.5 134Q565 98 540 70Q515 42 479.5 23Q444 4 400 -2V-132H356V279L288 297V-132H244V-3Q211 2 184 14.5Q157 27 139 50L122 0H82Z" glyph-name="dollar" horiz-adv-x="667" unicode="$" /><glyph d="M179 -6 144 29L789 718L824 683ZM708 -6Q670 -6 638.5 9Q607 24 584.5 49.5Q562 75 550 110.5Q538 146 538 186Q538 226 550 261Q562 296 584.5 322.5Q607 349 638.5 364Q670 379 708 379Q746 379 777.5 364Q809 349 831.5 322.5Q854 296 866.5 261Q879 226 879 186Q879 146 866.5 110.5Q854 75 831.5 49.5Q809 24 777.5 9Q746 -6 708 -6ZM708 340Q685 340 672.5 332Q660 324 654 306Q648 288 646.5 258.5Q645 229 645 185Q645 141 646.5 111.5Q648 82 654 64.5Q660 47 672.5 40Q685 33 708 33Q731 33 744 40.5Q757 48 763 65.5Q769 83 770 112Q771 141 771 185Q771 229 770 258.5Q769 288 763 306Q757 324 744 332Q731 340 708 340ZM246 315Q208 315 176.5 330Q145 345 122.5 370.5Q100 396 87.5 431.5Q75 467 75 507Q75 547 87 582Q99 617 121.5 643.5Q144 670 175.5 685Q207 700 246 700Q284 700 315.5 685Q347 670 369.5 643.5Q392 617 404 582Q416 547 416 507Q416 466 403.5 431Q391 396 368.5 370Q346 344 315 329.5Q284 315 246 315ZM245 661Q222 661 209.5 653Q197 645 191 627Q185 609 183.5 579.5Q182 550 182 506Q182 462 183.5 432.5Q185 403 191 385.5Q197 368 209.5 361Q222 354 245 354Q268 354 281 361.5Q294 369 300 386.5Q306 404 307.5 433Q309 462 309 506Q309 550 307.5 579.5Q306 609 300 627Q294 645 281 653Q268 661 245 661Z" glyph-name="percent" horiz-adv-x="954" unicode="%" /><glyph d="M448 58Q421 30 386.5 12Q352 -6 290 -6Q229 -6 187 11.5Q145 29 118.5 57.5Q92 86 80.5 122.5Q69 159 69 198Q69 230 77 260.5Q85 291 104.5 317Q124 343 156 362.5Q188 382 236 390L218 411Q191 443 178 476.5Q165 510 165 543Q165 577 177 607Q189 637 212 659Q235 681 268 693.5Q301 706 343 706Q383 706 412 695Q441 684 460 666Q479 648 488.5 624.5Q498 601 498 575Q498 543 480.5 509.5Q463 476 420 458L397 483Q426 500 440 525Q454 550 454 576Q454 610 432 636Q410 662 365 662Q327 662 301 638Q275 614 275 576Q275 565 278 549Q281 533 295 510Q304 495 317.5 478Q331 461 354 436L548 227L650 406L548 416V458H782V416L703 406L577 198L681 87Q700 67 717 54.5Q734 42 747 42H792V0H592L264 359Q242 355 229.5 340Q217 325 211 303.5Q205 282 203.5 255Q202 228 202 199V170Q202 104 226 72Q250 40 309 40Q345 40 370.5 51.5Q396 63 422 86Z" glyph-name="ampersand" horiz-adv-x="841" unicode="&amp;" /><glyph d="M75 700 192 700L116 385H75Z" glyph-name="quotesingle" horiz-adv-x="267" unicode="'" /><glyph d="M200 255Q200 155 204.5 89.5Q209 24 222.5 -14.5Q236 -53 260 -68.5Q284 -84 323 -84H326V-126H320Q254 -126 207.5 -84Q161 -42 131.5 23.5Q102 89 88.5 168Q75 247 75 320Q75 394 88.5 472.5Q102 551 131.5 616.5Q161 682 207.5 724Q254 766 320 766H326V724H323Q284 724 260 708.5Q236 693 222.5 654.5Q209 616 204.5 550.5Q200 485 200 385Z" glyph-name="parenleft" horiz-adv-x="356" unicode="(" /><glyph d="M156 385Q156 485 151.5 550Q147 615 133.5 653Q120 691 96 706Q72 721 33 721H30V766H36Q102 766 148.5 724Q195 682 224.5 616.5Q254 551 267.5 472.5Q281 394 281 320Q281 247 267.5 168Q254 89 224.5 23.5Q195 -42 148.5 -84Q102 -126 36 -126H30V-81H33Q72 -81 96 -66Q120 -51 133.5 -13Q147 25 151.5 90Q156 155 156 255Z" glyph-name="parenright" horiz-adv-x="356" unicode=")" /><glyph d="M319 458 494 343V283L307 414L310 210H260L263 415L75 284V343L250 458L75 573V632L263 501L260 706H310L307 501L494 633V573Z" glyph-name="asterisk" horiz-adv-x="569" unicode="*" /><glyph d="M357 324 357 80H307V324H75V376H307V620H357V376H588V324Z" glyph-name="plus" horiz-adv-x="663" unicode="+" /><glyph d="M19 -164Q60 -152 87.5 -134.5Q115 -117 132 -96Q149 -75 158.5 -52Q168 -29 172 -6H159Q115 -6 95 18Q75 42 75 72Q75 107 99 129.5Q123 152 157 152Q172 152 189 147Q206 142 221 129Q236 116 246 94Q256 72 256 39Q256 -1 240.5 -38.5Q225 -76 196.5 -108Q168 -140 127 -164.5Q86 -189 36 -201Z" glyph-name="comma" horiz-adv-x="318" unicode="," /><glyph d="M75 262 75 314H318V262Z" glyph-name="hyphen" horiz-adv-x="393" unicode="-" /><glyph d="M75 72Q75 104 97.5 127.5Q120 151 153 151Q185 151 208.5 127.5Q232 104 232 72Q232 39 208.5 16.5Q185 -6 153 -6Q120 -6 97.5 16.5Q75 39 75 72Z" glyph-name="period" horiz-adv-x="307" unicode="." /><glyph d="M69 -104 26 -86L398 804L439 787Z" glyph-name="slash" horiz-adv-x="465" unicode="/" /><glyph d="M195 350Q195 274 196.5 219.5Q198 165 207.5 127.5Q217 90 237.5 68Q258 46 295 36V-6Q241 -1 198 30Q155 61 125.5 110Q96 159 80 221Q64 283 64 350Q64 417 80 479.5Q96 542 125.5 590.5Q155 639 198 670Q241 701 295 706V664Q258 654 237.5 632.5Q217 611 207.5 573.5Q198 536 196.5 481Q195 426 195 350ZM463 350Q463 426 461.5 481Q460 536 450.5 573.5Q441 611 420.5 632.5Q400 654 363 664V706Q417 701 460 670Q503 639 532.5 590.5Q562 542 578 479.5Q594 417 594 350Q594 283 578 221Q562 159 532.5 110Q503 61 460 30Q417 -1 363 -6V36Q400 46 420.5 68Q441 90 450.5 127.5Q460 165 461.5 219.5Q463 274 463 350Z" glyph-name="zero" horiz-adv-x="658" unicode="0" /><glyph d="M20 0 20 42H136Q141 52 141 77V617L233 706H269V77Q269 64 270.5 55.5Q272 47 274 42H391V0ZM82 507 22 443V494L82 560Z" glyph-name="one" horiz-adv-x="411" unicode="1" /><glyph d="M243 647Q210 647 181 637Q152 627 134 608Q166 608 191.5 586.5Q217 565 217 529Q217 496 194 473.5Q171 451 136 451Q98 451 78.5 477.5Q59 504 59 535Q59 562 74 592Q89 622 118 647.5Q147 673 189 689.5Q231 706 286 706Q333 706 374.5 692.5Q416 679 447 653Q478 627 495.5 590Q513 553 513 505Q513 459 497 424.5Q481 390 452.5 357Q424 324 385 287Q346 250 301 199L125 0H73V10L244 206Q291 259 317 302.5Q343 346 356.5 382Q370 418 373 448Q376 478 376 503V509Q376 578 339.5 612.5Q303 647 243 647ZM545 119 507 0H211L315 119Z" glyph-name="two" horiz-adv-x="588" unicode="2" /><glyph d="M135 60Q177 37 226 37Q259 37 289.5 47.5Q320 58 343.5 78.5Q367 99 380.5 129.5Q394 160 394 201Q394 231 385.5 257.5Q377 284 358.5 304Q340 324 310 335.5Q280 347 237 347Q211 347 192.5 343.5Q174 340 164 335L155 356L454 700H497V684L291 446Q332 446 372 433.5Q412 421 443.5 395Q475 369 495 329.5Q515 290 515 235Q515 184 497 140Q479 96 445.5 63.5Q412 31 363.5 12.5Q315 -6 253 -6Q206 -6 166.5 5Q127 16 98.5 35Q70 54 54 78.5Q38 103 38 131Q38 165 60.5 188.5Q83 212 119 212Q153 212 175 190Q197 168 197 136Q197 104 176.5 84.5Q156 65 135 60ZM70 578 70 700H370L264 578Z" glyph-name="three" horiz-adv-x="577" unicode="3" /><glyph d="M246 480 76 262H305V615L377 706H430V262H561V220H430V77Q430 64 431.5 55.5Q433 47 435 42H523V0H212V42H300Q302 47 303.5 55.5Q305 64 305 77V220H24V261L246 540Z" glyph-name="four" horiz-adv-x="585" unicode="4" /><glyph d="M98 342 109 700H484V578H147L139 342ZM135 60Q177 37 225 37Q257 37 287.5 47Q318 57 341.5 77Q365 97 379.5 127.5Q394 158 394 200Q394 232 384.5 259Q375 286 355.5 305.5Q336 325 305 336.5Q274 348 230 348Q224 348 216.5 348Q209 348 202 347V456Q215 458 234.5 458.5Q254 459 266 459Q327 459 373 441.5Q419 424 450.5 394Q482 364 498 323.5Q514 283 514 238Q514 193 498 149.5Q482 106 449.5 71.5Q417 37 368 15.5Q319 -6 252 -6Q205 -6 166 5Q127 16 99.5 34.5Q72 53 56.5 78Q41 103 41 131Q41 163 61.5 187.5Q82 212 118 212Q152 212 174 190Q196 168 196 136Q196 104 176 84.5Q156 65 135 60Z" glyph-name="five" horiz-adv-x="576" unicode="5" /><glyph d="M281 381Q259 378 242 368.5Q225 359 213 339Q201 319 195 286.5Q189 254 189 205Q189 162 194 131.5Q199 101 210 81Q221 61 238.5 50Q256 39 281 34V-6Q235 -6 195 9Q155 24 125.5 56Q96 88 79.5 138Q63 188 63 259V388Q63 476 83.5 537Q104 598 139.5 635.5Q175 673 223 689.5Q271 706 326 706Q377 706 417 693.5Q457 681 484.5 661Q512 641 527 614.5Q542 588 542 560Q542 526 521 503Q500 480 465 480Q430 480 408.5 502Q387 524 387 557Q387 589 405 607Q423 625 445 630Q425 647 396 654Q367 661 337 661Q267 661 227 621Q187 581 187 487V370Q190 377 198 386Q206 395 218.5 403Q231 411 247 416.5Q263 422 281 422ZM552 213Q552 169 539.5 130Q527 91 502 61.5Q477 32 439 14Q401 -4 350 -6V34Q374 40 389 50Q404 60 412.5 78.5Q421 97 424 127Q427 157 427 203Q427 252 423.5 284.5Q420 317 411.5 337Q403 357 388 367Q373 377 350 381V422Q399 422 437 406.5Q475 391 500.5 363.5Q526 336 539 297.5Q552 259 552 213Z" glyph-name="six" horiz-adv-x="615" unicode="6" /><glyph d="M310 376 470 700H518L360 376H487V334H339L249 151Q280 149 302.5 126Q325 103 325 71Q325 39 301.5 16.5Q278 -6 246 -6Q213 -6 190.5 16.5Q168 39 168 71Q168 96 179 115L290 334H154V376ZM337 578 84 578L78 500H38V700H396Z" glyph-name="seven" horiz-adv-x="556" unicode="7" /><glyph d="M214 272Q205 265 198 252Q191 239 186 223Q181 207 178.5 190Q176 173 176 158Q176 110 203.5 78Q231 46 285 36V-6Q229 -6 187.5 6.5Q146 19 118 41Q90 63 76.5 91.5Q63 120 63 152Q63 200 91.5 236Q120 272 174 292ZM464 146Q464 192 434.5 222.5Q405 253 361.5 276Q318 299 266.5 319.5Q215 340 171.5 367Q128 394 98.5 431.5Q69 469 69 525Q69 566 85 599Q101 632 129.5 656Q158 680 197.5 693Q237 706 285 706V664Q266 663 247 656Q228 649 213 636.5Q198 624 188.5 606Q179 588 179 565Q179 524 208 496.5Q237 469 280.5 447.5Q324 426 375 405.5Q426 385 469.5 358Q513 331 542 292.5Q571 254 571 197Q571 161 558 125Q545 89 518 59.5Q491 30 450 12Q409 -6 353 -6V36Q367 36 386.5 42Q406 48 423 61.5Q440 75 452 95.5Q464 116 464 146ZM414 460Q429 481 434.5 505.5Q440 530 440 552Q440 608 414 633.5Q388 659 353 664V706Q398 706 434 695Q470 684 495 665.5Q520 647 533 621.5Q546 596 546 567Q546 531 524 496Q502 461 451 443Z" glyph-name="eight" horiz-adv-x="634" unicode="8" /><glyph d="M334 319Q356 322 373 331.5Q390 341 402 361Q414 381 420 413.5Q426 446 426 495Q426 539 421 569Q416 599 405 619Q394 639 376.5 650Q359 661 334 666V706Q381 706 420.5 691Q460 676 489.5 644Q519 612 535.5 562Q552 512 552 441V312Q552 218 530.5 156.5Q509 95 473 59Q437 23 390 8.5Q343 -6 292 -6Q238 -6 197.5 6.5Q157 19 129 39.5Q101 60 87 86Q73 112 73 139Q73 173 94 196.5Q115 220 151 220Q185 220 206.5 198Q228 176 228 143Q228 111 210 93Q192 75 170 70Q190 53 219 46Q248 39 278 39Q349 39 388.5 79Q428 119 428 213V330Q425 323 417 314Q409 305 396.5 297Q384 289 368 283.5Q352 278 334 278ZM63 487Q63 531 75.5 570Q88 609 113 638.5Q138 668 176 686Q214 704 265 706V666Q241 660 226 650Q211 640 202.5 621.5Q194 603 191 573Q188 543 188 497Q188 448 191.5 415.5Q195 383 203.5 363Q212 343 227 333Q242 323 265 319V278Q216 278 178 293.5Q140 309 114.5 336.5Q89 364 76 402.5Q63 441 63 487Z" glyph-name="nine" horiz-adv-x="615" unicode="9" /><glyph d="M75 72Q75 104 97.5 127.5Q120 151 153 151Q185 151 208.5 127.5Q232 104 232 72Q232 39 208.5 16.5Q185 -6 153 -6Q120 -6 97.5 16.5Q75 39 75 72ZM75 399Q75 431 97.5 454.5Q120 478 153 478Q185 478 208.5 454.5Q232 431 232 399Q232 366 208.5 343.5Q185 321 153 321Q120 321 97.5 343.5Q75 366 75 399Z" glyph-name="colon" horiz-adv-x="307" unicode=":" /><glyph d="M74 399Q74 431 96.5 454.5Q119 478 152 478Q184 478 207.5 454.5Q231 431 231 399Q231 366 207.5 343.5Q184 321 152 321Q119 321 96.5 343.5Q74 366 74 399ZM19 -164Q60 -152 87.5 -134.5Q115 -117 132 -96Q149 -75 158.5 -52Q168 -29 172 -6H159Q115 -6 95 18Q75 42 75 72Q75 108 99.5 130Q124 152 159 152Q176 152 192.5 145.5Q209 139 222 125.5Q235 112 242.5 90.5Q250 69 250 39Q250 -3 234.5 -41Q219 -79 191 -111Q163 -143 123.5 -166Q84 -189 36 -201Z" glyph-name="semicolon" horiz-adv-x="318" unicode=";" /><glyph d="M271 373 910 424V283L271 333ZM50 343 50 364L379 721L409 697L204 353L409 9L379 -15Z" glyph-name="less" horiz-adv-x="960" unicode="&lt;" /><glyph d="M382 456 382 404H75V456ZM382 296 382 244H75V296Z" glyph-name="equal" horiz-adv-x="457" unicode="=" /><glyph d="M581 -15 551 9L756 353L551 697L581 721L910 364V343ZM689 333 50 283V424L689 373Z" glyph-name="greater" horiz-adv-x="960" unicode="&gt;" /><glyph d="M226 231Q226 271 241 307.5Q256 344 274 380Q292 416 307 454Q322 492 322 535Q322 568 312.5 590.5Q303 613 287.5 626.5Q272 640 252.5 645.5Q233 651 214 651Q194 651 177.5 646Q161 641 148.5 634.5Q136 628 128 620.5Q120 613 117 608Q119 608 120 609Q125 609 129 609Q158 609 182 589Q206 569 206 535Q206 503 184 484Q162 465 131 465Q100 465 77.5 486Q55 507 55 550Q55 587 72.5 616Q90 645 118 665Q146 685 182.5 695.5Q219 706 256 706Q292 706 326.5 696Q361 686 388.5 665Q416 644 432.5 612Q449 580 449 536Q449 497 436 467Q423 437 403 413Q383 389 360 368.5Q337 348 317 327.5Q297 307 283.5 283.5Q270 260 269 231ZM172 72Q172 104 194.5 127.5Q217 151 250 151Q282 151 305.5 127.5Q329 104 329 72Q329 39 305.5 16.5Q282 -6 250 -6Q217 -6 194.5 16.5Q172 39 172 72Z" glyph-name="question" horiz-adv-x="504" unicode="?" /><glyph d="M579 682Q655 676 721 646.5Q787 617 836 566.5Q885 516 913 447.5Q941 379 941 295Q941 235 925.5 180Q910 125 880.5 84Q851 43 807.5 18.5Q764 -6 707 -6Q662 -6 636.5 8Q611 22 598.5 42Q586 62 582.5 83Q579 104 579 118V478Q612 478 635 470Q658 462 672.5 449Q687 436 693 420Q699 404 699 388V83Q699 65 707.5 53Q716 41 740 41Q770 41 796.5 60.5Q823 80 843.5 113.5Q864 147 876 193Q888 239 888 293Q888 374 861 436Q834 498 790.5 541Q747 584 691.5 607.5Q636 631 579 635ZM511 222 477 222Q441 222 427.5 204Q414 186 414 154V104Q414 49 467 49Q474 49 485.5 50Q497 51 511 55V21Q494 7 467 0.5Q440 -6 415 -6Q384 -6 361 4Q338 14 323 30.5Q308 47 300.5 69Q293 91 293 116V140Q293 200 329 231Q365 262 443 262H511ZM377 356 334 356V478H511V436H391Q385 427 382 401ZM815 -137Q759 -175 687 -194.5Q615 -214 532 -214Q435 -214 351.5 -186Q268 -158 206.5 -102.5Q145 -47 110 36Q75 119 75 228Q75 340 110.5 424Q146 508 206 565Q266 622 345 651.5Q424 681 511 683V636Q478 636 436.5 628.5Q395 621 352.5 603.5Q310 586 270 556Q230 526 199 481.5Q168 437 149 376Q130 315 130 234Q130 125 164.5 48.5Q199 -28 255.5 -76Q312 -124 384 -146Q456 -168 532 -168Q599 -168 669.5 -151.5Q740 -135 794 -101Z" glyph-name="at" horiz-adv-x="1016" unicode="@" /><glyph d="M448 240 277 240L292 282H431L304 594L351 706H397L661 72Q668 55 676 48.5Q684 42 694 42H726V0H456V42H515Q516 44 516 46Q517 51 517 56Q517 67 508 94ZM296 461 153 94Q148 80 146.5 70.5Q145 61 145 57Q145 52 146 47Q146 44 147 42H251V0H15V42H59Q70 42 77.5 48.5Q85 55 93 72L274 519Z" glyph-name="A" horiz-adv-x="741" unicode="A" /><glyph d="M52 0 52 42H130Q132 47 134 55.5Q136 64 136 77V623Q136 636 134 644.5Q132 653 130 658H52V700H263V0ZM567 189Q567 225 560.5 253Q554 281 538 299.5Q522 318 494.5 328Q467 338 425 338H331V380H477Q546 380 589.5 359.5Q633 339 658 309.5Q683 280 692 247Q701 214 701 189Q701 164 691.5 131Q682 98 654.5 69Q627 40 578 20Q529 0 451 0H331V42H424Q468 42 495.5 52Q523 62 539 81Q555 100 561 127.5Q567 155 567 189ZM467 423Q489 437 507.5 466.5Q526 496 526 549Q526 571 521.5 590.5Q517 610 504 625Q491 640 469.5 649Q448 658 413 658H331V700H443Q508 700 549 687.5Q590 675 613 655Q636 635 644 611Q652 587 652 563Q652 533 641.5 510Q631 487 613 470.5Q595 454 570.5 442.5Q546 431 518 423Z" glyph-name="B" horiz-adv-x="738" unicode="B" /><glyph d="M194 350Q194 271 205 214Q216 157 240.5 119Q265 81 303 61Q341 41 395 36V-6Q313 -6 250.5 20.5Q188 47 145.5 94.5Q103 142 81.5 207.5Q60 273 60 350Q60 427 81.5 492.5Q103 558 145.5 605.5Q188 653 250.5 679.5Q313 706 395 706V664Q341 659 303 639Q265 619 240.5 581Q216 543 205 486Q194 429 194 350ZM704 228 704 0H664L648 87Q630 61 604 41Q580 22 546 8Q512 -6 464 -6V36Q510 37 545 56Q580 75 604.5 103Q629 131 642.5 164.5Q656 198 660 228ZM660 472Q656 502 642.5 535.5Q629 569 604.5 597Q580 625 545 644Q510 663 464 664V706Q512 706 546.5 691.5Q581 677 604 660Q630 639 648 613L664 700H704V472Z" glyph-name="C" horiz-adv-x="794" unicode="C" /><glyph d="M137 623Q137 648 132 658H54V700H265V0H54V42H132Q137 52 137 77ZM635 348Q635 434 622 493.5Q609 553 582 589.5Q555 626 513.5 642Q472 658 414 658H333V700H444Q518 700 578 676Q638 652 680.5 607Q723 562 746 498Q769 434 769 353Q769 275 747.5 210Q726 145 685 98.5Q644 52 585.5 26Q527 0 453 0H333V42H422Q479 42 519 58.5Q559 75 585 111.5Q611 148 623 206.5Q635 265 635 348Z" glyph-name="D" horiz-adv-x="828" unicode="D" /><glyph d="M437 381Q451 381 458.5 383Q466 385 470 387L489 494H529V216H489L470 323Q466 325 458 327Q450 329 437 329L266 334V0H55V42H133Q135 47 137 55.5Q139 64 139 77V623Q139 636 137 644.5Q135 653 133 658H55V700H266V376ZM334 658 334 700H641V540H601L573 652Q568 654 560 656Q552 658 540 658ZM334 42 568 42Q580 42 588.5 44Q597 46 601 48L630 160H670V0H334Z" glyph-name="E" horiz-adv-x="725" unicode="E" /><glyph d="M334 658 334 700H622V540H582L554 652Q549 654 541 656Q533 658 520 658ZM266 354 408 359Q416 359 425 360Q434 361 442 365L461 462H500V204H461L442 301Q437 303 429 305Q421 307 408 307L266 312V77Q266 64 268 55.5Q270 47 272 42H359V0H55V42H133Q135 47 137 55.5Q139 64 139 77V623Q139 636 137 644.5Q135 653 133 658H55V700H266Z" glyph-name="F" horiz-adv-x="657" unicode="F" /><glyph d="M194 350Q194 271 204 214Q214 157 237.5 119Q261 81 298.5 61Q336 41 390 36V-6Q308 -6 246 20.5Q184 47 143 94.5Q102 142 81 207.5Q60 273 60 350Q60 427 81 492.5Q102 558 143 605.5Q184 653 246 679.5Q308 706 390 706V664Q336 659 298.5 639Q261 619 237.5 581Q214 543 204 486Q194 429 194 350ZM740 0 695 0L640 79Q637 71 625.5 56.5Q614 42 592 28Q570 14 537 4Q504 -6 458 -6V36Q491 37 519 45Q547 53 568 70Q589 87 601 114Q613 141 613 180V294H458V336H791V294H746Q744 289 742 280.5Q740 272 740 259ZM661 472Q657 502 642 535.5Q627 569 601.5 597Q576 625 540.5 644Q505 663 458 664V706Q507 706 542.5 691.5Q578 677 601 660Q629 639 648 613L664 700H704V472Z" glyph-name="G" horiz-adv-x="816" unicode="G" /><glyph d="M404 334 266 334V77Q266 64 268 55.5Q270 47 272 42H350V0H55V42H133Q135 47 137 55.5Q139 64 139 77V623Q139 636 137 644.5Q135 653 133 658H55V700H350V658H272Q270 653 268 644.5Q266 636 266 623V376H404ZM472 376 610 376V623Q610 636 608 644.5Q606 653 604 658H526V700H821V658H743Q741 653 739 644.5Q737 636 737 623V77Q737 64 739 55.5Q741 47 743 42H821V0H526V42H604Q606 47 608 55.5Q610 64 610 77V334H472Z" glyph-name="H" horiz-adv-x="876" unicode="H" /><glyph d="M55 0 55 42H143Q145 47 146.5 55.5Q148 64 148 77V623Q148 636 146.5 644.5Q145 653 143 658H55V700H369V658H281Q276 648 276 623V77Q276 52 281 42H369V0Z" glyph-name="I" horiz-adv-x="424" unicode="I" /><glyph d="M395 205Q395 140 378 99Q361 58 334 34.5Q307 11 273.5 2.5Q240 -6 208 -6Q189 -6 171 -4Q153 -2 145 0V42Q152 41 162 41Q172 41 177 41Q210 41 228.5 50Q247 59 255.5 77.5Q264 96 266 125.5Q268 155 268 197V623Q268 636 266 644.5Q264 653 262 658H165V700H459V658H401Q399 653 397 644.5Q395 636 395 623ZM13 146Q13 180 36 203.5Q59 227 94 227Q128 227 151.5 203.5Q175 180 175 146Q175 111 151 88.5Q127 66 94 66Q60 66 36.5 88.5Q13 111 13 146Z" glyph-name="J" horiz-adv-x="499" unicode="J" /><glyph d="M55 0 55 42H133Q135 47 137 55.5Q139 64 139 77V623Q139 636 137 644.5Q135 653 133 658H55V700H350V658H272Q270 653 268 644.5Q266 636 266 623V77Q266 64 268 55.5Q270 47 272 42H350V0ZM414 352 477 352Q515 352 549.5 344.5Q584 337 610 319Q636 301 651.5 271Q667 241 667 196V97Q667 65 678 54.5Q689 44 714 44Q722 44 730 45.5Q738 47 749 52V10Q740 6 727.5 3Q715 0 701.5 -1.5Q688 -3 675.5 -3.5Q663 -4 654 -4Q597 -4 568.5 23Q540 50 540 116V203Q540 238 535.5 259Q531 280 520.5 291.5Q510 303 493 306.5Q476 310 452 310H335V352H362L559 613Q566 622 571 631Q576 640 576 648Q576 652 574 658H475V700H729V658H675Q664 658 654 650Q644 642 632 628Z" glyph-name="K" horiz-adv-x="764" unicode="K" /><glyph d="M266 0 55 0V42H133Q135 47 136.5 55.5Q138 64 138 77V623Q138 636 136.5 644.5Q135 653 133 658H55V700H368V658H271Q266 648 266 623ZM334 42 549 42Q561 42 569 44Q577 46 582 48L610 160H650V0H334Z" glyph-name="L" horiz-adv-x="705" unicode="L" /><glyph d="M574 285 764 700H989V658H911Q909 653 907.5 644.5Q906 636 906 623V77Q906 64 907.5 55.5Q909 47 911 42H989V0H695V42H773Q778 52 778 77V623L600 238ZM479 62 148 658H55V700H274L568 166L518 62ZM151 42Q153 47 154.5 55.5Q156 64 156 77V507L206 423V77Q206 52 211 42H311V0H55V42Z" glyph-name="M" horiz-adv-x="1044" unicode="M" /><glyph d="M191 474 196 77Q196 63 198 55Q200 47 202 42H302V0H55V42H135Q137 47 139 55.5Q141 64 141 77L147 522ZM660 302 654 623Q654 633 652.5 643Q651 653 648 658H549V700H805V658H715Q713 653 711 644.5Q709 636 709 623L704 253ZM115 658 55 658V700H255L703 157V0H667Z" glyph-name="N" horiz-adv-x="840" unicode="N" /><glyph d="M194 350Q194 271 204.5 214Q215 157 237.5 119Q260 81 294.5 61Q329 41 377 36V-6Q309 -6 251 21Q193 48 150.5 96Q108 144 84 209Q60 274 60 350Q60 426 84 491Q108 556 150.5 604Q193 652 251 679Q309 706 377 706V664Q329 659 294.5 639Q260 619 237.5 581Q215 543 204.5 486Q194 429 194 350ZM628 350Q628 429 617.5 486Q607 543 584.5 581Q562 619 527.5 639Q493 659 445 664V706Q513 706 571 679Q629 652 671.5 604Q714 556 738 491Q762 426 762 350Q762 274 738 209Q714 144 671.5 96Q629 48 571 21Q513 -6 445 -6V36Q493 41 527.5 61Q562 81 584.5 119Q607 157 617.5 214Q628 271 628 350Z" glyph-name="O" horiz-adv-x="822" unicode="O" /><glyph d="M55 0 55 42H133Q135 47 137 55.5Q139 64 139 77V623Q139 636 137 644.5Q135 653 133 658H55V700H266V77Q266 64 268 55.5Q270 47 272 42H359V0ZM504 500Q504 538 501.5 567.5Q499 597 485.5 617Q472 637 445 647.5Q418 658 368 658H335V700H427Q501 700 543 679Q585 658 606 627.5Q627 597 632.5 564Q638 531 638 507Q638 476 631 440Q624 404 601 373Q578 342 534 321Q490 300 416 300H335V342H367Q417 342 445 354.5Q473 367 486 388.5Q499 410 501.5 438.5Q504 467 504 500Z" glyph-name="P" horiz-adv-x="673" unicode="P" /><glyph d="M577 69Q594 86 604 111.5Q614 137 619 170Q624 203 625.5 241.5Q627 280 627 323Q627 413 621 475Q615 537 596 577Q577 617 541 637.5Q505 658 445 664V706Q513 706 570.5 679Q628 652 670.5 604Q713 556 737 491Q761 426 761 351Q761 248 718.5 167Q676 86 605 40L774 -128L746 -160L360 226L388 258ZM194 350Q194 271 201 214Q208 157 227.5 119Q247 81 282.5 61Q318 41 376 36V-6Q308 -6 250 21Q192 48 150 96Q108 144 84 209Q60 274 60 350Q60 426 84 491Q108 556 150 604Q192 652 250 679Q308 706 376 706V664Q318 659 282.5 639Q247 619 227.5 581Q208 543 201 486Q194 429 194 350Z" glyph-name="Q" horiz-adv-x="824" unicode="Q" /><glyph d="M55 0 55 42H133Q135 47 137 55.5Q139 64 139 77V623Q139 636 137 644.5Q135 653 133 658H55V700H266V77Q266 64 268 55.5Q270 47 272 42H355V0ZM749 10Q740 6 727.5 3Q715 0 701.5 -1.5Q688 -3 675.5 -3.5Q663 -4 654 -4Q597 -4 568.5 23Q540 50 540 116V203Q540 238 535.5 259Q531 280 520.5 291.5Q510 303 493 306.5Q476 310 452 310H335V352H477Q515 352 549.5 344.5Q584 337 610 319Q636 301 651.5 271Q667 241 667 196V97Q667 65 678 54.5Q689 44 714 44Q722 44 730 45.5Q738 47 749 52ZM486 392Q506 421 511.5 455.5Q517 490 517 524Q517 552 513 576.5Q509 601 494.5 619Q480 637 452 647.5Q424 658 377 658H335V700H436Q504 700 545 683.5Q586 667 608.5 643Q631 619 638.5 592.5Q646 566 646 546Q646 518 636 493.5Q626 469 609 448.5Q592 428 569.5 412.5Q547 397 521 388Z" glyph-name="R" horiz-adv-x="764" unicode="R" /><glyph d="M55 504Q55 551 71.5 588Q88 625 116.5 651.5Q145 678 183.5 692Q222 706 267 706V664Q245 663 225 657Q205 651 190 638Q175 625 166 605.5Q157 586 157 559Q157 511 184.5 485Q212 459 260 443Q303 429 357 416.5Q411 404 459 381.5Q507 359 539.5 320Q572 281 572 213Q572 167 555.5 126.5Q539 86 508 57Q477 28 434 11Q391 -6 337 -6V36Q360 37 384 43.5Q408 50 427 63.5Q446 77 458 99Q470 121 470 152Q470 198 444.5 223.5Q419 249 379.5 264.5Q340 280 291.5 291Q243 302 198 319Q168 330 142 346Q116 362 96.5 384Q77 406 66 435.5Q55 465 55 504ZM464 522Q459 566 444 593Q429 620 410 635Q391 650 371 656Q351 662 336 664V706Q383 706 416.5 689.5Q450 673 469 647L482 700H522V522ZM107 218Q111 185 120.5 153.5Q130 122 148 97Q166 72 195 55.5Q224 39 268 36V-6Q222 -6 182.5 7Q143 20 119 50L102 0H62V218Z" glyph-name="S" horiz-adv-x="592" unicode="S" /><glyph d="M477 658 477 700H660V540H620L592 652Q587 654 579 656Q571 658 559 658ZM188 0 188 42H276Q278 47 279.5 55.5Q281 64 281 77V700H409V77Q409 52 414 42H502V0ZM213 658 131 658Q119 658 111 656Q103 654 98 652L69 540H30V700H213Z" glyph-name="T" horiz-adv-x="690" unicode="T" /><glyph d="M711 623 711 242Q711 158 686 109Q661 60 623.5 34.5Q586 9 542.5 1.5Q499 -6 462 -6V36Q517 38 555 51Q593 64 616 88.5Q639 113 649.5 151Q660 189 660 242V623Q660 636 658 644.5Q656 653 654 658H548V700H804V658H717Q715 653 713 644.5Q711 636 711 623ZM109 623Q109 636 107 644.5Q105 653 103 658H25V700H320V658H242Q240 653 238 644.5Q236 636 236 623V237Q236 176 245.5 138Q255 100 274.5 78Q294 56 323.5 47Q353 38 393 36V-6Q357 -6 308 -1.5Q259 3 214.5 27Q170 51 139.5 101Q109 151 109 242Z" glyph-name="U" horiz-adv-x="829" unicode="U" /><glyph d="M446 236 590 606Q596 620 597.5 629.5Q599 639 599 643Q599 648 598 654Q598 656 597 658H493V700H726V658H682Q671 658 663.5 651.5Q656 645 648 628L467 181ZM437 106 390 -6H344L83 628Q76 645 68 651.5Q60 658 50 658H15V700H285V658H226Q225 656 225 654Q224 649 224 644Q224 633 233 606Z" glyph-name="V" horiz-adv-x="741" unicode="V" /><glyph d="M532 341 390 -6H345L83 628Q76 645 68 651.5Q60 658 50 658H15V700H285V658H226Q225 656 225 654Q224 648 224 643Q224 632 234 606L414 161L508 399ZM838 236 982 606Q988 620 989.5 629.5Q991 639 991 643Q991 648 990 654Q990 656 989 658H884V700H1118V658H1073Q1063 658 1055.5 651.5Q1048 645 1040 628L859 181ZM828 106 782 -6H736L475 628Q467 645 459.5 651.5Q452 658 442 658H406V700H676V658H617Q616 656 616 654Q615 648 615 643Q615 632 625 606Z" glyph-name="W" horiz-adv-x="1133" unicode="W" /><glyph d="M644 74Q665 42 684 42H722V0H409V42H495Q495 55 490 69Q485 83 478 94L116 628Q105 643 97 650.5Q89 658 79 658H37V700H347V658H269Q269 647 273 632Q277 617 284 606ZM435 449 569 616Q577 626 581 637.5Q585 649 586 658H490V700H720V658H680Q670 658 655.5 649.5Q641 641 624 620L460 415ZM318 239 200 84Q192 74 187.5 63.5Q183 53 183 42H260V0H30V42H86Q97 42 111 50.5Q125 59 142 80L293 273Z" glyph-name="X" horiz-adv-x="752" unicode="X" /><glyph d="M230 0 230 42H308Q313 52 313 77V273L99 628Q80 658 60 658H15V700H303V658H239Q240 647 243 635.5Q246 624 257 606L441 300V77Q441 64 442.5 55.5Q444 47 446 42H524V0ZM445 401 583 616Q591 627 595.5 637Q600 647 600 658H501V700H744V658H699Q689 658 673.5 650.5Q658 643 643 620L470 360Z" glyph-name="Y" horiz-adv-x="759" unicode="Y" /><glyph d="M45 13 528 700H657V689L176 0H45ZM554 42Q566 42 574.5 44Q583 46 588 48L616 160H656V0H253L282 42ZM160 658Q148 658 139.5 656Q131 654 127 652L98 540H58V700H451L420 658Z" glyph-name="Z" horiz-adv-x="702" unicode="Z" /><glyph d="M75 -129 75 765H315V721H206Q204 716 202.5 707.5Q201 699 201 686V-50Q201 -63 202.5 -71.5Q204 -80 206 -85H315V-129Z" glyph-name="bracketleft" horiz-adv-x="345" unicode="[" /><glyph d="M26 787 67 804L439 -86L396 -104Z" glyph-name="backslash" horiz-adv-x="465" unicode="\" /><glyph d="M30 -129 30 -85H139Q141 -80 142.5 -71.5Q144 -63 144 -50V686Q144 699 142.5 707.5Q141 716 139 721H30V765H270V-129Z" glyph-name="bracketright" horiz-adv-x="345" unicode="]" /><glyph d="M275 657 129 284H75L244 700H306L474 284H421Z" glyph-name="asciicircum" horiz-adv-x="549" unicode="^" /><glyph d="M5 -147 5 -95H393V-147Z" glyph-name="underscore" horiz-adv-x="398" unicode="_" /><glyph d="M75 675 180 675L277 535H222Z" glyph-name="grave" horiz-adv-x="352" unicode="`" /><glyph d="M445 96Q445 76 451 61Q457 46 478 46Q501 46 508 62.5Q515 79 515 105V146H553V102Q553 51 525.5 22.5Q498 -6 440 -6Q406 -6 383.5 4Q361 14 348 30Q335 46 330 66.5Q325 87 325 107V478Q358 478 381 470Q404 462 418.5 449Q433 436 439 420Q445 404 445 388ZM257 222 223 222Q187 222 173.5 204Q160 186 160 154V104Q160 49 213 49Q220 49 231.5 50Q243 51 257 55V21Q240 7 213 0.5Q186 -6 161 -6Q130 -6 107 4Q84 14 69 30.5Q54 47 47 69Q40 91 40 116V140Q40 200 75.5 231Q111 262 190 262H257ZM123 356 80 356V478H257V436H137Q133 427 128 401Z" glyph-name="a" horiz-adv-x="558" unicode="a" /><glyph d="M64 643Q64 656 62 664.5Q60 673 58 678H15V720H184V57L103 -6H64ZM528 247Q528 196 515.5 150Q503 104 479 69.5Q455 35 419 14.5Q383 -6 336 -6Q313 -6 290.5 -1Q268 4 252 12V51Q269 46 276.5 44.5Q284 43 292 43Q331 43 352.5 60.5Q374 78 384.5 106Q395 134 397 169.5Q399 205 399 241Q399 277 397 312Q395 347 385 374.5Q375 402 354 418.5Q333 435 296 435Q288 435 278.5 433.5Q269 432 252 427V466Q268 474 291 479Q314 484 339 484Q387 484 422.5 465.5Q458 447 481.5 415Q505 383 516.5 340Q528 297 528 247Z" glyph-name="b" horiz-adv-x="578" unicode="b" /><glyph d="M181 220Q181 167 184 133Q187 99 195 79Q203 59 218 49Q233 39 257 34V-6Q212 -6 174.5 12Q137 30 109.5 62.5Q82 95 67 140Q52 185 52 239Q52 293 67 338Q82 383 109.5 415.5Q137 448 174.5 466Q212 484 257 484V445Q233 441 218.5 431Q204 421 195.5 400.5Q187 380 184 345.5Q181 311 181 256ZM500 341Q500 306 477 284.5Q454 263 422 263Q391 263 369 283.5Q347 304 347 336Q347 366 366 385Q385 404 414 407Q408 415 388.5 429.5Q369 444 325 445V484Q369 484 402 470Q435 456 457 434.5Q479 413 489.5 388Q500 363 500 341ZM503 138Q500 110 488.5 84Q477 58 457 38Q437 18 407 6Q377 -6 338 -6H325V34H334Q381 34 416.5 60Q452 86 458 138Z" glyph-name="c" horiz-adv-x="545" unicode="c" /><glyph d="M395 643Q395 656 393 664.5Q391 673 389 678H339V720H514V77Q514 64 516 55.5Q518 47 520 42H572V0H395ZM50 233Q50 286 62 332Q74 378 98 412Q122 446 158 465Q194 484 242 484Q267 484 288.5 479Q310 474 326 466V427Q309 432 301 433.5Q293 435 285 435Q248 435 226.5 418.5Q205 402 194.5 374Q184 346 181.5 309.5Q179 273 179 234Q179 201 181.5 167Q184 133 194.5 105.5Q205 78 226.5 60.5Q248 43 286 43Q294 43 301.5 44.5Q309 46 326 51V12Q310 4 283 -1Q256 -6 232 -6Q186 -6 151.5 12.5Q117 31 94.5 63.5Q72 96 61 139.5Q50 183 50 233Z" glyph-name="d" horiz-adv-x="592" unicode="d" /><glyph d="M499 138Q496 110 484.5 84Q473 58 452.5 38Q432 18 402 6Q372 -6 332 -6H320V34H328Q375 34 411 60Q447 86 453 138ZM251 -6Q206 -6 169 12Q132 30 105.5 62.5Q79 95 64.5 140Q50 185 50 239Q50 293 64.5 338Q79 383 105.5 415.5Q132 448 169 466Q206 484 251 484V445Q207 441 193 408.5Q179 376 179 312V288H382V312Q382 344 380.5 367.5Q379 391 373 407Q367 423 354.5 432Q342 441 320 445V484Q356 484 389 470Q422 456 447.5 428Q473 400 488 358.5Q503 317 503 262V246H179V242Q179 183 180.5 145Q182 107 189.5 84Q197 61 211.5 50Q226 39 251 34Z" glyph-name="e" horiz-adv-x="553" unicode="e" /><glyph d="M212 478 289 478V436H212V77Q212 52 217 42H279V0H34V42H86Q88 47 90 55.5Q92 64 92 77V436H34V478H92V623Q92 665 120.5 692.5Q149 720 212 720ZM330 643Q330 656 328.5 664.5Q327 673 325 678H280V720H373V598H330Z" glyph-name="f" horiz-adv-x="312" unicode="f" /><glyph d="M465 306Q465 270 451.5 238.5Q438 207 414 184.5Q390 162 356.5 149Q323 136 284 136V176Q313 180 327 205Q341 230 341 285V314Q341 352 338.5 376Q336 400 329.5 414.5Q323 429 312 435Q301 441 284 444V484Q310 484 331 478H491V427L390 438Q422 421 443.5 387.5Q465 354 465 306ZM216 444Q198 441 187 435Q176 429 169.5 414.5Q163 400 160.5 376Q158 352 158 314V285Q158 230 172 205Q186 180 216 176V136H191Q173 136 156.5 135Q140 134 130 129Q110 120 110 95V79Q110 68 115.5 57Q121 46 141 45L372 38Q436 36 476 1.5Q516 -33 516 -109Q516 -160 497 -193.5Q478 -227 445.5 -246.5Q413 -266 369 -274Q325 -282 275 -282H196Q139 -282 103.5 -272.5Q68 -263 48.5 -247.5Q29 -232 22 -213Q15 -194 15 -175Q15 -138 32.5 -120Q50 -102 73 -91L103 -95V-132Q103 -189 134.5 -214.5Q166 -240 246 -240H270Q362 -240 398 -218.5Q434 -197 434 -142Q434 -135 432.5 -124Q431 -113 422.5 -103Q414 -93 397.5 -85.5Q381 -78 351 -77L183 -74Q151 -73 126.5 -69.5Q102 -66 85 -57Q56 -42 46 -14.5Q36 13 36 39V53Q36 103 66.5 133Q97 163 142 168Q121 173 101.5 184.5Q82 196 67 214Q52 232 43 257Q34 282 34 313Q34 355 50 386.5Q66 418 92 440Q118 462 150.5 473Q183 484 216 484Z" glyph-name="g" horiz-adv-x="511" unicode="g" /><glyph d="M97 643Q97 656 95.5 664.5Q94 673 92 678H39V720H217V77Q217 64 219 55.5Q221 47 223 42H275V0H39V42H92Q94 47 95.5 55.5Q97 64 97 77ZM524 77Q524 64 525.5 55.5Q527 47 529 42H582V0H346V42H398Q400 47 402 55.5Q404 64 404 77V332Q404 382 384 400Q364 418 337 418Q324 418 310.5 415.5Q297 413 285 408V444Q297 455 323.5 469.5Q350 484 395 484Q461 484 492.5 445.5Q524 407 524 344Z" glyph-name="h" horiz-adv-x="611" unicode="h" /><glyph d="M98 401Q98 414 96 422.5Q94 431 92 436H40V478H218V77Q218 64 220 55.5Q222 47 224 42H276V0H40V42H92Q94 47 96 55.5Q98 64 98 77ZM75 649Q75 683 98 706.5Q121 730 156 730Q190 730 213.5 706.5Q237 683 237 649Q237 614 213 591.5Q189 569 156 569Q122 569 98.5 591.5Q75 614 75 649Z" glyph-name="i" horiz-adv-x="306" unicode="i" /><glyph d="M267 478 267 436H224Q222 431 220 422.5Q218 414 218 401V-151Q218 -174 210.5 -197Q203 -220 188 -238Q173 -256 150.5 -267.5Q128 -279 99 -279V401Q99 414 97 422.5Q95 431 93 436H41V478ZM77 649Q77 683 100 706.5Q123 730 158 730Q192 730 215.5 706.5Q239 683 239 649Q239 614 215 591.5Q191 569 158 569Q124 569 100.5 591.5Q77 614 77 649ZM-99 -202Q-99 -168 -76 -144.5Q-53 -121 -18 -121Q16 -121 39.5 -144.5Q63 -168 63 -202Q63 -237 39 -259.5Q15 -282 -18 -282Q-52 -282 -75.5 -259.5Q-99 -237 -99 -202Z" glyph-name="j" horiz-adv-x="306" unicode="j" /><glyph d="M578 478 578 436H503L385 300L521 68Q530 54 537.5 48Q545 42 553 42H591V0H350V42H385V47Q385 51 383.5 57Q382 63 377 71L276 249L442 436H331V478ZM98 643Q98 668 93 678H40V720H218V77Q218 64 220 55.5Q222 47 224 42H276V0H40V42H93Q98 52 98 77Z" glyph-name="k" horiz-adv-x="606" unicode="k" /><glyph d="M98 643Q98 656 96 664.5Q94 673 92 678H40V720H218V77Q218 64 220 55.5Q222 47 224 42H276V0H40V42H92Q94 47 96 55.5Q98 64 98 77Z" glyph-name="l" horiz-adv-x="306" unicode="l" /><glyph d="M98 401Q98 414 96 422.5Q94 431 92 436H40V478H218V77Q218 64 219.5 55.5Q221 47 223 42H276V0H40V42H92Q94 47 96 55.5Q98 64 98 77ZM520 77Q520 64 522 55.5Q524 47 526 42H573V0H347V42H394Q396 47 398 55.5Q400 64 400 77V332Q400 382 382.5 400Q365 418 337 418Q324 418 311 415.5Q298 413 286 408V444Q296 453 322.5 468.5Q349 484 395 484Q462 484 491 445.5Q520 407 520 344ZM822 77Q822 64 824 55.5Q826 47 828 42H880V0H644V42H697Q699 47 700.5 55.5Q702 64 702 77V332Q702 382 682 400Q662 418 635 418Q622 418 609 415.5Q596 413 583 408V444Q595 455 621.5 469.5Q648 484 693 484Q759 484 790.5 445.5Q822 407 822 344Z" glyph-name="m" horiz-adv-x="910" unicode="m" /><glyph d="M98 401Q98 414 96.5 422.5Q95 431 93 436H40V478H218V77Q218 64 220 55.5Q222 47 224 42H276V0H40V42H93Q95 47 96.5 55.5Q98 64 98 77ZM525 77Q525 64 526.5 55.5Q528 47 530 42H583V0H347V42H399Q401 47 403 55.5Q405 64 405 77V332Q405 382 385 400Q365 418 338 418Q325 418 311.5 415.5Q298 413 286 408V444Q298 455 324.5 469.5Q351 484 396 484Q462 484 493.5 445.5Q525 407 525 344Z" glyph-name="n" horiz-adv-x="613" unicode="n" /><glyph d="M256 445Q228 442 212.5 431.5Q197 421 189.5 398Q182 375 180.5 337Q179 299 179 239Q179 179 180.5 140.5Q182 102 189.5 79.5Q197 57 212.5 47Q228 37 256 34V-6Q211 -6 173 12Q135 30 108 62.5Q81 95 65.5 140Q50 185 50 239Q50 293 65.5 338Q81 383 108 415.5Q135 448 173 466Q211 484 256 484ZM324 484Q369 484 407 466Q445 448 472 415.5Q499 383 514.5 338Q530 293 530 239Q530 185 514.5 140Q499 95 472 62.5Q445 30 407 12Q369 -6 324 -6V34Q352 37 367.5 47Q383 57 390.5 79.5Q398 102 399.5 140.5Q401 179 401 239Q401 299 399.5 337Q398 375 390.5 398Q383 421 367.5 431.5Q352 442 324 445Z" glyph-name="o" horiz-adv-x="580" unicode="o" /><glyph d="M93 401Q93 414 91 422.5Q89 431 87 436H35V478H212V-185Q212 -198 214 -206.5Q216 -215 218 -220H289V-262H35V-220H87Q89 -215 91 -206.5Q93 -198 93 -185ZM556 247Q556 196 544 150Q532 104 508 69.5Q484 35 448 14.5Q412 -6 365 -6Q342 -6 319.5 -1Q297 4 281 12V51Q298 46 305.5 44.5Q313 43 321 43Q359 43 380.5 60.5Q402 78 412.5 106.5Q423 135 425.5 171.5Q428 208 428 246Q428 280 426 314Q424 348 414 375Q404 402 383 418.5Q362 435 325 435Q317 435 307.5 433.5Q298 432 281 427V466Q297 474 320 479Q343 484 368 484Q416 484 451 465.5Q486 447 509.5 415Q533 383 544.5 340Q556 297 556 247Z" glyph-name="p" horiz-adv-x="606" unicode="p" /><glyph d="M514 -185Q514 -198 516 -206.5Q518 -215 520 -220H572V-262H301V-220H389Q391 -215 393 -206.5Q395 -198 395 -185V478H572V436H520Q518 431 516 422.5Q514 414 514 401ZM50 233Q50 286 62 332Q74 378 98 412Q122 446 158 465Q194 484 242 484Q267 484 288.5 479Q310 474 326 466V427Q309 432 301 433.5Q293 435 285 435Q248 435 226.5 418.5Q205 402 194.5 374Q184 346 181.5 309.5Q179 273 179 234Q179 201 181.5 167Q184 133 194.5 105.5Q205 78 226.5 60.5Q248 43 286 43Q294 43 301.5 44.5Q309 46 326 51V12Q310 4 283 -1Q256 -6 232 -6Q186 -6 151.5 12.5Q117 31 94.5 63.5Q72 96 61 139.5Q50 183 50 233Z" glyph-name="q" horiz-adv-x="607" unicode="q" /><glyph d="M98 401Q98 414 96 422.5Q94 431 92 436H40V478H218V77Q218 52 223 42H295V0H40V42H92Q94 47 96 55.5Q98 64 98 77ZM286 448Q297 460 320.5 472Q344 484 374 484Q397 484 413 476.5Q429 469 439 457Q449 445 453.5 430.5Q458 416 458 402Q458 367 436 347.5Q414 328 385 328Q356 328 336 346.5Q316 365 316 394Q316 399 316.5 407.5Q317 416 318 421L286 404Z" glyph-name="r" horiz-adv-x="461" unicode="r" /><glyph d="M45 339Q45 375 57.5 402.5Q70 430 91.5 448Q113 466 141 475Q169 484 200 484V443Q165 441 150 426.5Q135 412 135 389Q135 359 157.5 343Q180 327 214 316.5Q248 306 287 297.5Q326 289 360 272.5Q394 256 416.5 228Q439 200 439 152Q439 130 432.5 102.5Q426 75 407 51Q388 27 355.5 10.5Q323 -6 270 -6V35Q312 35 328.5 56.5Q345 78 345 103Q345 136 323 152.5Q301 169 267.5 178.5Q234 188 195 196Q156 204 122.5 219Q89 234 67 262Q45 290 45 339ZM98 163Q100 127 109 102.5Q118 78 132.5 63.5Q147 49 165 42.5Q183 36 202 35V-6Q157 -6 131.5 6.5Q106 19 98 31L89 -2H52V163ZM405 482 405 348H361Q361 388 335 414Q309 440 269 443V484Q295 484 319 475.5Q343 467 355 454L365 482Z" glyph-name="s" horiz-adv-x="469" unicode="s" /><glyph d="M69 610 188 659V478H299V436H188V99Q188 78 196 63.5Q204 49 227 49Q250 49 260.5 64Q271 79 271 106V129H309V105Q309 54 280 25.5Q251 -3 193 -3Q159 -3 135 7Q111 17 96.5 33Q82 49 75.5 69.5Q69 90 69 110V436H5V478H69Z" glyph-name="t" horiz-adv-x="324" unicode="t" /><glyph d="M510 478Q508 473 506.5 464.5Q505 456 505 443V77Q505 64 506.5 55.5Q508 47 510 42H563V0H385V401Q385 414 383 422.5Q381 431 379 436H327V478ZM204 478Q202 473 200 464.5Q198 456 198 443V146Q198 96 218 78Q238 60 265 60Q278 60 291.5 62.5Q305 65 317 70V34Q305 23 278.5 8.5Q252 -6 207 -6Q141 -6 109.5 32.5Q78 71 78 134V401Q78 414 76.5 422.5Q75 431 73 436H20V478Z" glyph-name="u" horiz-adv-x="593" unicode="u" /><glyph d="M341 87 299 -6H252L65 406Q57 423 48.5 429.5Q40 436 30 436H5V478H261V436H202Q199 430 199 422Q199 412 202.5 401.5Q206 391 209 383ZM360 210 425 382Q435 408 435 421Q435 429 432 436H357V478H547V436H522Q512 436 502.5 429.5Q493 423 486 406L381 161Z" glyph-name="v" horiz-adv-x="552" unicode="v" /><glyph d="M646 87 604 -6H557L430 273L381 161L360 210L407 322L370 406Q362 423 353.5 429.5Q345 436 335 436H310V478H566V436H507Q504 430 504 422Q504 412 507.5 402Q511 392 514 384ZM341 87 299 -6H252L65 406Q57 423 48.5 429.5Q40 436 30 436H5V478H261V436H202Q199 430 199 422Q199 412 202.5 402Q206 392 210 384ZM665 210 730 383Q740 409 740 421Q740 429 737 436H662V478H852V436H827Q817 436 807.5 429.5Q798 423 791 406L686 161Z" glyph-name="w" horiz-adv-x="857" unicode="w" /><glyph d="M474 59Q487 42 513 42H535V0H279V42H339Q339 50 337.5 52.5Q336 55 330 63L92 406Q78 423 68.5 429.5Q59 436 49 436H19V478H275V436H227Q230 414 254 379ZM353 354 397 409Q401 414 405.5 422.5Q410 431 410 436H343V478H527V436H506Q495 436 481 431.5Q467 427 447 403L377 321ZM206 140 165 72Q161 66 153.5 56.5Q146 47 146 42H210V0H15V42H53Q64 42 79.5 46Q95 50 114 75L181 172Z" glyph-name="x" horiz-adv-x="550" unicode="x" /><glyph d="M349 87 213 -223Q203 -246 189 -261Q175 -276 149 -276H138L259 -3L73 406Q65 423 57 429.5Q49 436 38 436H14V478H269V436H210Q209 434 209 432Q208 426 208 420Q208 415 209.5 406.5Q211 398 218 384ZM368 210 433 381Q443 407 443 421Q443 429 440 436H365V478H555V436H530Q520 436 511 429.5Q502 423 494 406L390 161ZM-17 -203Q-17 -172 4.5 -149.5Q26 -127 58 -127Q89 -127 111.5 -149.5Q134 -172 134 -203Q134 -235 111.5 -256.5Q89 -278 58 -278Q26 -278 4.5 -256.5Q-17 -235 -17 -203Z" glyph-name="y" horiz-adv-x="560" unicode="y" /><glyph d="M458 478 458 439L157 0H25L348 478ZM77 346 38 346V478H273L243 436H97Q92 431 88 416.5Q84 402 82 389ZM433 142 472 142V0H232L259 42H413Q418 47 422.5 61.5Q427 76 429 89Z" glyph-name="z" horiz-adv-x="497" unicode="z" /><glyph d="M238 6Q238 -26 239.5 -44.5Q241 -63 246.5 -72Q252 -81 262.5 -83Q273 -85 292 -85H340V-129H237Q199 -129 175 -123.5Q151 -118 137 -103Q123 -88 118 -60.5Q113 -33 113 11V202Q113 234 106 244.5Q99 255 82 255H30V295H104Q145 295 171 288Q197 281 212 267.5Q227 254 232.5 233.5Q238 213 238 186ZM238 450Q238 423 232.5 402.5Q227 382 212 368.5Q197 355 171 348Q145 341 104 341H30V381H82Q99 381 106 391.5Q113 402 113 434V625Q113 669 118 696.5Q123 724 137 739Q151 754 175 759.5Q199 765 237 765H340V721H292Q273 721 262.5 719Q252 717 246.5 708Q241 699 239.5 680.5Q238 662 238 630Z" glyph-name="braceleft" horiz-adv-x="370" unicode="{" /><glyph d="M100 838 150 838V-131H100Z" glyph-name="bar" horiz-adv-x="250" unicode="|" /><glyph d="M132 630Q132 662 130.5 680.5Q129 699 123.5 708Q118 717 107.5 719Q97 721 78 721H30V765H133Q171 765 195 759.5Q219 754 233 739Q247 724 252 696.5Q257 669 257 625V434Q257 402 264 391.5Q271 381 288 381H340V341H266Q225 341 199 348Q173 355 158 368.5Q143 382 137.5 402.5Q132 423 132 450ZM132 186Q132 213 137.5 233.5Q143 254 158 267.5Q173 281 199 288Q225 295 266 295H340V255H288Q271 255 264 244.5Q257 234 257 202V11Q257 -33 252 -60.5Q247 -88 233 -103Q219 -118 195 -123.5Q171 -129 133 -129H30V-85H78Q97 -85 107.5 -83Q118 -81 123.5 -72Q129 -63 130.5 -44.5Q132 -26 132 6Z" glyph-name="braceright" horiz-adv-x="370" unicode="}" /><glyph d="M375 364Q387 364 395.5 375.5Q404 387 406 422L449 416Q449 382 441 362Q433 342 421.5 331.5Q410 321 397.5 317.5Q385 314 375 314Q354 314 320.5 323Q287 332 252.5 342.5Q218 353 188.5 361.5Q159 370 148 370Q139 370 129 359.5Q119 349 118 313L75 319Q75 353 83 373Q91 393 102.5 403.5Q114 414 126 417.5Q138 421 147 421Q166 421 199 412Q232 403 267 392.5Q302 382 332 373Q362 364 375 364Z" glyph-name="asciitilde" horiz-adv-x="524" unicode="~" /><glyph d="M93 406Q93 439 115.5 461.5Q138 484 171 484Q203 484 226.5 461.5Q250 439 250 406Q250 374 226.5 350.5Q203 327 171 327Q138 327 115.5 350.5Q93 374 93 406ZM75 -160Q87 -132 100.5 -98Q114 -64 125 -16.5Q136 31 143.5 97.5Q151 164 151 257H191Q191 164 198.5 97.5Q206 31 217 -16.5Q228 -64 241.5 -98Q255 -132 267 -160Q251 -165 237 -178.5Q223 -192 212.5 -209.5Q202 -227 195.5 -245.5Q189 -264 189 -279H153Q153 -264 146.5 -245.5Q140 -227 129.5 -209.5Q119 -192 105 -178.5Q91 -165 75 -160Z" glyph-name="exclamdown" horiz-adv-x="342" unicode="¡" /><glyph d="M348 482Q385 477 413 462Q441 447 459.5 426.5Q478 406 487.5 383Q497 360 497 340Q497 306 474 284.5Q451 263 419 263Q388 263 366 283.5Q344 304 344 336Q344 366 363 385Q382 404 411 407Q406 414 390.5 425.5Q375 437 343 442L264 -187H220L243 -5Q199 -5 162.5 13Q126 31 100.5 63.5Q75 96 61 140.5Q47 185 47 237Q47 292 62 337.5Q77 383 104.5 415.5Q132 448 169.5 466Q207 484 252 484V445Q227 440 212 429.5Q197 419 189 397Q181 375 178.5 338.5Q176 302 176 246Q176 187 178.5 149Q181 111 188.5 88Q196 65 210 53.5Q224 42 247 36L324 645H369ZM498 138Q495 110 483.5 84Q472 58 452 38Q432 18 402 6Q372 -6 333 -6H320V34H329Q376 34 411.5 60Q447 86 453 138Z" glyph-name="cent" horiz-adv-x="545" unicode="¢" /><glyph d="M126 416Q124 429 124 442Q124 455 124 469Q124 517 138.5 560.5Q153 604 181 636Q209 668 251 687Q293 706 348 706Q395 706 429.5 692.5Q464 679 486 657.5Q508 636 518.5 608.5Q529 581 529 553Q529 511 508 488Q487 465 456 465Q427 465 407 484Q387 503 387 535Q387 567 407 588.5Q427 610 459 610Q464 610 466 609.5Q468 609 471 609Q469 613 462.5 621Q456 629 444.5 636.5Q433 644 416 650Q399 656 375 656Q341 656 317.5 642.5Q294 629 279.5 605.5Q265 582 258.5 550Q252 518 252 480Q252 467 252.5 450Q253 433 253 416H404V364H252Q250 338 247 311Q244 284 238 256H404V204H227Q220 177 209 147.5Q198 118 180.5 89.5Q163 61 138.5 35.5Q114 10 79 -10Q78 -10 73 -5.5Q68 -1 63 5Q56 12 48 20Q75 41 91 62.5Q107 84 115.5 106.5Q124 129 127.5 153Q131 177 133 204H59V256H136V261Q136 287 134 312.5Q132 338 130 364H59V416ZM354 87Q390 87 416 89.5Q442 92 459 102.5Q476 113 484 133.5Q492 154 493 191L535 187Q542 155 542 122Q542 52 515 15Q488 -22 435 -22Q405 -22 374 -12Q343 -2 315.5 10.5Q288 23 265 33Q242 43 228 43L254 86Z" glyph-name="sterling" horiz-adv-x="603" unicode="£" /><glyph d="M143 350Q143 383 153.5 419.5Q164 456 185 482L75 593L111 630L223 519Q249 541 283 553Q317 565 353 565Q391 565 425 552Q459 539 485 519L597 630L633 593L523 482Q545 454 555.5 418.5Q566 383 566 344Q566 306 556 273.5Q546 241 523 218L633 107L597 70L485 181Q459 161 425 148.5Q391 136 354 136Q316 136 282.5 148.5Q249 161 223 181L111 70L75 107L185 218Q164 244 153.5 280Q143 316 143 350ZM194 350Q194 316 206 285.5Q218 255 239.5 233Q261 211 290.5 198Q320 185 354 185Q388 185 417.5 198Q447 211 468.5 233Q490 255 502.5 285.5Q515 316 515 350Q515 385 502.5 415Q490 445 468.5 467.5Q447 490 417.5 503Q388 516 354 516Q320 516 290.5 503Q261 490 239.5 467.5Q218 445 206 415Q194 385 194 350Z" glyph-name="currency" horiz-adv-x="708" unicode="¤" /><glyph d="M338 296 273 404H111V456H241L138 628Q119 658 99 658H54V700H342V658H278Q279 647 282 635.5Q285 624 296 606L481 296H707V244H480V77Q480 64 481.5 55.5Q483 47 485 42H563V0H269V42H347Q352 52 352 77V244H111V296ZM484 401 622 616Q630 627 634.5 637Q639 647 639 658H540V700H783V658H738Q728 658 712.5 650.5Q697 643 682 620L573 456H707V404H539L509 360Z" glyph-name="yen" horiz-adv-x="837" unicode="¥" /><glyph d="M100 414 100 838H150V414ZM150 296 150 -131H100V296Z" glyph-name="brokenbar" horiz-adv-x="250" unicode="¦" /><glyph d="M49 294Q49 363 87.5 413.5Q126 464 195 484Q169 495 146 511Q123 527 105.5 548.5Q88 570 78 598Q68 626 68 662Q68 702 81.5 738.5Q95 775 121.5 802.5Q148 830 188 846.5Q228 863 281 863V821Q260 820 240 814.5Q220 809 204.5 796.5Q189 784 180 764.5Q171 745 171 716Q171 668 197.5 641.5Q224 615 270 598Q316 581 370 568Q424 555 470.5 533Q517 511 548 473Q579 435 579 368Q579 302 547.5 253.5Q516 205 458 179Q483 168 505 152Q527 136 543.5 114Q560 92 569.5 63.5Q579 35 579 -2Q579 -48 563.5 -87.5Q548 -127 518.5 -156.5Q489 -186 446.5 -202.5Q404 -219 350 -219V-177Q374 -177 397.5 -170Q421 -163 439.5 -148.5Q458 -134 469 -112Q480 -90 480 -59Q480 -10 452 16.5Q424 43 382.5 58Q341 73 292 82Q243 91 201 106Q173 116 145.5 131Q118 146 96.5 168.5Q75 191 62 222Q49 253 49 294ZM474 316Q474 353 455.5 376Q437 399 407 413.5Q377 428 339 438Q301 448 262 459Q217 451 185 426Q153 401 153 351Q153 325 162.5 306.5Q172 288 188 274Q204 260 226 250Q248 240 273 232Q307 221 332 215.5Q357 210 392 200Q424 212 449 241.5Q474 271 474 316ZM120 5Q126 -28 135 -59.5Q144 -91 162 -116Q180 -141 209 -157.5Q238 -174 282 -177V-219Q228 -219 189 -200Q150 -181 133 -151L121 -213H76V5ZM484 679Q479 724 463 751Q447 778 427 793Q407 808 385.5 814Q364 820 349 821V863Q371 863 393 857.5Q415 852 434.5 842.5Q454 833 469 819.5Q484 806 492 790L505 857H545V679Z" glyph-name="section" horiz-adv-x="628" unicode="§" /><glyph d="M75 609Q75 639 95 660.5Q115 682 145 682Q176 682 197 660.5Q218 639 218 609Q218 579 197 558Q176 537 145 537Q115 537 95 558Q75 579 75 609ZM284 609Q284 639 304.5 660.5Q325 682 355 682Q386 682 406.5 660.5Q427 639 427 609Q427 579 406.5 558Q386 537 355 537Q325 537 304.5 558Q284 579 284 609Z" glyph-name="dieresis" horiz-adv-x="502" unicode="¨" /><glyph d="M260 355Q260 412 277 457Q294 502 324.5 532.5Q355 563 397 579.5Q439 596 489 596Q536 596 569.5 583Q603 570 624.5 551Q646 532 656 511Q666 490 666 473Q666 450 648.5 430.5Q631 411 602 411Q577 411 559.5 427Q542 443 542 470Q542 490 553 505Q564 520 584 525Q572 536 550 544Q528 552 498 552Q435 552 402 511Q369 470 369 391V338Q369 301 374.5 268.5Q380 236 394.5 211.5Q409 187 434.5 173Q460 159 500 159Q550 159 586.5 183.5Q623 208 635 259L683 246Q679 225 667 201Q655 177 632.5 157Q610 137 575.5 123.5Q541 110 492 110Q437 110 394 128Q351 146 321 178.5Q291 211 275.5 256Q260 301 260 355ZM831 350Q831 438 803.5 503.5Q776 569 730.5 613.5Q685 658 626.5 680.5Q568 703 505 704V746Q586 746 656 717.5Q726 689 777.5 637Q829 585 859 512Q889 439 889 350Q889 261 859 188Q829 115 777.5 63Q726 11 656 -17.5Q586 -46 505 -46V-4Q568 -3 626.5 19.5Q685 42 730.5 86.5Q776 131 803.5 196.5Q831 262 831 350ZM133 350Q133 262 160.5 196.5Q188 131 233.5 86.5Q279 42 337.5 19.5Q396 -3 459 -4V-46Q378 -46 308 -17.5Q238 11 186.5 63Q135 115 105 188Q75 261 75 350Q75 439 105 512Q135 585 186.5 637Q238 689 308 717.5Q378 746 459 746V704Q396 703 337.5 680.5Q279 658 233.5 613.5Q188 569 160.5 503.5Q133 438 133 350Z" glyph-name="copyright" horiz-adv-x="964" unicode="©" /><glyph d="M337 895Q370 895 392.5 887Q415 879 429.5 866Q444 853 450 837Q456 821 456 805V499Q456 474 477 474Q490 474 500 487Q510 500 510 537V553H548V531Q548 480 520 450.5Q492 421 438 421Q391 421 364 444Q337 467 337 510ZM268 639 253 639Q217 639 203.5 621Q190 603 190 571V531Q190 500 201.5 488Q213 476 234 476Q240 476 247 477Q254 478 268 482V448Q251 434 228 427.5Q205 421 181 421Q122 421 96 456Q70 491 70 540V554Q70 614 105.5 646.5Q141 679 220 679H268ZM163 773 120 773V895H268V853H177Q172 845 167 818Z" glyph-name="ordfeminine" horiz-adv-x="607" unicode="ª" /><glyph d="M208 365 361 161L323 125L75 342V388L323 605L361 569ZM436 365 589 161L551 125L303 342V388L551 605L589 569Z" glyph-name="guillemotleft" horiz-adv-x="664" unicode="«" /><glyph d="M328 324 75 324V376H382V220H328Z" glyph-name="logicalnot" horiz-adv-x="457" unicode="¬" /><glyph d="M726 149Q711 141 689 139Q667 137 653 137Q607 137 589.5 155Q572 173 572 217V277Q572 309 554 319.5Q536 330 511 330H467V370H505Q528 370 541.5 376.5Q555 383 562.5 394Q570 405 572 421Q574 437 574 455Q574 471 572 486Q570 501 562.5 512.5Q555 524 540.5 531Q526 538 500 538H422V201Q422 197 423 190.5Q424 184 426 180H490V139H259V180H326Q330 185 330 201V517Q330 522 329 527.5Q328 533 327 538H259V579H526Q570 579 598 567Q626 555 642 537Q658 519 664 498.5Q670 478 670 461Q670 447 666 431.5Q662 416 651.5 401.5Q641 387 622.5 375Q604 363 576 355Q627 348 646.5 320.5Q666 293 666 251V208Q666 193 671 187.5Q676 182 690 182Q694 182 700 182.5Q706 183 712 183Q719 183 726 184ZM831 350Q831 438 803.5 503.5Q776 569 730.5 613.5Q685 658 626.5 680.5Q568 703 505 704V746Q586 746 656 717.5Q726 689 777.5 637Q829 585 859 512Q889 439 889 350Q889 261 859 188Q829 115 777.5 63Q726 11 656 -17.5Q586 -46 505 -46V-4Q568 -3 626.5 19.5Q685 42 730.5 86.5Q776 131 803.5 196.5Q831 262 831 350ZM133 350Q133 262 160.5 196.5Q188 131 233.5 86.5Q279 42 337.5 19.5Q396 -3 459 -4V-46Q378 -46 308 -17.5Q238 11 186.5 63Q135 115 105 188Q75 261 75 350Q75 439 105 512Q135 585 186.5 637Q238 689 308 717.5Q378 746 459 746V704Q396 703 337.5 680.5Q279 658 233.5 613.5Q188 569 160.5 503.5Q133 438 133 350Z" glyph-name="registered" horiz-adv-x="964" unicode="®" /><glyph d="M75 567 75 629H346V567Z" glyph-name="macron" horiz-adv-x="421" unicode="¯" /><glyph d="M75 509Q75 550 90 586Q105 622 131 648.5Q157 675 192.5 690.5Q228 706 269 706Q310 706 346 690.5Q382 675 408.5 648.5Q435 622 450 586Q465 550 465 509Q465 468 450 432.5Q435 397 408.5 370.5Q382 344 346 329Q310 314 269 314Q228 314 192.5 329Q157 344 131 370.5Q105 397 90 432.5Q75 468 75 509ZM121 509Q121 476 132 448Q143 420 162.5 399.5Q182 379 209 368Q236 357 269 357Q302 357 329 368Q356 379 376 399.5Q396 420 407 448Q418 476 418 509Q418 542 407 570.5Q396 599 376 619.5Q356 640 329 651.5Q302 663 269 663Q236 663 209 651.5Q182 640 162.5 619.5Q143 599 132 570.5Q121 542 121 509Z" glyph-name="degree" horiz-adv-x="540" unicode="°" /><glyph d="M357 404 357 160H307V404H75V456H307V700H357V456H588V404ZM75 0 75 52H588V0Z" glyph-name="plusminus" horiz-adv-x="663" unicode="±" /><glyph d="M167 696Q144 696 124.5 688.5Q105 681 94 668Q115 668 132 653Q149 638 149 612Q149 589 134 573.5Q119 558 96 558Q70 558 57 576Q44 594 44 616Q44 635 54 656Q64 677 83.5 695Q103 713 132 725Q161 737 200 737Q233 737 262 727.5Q291 718 312.5 700Q334 682 346.5 655.5Q359 629 359 596Q359 563 347 538.5Q335 514 315 490.5Q295 467 268 441.5Q241 416 211 382L88 243H51V250L171 387Q204 424 222 454Q240 484 248.5 509Q257 534 259 554Q261 574 261 592V596Q261 645 235 670.5Q209 696 167 696ZM382 326 355 243H147L221 326Z" glyph-name="twosuperior" horiz-adv-x="426" unicode="²" /><glyph d="M107 283Q122 275 138.5 271Q155 267 172 267Q195 267 216.5 274Q238 281 254.5 295.5Q271 310 280.5 331.5Q290 353 290 381Q290 424 264.5 454Q239 484 179 484Q161 484 148.5 481.5Q136 479 128 476L122 490L332 731H361V720L218 553Q246 553 273.5 544.5Q301 536 323 518Q345 500 359 472Q373 444 373 405Q373 370 360.5 339Q348 308 325 285.5Q302 263 268 250Q234 237 191 237Q124 237 84 265.5Q44 294 44 333Q44 356 58.5 372.5Q73 389 97 389Q120 389 134 374Q148 359 148 336Q148 313 134.5 300Q121 287 107 283ZM63 646 63 731H273L199 646Z" glyph-name="threesuperior" horiz-adv-x="417" unicode="³" /><glyph d="M130 535 75 535L172 675H277Z" glyph-name="acute" horiz-adv-x="352" unicode="´" /><glyph d="M77 391Q77 404 75.5 412.5Q74 421 72 426H19V468H203Q201 463 199 454.5Q197 446 197 433V146Q197 96 217 78Q237 60 264 60Q277 60 290.5 62.5Q304 65 316 70V34Q305 23 278 8.5Q251 -6 219 -6Q205 -6 193.5 -3Q182 0 177 2V-262H77ZM509 468Q507 463 505.5 454.5Q504 446 504 433V77Q504 64 505.5 55.5Q507 47 509 42H562V0H384V391Q384 404 382 412.5Q380 421 378 426H326V468Z" glyph-name="mu" horiz-adv-x="601" unicode="µ" /><glyph d="M530 658 414 658V-129Q414 -145 411 -167.5Q408 -190 395 -211Q382 -232 356.5 -247Q331 -262 286 -262V231Q242 232 205 250.5Q168 269 141 300.5Q114 332 99 374.5Q84 417 84 466Q84 516 99.5 558.5Q115 601 143 632.5Q171 664 209 682Q247 700 292 700H741V658H663Q661 653 659 644.5Q657 636 657 623V77Q657 64 659 55.5Q661 47 663 42H741V0H530ZM75 -184Q75 -152 98 -128.5Q121 -105 153 -105Q185 -105 209 -128.5Q233 -152 233 -184Q233 -217 209 -239.5Q185 -262 153 -262Q121 -262 98 -239.5Q75 -217 75 -184Z" glyph-name="paragraph" horiz-adv-x="816" unicode="¶" /><glyph d="M75 357Q75 389 97.5 412.5Q120 436 153 436Q185 436 208.5 412.5Q232 389 232 357Q232 324 208.5 301.5Q185 279 153 279Q120 279 97.5 301.5Q75 324 75 357Z" glyph-name="periodcentered" horiz-adv-x="307" unicode="·" /><glyph d="M114 -104 140 -39Q147 -38 154 -38Q161 -37 168 -36.5Q175 -36 183 -36Q246 -36 280.5 -70.5Q315 -105 315 -159Q315 -189 304 -212Q293 -235 274.5 -251Q256 -267 230.5 -275.5Q205 -284 176 -284Q151 -284 132.5 -279Q114 -274 101 -268Q86 -260 75 -251V-212Q86 -220 100 -227Q113 -233 129 -237.5Q145 -242 166 -242Q199 -242 222.5 -226Q246 -210 246 -175Q246 -110 161 -110Q155 -110 148 -110.5Q141 -111 135 -111Q127 -111 120 -112Z" glyph-name="cedilla" horiz-adv-x="390" unicode="¸" /><glyph d="M42 243 42 272H123Q124 275 125 281.5Q126 288 126 297V675L190 737H216V297Q216 288 217 281.5Q218 275 219 272H301V243ZM86 598 43 553V589L86 635Z" glyph-name="onesuperior" horiz-adv-x="343" unicode="¹" /><glyph d="M529 661Q529 611 514.5 567Q500 523 473 490.5Q446 458 409 439.5Q372 421 327 421V461Q355 464 370.5 473Q386 482 393.5 504Q401 526 402.5 563.5Q404 601 404 661Q404 721 402.5 758.5Q401 796 393.5 818Q386 840 370.5 849.5Q355 859 327 862V901Q372 901 409 882Q446 863 473 830.5Q500 798 514.5 754.5Q529 711 529 661ZM57 661Q57 711 71.5 754.5Q86 798 113 830.5Q140 863 177 882Q214 901 259 901V862Q231 859 215.5 849.5Q200 840 192.5 818Q185 796 183.5 758.5Q182 721 182 661Q182 601 183.5 563.5Q185 526 192.5 504Q200 482 215.5 473Q231 464 259 461V421Q214 421 177 439.5Q140 458 113 490.5Q86 523 71.5 567Q57 611 57 661Z" glyph-name="ordmasculine" horiz-adv-x="586" unicode="º" /><glyph d="M75 569 113 605L361 388V342L113 125L75 161L227 365ZM303 569 341 605L589 388V342L341 125L303 161L455 365Z" glyph-name="guillemotright" horiz-adv-x="664" unicode="»" /><glyph d="M59 243 59 272H140Q144 280 144 297V675L207 737H233V297Q233 280 237 272H318V243ZM103 598 60 553V589L103 635ZM207 -26 179 -1L848 743L877 718ZM752 336 632 183H792V430L842 494H880V183H971V154H880V54Q880 37 884 29H944V0H727V29H789Q790 32 791 38.5Q792 45 792 54V154H596V183L752 378Z" glyph-name="onequarter" horiz-adv-x="1030" unicode="¼" /><glyph d="M61 243 61 272H142Q145 278 145 297V675L209 737H235V297Q235 280 239 272H320V243ZM105 598 62 553V589L105 635ZM832 453Q809 453 789.5 445.5Q770 438 759 425Q780 425 797 410Q814 395 814 369Q814 346 799 330.5Q784 315 761 315Q735 315 722 333Q709 351 709 373Q709 392 719 413Q729 434 748.5 452Q768 470 797 482Q826 494 865 494Q898 494 927 484.5Q956 475 977.5 457Q999 439 1011.5 412.5Q1024 386 1024 353Q1024 320 1012 295.5Q1000 271 980 247.5Q960 224 933 198.5Q906 173 876 139L753 0H716V7L836 144Q869 181 887 211Q905 241 913.5 266Q922 291 924 311Q926 331 926 349V353Q926 402 900 427.5Q874 453 832 453ZM1047 83 1020 0H812L886 83ZM209 -26 181 -1L850 743L879 718Z" glyph-name="onehalf" horiz-adv-x="1108" unicode="½" /><glyph d="M244 -26 216 -1L885 743L914 718ZM789 336 669 183H829V430L879 494H917V183H1008V154H917V54Q917 37 921 29H981V0H764V29H826Q829 35 829 54V154H633V183L789 378ZM124 283Q153 267 188 267Q211 267 232.5 274Q254 281 270.5 295.5Q287 310 296.5 331.5Q306 353 306 382Q306 424 281 454Q256 484 195 484Q177 484 164.5 481.5Q152 479 144 476L138 490L348 731H377V720L234 553Q262 553 290 544.5Q318 536 340 518Q362 500 376 472Q390 444 390 405Q390 370 377.5 339Q365 308 342 285.5Q319 263 285 250Q251 237 208 237Q141 237 100.5 265.5Q60 294 60 333Q60 356 74.5 372.5Q89 389 113 389Q136 389 150 373.5Q164 358 164 336Q164 313 151 300Q138 287 124 283ZM79 646 79 731H289L215 646Z" glyph-name="threequarters" horiz-adv-x="1068" unicode="¾" /><glyph d="M278 247Q278 207 263 170.5Q248 134 230 98Q212 62 197 24Q182 -14 182 -57Q182 -90 191.5 -112.5Q201 -135 216.5 -148.5Q232 -162 251.5 -167.5Q271 -173 290 -173Q310 -173 326.5 -168Q343 -163 355.5 -156.5Q368 -150 376 -142.5Q384 -135 387 -130Q385 -130 384 -131Q379 -131 375 -131Q346 -131 322 -111Q298 -91 298 -57Q298 -25 320 -6Q342 13 373 13Q404 13 426.5 -8Q449 -29 449 -72Q449 -109 431.5 -138Q414 -167 386 -187Q358 -207 322 -217.5Q286 -228 248 -228Q212 -228 177.5 -218Q143 -208 115.5 -187Q88 -166 71.5 -134Q55 -102 55 -58Q55 -19 68 11Q81 41 101 65Q121 89 144 109.5Q167 130 187 150.5Q207 171 220.5 194.5Q234 218 235 247ZM332 406Q332 374 309.5 350.5Q287 327 254 327Q222 327 198.5 350.5Q175 374 175 406Q175 439 198.5 461.5Q222 484 254 484Q287 484 309.5 461.5Q332 439 332 406Z" glyph-name="questiondown" horiz-adv-x="504" unicode="¿" /><glyph d="M448 240 277 240L292 282H431L304 594L351 706H397L661 72Q668 55 676 48.5Q684 42 694 42H726V0H456V42H515Q516 44 516 46Q517 51 517 56Q517 67 508 94ZM296 461 153 94Q148 80 146.5 70.5Q145 61 145 57Q145 52 146 47Q146 44 147 42H251V0H15V42H59Q70 42 77.5 48.5Q85 55 93 72L274 519ZM269 897 374 897L471 757H416Z" glyph-name="Agrave" horiz-adv-x="741" unicode="À" /><glyph d="M448 240 277 240L292 282H431L304 594L351 706H397L661 72Q668 55 676 48.5Q684 42 694 42H726V0H456V42H515Q516 44 516 46Q517 51 517 56Q517 67 508 94ZM296 461 153 94Q148 80 146.5 70.5Q145 61 145 57Q145 52 146 47Q146 44 147 42H251V0H15V42H59Q70 42 77.5 48.5Q85 55 93 72L274 519ZM324 757 269 757L366 897H471Z" glyph-name="Aacute" horiz-adv-x="741" unicode="Á" /><glyph d="M448 240 277 240L292 282H431L304 594L351 706H397L661 72Q668 55 676 48.5Q684 42 694 42H726V0H456V42H515Q516 44 516 46Q517 51 517 56Q517 67 508 94ZM296 461 153 94Q148 80 146.5 70.5Q145 61 145 57Q145 52 146 47Q146 44 147 42H251V0H15V42H59Q70 42 77.5 48.5Q85 55 93 72L274 519ZM370 845 290 757H237L348 917H392L503 757H450Z" glyph-name="Acircumflex" horiz-adv-x="741" unicode="Â" /><glyph d="M448 240 277 240L292 282H431L304 594L351 706H397L661 72Q668 55 676 48.5Q684 42 694 42H726V0H456V42H515Q516 44 516 46Q517 51 517 56Q517 67 508 94ZM296 461 153 94Q148 80 146.5 70.5Q145 61 145 57Q145 52 146 47Q146 44 147 42H251V0H15V42H59Q70 42 77.5 48.5Q85 55 93 72L274 519ZM442 758Q423 758 402.5 764.5Q382 771 361.5 779Q341 787 322.5 793.5Q304 800 287 800Q271 800 252 791Q233 782 224 758L206 786Q209 804 218.5 818.5Q228 833 241.5 843Q255 853 270.5 858Q286 863 301 863Q319 863 337.5 856.5Q356 850 375.5 842Q395 834 415 827.5Q435 821 455 821Q473 821 491 829.5Q509 838 517 863L535 831Q530 796 501.5 777Q473 758 442 758Z" glyph-name="Atilde" horiz-adv-x="741" unicode="Ã" /><glyph d="M448 240 277 240L292 282H431L304 594L351 706H397L661 72Q668 55 676 48.5Q684 42 694 42H726V0H456V42H515Q516 44 516 46Q517 51 517 56Q517 67 508 94ZM296 461 153 94Q148 80 146.5 70.5Q145 61 145 57Q145 52 146 47Q146 44 147 42H251V0H15V42H59Q70 42 77.5 48.5Q85 55 93 72L274 519ZM194 831Q194 861 214 882.5Q234 904 264 904Q295 904 316 882.5Q337 861 337 831Q337 801 316 780Q295 759 264 759Q234 759 214 780Q194 801 194 831ZM403 831Q403 861 423.5 882.5Q444 904 474 904Q505 904 525.5 882.5Q546 861 546 831Q546 801 525.5 780Q505 759 474 759Q444 759 423.5 780Q403 801 403 831Z" glyph-name="Adieresis" horiz-adv-x="741" unicode="Ä" /><glyph d="M448 240 277 240L292 282H431L304 594L323 639Q286 654 260.5 688.5Q235 723 235 769Q235 797 245.5 822Q256 847 274.5 865.5Q293 884 318 895Q343 906 372 906Q401 906 426 895.5Q451 885 469.5 866.5Q488 848 499 823Q510 798 510 770Q510 724 484 691Q458 658 423 642L661 72Q668 55 676 48.5Q684 42 694 42H726V0H456V42H515Q516 44 516 46Q517 51 517 56Q517 67 508 94ZM296 461 153 94Q148 80 146.5 70.5Q145 61 145 57Q145 52 146 47Q146 44 147 42H251V0H15V42H59Q70 42 77.5 48.5Q85 55 93 72L274 519ZM280 768Q280 726 305 699Q330 672 372 672Q414 672 439 699Q464 726 464 768Q464 810 439 837Q414 864 372 864Q330 864 305 837Q280 810 280 768Z" glyph-name="Aring" horiz-adv-x="741" unicode="Å" /><glyph d="M356 306 497 306V657L164 94Q156 83 154 72.5Q152 62 152 57Q152 52 153 47Q153 44 154 42H259V0H15V42H59Q70 42 78.5 48.5Q87 55 95 72L449 658H311V700H625V376L796 381Q801 381 811.5 381.5Q822 382 829 387L848 494H888V216H848L829 323Q820 328 796 329L625 334V0H414V42H492Q494 47 495.5 55.5Q497 64 497 77V264H334ZM927 42Q939 42 947 44Q955 46 960 48L988 160H1028V0H693V42ZM693 700 1000 700V540H960L931 652Q927 654 918.5 656Q910 658 898 658H693Z" glyph-name="AE" horiz-adv-x="1083" unicode="Æ" /><glyph d="M194 350Q194 271 205 214Q216 157 240.5 119Q265 81 303 61Q341 41 395 36V-6Q313 -6 250.5 20.5Q188 47 145.5 94.5Q103 142 81.5 207.5Q60 273 60 350Q60 427 81.5 492.5Q103 558 145.5 605.5Q188 653 250.5 679.5Q313 706 395 706V664Q341 659 303 639Q265 619 240.5 581Q216 543 205 486Q194 429 194 350ZM704 228 704 0H664L648 87Q630 61 604 41Q580 22 546 8Q512 -6 464 -6V36Q510 37 545 56Q580 75 604.5 103Q629 131 642.5 164.5Q656 198 660 228ZM660 472Q656 502 642.5 535.5Q629 569 604.5 597Q580 625 545 644Q510 663 464 664V706Q512 706 546.5 691.5Q581 677 604 660Q630 639 648 613L664 700H704V472ZM316 -104 342 -39Q349 -38 356 -38Q363 -37 370 -36.5Q377 -36 385 -36Q448 -36 482.5 -70.5Q517 -105 517 -159Q517 -189 506 -212Q495 -235 476.5 -251Q458 -267 432.5 -275.5Q407 -284 378 -284Q353 -284 334.5 -279Q316 -274 303 -268Q288 -260 277 -251V-212Q288 -220 302 -227Q315 -233 331 -237.5Q347 -242 368 -242Q401 -242 424.5 -226Q448 -210 448 -175Q448 -110 363 -110Q357 -110 350 -110.5Q343 -111 337 -111Q329 -111 322 -112Z" glyph-name="Ccedilla" horiz-adv-x="794" unicode="Ç" /><glyph d="M437 381Q451 381 458.5 383Q466 385 470 387L489 494H529V216H489L470 323Q466 325 458 327Q450 329 437 329L266 334V0H55V42H133Q135 47 137 55.5Q139 64 139 77V623Q139 636 137 644.5Q135 653 133 658H55V700H266V376ZM334 658 334 700H641V540H601L573 652Q568 654 560 656Q552 658 540 658ZM334 42 568 42Q580 42 588.5 44Q597 46 601 48L630 160H670V0H334ZM261 897 366 897L463 757H408Z" glyph-name="Egrave" horiz-adv-x="725" unicode="È" /><glyph d="M437 381Q451 381 458.5 383Q466 385 470 387L489 494H529V216H489L470 323Q466 325 458 327Q450 329 437 329L266 334V0H55V42H133Q135 47 137 55.5Q139 64 139 77V623Q139 636 137 644.5Q135 653 133 658H55V700H266V376ZM334 658 334 700H641V540H601L573 652Q568 654 560 656Q552 658 540 658ZM334 42 568 42Q580 42 588.5 44Q597 46 601 48L630 160H670V0H334ZM344 757 289 757L386 897H491Z" glyph-name="Eacute" horiz-adv-x="725" unicode="É" /><glyph d="M437 381Q451 381 458.5 383Q466 385 470 387L489 494H529V216H489L470 323Q466 325 458 327Q450 329 437 329L266 334V0H55V42H133Q135 47 137 55.5Q139 64 139 77V623Q139 636 137 644.5Q135 653 133 658H55V700H266V376ZM334 658 334 700H641V540H601L573 652Q568 654 560 656Q552 658 540 658ZM334 42 568 42Q580 42 588.5 44Q597 46 601 48L630 160H670V0H334ZM362 845 282 757H229L340 917H384L495 757H442Z" glyph-name="Ecircumflex" horiz-adv-x="725" unicode="Ê" /><glyph d="M437 381Q451 381 458.5 383Q466 385 470 387L489 494H529V216H489L470 323Q466 325 458 327Q450 329 437 329L266 334V0H55V42H133Q135 47 137 55.5Q139 64 139 77V623Q139 636 137 644.5Q135 653 133 658H55V700H266V376ZM334 658 334 700H641V540H601L573 652Q568 654 560 656Q552 658 540 658ZM334 42 568 42Q580 42 588.5 44Q597 46 601 48L630 160H670V0H334ZM186 831Q186 861 206 882.5Q226 904 256 904Q287 904 308 882.5Q329 861 329 831Q329 801 308 780Q287 759 256 759Q226 759 206 780Q186 801 186 831ZM395 831Q395 861 415.5 882.5Q436 904 466 904Q497 904 517.5 882.5Q538 861 538 831Q538 801 517.5 780Q497 759 466 759Q436 759 415.5 780Q395 801 395 831Z" glyph-name="Edieresis" horiz-adv-x="725" unicode="Ë" /><glyph d="M55 0 55 42H143Q145 47 146.5 55.5Q148 64 148 77V623Q148 636 146.5 644.5Q145 653 143 658H55V700H369V658H281Q276 648 276 623V77Q276 52 281 42H369V0ZM111 897 216 897L313 757H258Z" glyph-name="Igrave" horiz-adv-x="424" unicode="Ì" /><glyph d="M55 0 55 42H143Q145 47 146.5 55.5Q148 64 148 77V623Q148 636 146.5 644.5Q145 653 143 658H55V700H369V658H281Q276 648 276 623V77Q276 52 281 42H369V0ZM166 757 111 757L208 897H313Z" glyph-name="Iacute" horiz-adv-x="424" unicode="Í" /><glyph d="M55 0 55 42H143Q145 47 146.5 55.5Q148 64 148 77V623Q148 636 146.5 644.5Q145 653 143 658H55V700H369V658H281Q276 648 276 623V77Q276 52 281 42H369V0ZM212 845 132 757H79L190 917H234L345 757H292Z" glyph-name="Icircumflex" horiz-adv-x="424" unicode="Î" /><glyph d="M55 0 55 42H143Q145 47 146.5 55.5Q148 64 148 77V623Q148 636 146.5 644.5Q145 653 143 658H55V700H369V658H281Q276 648 276 623V77Q276 52 281 42H369V0ZM36 831Q36 861 56 882.5Q76 904 106 904Q137 904 158 882.5Q179 861 179 831Q179 801 158 780Q137 759 106 759Q76 759 56 780Q36 801 36 831ZM245 831Q245 861 265.5 882.5Q286 904 316 904Q347 904 367.5 882.5Q388 861 388 831Q388 801 367.5 780Q347 759 316 759Q286 759 265.5 780Q245 801 245 831Z" glyph-name="Idieresis" horiz-adv-x="424" unicode="Ï" /><glyph d="M137 334 54 334V376H137V623Q137 648 132 658H54V700H265V376H438V334H265V0H54V42H132Q137 52 137 77ZM635 348Q635 434 622 493.5Q609 553 582 589.5Q555 626 513.5 642Q472 658 414 658H333V700H444Q518 700 578 676Q638 652 680.5 607Q723 562 746 498Q769 434 769 353Q769 275 747.5 210Q726 145 685 98.5Q644 52 585.5 26Q527 0 453 0H333V42H422Q479 42 519 58.5Q559 75 585 111.5Q611 148 623 206.5Q635 265 635 348Z" glyph-name="Eth" horiz-adv-x="828" unicode="Ð" /><glyph d="M191 474 196 77Q196 63 198 55Q200 47 202 42H302V0H55V42H135Q137 47 139 55.5Q141 64 141 77L147 522ZM660 302 654 623Q654 633 652.5 643Q651 653 648 658H549V700H805V658H715Q713 653 711 644.5Q709 636 709 623L704 253ZM115 658 55 658V700H255L703 157V0H667ZM491 758Q472 758 451.5 764.5Q431 771 410.5 779Q390 787 371.5 793.5Q353 800 336 800Q320 800 301 791Q282 782 273 758L255 786Q258 804 267.5 818.5Q277 833 290.5 843Q304 853 319.5 858Q335 863 350 863Q368 863 386.5 856.5Q405 850 424.5 842Q444 834 464 827.5Q484 821 504 821Q522 821 540 829.5Q558 838 566 863L584 831Q579 796 550.5 777Q522 758 491 758Z" glyph-name="Ntilde" horiz-adv-x="840" unicode="Ñ" /><glyph d="M194 350Q194 271 204.5 214Q215 157 237.5 119Q260 81 294.5 61Q329 41 377 36V-6Q309 -6 251 21Q193 48 150.5 96Q108 144 84 209Q60 274 60 350Q60 426 84 491Q108 556 150.5 604Q193 652 251 679Q309 706 377 706V664Q329 659 294.5 639Q260 619 237.5 581Q215 543 204.5 486Q194 429 194 350ZM628 350Q628 429 617.5 486Q607 543 584.5 581Q562 619 527.5 639Q493 659 445 664V706Q513 706 571 679Q629 652 671.5 604Q714 556 738 491Q762 426 762 350Q762 274 738 209Q714 144 671.5 96Q629 48 571 21Q513 -6 445 -6V36Q493 41 527.5 61Q562 81 584.5 119Q607 157 617.5 214Q628 271 628 350ZM310 897 415 897L512 757H457Z" glyph-name="Ograve" horiz-adv-x="822" unicode="Ò" /><glyph d="M194 350Q194 271 204.5 214Q215 157 237.5 119Q260 81 294.5 61Q329 41 377 36V-6Q309 -6 251 21Q193 48 150.5 96Q108 144 84 209Q60 274 60 350Q60 426 84 491Q108 556 150.5 604Q193 652 251 679Q309 706 377 706V664Q329 659 294.5 639Q260 619 237.5 581Q215 543 204.5 486Q194 429 194 350ZM628 350Q628 429 617.5 486Q607 543 584.5 581Q562 619 527.5 639Q493 659 445 664V706Q513 706 571 679Q629 652 671.5 604Q714 556 738 491Q762 426 762 350Q762 274 738 209Q714 144 671.5 96Q629 48 571 21Q513 -6 445 -6V36Q493 41 527.5 61Q562 81 584.5 119Q607 157 617.5 214Q628 271 628 350ZM365 757 310 757L407 897H512Z" glyph-name="Oacute" horiz-adv-x="822" unicode="Ó" /><glyph d="M194 350Q194 271 204.5 214Q215 157 237.5 119Q260 81 294.5 61Q329 41 377 36V-6Q309 -6 251 21Q193 48 150.5 96Q108 144 84 209Q60 274 60 350Q60 426 84 491Q108 556 150.5 604Q193 652 251 679Q309 706 377 706V664Q329 659 294.5 639Q260 619 237.5 581Q215 543 204.5 486Q194 429 194 350ZM628 350Q628 429 617.5 486Q607 543 584.5 581Q562 619 527.5 639Q493 659 445 664V706Q513 706 571 679Q629 652 671.5 604Q714 556 738 491Q762 426 762 350Q762 274 738 209Q714 144 671.5 96Q629 48 571 21Q513 -6 445 -6V36Q493 41 527.5 61Q562 81 584.5 119Q607 157 617.5 214Q628 271 628 350ZM411 845 331 757H278L389 917H433L544 757H491Z" glyph-name="Ocircumflex" horiz-adv-x="822" unicode="Ô" /><glyph d="M194 350Q194 271 204.5 214Q215 157 237.5 119Q260 81 294.5 61Q329 41 377 36V-6Q309 -6 251 21Q193 48 150.5 96Q108 144 84 209Q60 274 60 350Q60 426 84 491Q108 556 150.5 604Q193 652 251 679Q309 706 377 706V664Q329 659 294.5 639Q260 619 237.5 581Q215 543 204.5 486Q194 429 194 350ZM628 350Q628 429 617.5 486Q607 543 584.5 581Q562 619 527.5 639Q493 659 445 664V706Q513 706 571 679Q629 652 671.5 604Q714 556 738 491Q762 426 762 350Q762 274 738 209Q714 144 671.5 96Q629 48 571 21Q513 -6 445 -6V36Q493 41 527.5 61Q562 81 584.5 119Q607 157 617.5 214Q628 271 628 350ZM482 758Q463 758 442.5 764.5Q422 771 401.5 779Q381 787 362.5 793.5Q344 800 327 800Q311 800 292 791Q273 782 264 758L246 786Q249 804 258.5 818.5Q268 833 281.5 843Q295 853 310.5 858Q326 863 341 863Q359 863 377.5 856.5Q396 850 415.5 842Q435 834 455 827.5Q475 821 495 821Q513 821 531 829.5Q549 838 557 863L575 831Q570 796 541.5 777Q513 758 482 758Z" glyph-name="Otilde" horiz-adv-x="822" unicode="Õ" /><glyph d="M194 350Q194 271 204.5 214Q215 157 237.5 119Q260 81 294.5 61Q329 41 377 36V-6Q309 -6 251 21Q193 48 150.5 96Q108 144 84 209Q60 274 60 350Q60 426 84 491Q108 556 150.5 604Q193 652 251 679Q309 706 377 706V664Q329 659 294.5 639Q260 619 237.5 581Q215 543 204.5 486Q194 429 194 350ZM628 350Q628 429 617.5 486Q607 543 584.5 581Q562 619 527.5 639Q493 659 445 664V706Q513 706 571 679Q629 652 671.5 604Q714 556 738 491Q762 426 762 350Q762 274 738 209Q714 144 671.5 96Q629 48 571 21Q513 -6 445 -6V36Q493 41 527.5 61Q562 81 584.5 119Q607 157 617.5 214Q628 271 628 350ZM235 831Q235 861 255 882.5Q275 904 305 904Q336 904 357 882.5Q378 861 378 831Q378 801 357 780Q336 759 305 759Q275 759 255 780Q235 801 235 831ZM444 831Q444 861 464.5 882.5Q485 904 515 904Q546 904 566.5 882.5Q587 861 587 831Q587 801 566.5 780Q546 759 515 759Q485 759 464.5 780Q444 801 444 831Z" glyph-name="Odieresis" horiz-adv-x="822" unicode="Ö" /><glyph d="M341 387 572 630L607 593L376 350L607 107L572 70L341 313L110 70L75 107L306 350L75 593L110 630Z" glyph-name="multiply" horiz-adv-x="682" unicode="×" /><glyph d="M232 30Q154 73 107 157.5Q60 242 60 350Q60 426 84 491Q108 556 150.5 604Q193 652 251 679Q309 706 377 706V664Q329 659 294.5 639Q260 619 237.5 581Q215 543 204.5 485.5Q194 428 194 348Q194 251 210 187.5Q226 124 261 87L534 635Q499 658 445 664V706Q503 706 558 684L606 779L646 760L598 664Q673 619 717.5 537Q762 455 762 350Q762 274 738 209Q714 144 671.5 96Q629 48 571 21Q513 -6 445 -6V36Q493 41 527.5 61Q562 81 584.5 119Q607 157 617.5 214Q628 271 628 350Q628 531 568 604L296 60Q331 40 377 36V-6Q322 -6 272 12L223 -87L184 -67Z" glyph-name="Oslash" horiz-adv-x="822" unicode="Ø" /><glyph d="M711 623 711 242Q711 158 686 109Q661 60 623.5 34.5Q586 9 542.5 1.5Q499 -6 462 -6V36Q517 38 555 51Q593 64 616 88.5Q639 113 649.5 151Q660 189 660 242V623Q660 636 658 644.5Q656 653 654 658H548V700H804V658H717Q715 653 713 644.5Q711 636 711 623ZM109 623Q109 636 107 644.5Q105 653 103 658H25V700H320V658H242Q240 653 238 644.5Q236 636 236 623V237Q236 176 245.5 138Q255 100 274.5 78Q294 56 323.5 47Q353 38 393 36V-6Q357 -6 308 -1.5Q259 3 214.5 27Q170 51 139.5 101Q109 151 109 242ZM313 897 418 897L515 757H460Z" glyph-name="Ugrave" horiz-adv-x="829" unicode="Ù" /><glyph d="M711 623 711 242Q711 158 686 109Q661 60 623.5 34.5Q586 9 542.5 1.5Q499 -6 462 -6V36Q517 38 555 51Q593 64 616 88.5Q639 113 649.5 151Q660 189 660 242V623Q660 636 658 644.5Q656 653 654 658H548V700H804V658H717Q715 653 713 644.5Q711 636 711 623ZM109 623Q109 636 107 644.5Q105 653 103 658H25V700H320V658H242Q240 653 238 644.5Q236 636 236 623V237Q236 176 245.5 138Q255 100 274.5 78Q294 56 323.5 47Q353 38 393 36V-6Q357 -6 308 -1.5Q259 3 214.5 27Q170 51 139.5 101Q109 151 109 242ZM368 757 313 757L410 897H515Z" glyph-name="Uacute" horiz-adv-x="829" unicode="Ú" /><glyph d="M711 623 711 242Q711 158 686 109Q661 60 623.5 34.5Q586 9 542.5 1.5Q499 -6 462 -6V36Q517 38 555 51Q593 64 616 88.5Q639 113 649.5 151Q660 189 660 242V623Q660 636 658 644.5Q656 653 654 658H548V700H804V658H717Q715 653 713 644.5Q711 636 711 623ZM109 623Q109 636 107 644.5Q105 653 103 658H25V700H320V658H242Q240 653 238 644.5Q236 636 236 623V237Q236 176 245.5 138Q255 100 274.5 78Q294 56 323.5 47Q353 38 393 36V-6Q357 -6 308 -1.5Q259 3 214.5 27Q170 51 139.5 101Q109 151 109 242ZM414 845 334 757H281L392 917H436L547 757H494Z" glyph-name="Ucircumflex" horiz-adv-x="829" unicode="Û" /><glyph d="M711 623 711 242Q711 158 686 109Q661 60 623.5 34.5Q586 9 542.5 1.5Q499 -6 462 -6V36Q517 38 555 51Q593 64 616 88.5Q639 113 649.5 151Q660 189 660 242V623Q660 636 658 644.5Q656 653 654 658H548V700H804V658H717Q715 653 713 644.5Q711 636 711 623ZM109 623Q109 636 107 644.5Q105 653 103 658H25V700H320V658H242Q240 653 238 644.5Q236 636 236 623V237Q236 176 245.5 138Q255 100 274.5 78Q294 56 323.5 47Q353 38 393 36V-6Q357 -6 308 -1.5Q259 3 214.5 27Q170 51 139.5 101Q109 151 109 242ZM238 831Q238 861 258 882.5Q278 904 308 904Q339 904 360 882.5Q381 861 381 831Q381 801 360 780Q339 759 308 759Q278 759 258 780Q238 801 238 831ZM447 831Q447 861 467.5 882.5Q488 904 518 904Q549 904 569.5 882.5Q590 861 590 831Q590 801 569.5 780Q549 759 518 759Q488 759 467.5 780Q447 801 447 831Z" glyph-name="Udieresis" horiz-adv-x="829" unicode="Ü" /><glyph d="M230 0 230 42H308Q313 52 313 77V273L99 628Q80 658 60 658H15V700H303V658H239Q240 647 243 635.5Q246 624 257 606L441 300V77Q441 64 442.5 55.5Q444 47 446 42H524V0ZM445 401 583 616Q591 627 595.5 637Q600 647 600 658H501V700H744V658H699Q689 658 673.5 650.5Q658 643 643 620L470 360ZM374 757 319 757L416 897H521Z" glyph-name="Yacute" horiz-adv-x="759" unicode="Ý" /><glyph d="M51 0 51 42H129Q131 47 133 55.5Q135 64 135 77V623Q135 636 133 644.5Q131 653 129 658H51V700H262V77Q262 64 264 55.5Q266 47 268 42H355V0ZM538 362Q538 400 535.5 429.5Q533 459 519.5 479Q506 499 479 509.5Q452 520 402 520H331V562H461Q535 562 577 541Q619 520 640 489.5Q661 459 666.5 426Q672 393 672 369Q672 338 665 302Q658 266 635 235Q612 204 568 183Q524 162 450 162H331V204H401Q451 204 479 216.5Q507 229 520 250.5Q533 272 535.5 300.5Q538 329 538 362Z" glyph-name="Thorn" horiz-adv-x="708" unicode="Þ" /><glyph d="M457 610Q457 626 449 635.5Q441 645 428.5 650Q416 655 401.5 656.5Q387 658 374 658H285V700H396Q428 700 448 691Q468 682 480 668.5Q492 655 496.5 639.5Q501 624 501 611Q501 581 483.5 552.5Q466 524 445.5 498.5Q425 473 407.5 452Q390 431 390 416Q390 397 416.5 370.5Q443 344 474.5 310.5Q506 277 532 236Q558 195 558 146Q558 119 548 92.5Q538 66 516.5 45Q495 24 462 11Q429 -2 384 -2V40Q407 41 420.5 47.5Q434 54 440.5 62.5Q447 71 449 80.5Q451 90 451 96Q451 130 425 166Q399 202 367.5 236Q336 270 310 300.5Q284 331 284 353Q284 376 311 408Q338 440 370.5 475Q403 510 430 545Q457 580 457 610ZM216 77Q216 64 218 55.5Q220 47 222 42H284V0H39V42H91Q93 47 95 55.5Q97 64 97 77V436H39V478H97V603Q97 645 125 672.5Q153 700 216 700Z" glyph-name="germandbls" horiz-adv-x="572" unicode="ß" /><glyph d="M445 96Q445 76 451 61Q457 46 478 46Q501 46 508 62.5Q515 79 515 105V146H553V102Q553 51 525.5 22.5Q498 -6 440 -6Q406 -6 383.5 4Q361 14 348 30Q335 46 330 66.5Q325 87 325 107V478Q358 478 381 470Q404 462 418.5 449Q433 436 439 420Q445 404 445 388ZM257 222 223 222Q187 222 173.5 204Q160 186 160 154V104Q160 49 213 49Q220 49 231.5 50Q243 51 257 55V21Q240 7 213 0.5Q186 -6 161 -6Q130 -6 107 4Q84 14 69 30.5Q54 47 47 69Q40 91 40 116V140Q40 200 75.5 231Q111 262 190 262H257ZM123 356 80 356V478H257V436H137Q133 427 128 401ZM178 675 283 675L380 535H325Z" glyph-name="agrave" horiz-adv-x="558" unicode="à" /><glyph d="M445 96Q445 76 451 61Q457 46 478 46Q501 46 508 62.5Q515 79 515 105V146H553V102Q553 51 525.5 22.5Q498 -6 440 -6Q406 -6 383.5 4Q361 14 348 30Q335 46 330 66.5Q325 87 325 107V478Q358 478 381 470Q404 462 418.5 449Q433 436 439 420Q445 404 445 388ZM257 222 223 222Q187 222 173.5 204Q160 186 160 154V104Q160 49 213 49Q220 49 231.5 50Q243 51 257 55V21Q240 7 213 0.5Q186 -6 161 -6Q130 -6 107 4Q84 14 69 30.5Q54 47 47 69Q40 91 40 116V140Q40 200 75.5 231Q111 262 190 262H257ZM123 356 80 356V478H257V436H137Q133 427 128 401ZM233 535 178 535L275 675H380Z" glyph-name="aacute" horiz-adv-x="558" unicode="á" /><glyph d="M445 96Q445 76 451 61Q457 46 478 46Q501 46 508 62.5Q515 79 515 105V146H553V102Q553 51 525.5 22.5Q498 -6 440 -6Q406 -6 383.5 4Q361 14 348 30Q335 46 330 66.5Q325 87 325 107V478Q358 478 381 470Q404 462 418.5 449Q433 436 439 420Q445 404 445 388ZM257 222 223 222Q187 222 173.5 204Q160 186 160 154V104Q160 49 213 49Q220 49 231.5 50Q243 51 257 55V21Q240 7 213 0.5Q186 -6 161 -6Q130 -6 107 4Q84 14 69 30.5Q54 47 47 69Q40 91 40 116V140Q40 200 75.5 231Q111 262 190 262H257ZM123 356 80 356V478H257V436H137Q133 427 128 401ZM279 623 199 535H146L257 695H301L412 535H359Z" glyph-name="acircumflex" horiz-adv-x="558" unicode="â" /><glyph d="M445 96Q445 76 451 61Q457 46 478 46Q501 46 508 62.5Q515 79 515 105V146H553V102Q553 51 525.5 22.5Q498 -6 440 -6Q406 -6 383.5 4Q361 14 348 30Q335 46 330 66.5Q325 87 325 107V478Q358 478 381 470Q404 462 418.5 449Q433 436 439 420Q445 404 445 388ZM257 222 223 222Q187 222 173.5 204Q160 186 160 154V104Q160 49 213 49Q220 49 231.5 50Q243 51 257 55V21Q240 7 213 0.5Q186 -6 161 -6Q130 -6 107 4Q84 14 69 30.5Q54 47 47 69Q40 91 40 116V140Q40 200 75.5 231Q111 262 190 262H257ZM123 356 80 356V478H257V436H137Q133 427 128 401ZM350 536Q331 536 310.5 542.5Q290 549 269.5 557Q249 565 230.5 571.5Q212 578 195 578Q179 578 160 569Q141 560 132 536L114 564Q117 582 126.5 596.5Q136 611 149.5 621Q163 631 178.5 636Q194 641 209 641Q227 641 245.5 634.5Q264 628 283.5 620Q303 612 323 605.5Q343 599 363 599Q381 599 399 607.5Q417 616 425 641L443 609Q438 574 409.5 555Q381 536 350 536Z" glyph-name="atilde" horiz-adv-x="558" unicode="ã" /><glyph d="M445 96Q445 76 451 61Q457 46 478 46Q501 46 508 62.5Q515 79 515 105V146H553V102Q553 51 525.5 22.5Q498 -6 440 -6Q406 -6 383.5 4Q361 14 348 30Q335 46 330 66.5Q325 87 325 107V478Q358 478 381 470Q404 462 418.5 449Q433 436 439 420Q445 404 445 388ZM257 222 223 222Q187 222 173.5 204Q160 186 160 154V104Q160 49 213 49Q220 49 231.5 50Q243 51 257 55V21Q240 7 213 0.5Q186 -6 161 -6Q130 -6 107 4Q84 14 69 30.5Q54 47 47 69Q40 91 40 116V140Q40 200 75.5 231Q111 262 190 262H257ZM123 356 80 356V478H257V436H137Q133 427 128 401ZM75 609Q75 639 95 660.5Q115 682 145 682Q176 682 197 660.5Q218 639 218 609Q218 579 197 558Q176 537 145 537Q115 537 95 558Q75 579 75 609ZM284 609Q284 639 304.5 660.5Q325 682 355 682Q386 682 406.5 660.5Q427 639 427 609Q427 579 406.5 558Q386 537 355 537Q325 537 304.5 558Q284 579 284 609Z" glyph-name="adieresis" horiz-adv-x="558" unicode="ä" /><glyph d="M445 96Q445 76 451 61Q457 46 478 46Q501 46 508 62.5Q515 79 515 105V146H553V102Q553 51 525.5 22.5Q498 -6 440 -6Q406 -6 383.5 4Q361 14 348 30Q335 46 330 66.5Q325 87 325 107V478Q358 478 381 470Q404 462 418.5 449Q433 436 439 420Q445 404 445 388ZM257 222 223 222Q187 222 173.5 204Q160 186 160 154V104Q160 49 213 49Q220 49 231.5 50Q243 51 257 55V21Q240 7 213 0.5Q186 -6 161 -6Q130 -6 107 4Q84 14 69 30.5Q54 47 47 69Q40 91 40 116V140Q40 200 75.5 231Q111 262 190 262H257ZM123 356 80 356V478H257V436H137Q133 427 128 401ZM162 639Q162 661 170.5 680.5Q179 700 193 714.5Q207 729 226.5 737.5Q246 746 268 746Q290 746 309.5 737.5Q329 729 343.5 714.5Q358 700 366.5 680.5Q375 661 375 639Q375 617 366.5 597.5Q358 578 343.5 564Q329 550 309.5 541.5Q290 533 268 533Q246 533 226.5 541.5Q207 550 193 564Q179 578 170.5 597.5Q162 617 162 639ZM203 639Q203 609 220.5 589Q238 569 268 569Q298 569 316 589Q334 609 334 639Q334 669 316 689.5Q298 710 268 710Q238 710 220.5 689.5Q203 669 203 639Z" glyph-name="aring" horiz-adv-x="558" unicode="å" /><glyph d="M518 -6Q473 -6 437.5 12Q402 30 377 62.5Q352 95 339 140Q326 185 326 239V478Q357 478 381.5 464.5Q406 451 416 433Q429 456 457.5 470Q486 484 518 484V445Q480 442 463 413Q446 384 446 324V288H649V312Q649 344 647.5 367.5Q646 391 639.5 407Q633 423 620.5 432Q608 441 586 445V484Q622 484 655 470Q688 456 713.5 428Q739 400 754.5 358.5Q770 317 770 262V246H446V242Q446 183 447.5 145Q449 107 456.5 84Q464 61 478.5 50Q493 39 518 34ZM258 222 224 222Q188 222 174.5 204Q161 186 161 154V104Q161 49 214 49Q221 49 232.5 50Q244 51 258 55V21Q241 7 214 0.5Q187 -6 162 -6Q131 -6 108 4Q85 14 70 30.5Q55 47 47.5 69Q40 91 40 116V140Q40 200 76 231Q112 262 190 262H258ZM124 356 81 356V478H258V436H138Q132 427 129 401ZM766 138Q763 110 751 84Q739 58 718.5 38Q698 18 668 6Q638 -6 599 -6H586V34H595Q642 34 678 60Q714 86 719 138Z" glyph-name="ae" horiz-adv-x="820" unicode="æ" /><glyph d="M181 220Q181 167 184 133Q187 99 195 79Q203 59 218 49Q233 39 257 34V-6Q212 -6 174.5 12Q137 30 109.5 62.5Q82 95 67 140Q52 185 52 239Q52 293 67 338Q82 383 109.5 415.5Q137 448 174.5 466Q212 484 257 484V445Q233 441 218.5 431Q204 421 195.5 400.5Q187 380 184 345.5Q181 311 181 256ZM500 341Q500 306 477 284.5Q454 263 422 263Q391 263 369 283.5Q347 304 347 336Q347 366 366 385Q385 404 414 407Q408 415 388.5 429.5Q369 444 325 445V484Q369 484 402 470Q435 456 457 434.5Q479 413 489.5 388Q500 363 500 341ZM503 138Q500 110 488.5 84Q477 58 457 38Q437 18 407 6Q377 -6 338 -6H325V34H334Q381 34 416.5 60Q452 86 458 138ZM191 -104 217 -39Q224 -38 231 -38Q238 -37 245 -36.5Q252 -36 260 -36Q323 -36 357.5 -70.5Q392 -105 392 -159Q392 -189 381 -212Q370 -235 351.5 -251Q333 -267 307.5 -275.5Q282 -284 253 -284Q228 -284 209.5 -279Q191 -274 178 -268Q163 -260 152 -251V-212Q163 -220 177 -227Q190 -233 206 -237.5Q222 -242 243 -242Q276 -242 299.5 -226Q323 -210 323 -175Q323 -110 238 -110Q232 -110 225 -110.5Q218 -111 212 -111Q204 -111 197 -112Z" glyph-name="ccedilla" horiz-adv-x="545" unicode="ç" /><glyph d="M499 138Q496 110 484.5 84Q473 58 452.5 38Q432 18 402 6Q372 -6 332 -6H320V34H328Q375 34 411 60Q447 86 453 138ZM251 -6Q206 -6 169 12Q132 30 105.5 62.5Q79 95 64.5 140Q50 185 50 239Q50 293 64.5 338Q79 383 105.5 415.5Q132 448 169 466Q206 484 251 484V445Q207 441 193 408.5Q179 376 179 312V288H382V312Q382 344 380.5 367.5Q379 391 373 407Q367 423 354.5 432Q342 441 320 445V484Q356 484 389 470Q422 456 447.5 428Q473 400 488 358.5Q503 317 503 262V246H179V242Q179 183 180.5 145Q182 107 189.5 84Q197 61 211.5 50Q226 39 251 34ZM175 675 280 675L377 535H322Z" glyph-name="egrave" horiz-adv-x="553" unicode="è" /><glyph d="M499 138Q496 110 484.5 84Q473 58 452.5 38Q432 18 402 6Q372 -6 332 -6H320V34H328Q375 34 411 60Q447 86 453 138ZM251 -6Q206 -6 169 12Q132 30 105.5 62.5Q79 95 64.5 140Q50 185 50 239Q50 293 64.5 338Q79 383 105.5 415.5Q132 448 169 466Q206 484 251 484V445Q207 441 193 408.5Q179 376 179 312V288H382V312Q382 344 380.5 367.5Q379 391 373 407Q367 423 354.5 432Q342 441 320 445V484Q356 484 389 470Q422 456 447.5 428Q473 400 488 358.5Q503 317 503 262V246H179V242Q179 183 180.5 145Q182 107 189.5 84Q197 61 211.5 50Q226 39 251 34ZM230 535 175 535L272 675H377Z" glyph-name="eacute" horiz-adv-x="553" unicode="é" /><glyph d="M499 138Q496 110 484.5 84Q473 58 452.5 38Q432 18 402 6Q372 -6 332 -6H320V34H328Q375 34 411 60Q447 86 453 138ZM251 -6Q206 -6 169 12Q132 30 105.5 62.5Q79 95 64.5 140Q50 185 50 239Q50 293 64.5 338Q79 383 105.5 415.5Q132 448 169 466Q206 484 251 484V445Q207 441 193 408.5Q179 376 179 312V288H382V312Q382 344 380.5 367.5Q379 391 373 407Q367 423 354.5 432Q342 441 320 445V484Q356 484 389 470Q422 456 447.5 428Q473 400 488 358.5Q503 317 503 262V246H179V242Q179 183 180.5 145Q182 107 189.5 84Q197 61 211.5 50Q226 39 251 34ZM276 623 196 535H143L254 695H298L409 535H356Z" glyph-name="ecircumflex" horiz-adv-x="553" unicode="ê" /><glyph d="M499 138Q496 110 484.5 84Q473 58 452.5 38Q432 18 402 6Q372 -6 332 -6H320V34H328Q375 34 411 60Q447 86 453 138ZM251 -6Q206 -6 169 12Q132 30 105.5 62.5Q79 95 64.5 140Q50 185 50 239Q50 293 64.5 338Q79 383 105.5 415.5Q132 448 169 466Q206 484 251 484V445Q207 441 193 408.5Q179 376 179 312V288H382V312Q382 344 380.5 367.5Q379 391 373 407Q367 423 354.5 432Q342 441 320 445V484Q356 484 389 470Q422 456 447.5 428Q473 400 488 358.5Q503 317 503 262V246H179V242Q179 183 180.5 145Q182 107 189.5 84Q197 61 211.5 50Q226 39 251 34ZM100 609Q100 639 120 660.5Q140 682 170 682Q201 682 222 660.5Q243 639 243 609Q243 579 222 558Q201 537 170 537Q140 537 120 558Q100 579 100 609ZM309 609Q309 639 329.5 660.5Q350 682 380 682Q411 682 431.5 660.5Q452 639 452 609Q452 579 431.5 558Q411 537 380 537Q350 537 329.5 558Q309 579 309 609Z" glyph-name="edieresis" horiz-adv-x="553" unicode="ë" /><glyph d="M89 391Q89 404 87 412.5Q85 421 83 426H31V468H209V77Q209 64 211 55.5Q213 47 215 42H267V0H31V42H83Q85 47 87 55.5Q89 64 89 77ZM43 675 148 675L245 535H190Z" glyph-name="igrave" horiz-adv-x="288" unicode="ì" /><glyph d="M89 391Q89 404 87 412.5Q85 421 83 426H31V468H209V77Q209 64 211 55.5Q213 47 215 42H267V0H31V42H83Q85 47 87 55.5Q89 64 89 77ZM98 535 43 535L140 675H245Z" glyph-name="iacute" horiz-adv-x="288" unicode="í" /><glyph d="M89 391Q89 404 87 412.5Q85 421 83 426H31V468H209V77Q209 64 211 55.5Q213 47 215 42H267V0H31V42H83Q85 47 87 55.5Q89 64 89 77ZM144 623 64 535H11L122 695H166L277 535H224Z" glyph-name="icircumflex" horiz-adv-x="288" unicode="î" /><glyph d="M89 391Q89 404 87 412.5Q85 421 83 426H31V468H209V77Q209 64 211 55.5Q213 47 215 42H267V0H31V42H83Q85 47 87 55.5Q89 64 89 77ZM-32 609Q-32 639 -12 660.5Q8 682 38 682Q69 682 90 660.5Q111 639 111 609Q111 579 90 558Q69 537 38 537Q8 537 -12 558Q-32 579 -32 609ZM177 609Q177 639 197.5 660.5Q218 682 248 682Q279 682 299.5 660.5Q320 639 320 609Q320 579 299.5 558Q279 537 248 537Q218 537 197.5 558Q177 579 177 609Z" glyph-name="idieresis" horiz-adv-x="288" unicode="ï" /><glyph d="M244 633Q182 679 130 707L152 739Q180 729 216.5 711.5Q253 694 292 668L377 730L397 697L325 644Q365 614 402.5 576Q440 538 469 492.5Q498 447 515.5 394Q533 341 533 282V239Q533 185 517.5 140Q502 95 475 62.5Q448 30 410 12Q372 -6 327 -6V34Q355 37 370.5 47Q386 57 393.5 79.5Q401 102 402.5 140.5Q404 179 404 239Q404 299 402.5 337Q401 375 393.5 398Q386 421 370.5 431.5Q355 442 327 445V484Q333 484 343.5 483Q354 482 364.5 479.5Q375 477 384.5 473.5Q394 470 399 464Q382 499 348.5 536Q315 573 275 607L194 548L173 582ZM259 445Q231 442 215.5 431.5Q200 421 192.5 398Q185 375 183.5 337Q182 299 182 239Q182 179 183.5 140.5Q185 102 192.5 79.5Q200 57 215.5 47Q231 37 259 34V-6Q214 -6 176 12Q138 30 111 62.5Q84 95 68.5 140Q53 185 53 239Q53 293 68.5 338Q84 383 111 415.5Q138 448 176 466Q214 484 259 484Z" glyph-name="eth" horiz-adv-x="586" unicode="ð" /><glyph d="M98 401Q98 414 96.5 422.5Q95 431 93 436H40V478H218V77Q218 64 220 55.5Q222 47 224 42H276V0H40V42H93Q95 47 96.5 55.5Q98 64 98 77ZM525 77Q525 64 526.5 55.5Q528 47 530 42H583V0H347V42H399Q401 47 403 55.5Q405 64 405 77V332Q405 382 385 400Q365 418 338 418Q325 418 311.5 415.5Q298 413 286 408V444Q298 455 324.5 469.5Q351 484 396 484Q462 484 493.5 445.5Q525 407 525 344ZM378 536Q359 536 338.5 542.5Q318 549 297.5 557Q277 565 258.5 571.5Q240 578 223 578Q207 578 188 569Q169 560 160 536L142 564Q145 582 154.5 596.5Q164 611 177.5 621Q191 631 206.5 636Q222 641 237 641Q255 641 273.5 634.5Q292 628 311.5 620Q331 612 351 605.5Q371 599 391 599Q409 599 427 607.5Q445 616 453 641L471 609Q466 574 437.5 555Q409 536 378 536Z" glyph-name="ntilde" horiz-adv-x="613" unicode="ñ" /><glyph d="M256 445Q228 442 212.5 431.5Q197 421 189.5 398Q182 375 180.5 337Q179 299 179 239Q179 179 180.5 140.5Q182 102 189.5 79.5Q197 57 212.5 47Q228 37 256 34V-6Q211 -6 173 12Q135 30 108 62.5Q81 95 65.5 140Q50 185 50 239Q50 293 65.5 338Q81 383 108 415.5Q135 448 173 466Q211 484 256 484ZM324 484Q369 484 407 466Q445 448 472 415.5Q499 383 514.5 338Q530 293 530 239Q530 185 514.5 140Q499 95 472 62.5Q445 30 407 12Q369 -6 324 -6V34Q352 37 367.5 47Q383 57 390.5 79.5Q398 102 399.5 140.5Q401 179 401 239Q401 299 399.5 337Q398 375 390.5 398Q383 421 367.5 431.5Q352 442 324 445ZM189 675 294 675L391 535H336Z" glyph-name="ograve" horiz-adv-x="580" unicode="ò" /><glyph d="M256 445Q228 442 212.5 431.5Q197 421 189.5 398Q182 375 180.5 337Q179 299 179 239Q179 179 180.5 140.5Q182 102 189.5 79.5Q197 57 212.5 47Q228 37 256 34V-6Q211 -6 173 12Q135 30 108 62.5Q81 95 65.5 140Q50 185 50 239Q50 293 65.5 338Q81 383 108 415.5Q135 448 173 466Q211 484 256 484ZM324 484Q369 484 407 466Q445 448 472 415.5Q499 383 514.5 338Q530 293 530 239Q530 185 514.5 140Q499 95 472 62.5Q445 30 407 12Q369 -6 324 -6V34Q352 37 367.5 47Q383 57 390.5 79.5Q398 102 399.5 140.5Q401 179 401 239Q401 299 399.5 337Q398 375 390.5 398Q383 421 367.5 431.5Q352 442 324 445ZM244 535 189 535L286 675H391Z" glyph-name="oacute" horiz-adv-x="580" unicode="ó" /><glyph d="M256 445Q228 442 212.5 431.5Q197 421 189.5 398Q182 375 180.5 337Q179 299 179 239Q179 179 180.5 140.5Q182 102 189.5 79.5Q197 57 212.5 47Q228 37 256 34V-6Q211 -6 173 12Q135 30 108 62.5Q81 95 65.5 140Q50 185 50 239Q50 293 65.5 338Q81 383 108 415.5Q135 448 173 466Q211 484 256 484ZM324 484Q369 484 407 466Q445 448 472 415.5Q499 383 514.5 338Q530 293 530 239Q530 185 514.5 140Q499 95 472 62.5Q445 30 407 12Q369 -6 324 -6V34Q352 37 367.5 47Q383 57 390.5 79.5Q398 102 399.5 140.5Q401 179 401 239Q401 299 399.5 337Q398 375 390.5 398Q383 421 367.5 431.5Q352 442 324 445ZM290 623 210 535H157L268 695H312L423 535H370Z" glyph-name="ocircumflex" horiz-adv-x="580" unicode="ô" /><glyph d="M256 445Q228 442 212.5 431.5Q197 421 189.5 398Q182 375 180.5 337Q179 299 179 239Q179 179 180.5 140.5Q182 102 189.5 79.5Q197 57 212.5 47Q228 37 256 34V-6Q211 -6 173 12Q135 30 108 62.5Q81 95 65.5 140Q50 185 50 239Q50 293 65.5 338Q81 383 108 415.5Q135 448 173 466Q211 484 256 484ZM324 484Q369 484 407 466Q445 448 472 415.5Q499 383 514.5 338Q530 293 530 239Q530 185 514.5 140Q499 95 472 62.5Q445 30 407 12Q369 -6 324 -6V34Q352 37 367.5 47Q383 57 390.5 79.5Q398 102 399.5 140.5Q401 179 401 239Q401 299 399.5 337Q398 375 390.5 398Q383 421 367.5 431.5Q352 442 324 445ZM361 536Q342 536 321.5 542.5Q301 549 280.5 557Q260 565 241.5 571.5Q223 578 206 578Q190 578 171 569Q152 560 143 536L125 564Q128 582 137.5 596.5Q147 611 160.5 621Q174 631 189.5 636Q205 641 220 641Q238 641 256.5 634.5Q275 628 294.5 620Q314 612 334 605.5Q354 599 374 599Q392 599 410 607.5Q428 616 436 641L454 609Q449 574 420.5 555Q392 536 361 536Z" glyph-name="otilde" horiz-adv-x="580" unicode="õ" /><glyph d="M256 445Q228 442 212.5 431.5Q197 421 189.5 398Q182 375 180.5 337Q179 299 179 239Q179 179 180.5 140.5Q182 102 189.5 79.5Q197 57 212.5 47Q228 37 256 34V-6Q211 -6 173 12Q135 30 108 62.5Q81 95 65.5 140Q50 185 50 239Q50 293 65.5 338Q81 383 108 415.5Q135 448 173 466Q211 484 256 484ZM324 484Q369 484 407 466Q445 448 472 415.5Q499 383 514.5 338Q530 293 530 239Q530 185 514.5 140Q499 95 472 62.5Q445 30 407 12Q369 -6 324 -6V34Q352 37 367.5 47Q383 57 390.5 79.5Q398 102 399.5 140.5Q401 179 401 239Q401 299 399.5 337Q398 375 390.5 398Q383 421 367.5 431.5Q352 442 324 445ZM114 609Q114 639 134 660.5Q154 682 184 682Q215 682 236 660.5Q257 639 257 609Q257 579 236 558Q215 537 184 537Q154 537 134 558Q114 579 114 609ZM323 609Q323 639 343.5 660.5Q364 682 394 682Q425 682 445.5 660.5Q466 639 466 609Q466 579 445.5 558Q425 537 394 537Q364 537 343.5 558Q323 579 323 609Z" glyph-name="odieresis" horiz-adv-x="580" unicode="ö" /><glyph d="M430 366 430 314H75V366ZM176 182Q176 214 198.5 237.5Q221 261 254 261Q286 261 309.5 237.5Q333 214 333 182Q333 149 309.5 126.5Q286 104 254 104Q221 104 198.5 126.5Q176 149 176 182ZM176 509Q176 541 198.5 564.5Q221 588 254 588Q286 588 309.5 564.5Q333 541 333 509Q333 476 309.5 453.5Q286 431 254 431Q221 431 198.5 453.5Q176 476 176 509Z" glyph-name="divide" horiz-adv-x="505" unicode="÷" /><glyph d="M151 24Q104 54 77 110Q50 166 50 239Q50 293 65.5 338Q81 383 108 415.5Q135 448 173 466Q211 484 256 484V445Q228 442 212.5 431.5Q197 421 189.5 398Q182 375 180.5 336Q179 297 179 236Q179 201 179.5 177.5Q180 154 180.5 138.5Q181 123 182.5 112Q184 101 186 90L369 430Q360 436 349 439.5Q338 443 324 445V484Q342 484 358.5 480.5Q375 477 391 472L441 566L478 544L430 453Q476 423 503 367Q530 311 530 239Q530 185 514.5 140Q499 95 472 62.5Q445 30 407 12Q369 -6 324 -6V34Q351 37 366.5 46.5Q382 56 389.5 78Q397 100 399 137.5Q401 175 401 233Q401 292 400 327.5Q399 363 394 386L212 47Q228 37 256 34V-6Q222 -6 189 5L138 -92L101 -70Z" glyph-name="oslash" horiz-adv-x="580" unicode="ø" /><glyph d="M510 478Q508 473 506.5 464.5Q505 456 505 443V77Q505 64 506.5 55.5Q508 47 510 42H563V0H385V401Q385 414 383 422.5Q381 431 379 436H327V478ZM204 478Q202 473 200 464.5Q198 456 198 443V146Q198 96 218 78Q238 60 265 60Q278 60 291.5 62.5Q305 65 317 70V34Q305 23 278.5 8.5Q252 -6 207 -6Q141 -6 109.5 32.5Q78 71 78 134V401Q78 414 76.5 422.5Q75 431 73 436H20V478ZM195 675 300 675L397 535H342Z" glyph-name="ugrave" horiz-adv-x="593" unicode="ù" /><glyph d="M510 478Q508 473 506.5 464.5Q505 456 505 443V77Q505 64 506.5 55.5Q508 47 510 42H563V0H385V401Q385 414 383 422.5Q381 431 379 436H327V478ZM204 478Q202 473 200 464.5Q198 456 198 443V146Q198 96 218 78Q238 60 265 60Q278 60 291.5 62.5Q305 65 317 70V34Q305 23 278.5 8.5Q252 -6 207 -6Q141 -6 109.5 32.5Q78 71 78 134V401Q78 414 76.5 422.5Q75 431 73 436H20V478ZM250 535 195 535L292 675H397Z" glyph-name="uacute" horiz-adv-x="593" unicode="ú" /><glyph d="M510 478Q508 473 506.5 464.5Q505 456 505 443V77Q505 64 506.5 55.5Q508 47 510 42H563V0H385V401Q385 414 383 422.5Q381 431 379 436H327V478ZM204 478Q202 473 200 464.5Q198 456 198 443V146Q198 96 218 78Q238 60 265 60Q278 60 291.5 62.5Q305 65 317 70V34Q305 23 278.5 8.5Q252 -6 207 -6Q141 -6 109.5 32.5Q78 71 78 134V401Q78 414 76.5 422.5Q75 431 73 436H20V478ZM296 623 216 535H163L274 695H318L429 535H376Z" glyph-name="ucircumflex" horiz-adv-x="593" unicode="û" /><glyph d="M510 478Q508 473 506.5 464.5Q505 456 505 443V77Q505 64 506.5 55.5Q508 47 510 42H563V0H385V401Q385 414 383 422.5Q381 431 379 436H327V478ZM204 478Q202 473 200 464.5Q198 456 198 443V146Q198 96 218 78Q238 60 265 60Q278 60 291.5 62.5Q305 65 317 70V34Q305 23 278.5 8.5Q252 -6 207 -6Q141 -6 109.5 32.5Q78 71 78 134V401Q78 414 76.5 422.5Q75 431 73 436H20V478ZM120 609Q120 639 140 660.5Q160 682 190 682Q221 682 242 660.5Q263 639 263 609Q263 579 242 558Q221 537 190 537Q160 537 140 558Q120 579 120 609ZM329 609Q329 639 349.5 660.5Q370 682 400 682Q431 682 451.5 660.5Q472 639 472 609Q472 579 451.5 558Q431 537 400 537Q370 537 349.5 558Q329 579 329 609Z" glyph-name="udieresis" horiz-adv-x="593" unicode="ü" /><glyph d="M349 87 213 -223Q203 -246 189 -261Q175 -276 149 -276H138L259 -3L73 406Q65 423 57 429.5Q49 436 38 436H14V478H269V436H210Q209 434 209 432Q208 426 208 420Q208 415 209.5 406.5Q211 398 218 384ZM368 210 433 381Q443 407 443 421Q443 429 440 436H365V478H555V436H530Q520 436 511 429.5Q502 423 494 406L390 161ZM-17 -203Q-17 -172 4.5 -149.5Q26 -127 58 -127Q89 -127 111.5 -149.5Q134 -172 134 -203Q134 -235 111.5 -256.5Q89 -278 58 -278Q26 -278 4.5 -256.5Q-17 -235 -17 -203ZM277 535 222 535L319 675H424Z" glyph-name="yacute" horiz-adv-x="560" unicode="ý" /><glyph d="M97 643Q97 656 95 664.5Q93 673 91 678H39V720H216V-185Q216 -198 218 -206.5Q220 -215 222 -220H293V-262H39V-220H91Q93 -215 95 -206.5Q97 -198 97 -185ZM560 247Q560 196 548 150Q536 104 512 69.5Q488 35 452 14.5Q416 -6 369 -6Q346 -6 323.5 -1Q301 4 285 12V51Q302 46 309.5 44.5Q317 43 325 43Q363 43 384.5 60.5Q406 78 416.5 106.5Q427 135 429.5 171.5Q432 208 432 246Q432 280 430 314Q428 348 418 375Q408 402 387 418.5Q366 435 329 435Q321 435 311.5 433.5Q302 432 285 427V466Q301 474 324 479Q347 484 372 484Q420 484 455 465.5Q490 447 513.5 415Q537 383 548.5 340Q560 297 560 247Z" glyph-name="thorn" horiz-adv-x="614" unicode="þ" /><glyph d="M349 87 213 -223Q203 -246 189 -261Q175 -276 149 -276H138L259 -3L73 406Q65 423 57 429.5Q49 436 38 436H14V478H269V436H210Q209 434 209 432Q208 426 208 420Q208 415 209.5 406.5Q211 398 218 384ZM368 210 433 381Q443 407 443 421Q443 429 440 436H365V478H555V436H530Q520 436 511 429.5Q502 423 494 406L390 161ZM-17 -203Q-17 -172 4.5 -149.5Q26 -127 58 -127Q89 -127 111.5 -149.5Q134 -172 134 -203Q134 -235 111.5 -256.5Q89 -278 58 -278Q26 -278 4.5 -256.5Q-17 -235 -17 -203ZM109 609Q109 639 129 660.5Q149 682 179 682Q210 682 231 660.5Q252 639 252 609Q252 579 231 558Q210 537 179 537Q149 537 129 558Q109 579 109 609ZM318 609Q318 639 338.5 660.5Q359 682 389 682Q420 682 440.5 660.5Q461 639 461 609Q461 579 440.5 558Q420 537 389 537Q359 537 338.5 558Q318 579 318 609Z" glyph-name="ydieresis" horiz-adv-x="570" unicode="ÿ" /><glyph d="M89 391Q89 404 87 412.5Q85 421 83 426H31V468H209V77Q209 64 211 55.5Q213 47 215 42H267V0H31V42H83Q85 47 87 55.5Q89 64 89 77Z" glyph-name="dotlessi" horiz-adv-x="288" unicode="ı" /><glyph d="M140 328 140 623Q140 636 138 644.5Q136 653 134 658H56V700H370V658H273Q271 653 269 644.5Q267 636 267 623V379L453 453V408L267 333V0H56V42H134Q136 47 138 55.5Q140 64 140 77V282L55 248V294ZM531 42Q543 42 551.5 44Q560 46 564 48L593 160H633V0H335V42Z" glyph-name="Lslash" horiz-adv-x="688" unicode="Ł" /><glyph d="M89 367 89 623Q89 636 87 644.5Q85 653 83 658H31V700H209V415L267 438V394L209 370V77Q209 64 211 55.5Q213 47 215 42H267V0H31V42H83Q85 47 87 55.5Q89 64 89 77V322L31 299V344Z" glyph-name="lslash" horiz-adv-x="308" unicode="ł" /><glyph d="M947 381Q955 381 963.5 382Q972 383 980 387L999 494H1039V216H999L980 323Q975 325 967.5 327Q960 329 947 329L776 334V0H565V42H643Q648 52 648 77V623Q648 648 643 658H565V700H776V376ZM844 658 844 700H1151V540H1111L1083 652Q1078 654 1070 656Q1062 658 1049 658ZM844 42 1078 42Q1090 42 1098 44Q1106 46 1111 48L1140 160H1180V0H844ZM194 347Q194 263 206 205Q218 147 244 111Q270 75 310.5 58.5Q351 42 407 42H496V0H377Q303 0 244 26Q185 52 144 98.5Q103 145 81.5 209.5Q60 274 60 352Q60 433 83 497.5Q106 562 148.5 607Q191 652 251 676Q311 700 385 700H496V658H416Q358 658 316 642Q274 626 247 589.5Q220 553 207 493.5Q194 434 194 347Z" glyph-name="OE" horiz-adv-x="1235" unicode="Œ" /><glyph d="M336 484Q380 484 414.5 466.5Q449 449 475 418Q501 450 535 467Q569 484 614 484V445Q570 441 556 408.5Q542 376 542 312V288H745V312Q745 344 743.5 367.5Q742 391 735.5 407Q729 423 716.5 432Q704 441 682 445V484Q718 484 751 470Q784 456 809.5 428Q835 400 850.5 358.5Q866 317 866 262V246H542V242Q542 183 543.5 145Q545 107 552.5 84Q560 61 574.5 50Q589 39 614 34V-6Q569 -6 535 11Q501 28 475 59Q449 28 414.5 11Q380 -6 336 -6V34Q364 37 379.5 47Q395 57 402.5 79.5Q410 102 411.5 140.5Q413 179 413 239Q413 299 411.5 337Q410 375 402.5 398Q395 421 379.5 431.5Q364 442 336 445ZM267 445Q239 442 223.5 431.5Q208 421 200.5 398Q193 375 191.5 337Q190 299 190 239Q190 179 191.5 140.5Q193 102 200.5 79.5Q208 57 223.5 47Q239 37 267 34V-6Q222 -6 184.5 12Q147 30 119.5 62.5Q92 95 76.5 140Q61 185 61 239Q61 293 76.5 338Q92 383 119.5 415.5Q147 448 184.5 466Q222 484 267 484ZM862 138Q859 110 847 84Q835 58 814.5 38Q794 18 764 6Q734 -6 695 -6H682V34H691Q738 34 774 60Q810 86 815 138Z" glyph-name="oe" horiz-adv-x="922" unicode="œ" /><glyph d="M55 504Q55 551 71.5 588Q88 625 116.5 651.5Q145 678 183.5 692Q222 706 267 706V664Q245 663 225 657Q205 651 190 638Q175 625 166 605.5Q157 586 157 559Q157 511 184.5 485Q212 459 260 443Q303 429 357 416.5Q411 404 459 381.5Q507 359 539.5 320Q572 281 572 213Q572 167 555.5 126.5Q539 86 508 57Q477 28 434 11Q391 -6 337 -6V36Q360 37 384 43.5Q408 50 427 63.5Q446 77 458 99Q470 121 470 152Q470 198 444.5 223.5Q419 249 379.5 264.5Q340 280 291.5 291Q243 302 198 319Q168 330 142 346Q116 362 96.5 384Q77 406 66 435.5Q55 465 55 504ZM464 522Q459 566 444 593Q429 620 410 635Q391 650 371 656Q351 662 336 664V706Q383 706 416.5 689.5Q450 673 469 647L482 700H522V522ZM107 218Q111 185 120.5 153.5Q130 122 148 97Q166 72 195 55.5Q224 39 268 36V-6Q222 -6 182.5 7Q143 20 119 50L102 0H62V218ZM376 917 429 917L318 757H274L163 917H216L296 829Z" glyph-name="Scaron" horiz-adv-x="592" unicode="Š" /><glyph d="M45 339Q45 375 57.5 402.5Q70 430 91.5 448Q113 466 141 475Q169 484 200 484V443Q165 441 150 426.5Q135 412 135 389Q135 359 157.5 343Q180 327 214 316.5Q248 306 287 297.5Q326 289 360 272.5Q394 256 416.5 228Q439 200 439 152Q439 130 432.5 102.5Q426 75 407 51Q388 27 355.5 10.5Q323 -6 270 -6V35Q312 35 328.5 56.5Q345 78 345 103Q345 136 323 152.5Q301 169 267.5 178.5Q234 188 195 196Q156 204 122.5 219Q89 234 67 262Q45 290 45 339ZM98 163Q100 127 109 102.5Q118 78 132.5 63.5Q147 49 165 42.5Q183 36 202 35V-6Q157 -6 131.5 6.5Q106 19 98 31L89 -2H52V163ZM405 482 405 348H361Q361 388 335 414Q309 440 269 443V484Q295 484 319 475.5Q343 467 355 454L365 482ZM314 695 367 695L256 535H212L101 695H154L234 607Z" glyph-name="scaron" horiz-adv-x="469" unicode="š" /><glyph d="M230 0 230 42H308Q313 52 313 77V273L99 628Q80 658 60 658H15V700H303V658H239Q240 647 243 635.5Q246 624 257 606L441 300V77Q441 64 442.5 55.5Q444 47 446 42H524V0ZM445 401 583 616Q591 627 595.5 637Q600 647 600 658H501V700H744V658H699Q689 658 673.5 650.5Q658 643 643 620L470 360ZM206 851Q206 881 226 902.5Q246 924 276 924Q307 924 328 902.5Q349 881 349 851Q349 821 328 800Q307 779 276 779Q246 779 226 800Q206 821 206 851ZM415 851Q415 881 435.5 902.5Q456 924 486 924Q517 924 537.5 902.5Q558 881 558 851Q558 821 537.5 800Q517 779 486 779Q456 779 435.5 800Q415 821 415 851Z" glyph-name="Ydieresis" horiz-adv-x="759" unicode="Ÿ" /><glyph d="M45 13 528 700H657V689L176 0H45ZM554 42Q566 42 574.5 44Q583 46 588 48L616 160H656V0H253L282 42ZM160 658Q148 658 139.5 656Q131 654 127 652L98 540H58V700H451L420 658ZM431 917 484 917L373 757H329L218 917H271L351 829Z" glyph-name="Zcaron" horiz-adv-x="702" unicode="Ž" /><glyph d="M458 478 458 439L157 0H25L348 478ZM77 346 38 346V478H273L243 436H97Q92 431 88 416.5Q84 402 82 389ZM433 142 472 142V0H232L259 42H413Q418 47 422.5 61.5Q427 76 429 89ZM328 695 381 695L270 535H226L115 695H168L248 607Z" glyph-name="zcaron" horiz-adv-x="497" unicode="ž" /><glyph d="M259 -171Q259 -213 230.5 -240.5Q202 -268 139 -268V246H43V288H139V603Q139 645 167.5 672.5Q196 700 259 700V288H355V246H259ZM359 623Q359 636 357 644.5Q355 653 353 658H327V700H401V598H359ZM39 -191Q39 -204 41 -212.5Q43 -221 45 -226H71V-268H-3V-166H39Z" glyph-name="florin" horiz-adv-x="396" unicode="ƒ" /><glyph d="M208 623 128 535H75L186 695H230L341 535H288Z" glyph-name="circumflex" horiz-adv-x="416" unicode="ˆ" /><glyph d="M288 695 341 695L230 535H186L75 695H128L208 607Z" glyph-name="caron" horiz-adv-x="416" unicode="ˇ" /><glyph d="M288 626Q288 585 261 561Q234 537 181 537Q128 537 101.5 561Q75 585 75 626V675H115V648Q115 615 132 605Q149 595 181 595Q213 595 230.5 605Q248 615 248 648V675H288Z" glyph-name="breve" horiz-adv-x="363" unicode="˘" /><glyph d="M75 589Q75 619 95.5 640.5Q116 662 146 662Q176 662 197 640.5Q218 619 218 589Q218 559 197 538Q176 517 146 517Q116 517 95.5 538Q75 559 75 589Z" glyph-name="dotaccent" horiz-adv-x="293" unicode="˙" /><glyph d="M75 639Q75 661 83.5 680.5Q92 700 106 714.5Q120 729 139.5 737.5Q159 746 181 746Q203 746 222.5 737.5Q242 729 256.5 714.5Q271 700 279.5 680.5Q288 661 288 639Q288 617 279.5 597.5Q271 578 256.5 564Q242 550 222.5 541.5Q203 533 181 533Q159 533 139.5 541.5Q120 550 106 564Q92 578 83.5 597.5Q75 617 75 639ZM116 639Q116 609 133.5 589Q151 569 181 569Q211 569 229 589Q247 609 247 639Q247 669 229 689.5Q211 710 181 710Q151 710 133.5 689.5Q116 669 116 639Z" glyph-name="ring" horiz-adv-x="363" unicode="˚" /><glyph d="M247 16Q202 -10 176.5 -47Q151 -84 151 -123Q151 -143 157.5 -156Q164 -169 175 -176.5Q186 -184 200 -187Q214 -190 229 -190Q251 -190 275 -184.5Q299 -179 324 -169V-199Q301 -215 267 -225.5Q233 -236 198 -236Q174 -236 151.5 -230Q129 -224 112 -211Q95 -198 85 -178Q75 -158 75 -130Q75 -91 93.5 -63Q112 -35 136 -16Q160 3 184 13Q208 23 218 26Z" glyph-name="ogonek" horiz-adv-x="399" unicode="˛" /><glyph d="M311 536Q292 536 271.5 542.5Q251 549 230.5 557Q210 565 191.5 571.5Q173 578 156 578Q140 578 121 569Q102 560 93 536L75 564Q78 582 87.5 596.5Q97 611 110.5 621Q124 631 139.5 636Q155 641 170 641Q188 641 206.5 634.5Q225 628 244.5 620Q264 612 284 605.5Q304 599 324 599Q342 599 360 607.5Q378 616 386 641L404 609Q399 574 370.5 555Q342 536 311 536Z" glyph-name="tilde" horiz-adv-x="479" unicode="˜" /><glyph d="M130 535 75 535L172 675H276ZM275 535 219 535L316 675H421Z" glyph-name="hungarumlaut" horiz-adv-x="496" unicode="˝" /><glyph d="M99 391Q99 404 97 412.5Q95 421 93 426H41V468H219V77Q219 52 224 42H277V0H41V42H93Q95 47 97 55.5Q99 64 99 77ZM636 468 636 426H525V99Q525 78 533 63.5Q541 49 564 49Q587 49 597.5 64Q608 79 608 106V129H646V105Q646 54 617 25.5Q588 -3 530 -3Q496 -3 472 7Q448 17 433.5 33Q419 49 412.5 69.5Q406 90 406 110V426H287V468Z" glyph-name="pi" horiz-adv-x="677" unicode="π" /><glyph d="M75 272 75 324H463V272Z" glyph-name="endash" horiz-adv-x="538" unicode="–" /><glyph d="M75 272 75 324H814V272Z" glyph-name="emdash" horiz-adv-x="889" unicode="—" /><glyph d="M301 669Q260 657 232.5 639.5Q205 622 188 601Q171 580 162 557Q153 534 148 511H161Q205 511 225 487Q245 463 245 433Q245 397 221 375Q197 353 162 353Q144 353 127.5 359.5Q111 366 98.5 379.5Q86 393 78 414.5Q70 436 70 466Q70 508 85.5 546Q101 584 129 616Q157 648 196.5 671Q236 694 284 706Z" glyph-name="quoteleft" horiz-adv-x="318" unicode="‘" /><glyph d="M18 390Q59 402 86.5 420Q114 438 131 459Q148 480 157.5 503Q167 526 171 548H158Q114 548 94 572Q74 596 74 626Q74 662 98.5 684Q123 706 158 706Q175 706 191.5 699.5Q208 693 221 679.5Q234 666 241.5 644.5Q249 623 249 593Q249 551 233.5 513Q218 475 190 443Q162 411 122.5 388Q83 365 35 353Z" glyph-name="quoteright" horiz-adv-x="319" unicode="’" /><glyph d="M-21 -164Q20 -152 47.5 -134.5Q75 -117 92 -96Q109 -75 118.5 -52Q128 -29 132 -6H119Q75 -6 55 18Q35 42 35 72Q35 107 59 129.5Q83 152 117 152Q132 152 149 147Q166 142 181 129Q196 116 206 94Q216 72 216 39Q216 -1 200.5 -38.5Q185 -76 156.5 -108Q128 -140 87 -164.5Q46 -189 -4 -201Z" glyph-name="quotesinglbase" horiz-adv-x="257" unicode="‚" /><glyph d="M535 669Q494 657 466.5 639.5Q439 622 422 601Q405 580 396 557Q387 534 382 511H395Q440 511 459 487Q478 463 478 434Q478 397 454 375Q430 353 395 353Q378 353 361.5 359Q345 365 332 378.5Q319 392 311 413Q303 434 303 465Q303 507 318.5 545Q334 583 362 615Q390 647 429.5 670.5Q469 694 517 706ZM302 669Q261 657 233.5 639.5Q206 622 188.5 601Q171 580 162 557Q153 534 149 511H161Q206 511 225.5 487Q245 463 245 433Q245 397 221 375Q197 353 162 353Q145 353 128.5 359Q112 365 99 378.5Q86 392 78 413Q70 434 70 465Q70 507 85.5 545Q101 583 129 615Q157 647 196.5 670.5Q236 694 284 706Z" glyph-name="quotedblleft" horiz-adv-x="553" unicode="“" /><glyph d="M19 390Q60 402 87.5 420Q115 438 132 459Q149 480 158.5 503Q168 526 172 548H159Q114 548 95 572Q76 596 76 625Q76 662 100 684Q124 706 159 706Q176 706 192.5 700Q209 694 222 680.5Q235 667 243 646Q251 625 251 594Q251 552 235.5 514Q220 476 192 444Q164 412 124.5 388.5Q85 365 37 353ZM252 390Q293 402 320.5 420Q348 438 365.5 459Q383 480 392 503Q401 526 405 548H393Q348 548 328.5 572Q309 596 309 626Q309 662 333 684Q357 706 392 706Q409 706 425.5 700Q442 694 455 680.5Q468 667 476 646Q484 625 484 594Q484 552 468.5 514Q453 476 425 444Q397 412 357.5 388.5Q318 365 270 353Z" glyph-name="quotedblright" horiz-adv-x="553" unicode="”" /><glyph d="M19 -164Q60 -152 87.5 -134.5Q115 -117 132 -96Q149 -75 158.5 -52Q168 -29 172 -6H159Q114 -6 95 18Q76 42 76 71Q76 108 100 130Q124 152 159 152Q176 152 192.5 146Q209 140 222 126.5Q235 113 243 92Q251 71 251 40Q251 -2 235.5 -40Q220 -78 192 -110Q164 -142 124.5 -165.5Q85 -189 37 -201ZM252 -164Q293 -152 320.5 -134.5Q348 -117 365.5 -96Q383 -75 392 -52Q401 -29 405 -6H393Q348 -6 328.5 18Q309 42 309 72Q309 108 333 130Q357 152 392 152Q409 152 425.5 146Q442 140 455 126.5Q468 113 476 92Q484 71 484 40Q484 -2 468.5 -40Q453 -78 425 -110Q397 -142 357.5 -165.5Q318 -189 270 -201Z" glyph-name="quotedblbase" horiz-adv-x="553" unicode="„" /><glyph d="M280 387 75 347V479L280 439L223 700H386L329 439L526 479V347L329 387L396 0L305 -135L214 0Z" glyph-name="dagger" horiz-adv-x="601" unicode="†" /><glyph d="M280 457 75 417V549L280 509L223 730H386L329 509L526 549V417L329 457L396 350L329 243L526 283V151L329 191L386 -30H223L280 191L75 151V283L280 243L214 350Z" glyph-name="daggerdbl" horiz-adv-x="601" unicode="‡" /><glyph d="M75 356Q75 387 86.5 414Q98 441 118 461Q138 481 164.5 492.5Q191 504 222 504Q253 504 280 492.5Q307 481 327 461Q347 441 358.5 414Q370 387 370 356Q370 325 358.5 298.5Q347 272 327 252Q307 232 280 220.5Q253 209 222 209Q191 209 164.5 220.5Q138 232 118 252Q98 272 86.5 298.5Q75 325 75 356Z" glyph-name="bullet" horiz-adv-x="445" unicode="•" /><glyph d="M75 70Q75 102 97.5 125.5Q120 149 153 149Q185 149 208.5 125.5Q232 102 232 70Q232 37 208.5 14.5Q185 -8 153 -8Q120 -8 97.5 14.5Q75 37 75 70ZM396 70Q396 102 418.5 125.5Q441 149 474 149Q506 149 530 125.5Q554 102 554 70Q554 37 530 14.5Q506 -8 474 -8Q441 -8 418.5 14.5Q396 37 396 70ZM718 70Q718 102 740.5 125.5Q763 149 796 149Q829 149 852 125.5Q875 102 875 70Q875 37 852 14.5Q829 -8 796 -8Q763 -8 740.5 14.5Q718 37 718 70Z" glyph-name="ellipsis" horiz-adv-x="950" unicode="…" /><glyph d="M179 -6 143 29L788 718L824 683ZM708 -6Q670 -6 638.5 9Q607 24 584.5 49.5Q562 75 550 110.5Q538 146 538 186Q538 226 550 261Q562 296 584.5 322.5Q607 349 638.5 364Q670 379 708 379Q746 379 777.5 364Q809 349 831.5 322.5Q854 296 866.5 261Q879 226 879 186Q879 146 866.5 110.5Q854 75 831.5 49.5Q809 24 777.5 9Q746 -6 708 -6ZM708 340Q685 340 672.5 332Q660 324 654 306Q648 288 646.5 258Q645 228 645 184Q645 140 646.5 111Q648 82 654 64.5Q660 47 672.5 40Q685 33 708 33Q731 33 743.5 40Q756 47 762 64.5Q768 82 769.5 111Q771 140 771 184Q771 228 769.5 258Q768 288 762 306Q756 324 743.5 332Q731 340 708 340ZM245 315Q207 315 175.5 330Q144 345 121.5 370.5Q99 396 87 431.5Q75 467 75 507Q75 547 87 582Q99 617 121.5 643.5Q144 670 175.5 685Q207 700 245 700Q284 700 315.5 685Q347 670 369.5 643.5Q392 617 404 582Q416 547 416 507Q416 467 404 431.5Q392 396 369.5 370.5Q347 345 315.5 330Q284 315 245 315ZM245 661Q222 661 209.5 653Q197 645 191 627Q185 609 183.5 579.5Q182 550 182 506Q182 462 183.5 432.5Q185 403 191 385.5Q197 368 209.5 361Q222 354 245 354Q268 354 281 361.5Q294 369 300 386.5Q306 404 307.5 433Q309 462 309 506Q309 550 307.5 579.5Q306 609 300 627Q294 645 281 653Q268 661 245 661ZM1119 -6Q1081 -6 1049.5 9Q1018 24 995.5 49.5Q973 75 961 110.5Q949 146 949 186Q949 226 961 261Q973 296 995.5 322.5Q1018 349 1049.5 364Q1081 379 1119 379Q1158 379 1189.5 364Q1221 349 1243.5 322.5Q1266 296 1278 261Q1290 226 1290 186Q1290 146 1278 110.5Q1266 75 1243.5 49.5Q1221 24 1189.5 9Q1158 -6 1119 -6ZM1119 340Q1096 340 1083.5 332Q1071 324 1065 306Q1059 288 1057.5 258.5Q1056 229 1056 185Q1056 141 1057.5 111.5Q1059 82 1065 64.5Q1071 47 1083.5 40Q1096 33 1119 33Q1142 33 1155 40.5Q1168 48 1174 65.5Q1180 83 1181.5 112Q1183 141 1183 185Q1183 229 1181.5 258.5Q1180 288 1174 306Q1168 324 1155 332Q1142 340 1119 340Z" glyph-name="perthousand" horiz-adv-x="1365" unicode="‰" /><glyph d="M208 365 361 161L323 125L75 342V388L323 605L361 569Z" glyph-name="guilsinglleft" horiz-adv-x="436" unicode="‹" /><glyph d="M75 569 113 605L361 388V342L113 125L75 161L227 365Z" glyph-name="guilsinglright" horiz-adv-x="436" unicode="›" /><glyph d="M40 -16 2 19L595 733L633 698Z" glyph-name="fraction" horiz-adv-x="635" unicode="⁄" /><glyph d="M143 456Q156 512 183 558Q210 604 250.5 637Q291 670 345.5 688Q400 706 467 706V664Q378 656 331.5 607.5Q285 559 271 456H535V404H266Q265 391 265 377.5Q265 364 265 350Q265 336 265 322.5Q265 309 266 296H535V244H271Q285 141 331.5 92.5Q378 44 467 36V-6Q400 -6 345.5 12Q291 30 250.5 63Q210 96 183 142Q156 188 143 244H75V296H134Q131 322 131 350Q131 377 134 404H75V456ZM732 472Q728 502 714 535.5Q700 569 676 597Q652 625 617 644Q582 663 535 664V706Q583 706 618 691.5Q653 677 676 660Q702 639 720 613L736 700H776V472ZM776 228 776 0H736L720 87Q702 61 676 41Q651 22 617 8Q583 -6 535 -6V36Q582 37 617 56Q652 75 676 103Q700 131 714 164.5Q728 198 732 228Z" glyph-name="Euro" horiz-adv-x="851" unicode="€" /><glyph d="M385 662 385 700H530V575H500L484 658Q478 662 465 662ZM191 267 191 305H256Q258 308 259 312.5Q260 317 260 325V700H346V325Q346 317 347 312.5Q348 308 350 305H414V267ZM221 662 141 662Q133 662 129 661Q125 660 122 658L106 575H75V700H221ZM912 512 1035 700H1188V662H1128Q1126 659 1125 654.5Q1124 650 1124 642V325Q1124 317 1125 312.5Q1126 308 1128 305H1188V267H975V305H1034Q1036 308 1037 312.5Q1038 317 1038 325V642L934 483ZM856 368 640 662H593V700H725L912 442L870 368ZM647 305Q649 308 650 312.5Q651 317 651 325V578L696 520V325Q696 317 697 312.5Q698 308 699 305H755V267H589V305Z" glyph-name="trademark" horiz-adv-x="1263" unicode="™" /><glyph d="M209 444Q209 376 220.5 333.5Q232 291 252 267.5Q272 244 300.5 235.5Q329 227 363 226V0H123V175H163L178 102Q183 100 193 98Q203 96 216 96H318V184Q283 187 240.5 199Q198 211 161.5 239.5Q125 268 100 315.5Q75 363 75 435Q75 511 103 562.5Q131 614 177 646Q223 678 281.5 692Q340 706 401 706V664Q349 663 312.5 652Q276 641 253 615.5Q230 590 219.5 548Q209 506 209 444ZM661 444Q661 506 650.5 548Q640 590 617 615.5Q594 641 557.5 652Q521 663 469 664V706Q530 706 588.5 692Q647 678 693 646Q739 614 767 562.5Q795 511 795 435Q795 363 770.5 315.5Q746 268 709 239.5Q672 211 629.5 199Q587 187 552 184V96H654Q667 96 677 98Q687 100 691 102L707 175H747V0H507V226Q541 227 569.5 235.5Q598 244 618 267.5Q638 291 649.5 333.5Q661 376 661 444Z" glyph-name="Omega" horiz-adv-x="870" unicode="Ω" /><glyph d="M327 484Q333 484 343.5 483Q354 482 364.5 479.5Q375 477 384.5 473.5Q394 470 399 464Q383 497 351.5 532.5Q320 568 282.5 601Q245 634 204.5 662Q164 690 130 707L152 739Q183 729 223 709Q263 689 305.5 659Q348 629 388.5 590Q429 551 461.5 503.5Q494 456 513.5 400.5Q533 345 533 282V239Q533 185 517.5 140Q502 95 475 62.5Q448 30 410 12Q372 -6 327 -6V34Q355 37 370.5 47Q386 57 393.5 79.5Q401 102 402.5 140.5Q404 179 404 239Q404 299 402.5 337Q401 375 393.5 398Q386 421 370.5 431.5Q355 442 327 445ZM259 445Q231 442 215.5 431.5Q200 421 192.5 398Q185 375 183.5 337Q182 299 182 239Q182 179 183.5 140.5Q185 102 192.5 79.5Q200 57 215.5 47Q231 37 259 34V-6Q214 -6 176 12Q138 30 111 62.5Q84 95 68.5 140Q53 185 53 239Q53 293 68.5 338Q84 383 111 415.5Q138 448 176 466Q214 484 259 484Z" glyph-name="partialdiff" horiz-adv-x="586" unicode="∂" /><glyph d="M777 21 777 0H75V21L414 700H438ZM426 630 135 42H717Z" glyph-name="Delta" horiz-adv-x="852" unicode="∆" /><glyph d="M404 658 272 658Q270 654 268 647Q266 640 266 630V77Q266 64 268 55.5Q270 47 272 42H350V0H55V42H133Q135 47 137 55.5Q139 64 139 77V623Q139 636 137 644.5Q135 653 133 658H55V700H404ZM472 700 821 700V658H743Q741 653 739 644.5Q737 636 737 623V77Q737 64 739 55.5Q741 47 743 42H821V0H526V42H604Q606 47 608 55.5Q610 64 610 77V623Q610 636 608 644.5Q606 653 604 658H472Z" glyph-name="product" horiz-adv-x="876" unicode="∏" /><glyph d="M421 358 110 0H72V32L313 311L51 663V700H188L421 385ZM268 700 649 700V540H609L580 652Q575 654 567 656Q559 658 547 658H297ZM556 42Q569 42 577 44Q585 46 590 48L618 160H658V0H193L228 42Z" glyph-name="summation" horiz-adv-x="699" unicode="∑" /><glyph d="M382 366 382 314H75V366Z" glyph-name="minus" horiz-adv-x="457" unicode="−" /><glyph d="M388 87 346 -6H300L112 406Q104 423 96 429.5Q88 436 77 436H53V478H308V436H249Q246 430 246 422Q246 412 249.5 401.5Q253 391 257 383ZM429 161 407 210L674 869H722Z" glyph-name="radical" horiz-adv-x="775" unicode="√" /><glyph d="M358 199Q337 137 301 110Q265 83 224 83Q194 83 167 97.5Q140 112 119.5 141Q99 170 87 213.5Q75 257 75 316H115Q125 256 156.5 229Q188 202 231 202Q246 202 262.5 205Q279 208 294 213Q309 218 321 225.5Q333 233 339 242ZM468 495Q488 555 524 583Q560 611 603 611Q633 611 659.5 598Q686 585 706.5 557Q727 529 739 486Q751 443 751 384H711Q701 443 669 473Q637 503 592 503Q557 503 530 487.5Q503 472 486 454ZM626 195Q654 195 671 207.5Q688 220 697 238.5Q706 257 708.5 277Q711 297 711 312H751Q751 253 737 209.5Q723 166 699 138Q675 110 643.5 96.5Q612 83 578 83Q523 83 485.5 113.5Q448 144 420 190Q392 236 370.5 289Q349 342 326 388Q303 434 275.5 464.5Q248 495 209 495Q187 495 170 485.5Q153 476 141 460Q129 444 122.5 424Q116 404 115 384H75Q75 434 87.5 475.5Q100 517 122.5 547Q145 577 176.5 594Q208 611 247 611Q301 611 337.5 580Q374 549 401.5 503Q429 457 451 403Q473 349 497.5 303Q522 257 552 226Q582 195 626 195Z" glyph-name="infinity" horiz-adv-x="826" unicode="∞" /><glyph d="M139 603Q139 645 167.5 672.5Q196 700 259 700V-171Q259 -213 230.5 -240.5Q202 -268 139 -268ZM359 623Q359 636 357 644.5Q355 653 353 658H327V700H401V598H359ZM39 -191Q39 -204 41 -212.5Q43 -221 45 -226H71V-268H-3V-166H39Z" glyph-name="integral" horiz-adv-x="396" unicode="∫" /><glyph d="M375 454Q387 454 395.5 465.5Q404 477 406 512L449 506Q449 472 441 452Q433 432 421.5 421.5Q410 411 397.5 407.5Q385 404 375 404Q354 404 320.5 413Q287 422 252.5 432.5Q218 443 188.5 451.5Q159 460 148 460Q139 460 129 449.5Q119 439 118 403L75 409Q75 443 83 463Q91 483 102.5 493.5Q114 504 126 507.5Q138 511 147 511Q166 511 199 502Q232 493 267 482.5Q302 472 332 463Q362 454 375 454ZM375 284Q387 284 395.5 295.5Q404 307 406 342L449 336Q449 302 441 282Q433 262 421.5 251.5Q410 241 397.5 237.5Q385 234 375 234Q354 234 320.5 243Q287 252 252.5 262.5Q218 273 188.5 281.5Q159 290 148 290Q139 290 129 279.5Q119 269 118 233L75 239Q75 273 83 293Q91 313 102.5 323.5Q114 334 126 337.5Q138 341 147 341Q166 341 199 332Q232 323 267 312.5Q302 302 332 293Q362 284 375 284Z" glyph-name="approxequal" horiz-adv-x="524" unicode="≈" /><glyph d="M254 244 254 95H204V244H75V296H204V404H75V456H204V610H254V456H383V404H254V296H383V244Z" glyph-name="notequal" horiz-adv-x="458" unicode="≠" /><glyph d="M133 430 495 258V193L75 397V463L495 667V602ZM495 0 75 0V55H495Z" glyph-name="lessequal" horiz-adv-x="570" unicode="≤" /><glyph d="M75 55 495 55V0H75ZM75 602 75 667L495 463V397L75 193V258L437 430Z" glyph-name="greaterequal" horiz-adv-x="570" unicode="≥" /><glyph d="M609 346 360 -156H324L75 346V364L324 866H360L609 364ZM342 807 120 355L342 -97L563 355Z" glyph-name="lozenge" horiz-adv-x="684" unicode="◊" /><glyph d="M418 391Q418 404 416 412.5Q414 421 412 426H217V77Q217 64 219 55.5Q221 47 223 42H285V0H40V42H92Q94 47 96 55.5Q98 64 98 77V426H40V468H98V603Q98 645 126 672.5Q154 700 217 700V468H537V77Q537 64 539 55.5Q541 47 543 42H595V0H360V42H412Q414 47 416 55.5Q418 64 418 77ZM446 623Q446 636 444.5 644.5Q443 653 441 658H286V700H489V578H446Z" glyph-name="fi" horiz-adv-x="625" unicode="ﬁ" /><glyph d="M217 468 313 468V426H217V77Q217 64 219 55.5Q221 47 223 42H285V0H40V42H92Q94 47 96 55.5Q98 64 98 77V426H40V468H98V603Q98 645 126 672.5Q154 700 217 700ZM418 623Q418 636 416 644.5Q414 653 412 658H286V700H537V77Q537 64 539 55.5Q541 47 543 42H595V0H360V42H412Q414 47 416 55.5Q418 64 418 77Z" glyph-name="fl" horiz-adv-x="645" unicode="ﬂ" /><glyph d="M1136 472Q1136 541 1112 602Q1088 663 1043 708Q1004 746 953.5 766.5Q903 787 845 787Q779 787 725 762.5Q671 738 628 700Q578 743 523 765.5Q468 788 408 788Q349 788 299.5 767Q250 746 213 710Q168 665 143.5 603Q119 541 119 472Q119 400 144 331.5Q169 263 208 205Q238 160 281.5 113.5Q325 67 378 25Q423 -11 465.5 -38.5Q508 -66 541.5 -85Q575 -104 596 -114Q617 -124 618 -124Q627 -128 635 -124Q640 -122 662.5 -111Q685 -100 718.5 -81.5Q752 -63 793 -36.5Q834 -10 876 24Q981 108 1046 203Q1088 264 1112 332Q1136 400 1136 472ZM1080 734Q1128 684 1154 615.5Q1180 547 1180 472Q1180 399 1156 329.5Q1132 260 1092 197Q1052 134 999 78Q946 22 888 -24Q830 -70 770.5 -105Q711 -140 657 -162Q635 -171 625 -170.5Q615 -170 595 -162Q538 -139 477 -102Q416 -65 358 -18Q300 29 248.5 85Q197 141 158.5 204Q120 267 97.5 335Q75 403 75 474Q75 550 101.5 618.5Q128 687 177 737Q222 782 280.5 806Q339 830 408 830Q477 830 531.5 807Q586 784 632 744Q726 828 849 828Q915 828 975 804.5Q1035 781 1080 734ZM626 506Q577 506 535 520Q555 555 578 588.5Q601 622 628 650Q653 624 676 591Q699 558 720 521Q699 513 674.5 509.5Q650 506 626 506ZM1018 492Q1017 496 1013.5 498.5Q1010 501 1008 502Q1006 503 1001.5 503Q997 503 994 501L865 439Q859 435 856.5 428.5Q854 422 857 415L903 310Q910 294 926 301Q934 304 936.5 311Q939 318 937 324L897 414L929 429L944 396Q947 389 954 386.5Q961 384 968 387Q984 394 977 411L962 445L993 460L1025 388Q1028 381 1035 378.5Q1042 376 1049 379Q1055 382 1058 389Q1061 396 1057 403ZM844 545Q849 535 858.5 527Q868 519 879 515Q891 511 906 512.5Q921 514 935 522Q960 536 969 562Q978 588 966 611L934 678Q930 686 922.5 687.5Q915 689 908 686L774 612Q765 607 764.5 601Q764 595 767 587Q771 579 776 578Q781 577 792 581Q801 584 810 590Q814 592 818 595ZM775 97Q775 105 770 110Q765 115 757 115H578Q605 129 635.5 147.5Q666 166 691.5 189Q717 212 734 241Q751 270 751 305Q751 328 743 350Q735 372 719.5 389Q704 406 681 417Q658 428 628 428Q601 428 577.5 419.5Q554 411 536 395.5Q518 380 508 359.5Q498 339 498 315Q498 297 504 279.5Q510 262 521 248.5Q532 235 548 227Q564 219 583 219Q597 219 611 223Q625 227 636 236Q647 245 654.5 258.5Q662 272 662 291Q662 319 649 327.5Q636 336 626 336Q612 336 602.5 326.5Q593 317 593 303Q593 294 597 288Q601 282 608 277Q610 275 606 265Q602 255 583 255Q559 255 547.5 274.5Q536 294 536 315Q536 348 560.5 370.5Q585 393 624 393Q668 393 689.5 365.5Q711 338 711 306Q711 283 701 262.5Q691 242 675 224.5Q659 207 639.5 192.5Q620 178 602 166Q584 155 567 145.5Q550 136 536 128.5Q522 121 513 116.5Q504 112 502 110Q500 108 498 101.5Q496 95 498 90Q500 86 504 82.5Q508 79 516 79H756Q775 79 775 97ZM255 412 369 372Q376 369 383 372Q390 375 392 383Q395 390 391.5 397Q388 404 380 406L266 447L280 494Q283 502 279.5 508.5Q276 515 269 517Q262 519 255 516Q248 513 246 505L203 373Q201 366 204 359Q207 352 215 350Q223 348 229.5 351Q236 354 238 362ZM283 575Q275 573 271 567Q267 561 269 553Q272 536 291 539L395 562L403 540Q397 533 397 523Q397 512 404.5 504Q412 496 422 496Q434 496 439 504Q447 511 446.5 520.5Q446 530 443 538L380 697Q378 704 371.5 707Q365 710 357 707Q350 704 346.5 697.5Q343 691 347 683L380 597ZM450 655Q450 641 458.5 631.5Q467 622 481 622Q495 622 504.5 631.5Q514 641 514 655Q514 669 504.5 678Q495 687 481 687Q467 687 458.5 677.5Q450 668 450 655ZM847 751Q896 751 939 734Q982 717 1017 682Q1057 643 1078 588.5Q1099 534 1099 472Q1099 403 1075.5 339.5Q1052 276 1017 223Q985 177 941.5 132.5Q898 88 853 53Q816 23 779.5 -1Q743 -25 712 -43.5Q681 -62 658 -74Q635 -86 626 -90Q617 -86 594 -74Q571 -62 540.5 -43.5Q510 -25 473.5 -0.5Q437 24 400 54Q298 136 238 226Q199 283 177.5 346.5Q156 410 156 473Q156 536 177.5 590.5Q199 645 238 684Q311 752 409 752Q468 752 516 729.5Q564 707 602 675Q551 621 503 540Q478 495 458 449.5Q438 404 423 361.5Q408 319 397.5 283Q387 247 380 221L331 231Q323 233 317.5 229Q312 225 310 218Q308 211 312 205.5Q316 200 324 198L458 169Q465 167 470.5 170.5Q476 174 478 182Q482 200 465 203L418 213Q423 234 431.5 264.5Q440 295 452 331Q464 367 480.5 407Q497 447 518 487Q542 478 569.5 473Q597 468 626 468Q686 468 737 488Q757 449 773 409Q789 369 801 333Q813 297 821.5 266Q830 235 836 212L788 202Q780 200 776.5 194.5Q773 189 774 182Q776 174 782 170Q788 166 795 168L929 196Q936 198 940 203.5Q944 209 942 216Q941 224 935 228Q929 232 922 230L874 220Q874 221 873.5 221.5Q873 222 873 223Q867 246 856.5 282Q846 318 831 361.5Q816 405 795.5 452Q775 499 750 543Q731 576 705.5 612.5Q680 649 655 674Q697 710 745 730.5Q793 751 847 751ZM851 613 909 645L935 595Q940 583 934.5 571Q929 559 917 553Q906 548 894 549Q882 550 877 561ZM594 3Q594 -11 603 -20.5Q612 -30 626 -30Q640 -30 648.5 -20.5Q657 -11 657 3Q657 17 648.5 26Q640 35 626 35Q612 35 603 25.5Q594 16 594 3Z" glyph-name="apple" horiz-adv-x="1255" unicode="" /></font>
</defs>
</svg>
