<?xml version="1.0" standalone="no"?>
<!DOCTYPE svg
  PUBLIC '-//W3C//DTD SVG 1.1//EN'
  'http://www.w3.org/Graphics/SVG/1.1/DTD/svg11.dtd'><svg version="1.1" xmlns="http://www.w3.org/2000/svg"><defs><font horiz-adv-x="0" id="font"><font-face ascent="750" bbox="-86 -273 1272 917" cap-height="700" descent="-250" font-family="Danmark" font-stretch="normal" font-style="normal" font-weight="700" units-per-em="1000" x-height="468" /><missing-glyph d="" horiz-adv-x="0" /><glyph d="" glyph-name=".null" horiz-adv-x="0" unicode="" /><glyph d="" glyph-name="nonmarkingreturn" horiz-adv-x="250" unicode="" /><glyph d="" glyph-name="space" horiz-adv-x="300" unicode=" " /><glyph d="M73 638Q85 643 97 654Q109 665 118.5 679.5Q128 694 134.5 709.5Q141 725 142 737H169Q170 725 176 709.5Q182 694 191.5 679.5Q201 665 213 654Q225 643 237 638Q225 608 213.5 575.5Q202 543 193 496Q184 449 178 380.5Q172 312 171 211H140Q139 312 133 380.5Q127 449 117.5 496Q108 543 96.5 575.5Q85 608 73 638ZM86 63Q86 92 106 112.5Q126 133 155 133Q184 133 204.5 112.5Q225 92 225 63Q225 34 204.5 14Q184 -6 155 -6Q126 -6 106 14Q86 34 86 63Z" glyph-name="exclam" horiz-adv-x="311" unicode="!" /><glyph d="M77 700 177 700L109 385H77ZM276 700 376 700L308 385H276Z" glyph-name="quotedbl" horiz-adv-x="454" unicode="&quot;" /><glyph d="M426 230 264 230V0H223V230H77V269H223V431H77V470H223V700H264V470H426V700H467V470H613V431H467V269H613V230H467V0H426ZM264 269 426 269V431H264Z" glyph-name="numbersign" horiz-adv-x="691" unicode="#" /><glyph d="M281 426Q298 420 315 415.5Q332 411 351 406V833H386V701Q415 695 440 679Q465 663 479 640L493 700H524V522H482Q474 590 446 622.5Q418 655 386 665V396Q423 385 457 370Q491 355 517 333Q543 311 558.5 280Q574 249 574 204Q574 163 560 127Q546 91 521.5 64Q497 37 462.5 19.5Q428 2 386 -3V-132H351V294L281 313V-132H245V-3Q200 2 169 23Q138 44 123 70L110 0H76V213H112Q117 184 125 154.5Q133 125 148.5 100.5Q164 76 187.5 57.5Q211 39 245 31V324Q215 333 184.5 347Q154 361 130 383.5Q106 406 91 437.5Q76 469 76 514Q76 594 123 643Q170 692 245 703V833H281ZM497 156Q497 183 488.5 203Q480 223 465 238Q450 253 430 263.5Q410 274 386 282V29Q433 38 465 69.5Q497 101 497 156ZM152 558Q152 510 179.5 483Q207 456 245 439V669Q201 659 176.5 630.5Q152 602 152 558Z" glyph-name="dollar" horiz-adv-x="634" unicode="$" /><glyph d="M165 -6 136 19L793 713L822 688ZM712 -6Q673 -6 643 9Q613 24 592.5 49.5Q572 75 562 110.5Q552 146 552 186Q552 226 562 261Q572 296 592.5 322.5Q613 349 643 364Q673 379 712 379Q751 379 781 364Q811 349 831.5 322.5Q852 296 862 261Q872 226 872 186Q872 146 862 110.5Q852 75 831.5 49.5Q811 24 781 9Q751 -6 712 -6ZM712 350Q687 350 672.5 340.5Q658 331 650 311Q642 291 639.5 259.5Q637 228 637 184Q637 140 639.5 109.5Q642 79 650 59.5Q658 40 672.5 31.5Q687 23 712 23Q737 23 751.5 31.5Q766 40 774 59.5Q782 79 784.5 109.5Q787 140 787 184Q787 228 784.5 259.5Q782 291 774 311Q766 331 751.5 340.5Q737 350 712 350ZM237 315Q198 315 168 330Q138 345 118 370.5Q98 396 87.5 431.5Q77 467 77 507Q77 547 87.5 582Q98 617 118 643.5Q138 670 168 685Q198 700 237 700Q276 700 306 685Q336 670 356.5 643.5Q377 617 387 582Q397 547 397 507Q397 467 387 431.5Q377 396 356.5 370.5Q336 345 306 330Q276 315 237 315ZM237 671Q212 671 197.5 661.5Q183 652 175 632Q167 612 164.5 580.5Q162 549 162 505Q162 461 164.5 430.5Q167 400 175 380.5Q183 361 197.5 352.5Q212 344 237 344Q262 344 276.5 352.5Q291 361 299 380.5Q307 400 309.5 430.5Q312 461 312 505Q312 549 309.5 580.5Q307 612 299 632Q291 652 276.5 661.5Q262 671 237 671Z" glyph-name="percent" horiz-adv-x="950" unicode="%" /><glyph d="M442 66Q414 33 374.5 13.5Q335 -6 270 -6Q208 -6 167.5 11.5Q127 29 103 57.5Q79 86 69 121Q59 156 59 192Q59 229 68.5 262Q78 295 99.5 321Q121 347 154.5 365Q188 383 236 390L216 412Q182 449 170.5 480.5Q159 512 159 547Q159 579 170.5 608Q182 637 203.5 658.5Q225 680 257 693Q289 706 330 706Q368 706 396.5 695Q425 684 443.5 665.5Q462 647 471 623.5Q480 600 480 574Q480 539 461.5 504.5Q443 470 398 451L379 470Q416 488 431 514.5Q446 541 446 573Q446 623 416 648.5Q386 674 343 674Q302 674 272.5 650Q243 626 243 574Q243 569 244.5 558Q246 547 254 529.5Q262 512 278 488.5Q294 465 323 434L531 214L651 416L536 426V458H776V426L695 416L554 192L657 85Q676 65 696.5 48.5Q717 32 723 32H771V0H601L259 364Q204 357 185 317Q166 277 166 199V170Q166 95 194.5 62.5Q223 30 286 30Q327 30 359.5 43.5Q392 57 420 89Z" glyph-name="ampersand" horiz-adv-x="831" unicode="&amp;" /><glyph d="M77 700 177 700L109 385H77Z" glyph-name="quotesingle" horiz-adv-x="255" unicode="'" /><glyph d="M62 317Q62 385 72.5 456Q83 527 106 587.5Q129 648 167.5 692Q206 736 261 749Q282 760 305 763V731Q279 728 265 715Q229 704 208.5 676.5Q188 649 177.5 601.5Q167 554 164 483.5Q161 413 161 317Q161 221 164 150.5Q167 80 177.5 32.5Q188 -15 208.5 -42.5Q229 -70 265 -81Q282 -93 305 -96V-128Q281 -127 261 -116Q206 -103 167.5 -59Q129 -15 106 46Q83 107 72.5 178.5Q62 250 62 317Z" glyph-name="parenleft" horiz-adv-x="330" unicode="(" /><glyph d="M268 317Q268 250 257.5 178.5Q247 107 224 46Q201 -15 163 -59Q125 -103 69 -116Q49 -127 25 -128V-95Q49 -92 65 -79Q101 -68 122 -41Q143 -14 153.5 33Q164 80 166.5 150Q169 220 169 317Q169 413 166.5 483Q164 553 153.5 601Q143 649 122 676Q101 703 65 714Q48 726 25 729V763Q48 760 69 749Q125 736 163 692Q201 648 224 587.5Q247 527 257.5 456Q268 385 268 317Z" glyph-name="parenright" horiz-adv-x="330" unicode=")" /><glyph d="M314 463 497 345V297L305 428L308 220H267L270 429L77 298V345L260 463L77 580V628L270 497L267 706H308L305 497L497 628V580Z" glyph-name="asterisk" horiz-adv-x="575" unicode="*" /><glyph d="M361 329 361 80H320V329H77V371H320V620H361V371H604V329Z" glyph-name="plus" horiz-adv-x="681" unicode="+" /><glyph d="M19 -151Q59 -140 87 -124Q115 -108 133 -88.5Q151 -69 160.5 -47.5Q170 -26 174 -3H156Q117 -3 99 18Q81 39 81 66Q81 97 100.5 117Q120 137 152 137Q166 137 181 132Q196 127 208 115Q220 103 228 84Q236 65 236 37Q236 -1 220.5 -36Q205 -71 178 -99Q151 -127 114.5 -147Q78 -167 35 -176Z" glyph-name="comma" horiz-adv-x="292" unicode="," /><glyph d="M77 267 77 309H326V267Z" glyph-name="hyphen" horiz-adv-x="404" unicode="-" /><glyph d="M62 63Q62 92 82 112.5Q102 133 131 133Q160 133 180.5 112.5Q201 92 201 63Q201 34 180.5 14Q160 -6 131 -6Q102 -6 82 14Q62 34 62 63Z" glyph-name="period" horiz-adv-x="264" unicode="." /><glyph d="M59 -99 23 -83L414 802L449 787Z" glyph-name="slash" horiz-adv-x="472" unicode="/" /><glyph d="M171 350Q171 276 174 219.5Q177 163 188.5 123.5Q200 84 223.5 60Q247 36 289 26V-6Q234 -1 192 32Q150 65 122.5 115.5Q95 166 81 227.5Q67 289 67 350Q67 412 81 473Q95 534 122.5 584.5Q150 635 192 668Q234 701 289 706V674Q247 664 223.5 640Q200 616 188.5 576.5Q177 537 174 480.5Q171 424 171 350ZM476 350Q476 424 473.5 480Q471 536 459.5 576Q448 616 424.5 640Q401 664 359 674V706Q414 701 455.5 667.5Q497 634 525 584Q553 534 567 473Q581 412 581 350Q581 289 567 227.5Q553 166 525 115.5Q497 65 455.5 32Q414 -1 359 -6V26Q401 36 424.5 60Q448 84 459.5 123.5Q471 163 473.5 219.5Q476 276 476 350Z" glyph-name="zero" horiz-adv-x="648" unicode="0" /><glyph d="M45 0 45 32H179Q184 42 184 67V637L253 706H285V67Q285 54 287 45.5Q289 37 291 32H426V0ZM124 532 47 451V492L124 575Z" glyph-name="one" horiz-adv-x="456" unicode="1" /><glyph d="M399 497Q399 538 386 566.5Q373 595 351.5 612.5Q330 630 303 638Q276 646 249 646Q212 646 179.5 633.5Q147 621 130 595Q156 595 176 577.5Q196 560 196 531Q196 504 177.5 485.5Q159 467 131 467Q102 467 85 487.5Q68 508 68 536Q68 560 82 590Q96 620 123.5 645.5Q151 671 193 688.5Q235 706 291 706Q339 706 379 692.5Q419 679 448 654Q477 629 493 593Q509 557 509 513Q509 470 493.5 436Q478 402 449.5 368.5Q421 335 381 295.5Q341 256 292 202L111 0H71V10L279 246Q317 289 340.5 326Q364 363 377 394.5Q390 426 394.5 451.5Q399 477 399 497ZM527 90 503 0H199L275 90Z" glyph-name="two" horiz-adv-x="573" unicode="2" /><glyph d="M75 608 75 700H375L290 608ZM240 26Q280 26 313.5 38.5Q347 51 371 74Q395 97 408.5 129Q422 161 422 200Q422 234 411 263.5Q400 293 378 314.5Q356 336 322.5 348Q289 360 243 360Q210 360 192.5 355Q175 350 167 348L157 369L464 700H496V684L268 440Q310 440 354 429Q398 418 433.5 393.5Q469 369 491.5 329.5Q514 290 514 233Q514 187 498 144Q482 101 450 67.5Q418 34 369 14Q320 -6 254 -6Q205 -6 166.5 5.5Q128 17 102.5 35Q77 53 63.5 76Q50 99 50 123Q50 153 68.5 173.5Q87 194 116 194Q142 194 160.5 176Q179 158 179 132Q179 124 176.5 114Q174 104 167.5 95Q161 86 150 79Q139 72 121 69Q137 54 165 40Q193 26 240 26Z" glyph-name="three" horiz-adv-x="576" unicode="3" /><glyph d="M262 509 71 262H323V632L382 706H421V262H555V230H421V67Q421 54 422.5 45.5Q424 37 426 32H531V0H212V32H317Q319 37 321 45.5Q323 54 323 67V230H29V261L262 556Z" glyph-name="four" horiz-adv-x="585" unicode="4" /><glyph d="M102 352 119 700H485V608H150L136 352ZM513 235Q513 191 497 148Q481 105 448 70.5Q415 36 365.5 15Q316 -6 249 -6Q200 -6 162 5.5Q124 17 98 35Q72 53 58.5 76.5Q45 100 45 124Q45 153 63.5 173.5Q82 194 111 194Q137 194 155.5 176Q174 158 174 132Q174 124 171.5 114Q169 104 162.5 95Q156 86 145 79Q134 72 116 69Q132 54 159.5 40Q187 26 235 26Q276 26 309.5 38.5Q343 51 367.5 73.5Q392 96 405.5 129Q419 162 419 202Q419 270 376.5 313.5Q334 357 244 357Q233 357 218.5 356.5Q204 356 201 355L209 448Q223 450 240.5 451Q258 452 270 452Q327 452 372 435Q417 418 448.5 389Q480 360 496.5 320Q513 280 513 235Z" glyph-name="five" horiz-adv-x="576" unicode="5" /><glyph d="M325 706Q373 706 411 694.5Q449 683 475.5 664Q502 645 516 621.5Q530 598 530 574Q530 545 511.5 525Q493 505 464 505Q438 505 419.5 523Q401 541 401 567Q401 575 403.5 585Q406 595 412.5 604Q419 613 430 620Q441 627 459 630Q440 645 410 659Q380 673 333 673Q251 673 208.5 622Q166 571 166 477V361Q174 381 204.5 400Q235 419 273 421V390Q246 385 226 374.5Q206 364 192 343.5Q178 323 171 290Q164 257 164 206Q164 118 188.5 76Q213 34 273 24V-6Q177 -4 121.5 57.5Q66 119 66 244V378Q66 469 86 531.5Q106 594 141.5 633Q177 672 224 689Q271 706 325 706ZM542 214Q542 168 529 128.5Q516 89 491 60Q466 31 428.5 13.5Q391 -4 343 -6V24Q370 29 389 39Q408 49 420 69Q432 89 437.5 121.5Q443 154 443 203Q443 258 436.5 292.5Q430 327 417.5 347.5Q405 368 386.5 377.5Q368 387 343 390V421Q391 421 428.5 406Q466 391 491 363.5Q516 336 529 298Q542 260 542 214Z" glyph-name="six" horiz-adv-x="608" unicode="6" /><glyph d="M229 -6Q197 -6 179 14.5Q161 35 161 64Q161 84 168.5 101.5Q176 119 186 136L298 339H150V371H313Q355 453 396.5 535Q438 617 480 700H519Q477 617 437 535Q397 453 355 371H482V339H338Q311 284 282 234.5Q253 185 223 124Q257 122 275 103Q293 84 293 57Q293 30 275.5 12Q258 -6 229 -6ZM358 608 79 608L72 520H41V700H404Z" glyph-name="seven" horiz-adv-x="551" unicode="7" /><glyph d="M206 282Q181 268 167 232.5Q153 197 153 160Q153 109 182.5 71.5Q212 34 278 26V-6Q227 -6 187.5 6.5Q148 19 121 40Q94 61 80 90Q66 119 66 152Q66 197 92 236Q118 275 174 297ZM478 148Q478 196 448.5 226.5Q419 257 374.5 279.5Q330 302 278 322Q226 342 181.5 368.5Q137 395 107.5 432.5Q78 470 78 528Q78 567 92.5 599.5Q107 632 133 655.5Q159 679 197 692.5Q235 706 281 706V674Q226 669 193.5 640.5Q161 612 161 564Q161 518 190.5 488Q220 458 264 435.5Q308 413 359.5 393Q411 373 455 346.5Q499 320 528.5 282.5Q558 245 558 188Q558 152 545 117Q532 82 505.5 55Q479 28 440 11Q401 -6 348 -6V26Q371 26 394 34Q417 42 435.5 57.5Q454 73 466 95.5Q478 118 478 148ZM397 445Q426 465 440 494.5Q454 524 454 558Q454 606 427.5 637Q401 668 351 674V706Q396 706 430 694Q464 682 486.5 662.5Q509 643 520.5 617.5Q532 592 532 564Q532 523 507 486.5Q482 450 428 431Z" glyph-name="eight" horiz-adv-x="624" unicode="8" /><glyph d="M283 -6Q235 -6 197 5.5Q159 17 132.5 36Q106 55 92 78.5Q78 102 78 126Q78 155 96.5 175Q115 195 144 195Q170 195 188.5 177Q207 159 207 133Q207 125 204.5 115Q202 105 195.5 96Q189 87 178 80Q167 73 149 70Q168 55 198 41Q228 27 275 27Q357 27 399.5 78Q442 129 442 223V339Q434 319 403.5 300Q373 281 335 279V310Q362 315 382 325.5Q402 336 416 356.5Q430 377 437 410Q444 443 444 494Q444 583 419.5 624.5Q395 666 335 676V706Q431 704 486.5 642.5Q542 581 542 456V322Q542 231 522 168.5Q502 106 466.5 67Q431 28 384 11Q337 -6 283 -6ZM66 487Q66 533 79 572Q92 611 117 640.5Q142 670 179.5 687Q217 704 265 706V676Q238 671 219 661Q200 651 188 631Q176 611 170.5 579Q165 547 165 497Q165 442 171.5 407.5Q178 373 190.5 352.5Q203 332 221.5 322.5Q240 313 265 310V279Q217 279 179.5 294Q142 309 117 336.5Q92 364 79 402.5Q66 441 66 487Z" glyph-name="nine" horiz-adv-x="608" unicode="9" /><glyph d="M62 63Q62 92 82 112.5Q102 133 131 133Q160 133 180.5 112.5Q201 92 201 63Q201 34 180.5 14Q160 -6 131 -6Q102 -6 82 14Q62 34 62 63ZM62 398Q62 427 82 447.5Q102 468 131 468Q160 468 180.5 447.5Q201 427 201 398Q201 369 180.5 349Q160 329 131 329Q102 329 82 349Q62 369 62 398Z" glyph-name="colon" horiz-adv-x="264" unicode=":" /><glyph d="M71 398Q71 427 91 447.5Q111 468 140 468Q169 468 189.5 447.5Q210 427 210 398Q210 369 189.5 349Q169 329 140 329Q111 329 91 349Q71 369 71 398ZM9 -151Q49 -140 77 -124Q105 -108 123 -88.5Q141 -69 150.5 -47.5Q160 -26 164 -3H146Q107 -3 89 18Q71 39 71 66Q71 96 90.5 116.5Q110 137 143 137Q176 137 199.5 113Q223 89 223 38Q223 1 208.5 -34Q194 -69 168 -97.5Q142 -126 105.5 -146.5Q69 -167 25 -176Z" glyph-name="semicolon" horiz-adv-x="282" unicode=";" /><glyph d="M241 368 895 409V298L241 338ZM45 345 45 362L369 714L392 696L163 353L392 10L369 -8Z" glyph-name="less" horiz-adv-x="940" unicode="&lt;" /><glyph d="M377 444 377 402H62V444ZM377 284 377 242H62V284Z" glyph-name="equal" horiz-adv-x="440" unicode="=" /><glyph d="M570 -8 548 10L777 353L548 696L570 714L895 362V345ZM699 338 45 298V409L699 368Z" glyph-name="greater" horiz-adv-x="940" unicode="&gt;" /><glyph d="M214 216Q214 266 232.5 304.5Q251 343 272.5 379Q294 415 312.5 452.5Q331 490 331 538Q331 604 295.5 635Q260 666 209 666Q178 666 156.5 656.5Q135 647 121 636Q107 625 101 616.5Q95 608 96 610Q96 611 100.5 611Q105 611 107 611Q136 611 154.5 594Q173 577 173 551Q173 524 155 507.5Q137 491 111 491Q85 491 66 509Q47 527 47 561Q47 590 62.5 616.5Q78 643 104.5 663Q131 683 166.5 694.5Q202 706 243 706Q281 706 315.5 695Q350 684 376 663Q402 642 417.5 610.5Q433 579 433 537Q433 497 419.5 467Q406 437 385.5 412Q365 387 341 365.5Q317 344 296.5 321.5Q276 299 262.5 273.5Q249 248 248 216ZM165 63Q165 92 185 112.5Q205 133 234 133Q263 133 283.5 112.5Q304 92 304 63Q304 34 283.5 14Q263 -6 234 -6Q205 -6 185 14Q165 34 165 63Z" glyph-name="question" horiz-adv-x="481" unicode="?" /><glyph d="M774 -135Q722 -165 657 -185.5Q592 -206 507 -206Q414 -206 331 -177.5Q248 -149 185.5 -93.5Q123 -38 86.5 44.5Q50 127 50 236Q50 341 84 421.5Q118 502 175.5 557.5Q233 613 309 643Q385 673 470 675V644Q435 643 393.5 634.5Q352 626 309.5 607Q267 588 227.5 557Q188 526 157 481Q126 436 107.5 375.5Q89 315 89 237Q89 125 127 47Q165 -31 225.5 -80Q286 -129 361.5 -150.5Q437 -172 513 -172Q588 -172 650 -154Q712 -136 764 -104ZM669 -6Q638 -6 617.5 2Q597 10 584.5 23Q572 36 567 54Q562 72 562 91V468Q615 463 636.5 436.5Q658 410 658 378V81Q658 57 666.5 44.5Q675 32 699 32Q728 32 760.5 50.5Q793 69 820 103.5Q847 138 865 187Q883 236 883 297Q883 375 853.5 437.5Q824 500 777 544Q730 588 671.5 613.5Q613 639 554 643V674Q626 668 692.5 638Q759 608 809.5 558.5Q860 509 890 443Q920 377 920 298Q920 236 901 180.5Q882 125 848 83.5Q814 42 768.5 18Q723 -6 669 -6ZM492 222Q451 222 427.5 217Q404 212 392.5 199Q381 186 378.5 163Q376 140 376 105Q376 35 437 35Q450 35 464.5 37.5Q479 40 492 45V21Q472 7 447 0.5Q422 -6 396 -6Q336 -6 307.5 29.5Q279 65 279 114V126Q279 190 316.5 221Q354 252 444 252H492ZM360 356 326 356V468H492V436H375Q373 431 370 422.5Q367 414 365 401Z" glyph-name="at" horiz-adv-x="970" unicode="@" /><glyph d="M310 485Q272 388 234.5 292.5Q197 197 159 100L149 72Q146 63 145 57Q144 51 144 46Q144 36 146 32H253V0H12V32H68Q79 32 87 38.5Q95 45 102 62L292 530ZM475 242 285 242Q288 250 290.5 258Q293 266 296 274H462Q428 359 394 443.5Q360 528 326 614Q336 637 345 660Q354 683 364 706H396Q417 656 429.5 625Q442 594 450.5 573.5Q459 553 465 537Q471 521 479.5 500.5Q488 480 500.5 449.5Q513 419 533.5 369Q554 319 584.5 245Q615 171 659 62Q666 45 674 38.5Q682 32 693 32H742V0H465V32H546Q547 34 547 36Q548 41 548 46Q548 57 539 84Z" glyph-name="A" horiz-adv-x="755" unicode="A" /><glyph d="M51 0 51 32H146Q148 37 150 45.5Q152 54 152 67V633Q152 646 150 654.5Q148 663 146 668H51V700H252V0ZM594 189Q594 225 588 253.5Q582 282 566 302Q550 322 522.5 332.5Q495 343 452 343H322V375H479Q550 375 593.5 355.5Q637 336 661 307Q685 278 693.5 246Q702 214 702 188Q702 163 693.5 130.5Q685 98 659.5 69Q634 40 586 20Q538 0 460 0H322V32H447Q492 32 521 43.5Q550 55 566 76Q582 97 588 126Q594 155 594 189ZM502 419Q520 435 536 462Q552 489 552 543Q552 569 547 591.5Q542 614 528 631Q514 648 489.5 658Q465 668 426 668H322V700H447Q516 700 556.5 685Q597 670 618 648.5Q639 627 645.5 602.5Q652 578 652 559Q652 501 618 468Q584 435 537 418Z" glyph-name="B" horiz-adv-x="743" unicode="B" /><glyph d="M167 350Q167 192 218 114Q269 36 384 26V-6Q307 -6 247 21Q187 48 145.5 95.5Q104 143 82 208.5Q60 274 60 350Q60 427 82 492Q104 557 145.5 604.5Q187 652 247 679Q307 706 384 706V674Q269 664 218 586Q167 508 167 350ZM664 472Q659 502 644.5 537.5Q630 573 604.5 603Q579 633 541.5 653Q504 673 454 674V706Q504 706 539 691Q574 676 597 659Q624 638 641 611L668 700H699V472ZM701 228 701 0H670L643 88Q625 62 598 41Q573 22 538.5 8Q504 -6 454 -6V26Q504 26 541.5 46.5Q579 67 605 97Q631 127 646 162Q661 197 666 228Z" glyph-name="C" horiz-adv-x="796" unicode="C" /><glyph d="M152 633Q152 658 147 668H52V700H253V0H52V32H147Q152 42 152 67ZM663 348Q663 435 648 495.5Q633 556 603.5 594.5Q574 633 529.5 650.5Q485 668 426 668H323V700H442Q518 700 579 676Q640 652 682.5 607Q725 562 748 497.5Q771 433 771 352Q771 274 749.5 209.5Q728 145 687 98.5Q646 52 586.5 26Q527 0 451 0H323V32H435Q551 32 607 106Q663 180 663 348Z" glyph-name="D" horiz-adv-x="818" unicode="D" /><glyph d="M439 376Q453 376 461 378Q469 380 473 382L493 489H524V221H493L473 328Q469 330 461 332Q453 334 439 334L254 339V0H52V32H147Q149 37 151 45.5Q153 54 153 67V633Q153 646 151 654.5Q149 663 147 668H52V700H254V371ZM324 668 324 700H639V540H608L579 662Q574 664 565.5 666Q557 668 545 668ZM324 32 574 32Q586 32 594.5 34Q603 36 608 38L637 160H668V0H324Z" glyph-name="E" horiz-adv-x="731" unicode="E" /><glyph d="M324 668 324 700H619V540H588L559 662Q554 664 546 666Q538 668 525 668ZM254 349 425 354Q432 354 441.5 355Q451 356 459 360L479 462H509V204H479L459 306Q454 308 446 310Q438 312 425 312L254 317V67Q254 54 256 45.5Q258 37 260 32H379V0H52V32H147Q149 37 151 45.5Q153 54 153 67V633Q153 646 151 654.5Q149 663 147 668H52V700H254Z" glyph-name="F" horiz-adv-x="659" unicode="F" /><glyph d="M167 346Q167 269 178 211Q189 153 214.5 113.5Q240 74 280.5 52.5Q321 31 381 26V-6Q302 -6 242 21Q182 48 141.5 95.5Q101 143 80.5 208Q60 273 60 348Q60 426 81.5 491.5Q103 557 144 604.5Q185 652 244.5 679Q304 706 381 706V674Q266 664 216.5 586Q167 508 167 346ZM725 -1 692 -1L641 84Q638 78 626 63Q614 48 591 32.5Q568 17 533.5 5.5Q499 -6 451 -6V26Q483 26 514.5 35.5Q546 45 570.5 63.5Q595 82 610 110Q625 138 625 176V247Q625 258 624 267Q623 276 622 284H488V316H795V284H731Q729 279 727 270.5Q725 262 725 249ZM664 472Q659 502 644 537.5Q629 573 602.5 603Q576 633 538.5 653Q501 673 451 674V706Q501 706 536.5 691Q572 676 596 659Q623 638 641 611L668 700H699V472Z" glyph-name="G" horiz-adv-x="817" unicode="G" /><glyph d="M410 339 254 339V67Q254 54 256 45.5Q258 37 260 32H355V0H52V32H147Q149 37 151 45.5Q153 54 153 67V633Q153 646 151 654.5Q149 663 147 668H52V700H355V668H260Q258 663 256 654.5Q254 646 254 633V371H410ZM480 371 637 371V633Q637 646 635 654.5Q633 663 631 668H536V700H838V668H743Q741 663 739 654.5Q737 646 737 633V67Q737 54 739 45.5Q741 37 743 32H838V0H536V32H631Q633 37 635 45.5Q637 54 637 67V339H480Z" glyph-name="H" horiz-adv-x="891" unicode="H" /><glyph d="M52 0 52 32H152Q154 37 156 45.5Q158 54 158 67V633Q158 646 156 654.5Q154 663 152 668H52V700H364V668H264Q259 658 259 633V67Q259 42 264 32H364V0Z" glyph-name="I" horiz-adv-x="417" unicode="I" /><glyph d="M373 205Q373 139 355.5 97.5Q338 56 311.5 33Q285 10 253.5 2Q222 -6 194 -6Q177 -6 158.5 -4Q140 -2 132 0V32Q139 31 149 31Q159 31 165 31Q199 31 220 41.5Q241 52 253 72.5Q265 93 269 124Q273 155 273 197V633Q273 646 271 654.5Q269 663 267 668H162V700H454V668H379Q377 663 375 654.5Q373 646 373 633ZM17 135Q17 164 37 184.5Q57 205 86 205Q115 205 135 184.5Q155 164 155 135Q155 106 135 86Q115 66 86 66Q57 66 37 86Q17 106 17 135Z" glyph-name="J" horiz-adv-x="489" unicode="J" /><glyph d="M153 633Q153 646 151 654.5Q149 663 147 668H52V700H355V668H260Q258 663 256 654.5Q254 646 254 633V67Q254 54 256 45.5Q258 37 260 32H355V0H52V32H147Q149 37 151 45.5Q153 54 153 67ZM475 352Q513 352 547 344.5Q581 337 607.5 319Q634 301 649.5 271Q665 241 665 196V98Q665 59 679.5 46Q694 33 722 33Q730 33 741.5 34.5Q753 36 764 42V10Q747 2 720.5 -1Q694 -4 677 -4Q619 -4 592 23Q565 50 565 116V213Q565 248 558 269Q551 290 537.5 301.5Q524 313 504.5 316.5Q485 320 460 320H324V352H366Q388 379 415 413Q442 447 471.5 483.5Q501 520 529.5 556Q558 592 583 623Q587 628 593.5 638.5Q600 649 600 658Q600 662 598 668H493V700H749V668H688Q677 668 666 660Q655 652 644 638L407 352Z" glyph-name="K" horiz-adv-x="782" unicode="K" /><glyph d="M254 0 52 0V32H147Q149 37 151 45.5Q153 54 153 67V633Q153 646 151 654.5Q149 663 147 668H52V700H374V668H259Q254 658 254 633ZM324 32 559 32Q572 32 580 34Q588 36 593 38L622 160H653V0H324Z" glyph-name="L" horiz-adv-x="703" unicode="L" /><glyph d="M574 252Q601 308 634.5 375.5Q668 443 700.5 506.5Q733 570 759.5 622Q786 674 798 700H1006V668H911Q909 663 907.5 654.5Q906 646 906 633V67Q906 54 907.5 45.5Q909 37 911 32H1006V0H704V32H799Q801 37 803 45.5Q805 54 805 67V633L595 216ZM494 62 143 668H52V700H241Q321 560 400.5 421Q480 282 561 142L521 62ZM156 32Q158 37 159.5 45.5Q161 54 161 67V494L202 427V67Q202 54 204 45.5Q206 37 208 32H310V0H52V32Z" glyph-name="M" horiz-adv-x="1059" unicode="M" /><glyph d="M187 487 192 67Q192 53 194 45Q196 37 198 32H301V0H47V32H140Q142 37 144 45.5Q146 54 146 67L152 526ZM658 270 652 633Q652 647 650 655Q648 663 646 668H544V700H802V668H705Q703 663 701 654.5Q699 646 699 633L693 228ZM121 668 47 668V700H227L693 125L692 0H670Z" glyph-name="N" horiz-adv-x="832" unicode="N" /><glyph d="M167 350Q167 192 214 114Q261 36 370 26V-6Q300 -6 242.5 21Q185 48 144.5 96Q104 144 82 209Q60 274 60 350Q60 426 82 491Q104 556 144.5 604Q185 652 242.5 679Q300 706 370 706V674Q261 664 214 586Q167 508 167 350ZM642 350Q642 508 594.5 586Q547 664 440 674V706Q509 706 566.5 679Q624 652 664.5 604Q705 556 727.5 491Q750 426 750 350Q750 274 727.5 209Q705 144 664.5 96Q624 48 566.5 21Q509 -6 440 -6V26Q547 36 594.5 114Q642 192 642 350Z" glyph-name="O" horiz-adv-x="810" unicode="O" /><glyph d="M52 0 52 32H147Q149 37 151 45.5Q153 54 153 67V633Q153 646 151 654.5Q149 663 147 668H52V700H254V67Q254 54 256 45.5Q258 37 260 32H364V0ZM528 500Q528 538 525.5 569Q523 600 509.5 622Q496 644 467.5 656Q439 668 388 668H324V700H419Q495 700 538 679Q581 658 602.5 627.5Q624 597 629.5 564Q635 531 635 507Q635 476 628 440Q621 404 597.5 373Q574 342 529 321Q484 300 408 300H324V332H387Q439 332 467.5 346Q496 360 509.5 383.5Q523 407 525.5 437Q528 467 528 500Z" glyph-name="P" horiz-adv-x="678" unicode="P" /><glyph d="M568 65Q610 103 626 173.5Q642 244 642 346Q642 427 632.5 486.5Q623 546 599.5 586Q576 626 537.5 647.5Q499 669 440 674V706Q509 706 566 678.5Q623 651 663.5 603.5Q704 556 726.5 491Q749 426 749 351Q749 246 707.5 164.5Q666 83 596 38L768 -128L745 -154L348 231L371 256ZM167 350Q167 271 176.5 212.5Q186 154 209 114Q232 74 271 52.5Q310 31 369 26V-6Q299 -6 242 21Q185 48 144.5 96Q104 144 82 209Q60 274 60 350Q60 426 82 491Q104 556 144.5 604Q185 652 242 679Q299 706 369 706V674Q310 669 271 647.5Q232 626 209 586.5Q186 547 176.5 488Q167 429 167 350Z" glyph-name="Q" horiz-adv-x="811" unicode="Q" /><glyph d="M52 0 52 32H147Q149 37 151 45.5Q153 54 153 67V633Q153 646 151 654.5Q149 663 147 668H52V700H254V67Q254 54 256 45.5Q258 37 260 32H360V0ZM764 10Q747 2 720.5 -1Q694 -4 677 -4Q619 -4 592 23Q565 50 565 116V208Q565 243 558 264Q551 285 537.5 296.5Q524 308 504.5 311.5Q485 315 460 315H324V347H475Q513 347 547 339.5Q581 332 607.5 314Q634 296 649.5 266Q665 236 665 191V98Q665 60 678 46.5Q691 33 722 33Q730 33 741.5 34.5Q753 36 764 42ZM509 392Q526 417 533.5 448Q541 479 541 527Q541 556 537 581.5Q533 607 518.5 626Q504 645 475.5 656.5Q447 668 398 668H324V700H428Q500 700 542.5 683Q585 666 607.5 641.5Q630 617 637 590Q644 563 644 542Q644 490 615.5 450Q587 410 535 388Z" glyph-name="R" horiz-adv-x="779" unicode="R" /><glyph d="M66 512Q66 556 80.5 591.5Q95 627 122 652.5Q149 678 186.5 692Q224 706 270 706V674Q245 674 221.5 666.5Q198 659 180.5 644.5Q163 630 152.5 608.5Q142 587 142 558Q142 507 173.5 479Q205 451 251.5 433.5Q298 416 353 402.5Q408 389 454.5 366.5Q501 344 532.5 307Q564 270 564 205Q564 160 547.5 121.5Q531 83 502 54.5Q473 26 432 10Q391 -6 341 -6V26Q367 26 393 34Q419 42 440 57.5Q461 73 474 97.5Q487 122 487 155Q487 208 456 236.5Q425 265 378 282.5Q331 300 276.5 313.5Q222 327 175 349Q128 371 97 408.5Q66 446 66 512ZM472 522Q467 566 452.5 594.5Q438 623 419.5 640Q401 657 380 664.5Q359 672 341 674V706Q380 706 416 687.5Q452 669 469 640L483 700H514V522ZM102 213Q107 180 117 148Q127 116 146 89.5Q165 63 195.5 46Q226 29 271 26V-6Q213 -6 172.5 16.5Q132 39 113 70L99 0H66V213Z" glyph-name="S" horiz-adv-x="591" unicode="S" /><glyph d="M469 668 469 700H662V540H631L602 662Q597 664 588.5 666Q580 668 568 668ZM187 0 187 32H292Q294 37 296 45.5Q298 54 298 67V700H399V67Q399 42 404 32H509V0ZM228 668 129 668Q116 668 108 666Q100 664 95 662L65 540H35V700H228Z" glyph-name="T" horiz-adv-x="697" unicode="T" /><glyph d="M123 633Q123 646 121 654.5Q119 663 117 668H22V700H325V668H230Q228 663 226 654.5Q224 646 224 633V237Q224 176 234 136.5Q244 97 265.5 73Q287 49 320.5 38.5Q354 28 400 26V-6Q363 -6 315 -1.5Q267 3 224 27Q181 51 152 101Q123 151 123 242ZM716 633 716 242Q716 158 692 109Q668 60 631 34.5Q594 9 551 1.5Q508 -6 470 -6V26Q579 30 626.5 79.5Q674 129 674 242V633Q674 646 672 654.5Q670 663 668 668H559V700H822V668H722Q720 663 718 654.5Q716 646 716 633Z" glyph-name="U" horiz-adv-x="844" unicode="U" /><glyph d="M363 -6 102 638Q95 655 87 661.5Q79 668 68 668H12V700H296V668H215Q214 666 214 664Q213 658 213 654Q213 642 223 616L433 86Q423 63 414 40Q405 17 395 -6ZM467 169Q462 180 458.5 191Q455 202 450 213Q489 314 528 414.5Q567 515 607 616Q612 630 614 639Q616 648 616 654Q616 662 614 668H511V700H752V668H692Q681 668 672.5 661.5Q664 655 657 638Z" glyph-name="V" horiz-adv-x="765" unicode="V" /><glyph d="M778 -6 517 638Q510 655 502 661.5Q494 668 483 668H427V700H711V668H630Q629 666 629 664Q628 658 628 654Q628 642 638 616L848 86Q838 63 829 40Q820 17 810 -6ZM882 169Q877 180 873.5 191Q870 202 865 213Q904 314 943 414.5Q982 515 1022 616Q1027 630 1029 639Q1031 648 1031 654Q1031 662 1029 668H925V700H1167V668H1106Q1096 668 1087.5 661.5Q1079 655 1072 638ZM415 130 534 429Q539 418 544 406Q549 394 554 382L395 -6H364L102 638Q95 655 87 661.5Q79 668 68 668H12V700H296V668H215Q214 666 214 664Q213 658 213 654Q213 642 223 616Z" glyph-name="W" horiz-adv-x="1180" unicode="W" /><glyph d="M639 64Q660 32 680 32H735V0H429V32H523Q523 45 518 59Q513 73 506 84L128 638Q117 653 108.5 660.5Q100 668 90 668H32V700H335V668H245Q245 657 249.5 642Q254 627 261 616ZM439 447 578 626Q585 635 590 646Q595 657 595 668H497V700H733V668H682Q671 668 656 659.5Q641 651 624 630L459 418ZM320 247 189 74Q181 64 176.5 53.5Q172 43 172 32H261V0H25V32H84Q95 32 109.5 40Q124 48 141 70L300 275Z" glyph-name="X" horiz-adv-x="760" unicode="X" /><glyph d="M218 0 218 32H313Q318 42 318 67V284L108 638Q89 668 68 668H12V700H303V668H219Q219 657 222.5 645.5Q226 634 237 616L419 305V67Q419 54 421 45.5Q423 37 425 32H520V0ZM434 403 573 626Q581 636 586 646.5Q591 657 591 668H491V700H730V668H679Q669 668 653.5 660Q638 652 622 630L453 370Z" glyph-name="Y" horiz-adv-x="743" unicode="Y" /><glyph d="M52 13 553 700H655V689L157 0H52ZM560 32Q572 32 580.5 34Q589 36 594 38Q602 68 609 98.5Q616 129 623 160H654V0H236L258 32ZM160 668Q148 668 139.5 666Q131 664 126 662L97 540H66V700H474L450 668Z" glyph-name="Z" horiz-adv-x="708" unicode="Z" /><glyph d="M52 -129 52 760H273V726H157Q155 721 153 712.5Q151 704 151 691V-60Q151 -73 153 -81.5Q155 -90 157 -95H273V-129Z" glyph-name="bracketleft" horiz-adv-x="296" unicode="[" /><glyph d="M23 787 58 802L449 -83L413 -99Z" glyph-name="backslash" horiz-adv-x="472" unicode="\" /><glyph d="M22 -129 22 -95H139Q141 -90 142.5 -81.5Q144 -73 144 -60V691Q144 704 142.5 712.5Q141 721 139 726H22V760H243V-129Z" glyph-name="bracketright" horiz-adv-x="296" unicode="]" /><glyph d="M282 657 122 284H77L260 700H304L487 284H442Z" glyph-name="asciicircum" horiz-adv-x="564" unicode="^" /><glyph d="M-5 -142 -5 -100H393V-142Z" glyph-name="underscore" horiz-adv-x="388" unicode="_" /><glyph d="M52 675 145 675L259 535H213Z" glyph-name="grave" horiz-adv-x="312" unicode="`" /><glyph d="M320 468Q373 463 394.5 436.5Q416 410 416 378V81Q416 64 422.5 48Q429 32 452 32Q469 32 481 45.5Q493 59 493 99V136H522V102Q522 51 499.5 22.5Q477 -6 423 -6Q367 -6 343.5 22.5Q320 51 320 91ZM250 222Q209 222 185.5 217Q162 212 150.5 199Q139 186 136.5 163Q134 140 134 105Q134 35 195 35Q208 35 222.5 37.5Q237 40 250 45V21Q230 7 205 0.5Q180 -6 154 -6Q94 -6 65.5 29.5Q37 65 37 114V126Q37 190 74.5 221Q112 252 202 252H250ZM118 356 84 356V468H250V436H133Q131 431 128 422.5Q125 414 123 401Z" glyph-name="a" horiz-adv-x="535" unicode="a" /><glyph d="M71 643Q71 656 69 664.5Q67 673 65 678H7V710H167V57L97 -6H71ZM522 240Q522 190 509.5 145.5Q497 101 472 67Q447 33 410 13.5Q373 -6 324 -6Q300 -6 277 -1Q254 4 237 13V41Q254 33 272 30.5Q290 28 303 28Q368 28 393.5 84Q419 140 419 236Q419 334 393 386.5Q367 439 300 439Q286 439 269.5 436.5Q253 434 237 427V456Q253 464 276 469Q299 474 325 474Q373 474 409.5 456.5Q446 439 471 408Q496 377 509 334Q522 291 522 240Z" glyph-name="b" horiz-adv-x="572" unicode="b" /><glyph d="M153 235Q153 176 156 137Q159 98 168.5 74.5Q178 51 196 39.5Q214 28 243 24V-6Q197 -6 161 12Q125 30 100.5 62Q76 94 63 137.5Q50 181 50 232Q50 284 63.5 328Q77 372 101.5 404Q126 436 162 454.5Q198 473 243 474V445Q193 437 173 396.5Q153 356 153 280ZM344 345Q344 366 357.5 385Q371 404 397 408Q392 417 368 430.5Q344 444 313 445V474Q348 474 377 463Q406 452 427 434Q448 416 460 394Q472 372 472 351Q472 322 452.5 302Q433 282 406 282Q380 282 362 300.5Q344 319 344 345ZM480 138Q479 109 467.5 83Q456 57 435 37Q414 17 383.5 5.5Q353 -6 313 -6V24Q338 24 361 31Q384 38 402 52Q420 66 432 87.5Q444 109 445 138Z" glyph-name="c" horiz-adv-x="522" unicode="c" /><glyph d="M405 643Q405 656 403 664.5Q401 673 399 678H333V710H501V67Q501 54 503 45.5Q505 37 507 32H574V0H405ZM50 227Q50 281 63.5 326Q77 371 103 404Q129 437 166 455.5Q203 474 251 474Q276 474 297 469Q318 464 335 456V427Q319 434 303 436.5Q287 439 273 439Q206 439 179.5 386.5Q153 334 153 235Q153 140 178.5 84Q204 28 269 28Q281 28 299.5 30.5Q318 33 335 41V13Q318 4 293 -1Q268 -6 242 -6Q193 -6 157 12Q121 30 97 61.5Q73 93 61.5 135.5Q50 178 50 227Z" glyph-name="d" horiz-adv-x="594" unicode="d" /><glyph d="M386 309Q386 368 372.5 403.5Q359 439 313 445V474Q348 474 379 460Q410 446 433.5 420.5Q457 395 470.5 357.5Q484 320 484 272V248H153V235Q153 176 156 137Q159 98 168.5 74.5Q178 51 196 39.5Q214 28 243 24V-6Q197 -6 161 12Q125 30 100.5 62Q76 94 63 138Q50 182 50 234Q50 286 63 330Q76 374 100.5 406Q125 438 161 456Q197 474 243 474V445Q191 440 172 399Q153 358 153 280H386ZM479 138Q478 109 466.5 83Q455 57 434.5 37Q414 17 383.5 5.5Q353 -6 313 -6V24Q338 24 361 31Q384 38 402 52Q420 66 432 87.5Q444 109 445 138Z" glyph-name="e" horiz-adv-x="534" unicode="e" /><glyph d="M201 468 293 468V436H201V67Q201 42 206 32H283V0H32V32H99Q101 37 103 45.5Q105 54 105 67V436H32V468H105V616Q105 653 127.5 679Q150 705 201 710ZM326 643Q326 656 324 664.5Q322 673 320 678H271V710H360V598H326Z" glyph-name="f" horiz-adv-x="324" unicode="f" /><glyph d="M464 299Q464 264 452 233Q440 202 418 179.5Q396 157 364 144Q332 131 292 131V161Q313 164 326.5 171.5Q340 179 348.5 194.5Q357 210 360.5 236.5Q364 263 364 303Q364 343 360.5 369Q357 395 348.5 410.5Q340 426 326.5 433.5Q313 441 292 444V474Q319 474 340 468H504V427Q476 429 448.5 431.5Q421 434 393 437Q424 417 444 382Q464 347 464 299ZM438 -136Q438 -119 434 -105.5Q430 -92 417 -82Q404 -72 381 -66Q358 -60 320 -58L197 -56Q152 -56 123 -49Q94 -42 77.5 -28.5Q61 -15 54.5 4Q48 23 48 46V53Q48 101 76.5 126.5Q105 152 153 155Q108 167 78.5 204Q49 241 49 302Q49 341 62 373Q75 405 98.5 427.5Q122 450 153.5 462Q185 474 222 474V444Q201 442 187 434.5Q173 427 164.5 411Q156 395 152.5 368.5Q149 342 149 302Q149 263 152.5 237Q156 211 164.5 195Q173 179 187 171.5Q201 164 222 161V131H193Q148 131 125 123.5Q102 116 102 84V72Q102 58 111.5 47.5Q121 37 141 36L358 29Q436 27 472 -6.5Q508 -40 508 -106Q508 -155 490 -187Q472 -219 440.5 -238Q409 -257 367 -264.5Q325 -272 278 -272H208Q152 -272 117 -263Q82 -254 62 -240Q42 -226 34.5 -208.5Q27 -191 27 -173Q27 -141 44 -122.5Q61 -104 87 -91L107 -95V-141Q107 -194 139 -217Q171 -240 252 -240H258Q301 -240 334.5 -236.5Q368 -233 391 -222Q414 -211 426 -190.5Q438 -170 438 -136Z" glyph-name="g" horiz-adv-x="522" unicode="g" /><glyph d="M107 643Q107 656 105.5 664.5Q104 673 102 678H34V710H203V67Q203 54 205 45.5Q207 37 209 32H276V0H34V32H102Q104 37 105.5 45.5Q107 54 107 67ZM518 67Q518 54 520 45.5Q522 37 524 32H591V0H349V32H416Q418 37 420 45.5Q422 54 422 67V330Q422 380 399.5 401.5Q377 423 344 423Q324 423 306 417.5Q288 412 273 406V434Q287 445 316 459.5Q345 474 390 474Q458 474 488 435Q518 396 518 334Z" glyph-name="h" horiz-adv-x="616" unicode="h" /><glyph d="M108 401Q108 414 106 422.5Q104 431 102 436H35V468H204V67Q204 54 206 45.5Q208 37 210 32H277V0H35V32H102Q104 37 106 45.5Q108 54 108 67ZM84 649Q84 678 104 698.5Q124 719 153 719Q182 719 202.5 698.5Q223 678 223 649Q223 620 202.5 600Q182 580 153 580Q124 580 104 600Q84 620 84 649Z" glyph-name="i" horiz-adv-x="302" unicode="i" /><glyph d="M255 468 255 436H202Q200 431 198 422.5Q196 414 196 401V-164Q196 -203 172.5 -235.5Q149 -268 101 -273V401Q101 414 99 422.5Q97 431 95 436H28V468ZM77 649Q77 678 97 698.5Q117 719 146 719Q175 719 195 698.5Q215 678 215 649Q215 620 195 600Q175 580 146 580Q117 580 97 600Q77 620 77 649ZM-86 -203Q-86 -174 -66 -153.5Q-46 -133 -17 -133Q12 -133 32 -153.5Q52 -174 52 -203Q52 -232 32 -252Q12 -272 -17 -272Q-46 -272 -66 -252Q-86 -232 -86 -203Z" glyph-name="j" horiz-adv-x="294" unicode="j" /><glyph d="M569 468 569 436H486L350 297L503 60Q521 32 535 32H590V0H345V32H396V37Q396 41 394 47Q392 53 387 61L262 257L438 436H336V468ZM100 643Q100 668 95 678H27V710H196V67Q196 54 198 45.5Q200 37 202 32H269V0H27V32H95Q100 42 100 67Z" glyph-name="k" horiz-adv-x="595" unicode="k" /><glyph d="M108 643Q108 656 106 664.5Q104 673 102 678H35V710H204V67Q204 54 206 45.5Q208 37 210 32H277V0H35V32H102Q104 37 106 45.5Q108 54 108 67Z" glyph-name="l" horiz-adv-x="302" unicode="l" /><glyph d="M108 401Q108 414 106 422.5Q104 431 102 436H35V468H204V67Q204 54 205.5 45.5Q207 37 209 32H277V0H35V32H102Q104 37 106 45.5Q108 54 108 67ZM516 67Q516 54 518 45.5Q520 37 522 32H587V0H350V32H414Q416 37 418 45.5Q420 54 420 67V330Q420 381 398.5 402Q377 423 345 423Q325 423 305.5 417Q286 411 274 406V434Q288 445 317 459.5Q346 474 391 474Q458 474 487 435.5Q516 397 516 334ZM829 67Q829 54 831 45.5Q833 37 835 32H902V0H660V32H727Q729 37 731 45.5Q733 54 733 67V330Q733 380 710.5 401.5Q688 423 655 423Q635 423 617 417.5Q599 412 584 406V434Q599 445 627.5 459.5Q656 474 701 474Q769 474 799 435Q829 396 829 334Z" glyph-name="m" horiz-adv-x="927" unicode="m" /><glyph d="M108 401Q108 414 106 422.5Q104 431 102 436H35V468H204V67Q204 54 206 45.5Q208 37 210 32H277V0H35V32H102Q104 37 106 45.5Q108 54 108 67ZM519 67Q519 54 520.5 45.5Q522 37 524 32H592V0H350V32H417Q419 37 421 45.5Q423 54 423 67V330Q423 380 400.5 401.5Q378 423 345 423Q325 423 305.5 417Q286 411 274 406V434Q289 445 317.5 459.5Q346 474 391 474Q459 474 489 435Q519 396 519 334Z" glyph-name="n" horiz-adv-x="617" unicode="n" /><glyph d="M50 234Q50 286 63 330Q76 374 101 406Q126 438 162.5 456Q199 474 245 474V445Q215 442 197 431Q179 420 169 396Q159 372 156 333Q153 294 153 234Q153 174 156 135Q159 96 169 72Q179 48 197 37.5Q215 27 245 24V-6Q199 -6 162.5 12Q126 30 101 62Q76 94 63 138Q50 182 50 234ZM511 234Q511 182 497.5 138Q484 94 459 62Q434 30 397.5 12Q361 -6 315 -6V24Q345 27 363.5 37.5Q382 48 392 72Q402 96 405 135Q408 174 408 234Q408 294 405 333Q402 372 392 396Q382 420 363.5 431Q345 442 315 445V474Q361 474 397.5 456Q434 438 459 406Q484 374 497.5 330Q511 286 511 234Z" glyph-name="o" horiz-adv-x="561" unicode="o" /><glyph d="M93 401Q93 414 91 422.5Q89 431 87 436H20V468H188V-194Q188 -207 190 -215.5Q192 -224 194 -229H281V-261H20V-229H87Q89 -224 91 -215.5Q93 -207 93 -194ZM543 240Q543 190 530.5 145.5Q518 101 493.5 67Q469 33 432 13.5Q395 -6 346 -6Q294 -6 259 13V41Q276 33 294 30.5Q312 28 325 28Q390 28 415.5 84Q441 140 441 236Q441 334 415 386.5Q389 439 322 439Q308 439 291.5 436.5Q275 434 259 427V456Q275 464 298 469Q321 474 347 474Q395 474 431.5 456.5Q468 439 492.5 408Q517 377 530 334Q543 291 543 240Z" glyph-name="p" horiz-adv-x="593" unicode="p" /><glyph d="M501 -194Q501 -207 503 -215.5Q505 -224 507 -229H574V-261H304V-229H399Q401 -224 403 -215.5Q405 -207 405 -194V468H574V436H507Q505 431 503 422.5Q501 414 501 401ZM50 228Q50 282 63.5 327Q77 372 103 404.5Q129 437 166 455.5Q203 474 251 474Q276 474 297 469Q318 464 335 456V427Q319 434 303 436.5Q287 439 273 439Q206 439 179.5 386.5Q153 334 153 235Q153 140 178.5 84Q204 28 269 28Q281 28 299.5 30.5Q318 33 335 41V13Q318 4 293 -1Q268 -6 242 -6Q193 -6 157 12Q121 30 97 61.5Q73 93 61.5 136Q50 179 50 228Z" glyph-name="q" horiz-adv-x="606" unicode="q" /><glyph d="M108 401Q108 414 106 422.5Q104 431 102 436H35V468H204V67Q204 42 209 32H296V0H35V32H102Q104 37 106 45.5Q108 54 108 67ZM315 399Q315 406 316 414Q317 422 319 427Q303 421 290.5 413Q278 405 274 403V434Q278 439 287 445.5Q296 452 308.5 458Q321 464 336.5 468.5Q352 473 369 473Q405 473 422.5 452.5Q440 432 440 404Q440 373 421.5 356Q403 339 377 339Q350 339 332.5 356Q315 373 315 399Z" glyph-name="r" horiz-adv-x="451" unicode="r" /><glyph d="M56 339Q56 402 96 438Q136 474 199 474V443Q167 442 146 425.5Q125 409 125 378Q125 347 147 329.5Q169 312 202.5 301Q236 290 274.5 280.5Q313 271 346.5 255Q380 239 402 212Q424 185 424 140Q424 115 416 89Q408 63 390 42Q372 21 343 7.5Q314 -6 272 -6V25Q295 26 310 33Q325 40 334.5 51Q344 62 348 75.5Q352 89 352 102Q352 136 330 153.5Q308 171 275 182Q242 193 204 201.5Q166 210 133 225Q100 240 78 266.5Q56 293 56 339ZM358 333Q357 386 332.5 412Q308 438 270 443V474Q293 474 316 464Q339 454 352 440L361 471H392V333ZM91 163Q94 34 200 25V-6Q175 -5 156.5 0Q138 5 125 11.5Q112 18 104.5 24.5Q97 31 95 34L86 -2H56V163Z" glyph-name="s" horiz-adv-x="459" unicode="s" /><glyph d="M78 600 173 649V468H295V436H173V87Q173 78 174.5 68.5Q176 59 181 51Q186 43 195.5 38Q205 33 220 33Q243 33 260 48Q277 63 277 103V127H306V103Q306 52 278.5 23.5Q251 -5 195 -5Q163 -5 140.5 4.5Q118 14 104 29Q90 44 84 63.5Q78 83 78 102V436H12V468H78Z" glyph-name="t" horiz-adv-x="326" unicode="t" /><glyph d="M83 401Q83 414 81 422.5Q79 431 77 436H15V468H184Q182 460 180.5 446.5Q179 433 179 422V155Q179 95 196.5 69.5Q214 44 253 44Q274 44 292 49.5Q310 55 323 60V32Q312 23 282.5 8.5Q253 -6 210 -6Q146 -6 114.5 34Q83 74 83 132ZM489 67Q489 54 490.5 45.5Q492 37 494 32H557V0H393V401Q393 414 391 422.5Q389 431 387 436H320V468H493Q491 458 490 445.5Q489 433 489 422Z" glyph-name="u" horiz-adv-x="587" unicode="u" /><glyph d="M266 -6 74 406Q66 423 57 429.5Q48 436 38 436H2V468H255V436H184Q183 434 182 430Q181 426 181 421Q181 404 191 383L332 75Q323 55 314 34.5Q305 14 295 -6ZM354 192 435 383Q440 397 442.5 407.5Q445 418 445 422Q445 429 442 436H363V468H558V436H523Q512 436 503 429.5Q494 423 486 406L371 154Z" glyph-name="v" horiz-adv-x="561" unicode="v" /><glyph d="M573 -6 433 292Q418 257 402.5 223Q387 189 371 154L354 192Q370 227 385 261Q400 295 415 330Q408 346 400.5 364.5Q393 383 384.5 399Q376 415 366 425.5Q356 436 345 436H314V468H562V436H491Q490 434 489 430Q488 426 488 421Q488 407 498 384L639 75Q630 55 621 34.5Q612 14 602 -6ZM266 -6 74 406Q66 423 57 429.5Q48 436 38 436H2V468H255V436H184Q182 432 182 421Q182 413 184.5 404Q187 395 192 384L332 75Q323 55 314 34.5Q305 14 295 -6ZM661 192 742 383Q747 397 749.5 407.5Q752 418 752 422Q752 429 749 436H670V468H865V436H830Q819 436 810 429.5Q801 423 793 406L678 154Z" glyph-name="w" horiz-adv-x="868" unicode="w" /><glyph d="M467 59Q478 46 488 39Q498 32 512 32H542V0H294V32H368Q368 40 363.5 47.5Q359 55 353 63L102 406Q88 423 78.5 429.5Q69 436 58 436H27V468H270V436H205Q206 425 214.5 411Q223 397 235 380ZM352 332 416 409Q420 414 424.5 422.5Q429 431 430 436H352V468H539V436H517Q506 436 492 431.5Q478 427 457 403L372 305ZM218 142 160 64Q156 59 147.5 48Q139 37 139 32H213V0H17V32H50Q61 32 79 37Q97 42 117 66L198 168Z" glyph-name="x" horiz-adv-x="560" unicode="x" /><glyph d="M358 192 439 382Q444 396 446.5 407Q449 418 449 422Q449 429 446 436H367V468H562V436H527Q516 436 507 429.5Q498 423 490 406L376 154ZM78 406Q70 423 61.5 429.5Q53 436 42 436H7V468H258V436H187Q186 434 186 432Q185 427 185 420Q185 415 186.5 406.5Q188 398 195 384L205 363Q240 291 270.5 218Q301 145 336 73L204 -218Q193 -241 180 -256Q167 -271 147 -271H138Q170 -202 201.5 -134Q233 -66 265 3ZM-12 -207Q-12 -180 6.5 -160.5Q25 -141 52 -141Q79 -141 98.5 -160.5Q118 -180 118 -207Q118 -234 98.5 -253Q79 -272 52 -272Q25 -272 6.5 -253Q-12 -234 -12 -207Z" glyph-name="y" horiz-adv-x="565" unicode="y" /><glyph d="M459 468 459 443L140 0H35L368 468ZM78 341 48 341V468H289L265 436H99Q94 431 89 415Q84 399 83 389ZM434 132 464 132V0H218L240 32H414Q419 37 423.5 51.5Q428 66 430 79Z" glyph-name="z" horiz-adv-x="501" unicode="z" /><glyph d="M110 620Q110 672 120 700.5Q130 729 153.5 742Q177 755 216 757.5Q255 760 313 760V726H279Q255 726 240.5 722.5Q226 719 219 708Q212 697 210 677Q208 657 208 625V450Q208 396 180.5 368.5Q153 341 86 341H25V371H68Q92 371 101 385.5Q110 400 110 443ZM208 6Q208 -26 210 -46Q212 -66 219 -77Q226 -88 240.5 -91.5Q255 -95 279 -95H313V-129Q255 -129 216 -126.5Q177 -124 153.5 -111Q130 -98 120 -69.5Q110 -41 110 11V192Q110 236 101 250.5Q92 265 68 265H25V295H86Q153 295 180.5 267.5Q208 240 208 186Z" glyph-name="braceleft" horiz-adv-x="338" unicode="{" /><glyph d="M100 838 141 838V-131H100Z" glyph-name="bar" horiz-adv-x="241" unicode="|" /><glyph d="M129 186Q129 240 156.5 267.5Q184 295 252 295H313V265H270Q244 265 236 250Q228 235 228 192V11Q228 -41 218 -69.5Q208 -98 184.5 -111Q161 -124 122 -126.5Q83 -129 25 -129V-95H59Q83 -95 97 -91.5Q111 -88 118 -77Q125 -66 127 -46Q129 -26 129 6ZM228 443Q228 399 236.5 385Q245 371 270 371H313V341H252Q184 341 156.5 368.5Q129 396 129 450V625Q129 657 127 677Q125 697 118 708Q111 719 97 722.5Q83 726 59 726H25V760Q83 760 122 757.5Q161 755 184.5 742Q208 729 218 700.5Q228 672 228 620Z" glyph-name="braceright" horiz-adv-x="338" unicode="}" /><glyph d="M366 359Q380 359 390 370.5Q400 382 402 416L436 411Q436 381 428.5 362.5Q421 344 410 334.5Q399 325 387 322Q375 319 366 319Q345 319 311 328Q277 337 241 347.5Q205 358 174.5 366.5Q144 375 131 375Q120 375 109 364.5Q98 354 96 318L62 323Q62 354 70 372.5Q78 391 89 400.5Q100 410 111.5 413Q123 416 131 416Q149 416 182.5 407Q216 398 252 387.5Q288 377 319.5 368Q351 359 366 359Z" glyph-name="asciitilde" horiz-adv-x="499" unicode="~" /><glyph d="M86 402Q86 431 106 451Q126 471 155 471Q184 471 204.5 451Q225 431 225 402Q225 373 204.5 352.5Q184 332 155 332Q126 332 106 352.5Q86 373 86 402ZM73 -173Q85 -143 96.5 -111Q108 -79 117.5 -31.5Q127 16 133 84Q139 152 140 254H171Q172 152 178 84Q184 16 193 -31.5Q202 -79 213.5 -111Q225 -143 237 -173Q225 -178 213 -189.5Q201 -201 191.5 -215.5Q182 -230 176 -245Q170 -260 169 -272H142Q141 -260 134.5 -245Q128 -230 118.5 -215.5Q109 -201 97 -189.5Q85 -178 73 -173Z" glyph-name="exclamdown" horiz-adv-x="311" unicode="¡" /><glyph d="M234 -5Q189 -4 154.5 14.5Q120 33 96 64.5Q72 96 60 139.5Q48 183 48 233Q48 286 61 330Q74 374 99 406Q124 438 160.5 456Q197 474 243 474V445Q216 441 198 430Q180 419 169.5 397.5Q159 376 155 342.5Q151 309 151 259V234Q151 177 154.5 138.5Q158 100 167.5 76.5Q177 53 194 41.5Q211 30 237 25L318 645H351L329 473Q367 470 394.5 456Q422 442 440 422.5Q458 403 466.5 382Q475 361 475 344Q475 315 456 296.5Q437 278 411 278Q385 278 366.5 295.5Q348 313 348 336Q348 352 356.5 358Q365 364 373 364Q374 379 385 388.5Q396 398 411 399Q403 413 379.5 427Q356 441 325 443L244 -187H211ZM479 138Q478 110 467 83.5Q456 57 435.5 37.5Q415 18 384.5 6Q354 -6 313 -6V24Q339 24 362 31Q385 38 403 52.5Q421 67 432.5 88.5Q444 110 445 138Z" glyph-name="cent" horiz-adv-x="527" unicode="¢" /><glyph d="M405 403 405 366H228Q228 341 225.5 317Q223 293 220 268H405V231H214Q205 165 180 103Q155 41 95 -7Q91 -5 80.5 3Q70 11 67 13Q102 45 119.5 82Q137 119 140 166Q140 181 140 197.5Q140 214 139 231H54V268H139Q139 291 136.5 316.5Q134 342 132 366H54V403H129Q128 421 126.5 438Q125 455 125 475Q125 527 139.5 569.5Q154 612 181 642.5Q208 673 247 689.5Q286 706 336 706Q380 706 412 694Q444 682 465 662.5Q486 643 496.5 618.5Q507 594 507 569Q507 533 488.5 514.5Q470 496 445 496Q420 496 402.5 512Q385 528 385 555Q385 582 402.5 599.5Q420 617 447 617Q449 617 453.5 617Q458 617 460 616Q457 623 449.5 632Q442 641 429.5 649.5Q417 658 399 663.5Q381 669 357 669Q320 669 295 655Q270 641 255 617.5Q240 594 233.5 562.5Q227 531 227 496V480Q227 461 227.5 442Q228 423 229 403ZM342 73Q388 73 418 74.5Q448 76 466 85Q484 94 491.5 113Q499 132 500 166L534 162Q535 154 535.5 146.5Q536 139 536 129Q536 66 507 26Q478 -14 425 -14Q400 -14 370 -5.5Q340 3 311.5 13Q283 23 258.5 31.5Q234 40 220 40L237 73Z" glyph-name="sterling" horiz-adv-x="593" unicode="£" /><glyph d="M128 350Q128 385 139 420Q150 455 172 482L62 593L92 623L203 512Q229 535 262.5 547.5Q296 560 333 560Q371 560 405.5 547Q440 534 467 512L578 623L607 593L497 482Q519 456 530.5 420.5Q542 385 542 346Q542 311 531.5 277.5Q521 244 497 217L607 107L578 77L466 187Q440 166 406 153.5Q372 141 334 141Q296 141 262.5 153.5Q229 166 203 187L92 77L62 107L172 217Q150 244 139 279Q128 314 128 350ZM170 350Q170 314 182.5 283Q195 252 217 229Q239 206 269 193Q299 180 335 180Q370 180 400.5 193Q431 206 453.5 229Q476 252 488.5 283Q501 314 501 350Q501 386 488.5 417Q476 448 453.5 471Q431 494 400.5 507.5Q370 521 335 521Q299 521 269 507.5Q239 494 217 471Q195 448 182.5 417Q170 386 170 350Z" glyph-name="currency" horiz-adv-x="670" unicode="¤" /><glyph d="M458 403 598 626Q604 636 609.5 646.5Q615 657 615 668H515V700H755V668H704Q693 668 677.5 660Q662 652 646 630L520 434H677V397H516Q506 391 496 385.5Q486 380 476 375ZM463 284 677 284V247H444V67Q444 54 445.5 45.5Q447 37 449 32H544V0H242V32H337Q339 37 341 45.5Q343 54 343 67V247H105V284H336Q324 315 308 341.5Q292 368 275 397H105V434H253L133 638Q112 668 93 668H37V700H325V668H242Q241 647 260 616L444 303Z" glyph-name="yen" horiz-adv-x="792" unicode="¥" /><glyph d="M100 414 100 838H141V414ZM141 296 141 -131H100V296Z" glyph-name="brokenbar" horiz-adv-x="241" unicode="¦" /><glyph d="M63 301Q63 370 101 418Q139 466 211 486Q153 509 113.5 552.5Q74 596 74 664Q74 702 87.5 736Q101 770 127 795.5Q153 821 190.5 836.5Q228 852 277 852V820Q252 820 229 813Q206 806 188.5 791.5Q171 777 161 756Q151 735 151 706Q151 655 181.5 625.5Q212 596 257.5 577.5Q303 559 356 544Q409 529 454.5 506Q500 483 530.5 446Q561 409 561 345Q561 279 527.5 230Q494 181 433 158Q486 135 523 93Q560 51 560 -18Q560 -59 546 -95Q532 -131 505 -159Q478 -187 438.5 -203Q399 -219 348 -219V-187Q407 -184 446.5 -153Q486 -122 486 -63Q486 -42 479 -31Q470 12 436 36Q402 60 355.5 76.5Q309 93 257.5 106.5Q206 120 163 142.5Q120 165 91.5 202Q63 239 63 301ZM487 305Q487 344 466 370Q445 396 412.5 413.5Q380 431 340.5 442.5Q301 454 263 465Q209 458 174.5 428.5Q140 399 140 347Q140 306 162.5 279Q185 252 220 234Q255 216 298 203Q341 190 382 177Q426 187 456.5 221.5Q487 256 487 305ZM108 0Q114 -33 124.5 -65Q135 -97 154 -123.5Q173 -150 203 -167Q233 -184 278 -187V-219Q244 -219 217 -211.5Q190 -204 170 -193Q150 -182 137.5 -171Q125 -160 121 -152L111 -213H76L73 0ZM483 668Q478 713 463 741.5Q448 770 428.5 786.5Q409 803 387.5 810.5Q366 818 347 820V852Q365 852 385.5 847Q406 842 424.5 833Q443 824 458.5 812.5Q474 801 482 787L495 846H526V668Z" glyph-name="section" horiz-adv-x="620" unicode="§" /><glyph d="M77 604Q77 630 95 649Q113 668 140 668Q167 668 185.5 649Q204 630 204 604Q204 577 185.5 558.5Q167 540 140 540Q113 540 95 558.5Q77 577 77 604ZM270 604Q270 630 288.5 649Q307 668 333 668Q360 668 378.5 649Q397 630 397 604Q397 577 378.5 558.5Q360 540 333 540Q307 540 288.5 558.5Q270 577 270 604Z" glyph-name="dieresis" horiz-adv-x="475" unicode="¨" /><glyph d="M263 351Q263 407 279.5 451.5Q296 496 326 527Q356 558 397 574.5Q438 591 486 591Q531 591 563 578Q595 565 615 546.5Q635 528 644.5 507.5Q654 487 654 471Q654 448 637 431.5Q620 415 597 415Q574 415 558 430.5Q542 446 542 466Q542 480 550 486Q558 492 567 492Q569 515 592 520Q582 533 557 545Q532 557 492 557Q426 557 390.5 515.5Q355 474 355 393V340Q355 301 361 267Q367 233 382.5 207.5Q398 182 425 167.5Q452 153 494 153Q550 153 587 179Q624 205 635 253L670 243Q667 225 656 202.5Q645 180 623.5 160.5Q602 141 568 128Q534 115 486 115Q432 115 390 133Q348 151 320 182.5Q292 214 277.5 257Q263 300 263 351ZM834 350Q834 439 806.5 505.5Q779 572 733.5 617Q688 662 629.5 685Q571 708 508 709V741Q586 741 653 713Q720 685 770 633.5Q820 582 848.5 510Q877 438 877 350Q877 262 848.5 190Q820 118 770 66.5Q720 15 653 -13Q586 -41 508 -41V-9Q571 -8 629.5 15Q688 38 733.5 82.5Q779 127 806.5 194Q834 261 834 350ZM121 350Q121 261 148.5 194Q176 127 221 82.5Q266 38 325 15Q384 -8 447 -9V-41Q369 -41 301.5 -13Q234 15 184 66.5Q134 118 105.5 190Q77 262 77 350Q77 438 105.5 510Q134 582 184 633.5Q234 685 301.5 713Q369 741 447 741V709Q384 708 325 685Q266 662 221 617Q176 572 148.5 505.5Q121 439 121 350Z" glyph-name="copyright" horiz-adv-x="955" unicode="©" /><glyph d="M349 893Q401 888 422.5 861.5Q444 835 444 803V499Q444 485 450 473.5Q456 462 473 462Q479 462 486 464.5Q493 467 499 474.5Q505 482 509 496Q513 510 513 532V556H542V533Q542 482 519.5 453Q497 424 444 424Q399 424 374 446Q349 468 349 509ZM278 647Q244 647 223.5 643Q203 639 191.5 628.5Q180 618 176 600.5Q172 583 172 555V535Q172 496 188 481Q204 466 233 466Q246 466 255 468Q264 470 278 475V451Q258 437 234.5 430.5Q211 424 186 424Q127 424 101 457.5Q75 491 75 540V547Q75 611 112 644Q149 677 239 677H278ZM161 781 127 781V893H278V861H175Q173 856 170 847.5Q167 839 165 826Z" glyph-name="ordfeminine" horiz-adv-x="612" unicode="ª" /><glyph d="M144 365 331 176L312 140L62 347V383L312 590L331 554ZM341 365 528 176L509 140L259 347V383L509 590L528 554Z" glyph-name="guillemotleft" horiz-adv-x="590" unicode="«" /><glyph d="M332 329 62 329V371H377V215H332Z" glyph-name="logicalnot" horiz-adv-x="440" unicode="¬" /><glyph d="M719 153Q706 147 686.5 144.5Q667 142 653 142Q611 142 593 161.5Q575 181 575 223V277Q575 312 554.5 323.5Q534 335 506 335H451V365H500Q526 365 541 371.5Q556 378 564 390Q572 402 574.5 419Q577 436 577 457Q577 474 575 489.5Q573 505 564.5 517Q556 529 540 536Q524 543 496 543H410V201Q410 195 411 186.5Q412 178 414 175H478V144H262V175H328Q330 177 331 185Q332 193 332 201V517Q332 523 331 531Q330 539 329 543H262V574H521Q563 574 589.5 562.5Q616 551 631.5 533.5Q647 516 652.5 496.5Q658 477 658 462Q658 450 654.5 434Q651 418 640.5 403Q630 388 611 374.5Q592 361 562 353Q608 348 631 322Q654 296 654 251V208Q654 189 661.5 182.5Q669 176 685 176Q693 176 704.5 177Q716 178 719 179ZM834 350Q834 439 806.5 505.5Q779 572 733.5 617Q688 662 629.5 685Q571 708 508 709V741Q586 741 653 713Q720 685 770 633.5Q820 582 848.5 510Q877 438 877 350Q877 262 848.5 190Q820 118 770 66.5Q720 15 653 -13Q586 -41 508 -41V-9Q571 -8 629.5 15Q688 38 733.5 82.5Q779 127 806.5 194Q834 261 834 350ZM121 350Q121 261 148.5 194Q176 127 221 82.5Q266 38 325 15Q384 -8 447 -9V-41Q369 -41 301.5 -13Q234 15 184 66.5Q134 118 105.5 190Q77 262 77 350Q77 438 105.5 510Q134 582 184 633.5Q234 685 301.5 713Q369 741 447 741V709Q384 708 325 685Q266 662 221 617Q176 572 148.5 505.5Q121 439 121 350Z" glyph-name="registered" horiz-adv-x="955" unicode="®" /><glyph d="M77 567 77 619H355V567Z" glyph-name="macron" horiz-adv-x="433" unicode="¯" /><glyph d="M62 509Q62 550 77 586Q92 622 118.5 648.5Q145 675 180.5 690.5Q216 706 257 706Q298 706 334 690.5Q370 675 396.5 648.5Q423 622 438 586Q453 550 453 509Q453 468 438 432.5Q423 397 396.5 370.5Q370 344 334 329Q298 314 257 314Q216 314 180.5 329Q145 344 118.5 370.5Q92 397 77 432.5Q62 468 62 509ZM101 509Q101 474 112.5 444.5Q124 415 144.5 393.5Q165 372 194 360Q223 348 257 348Q292 348 320.5 360Q349 372 370 393.5Q391 415 402.5 444.5Q414 474 414 509Q414 544 402.5 574Q391 604 370 625.5Q349 647 320.5 659Q292 671 257 671Q223 671 194 659Q165 647 144.5 625.5Q124 604 112.5 574Q101 544 101 509Z" glyph-name="degree" horiz-adv-x="516" unicode="°" /><glyph d="M361 409 361 160H320V409H77V451H320V700H361V451H604V409ZM77 0 77 42H604V0Z" glyph-name="plusminus" horiz-adv-x="681" unicode="±" /><glyph d="M382 300 364 233H151Q181 268 212 300ZM98 233 65 233V244L184 377Q232 430 260.5 480.5Q289 531 290 582Q290 632 263 658Q236 684 196 684Q167 684 143.5 672Q120 660 109 644Q128 644 143 631.5Q158 619 158 597Q158 578 145 565Q132 552 112 552Q92 552 79.5 566Q67 580 67 603Q67 623 77.5 643.5Q88 664 107.5 680.5Q127 697 155.5 707.5Q184 718 219 718Q249 718 276 710Q303 702 324 685.5Q345 669 357.5 645Q370 621 370 589Q370 560 359.5 537Q349 514 330 490.5Q311 467 285 440.5Q259 414 228 379Z" glyph-name="twosuperior" horiz-adv-x="444" unicode="²" /><glyph d="M192 255Q247 255 280 287Q313 319 313 372Q313 417 285.5 446.5Q258 476 197 476Q179 476 167.5 473.5Q156 471 144 468L136 485L346 712H372V697L223 536Q252 536 280 527.5Q308 519 330.5 501Q353 483 367 456Q381 429 381 392Q381 360 370 330.5Q359 301 336.5 278Q314 255 281 241Q248 227 204 227Q171 227 144.5 235Q118 243 99.5 256Q81 269 71.5 285.5Q62 302 62 319Q62 340 75 354.5Q88 369 108 369Q127 369 139.5 356Q152 343 152 323Q152 304 140.5 292.5Q129 281 115 278Q127 269 146.5 262Q166 255 192 255ZM81 644 81 712H294Q277 695 262 678Q247 661 230 644Z" glyph-name="threesuperior" horiz-adv-x="443" unicode="³" /><glyph d="M99 535 52 535L167 675H259Z" glyph-name="acute" horiz-adv-x="312" unicode="´" /><glyph d="M97 396Q97 409 95.5 417.5Q94 426 92 431H24V463H198Q196 455 194.5 441.5Q193 428 193 417V138Q193 88 215.5 66Q238 44 273 44Q293 44 311.5 49.5Q330 55 342 62V34Q336 29 325.5 22Q315 15 300.5 9Q286 3 268.5 -1.5Q251 -6 232 -6Q212 -6 192 0Q172 6 160 21V-261H97ZM508 67Q508 54 510 45.5Q512 37 514 32H581V0H412V396Q412 409 410 417.5Q408 426 406 431H339V463H512Q510 453 509 440.5Q508 428 508 417Z" glyph-name="mu" horiz-adv-x="616" unicode="µ" /><glyph d="M539 668 390 668V-152Q390 -170 385.5 -188.5Q381 -207 370 -223Q359 -239 339 -250Q319 -261 289 -264V231Q242 231 201.5 248.5Q161 266 131 297Q101 328 84 371Q67 414 67 466Q67 516 83 558.5Q99 601 127.5 632.5Q156 664 195 682Q234 700 280 700H741V668H646Q644 663 642 654.5Q640 646 640 633V67Q640 54 642 45.5Q644 37 646 32H741V0H539ZM97 -200Q97 -173 116 -154Q135 -135 161 -135Q188 -135 207.5 -154Q227 -173 227 -200Q227 -227 207.5 -245.5Q188 -264 161 -264Q135 -264 116 -245.5Q97 -227 97 -200Z" glyph-name="paragraph" horiz-adv-x="803" unicode="¶" /><glyph d="M62 354Q62 383 82 403.5Q102 424 131 424Q160 424 180.5 403.5Q201 383 201 354Q201 325 180.5 305Q160 285 131 285Q102 285 82 305Q62 325 62 354Z" glyph-name="periodcentered" horiz-adv-x="264" unicode="·" /><glyph d="M99 -109Q101 -105 104 -97Q107 -89 110.5 -80Q114 -71 117.5 -63Q121 -55 123 -51Q129 -50 136 -50Q141 -50 147.5 -49.5Q154 -49 160 -49Q218 -49 250 -80Q282 -111 282 -159Q282 -212 244.5 -241.5Q207 -271 154 -271Q132 -271 115 -266.5Q98 -262 86 -257Q72 -250 62 -242V-213Q71 -220 83 -225Q95 -230 109.5 -233.5Q124 -237 143 -237Q179 -237 201 -221Q223 -205 223 -173Q223 -141 200.5 -126Q178 -111 141 -111Q134 -111 126 -112Q122 -112 119 -112Q114 -111 107 -111Q100 -111 99 -109Z" glyph-name="cedilla" horiz-adv-x="345" unicode="¸" /><glyph d="M61 233 61 260H153Q155 268 155 282V670L203 718H230V282Q230 268 232 260H325V233ZM120 596 62 536L61 571L120 633Z" glyph-name="onesuperior" horiz-adv-x="386" unicode="¹" /><glyph d="M525 661Q525 611 512 567.5Q499 524 474.5 492Q450 460 414 442Q378 424 332 424V454Q362 457 380 467Q398 477 408 500.5Q418 524 421 562.5Q424 601 424 661Q424 721 421 759.5Q418 798 408 821.5Q398 845 380 856Q362 867 332 870V899Q378 899 414 880.5Q450 862 474.5 830Q499 798 512 754.5Q525 711 525 661ZM68 661Q68 711 81 754.5Q94 798 119 830Q144 862 180 880.5Q216 899 262 899V870Q232 867 213.5 856Q195 845 185 821.5Q175 798 172 759.5Q169 721 169 661Q169 601 172 562.5Q175 524 185 500.5Q195 477 213.5 467Q232 457 262 454V424Q216 424 180 442Q144 460 119 492Q94 524 81 567.5Q68 611 68 661Z" glyph-name="ordmasculine" horiz-adv-x="594" unicode="º" /><glyph d="M62 554 81 590L331 383V347L81 140L62 176L249 365ZM259 554 278 590L528 383V347L278 140L259 176L445 365Z" glyph-name="guillemotright" horiz-adv-x="590" unicode="»" /><glyph d="M69 233 69 260H161Q164 266 164 282V670L212 718H238V282Q238 274 239 268.5Q240 263 241 260H333V233ZM128 596 71 536L70 571L128 633ZM233 -21 208 0L855 729L880 708ZM797 347 669 183H832V433L874 485H905V183H999V156H905V48Q905 32 908 27H979V0H758V27H830Q832 33 832 48V156H633V181L797 388Z" glyph-name="onequarter" horiz-adv-x="1069" unicode="¼" /><glyph d="M234 -21Q228 -16 221.5 -10.5Q215 -5 209 0L856 729L881 708ZM70 233 70 260H162Q165 266 165 282V670L213 718H239V282Q239 274 240 268.5Q241 263 242 260H334V233ZM129 596 72 536Q71 545 71 554Q71 563 71 571L129 633ZM1037 67 1019 0H806L867 67ZM753 0 720 0V10L839 144Q888 199 916 249.5Q944 300 945 348Q945 399 918 424.5Q891 450 851 450Q824 450 799.5 439Q775 428 764 410Q783 410 798 397.5Q813 385 813 364Q813 344 800 331Q787 318 767 318Q747 318 734.5 332.5Q722 347 722 369Q722 389 732.5 409.5Q743 430 762.5 446.5Q782 463 810.5 473.5Q839 484 874 484Q903 484 930.5 476Q958 468 979 452Q1000 436 1012.5 411.5Q1025 387 1025 355Q1025 327 1014.5 303.5Q1004 280 985.5 256.5Q967 233 941 206.5Q915 180 883 145Z" glyph-name="onehalf" horiz-adv-x="1108" unicode="½" /><glyph d="M200 255Q254 255 287.5 286.5Q321 318 321 371Q321 416 293.5 446Q266 476 205 476Q187 476 175.5 473.5Q164 471 152 468L144 485L354 712H380V697L231 536Q260 536 288 527.5Q316 519 339 501Q362 483 376 456Q390 429 390 392Q390 360 378.5 330.5Q367 301 344.5 278Q322 255 289 241Q256 227 212 227Q179 227 152.5 235Q126 243 107.5 256Q89 269 79.5 285.5Q70 302 70 319Q70 340 83 354.5Q96 369 116 369Q135 369 147.5 356Q160 343 160 323Q160 304 148.5 292.5Q137 281 123 278Q136 269 155 262Q174 255 200 255ZM89 644 89 712H302Q285 695 270 678Q255 661 238 644ZM815 347Q783 305 751 265Q719 225 687 183H851V433L893 485H923V183H1018V156H923V48Q923 40 924 34.5Q925 29 926 27H998V0H776V27H848Q850 29 850.5 35Q851 41 851 48V156H652V181L815 388ZM251 -21Q245 -16 238.5 -10.5Q232 -5 226 0L873 729L899 708Z" glyph-name="threequarters" horiz-adv-x="1088" unicode="¾" /><glyph d="M277 249Q277 200 258.5 161.5Q240 123 218.5 87Q197 51 178.5 13Q160 -25 160 -73Q160 -139 195.5 -170Q231 -201 282 -201Q313 -201 334.5 -191.5Q356 -182 370 -171Q384 -160 390 -151.5Q396 -143 395 -145Q395 -146 390.5 -146Q386 -146 384 -146Q355 -146 336.5 -129Q318 -112 318 -86Q318 -59 336 -42.5Q354 -26 380 -26Q406 -26 425 -44Q444 -62 444 -96Q444 -125 428.5 -151.5Q413 -178 386.5 -198Q360 -218 324.5 -229.5Q289 -241 248 -241Q210 -241 175.5 -230Q141 -219 115 -198Q89 -177 73.5 -145.5Q58 -114 58 -72Q58 -32 71.5 -2Q85 28 105.5 53Q126 78 150 99.5Q174 121 194.5 143.5Q215 166 228.5 191.5Q242 217 243 249ZM326 402Q326 373 306 352.5Q286 332 257 332Q228 332 207.5 352.5Q187 373 187 402Q187 431 207.5 451Q228 471 257 471Q286 471 306 451Q326 431 326 402Z" glyph-name="questiondown" horiz-adv-x="481" unicode="¿" /><glyph d="M310 485Q272 388 234.5 292.5Q197 197 159 100L149 72Q146 63 145 57Q144 51 144 46Q144 36 146 32H253V0H12V32H68Q79 32 87 38.5Q95 45 102 62L292 530ZM475 242 285 242Q288 250 290.5 258Q293 266 296 274H462Q428 359 394 443.5Q360 528 326 614Q336 637 345 660Q354 683 364 706H396Q417 656 429.5 625Q442 594 450.5 573.5Q459 553 465 537Q471 521 479.5 500.5Q488 480 500.5 449.5Q513 419 533.5 369Q554 319 584.5 245Q615 171 659 62Q666 45 674 38.5Q682 32 693 32H742V0H465V32H546Q547 34 547 36Q548 41 548 46Q548 57 539 84ZM273 907 366 907L480 767H434Z" glyph-name="Agrave" horiz-adv-x="755" unicode="À" /><glyph d="M310 485Q272 388 234.5 292.5Q197 197 159 100L149 72Q146 63 145 57Q144 51 144 46Q144 36 146 32H253V0H12V32H68Q79 32 87 38.5Q95 45 102 62L292 530ZM475 242 285 242Q288 250 290.5 258Q293 266 296 274H462Q428 359 394 443.5Q360 528 326 614Q336 637 345 660Q354 683 364 706H396Q417 656 429.5 625Q442 594 450.5 573.5Q459 553 465 537Q471 521 479.5 500.5Q488 480 500.5 449.5Q513 419 533.5 369Q554 319 584.5 245Q615 171 659 62Q666 45 674 38.5Q682 32 693 32H742V0H465V32H546Q547 34 547 36Q548 41 548 46Q548 57 539 84ZM320 767 273 767L388 907H480Z" glyph-name="Aacute" horiz-adv-x="755" unicode="Á" /><glyph d="M310 485Q272 388 234.5 292.5Q197 197 159 100L149 72Q146 63 145 57Q144 51 144 46Q144 36 146 32H253V0H12V32H68Q79 32 87 38.5Q95 45 102 62L292 530ZM475 242 285 242Q288 250 290.5 258Q293 266 296 274H462Q428 359 394 443.5Q360 528 326 614Q336 637 345 660Q354 683 364 706H396Q417 656 429.5 625Q442 594 450.5 573.5Q459 553 465 537Q471 521 479.5 500.5Q488 480 500.5 449.5Q513 419 533.5 369Q554 319 584.5 245Q615 171 659 62Q666 45 674 38.5Q682 32 693 32H742V0H465V32H546Q547 34 547 36Q548 41 548 46Q548 57 539 84ZM377 860 290 767H245L359 917H394L508 767H464Z" glyph-name="Acircumflex" horiz-adv-x="755" unicode="Â" /><glyph d="M310 485Q272 388 234.5 292.5Q197 197 159 100L149 72Q146 63 145 57Q144 51 144 46Q144 36 146 32H253V0H12V32H68Q79 32 87 38.5Q95 45 102 62L292 530ZM475 242 285 242Q288 250 290.5 258Q293 266 296 274H462Q428 359 394 443.5Q360 528 326 614Q336 637 345 660Q354 683 364 706H396Q417 656 429.5 625Q442 594 450.5 573.5Q459 553 465 537Q471 521 479.5 500.5Q488 480 500.5 449.5Q513 419 533.5 369Q554 319 584.5 245Q615 171 659 62Q666 45 674 38.5Q682 32 693 32H742V0H465V32H546Q547 34 547 36Q548 41 548 46Q548 57 539 84ZM449 778Q430 778 409 784.5Q388 791 368 799Q348 807 329 813.5Q310 820 294 820Q280 820 262 812Q244 804 236 778L218 796Q223 831 248.5 852Q274 873 304 873Q322 873 341.5 866.5Q361 860 381.5 852Q402 844 422 837.5Q442 831 461 831Q474 831 491.5 838Q509 845 517 873L536 851Q529 814 504 796Q479 778 449 778Z" glyph-name="Atilde" horiz-adv-x="755" unicode="Ã" /><glyph d="M310 485Q272 388 234.5 292.5Q197 197 159 100L149 72Q146 63 145 57Q144 51 144 46Q144 36 146 32H253V0H12V32H68Q79 32 87 38.5Q95 45 102 62L292 530ZM475 242 285 242Q288 250 290.5 258Q293 266 296 274H462Q428 359 394 443.5Q360 528 326 614Q336 637 345 660Q354 683 364 706H396Q417 656 429.5 625Q442 594 450.5 573.5Q459 553 465 537Q471 521 479.5 500.5Q488 480 500.5 449.5Q513 419 533.5 369Q554 319 584.5 245Q615 171 659 62Q666 45 674 38.5Q682 32 693 32H742V0H465V32H546Q547 34 547 36Q548 41 548 46Q548 57 539 84ZM216 836Q216 862 234 881Q252 900 279 900Q306 900 324.5 881Q343 862 343 836Q343 809 324.5 790.5Q306 772 279 772Q252 772 234 790.5Q216 809 216 836ZM409 836Q409 862 427.5 881Q446 900 472 900Q499 900 517.5 881Q536 862 536 836Q536 809 517.5 790.5Q499 772 472 772Q446 772 427.5 790.5Q409 809 409 836Z" glyph-name="Adieresis" horiz-adv-x="755" unicode="Ä" /><glyph d="M475 242 285 242Q288 250 290.5 258Q293 266 296 274H462Q431 352 399.5 429.5Q368 507 337 585V633Q295 646 267.5 681.5Q240 717 240 765Q240 794 250.5 819Q261 844 279.5 863Q298 882 323 892.5Q348 903 377 903Q406 903 431 892.5Q456 882 474.5 863Q493 844 504 819.5Q515 795 515 766Q515 720 488.5 685.5Q462 651 424 637L659 62Q666 45 674 38.5Q682 32 693 32H742V0H465V32H546Q547 34 547 36Q548 41 548 46Q548 57 539 84ZM310 485Q272 388 234.5 292.5Q197 197 159 100L149 72Q146 63 145 57Q144 51 144 46Q144 36 146 32H253V0H12V32H68Q79 32 87 38.5Q95 45 102 62L292 530ZM276 765Q276 719 303.5 690Q331 661 377 661Q422 661 449.5 690Q477 719 477 765Q477 810 449.5 839.5Q422 869 377 869Q331 869 303.5 839.5Q276 810 276 765Z" glyph-name="Aring" horiz-adv-x="755" unicode="Å" /><glyph d="M182 105Q168 80 161 58.5Q154 37 154 32H265V0H17V32H69Q98 32 115 67L461 668H319V700H601V371L787 376Q792 376 803 376.5Q814 377 821 382L840 489H871V221H840L821 328Q816 329 807.5 331Q799 333 787 334L601 339V0H415V32H495Q497 37 498.5 45.5Q500 54 500 67V304H364L381 336H500V669ZM671 32 921 32Q934 32 942 34Q950 36 955 38Q963 68 970 98.5Q977 129 984 160H1015V0H671ZM671 700 986 700V540H955L926 662Q921 664 912.5 666Q904 668 892 668H671Z" glyph-name="AE" horiz-adv-x="1078" unicode="Æ" /><glyph d="M167 350Q167 192 218 114Q269 36 384 26V-6Q307 -6 247 21Q187 48 145.5 95.5Q104 143 82 208.5Q60 274 60 350Q60 427 82 492Q104 557 145.5 604.5Q187 652 247 679Q307 706 384 706V674Q269 664 218 586Q167 508 167 350ZM664 472Q659 502 644.5 537.5Q630 573 604.5 603Q579 633 541.5 653Q504 673 454 674V706Q504 706 539 691Q574 676 597 659Q624 638 641 611L668 700H699V472ZM701 228 701 0H670L643 88Q625 62 598 41Q573 22 538.5 8Q504 -6 454 -6V26Q504 26 541.5 46.5Q579 67 605 97Q631 127 646 162Q661 197 666 228ZM322 -109Q324 -105 327 -97Q330 -89 333.5 -80Q337 -71 340.5 -63Q344 -55 346 -51Q352 -50 359 -50Q364 -50 370.5 -49.5Q377 -49 383 -49Q441 -49 473 -80Q505 -111 505 -159Q505 -212 467.5 -241.5Q430 -271 377 -271Q355 -271 338 -266.5Q321 -262 309 -257Q295 -250 285 -242V-213Q294 -220 306 -225Q318 -230 332.5 -233.5Q347 -237 366 -237Q402 -237 424 -221Q446 -205 446 -173Q446 -141 423.5 -126Q401 -111 364 -111Q357 -111 349 -112Q345 -112 342 -112Q337 -111 330 -111Q323 -111 322 -109Z" glyph-name="Ccedilla" horiz-adv-x="796" unicode="Ç" /><glyph d="M439 376Q453 376 461 378Q469 380 473 382L493 489H524V221H493L473 328Q469 330 461 332Q453 334 439 334L254 339V0H52V32H147Q149 37 151 45.5Q153 54 153 67V633Q153 646 151 654.5Q149 663 147 668H52V700H254V371ZM324 668 324 700H639V540H608L579 662Q574 664 565.5 666Q557 668 545 668ZM324 32 574 32Q586 32 594.5 34Q603 36 608 38L637 160H668V0H324ZM263 907 356 907L470 767H424Z" glyph-name="Egrave" horiz-adv-x="731" unicode="È" /><glyph d="M439 376Q453 376 461 378Q469 380 473 382L493 489H524V221H493L473 328Q469 330 461 332Q453 334 439 334L254 339V0H52V32H147Q149 37 151 45.5Q153 54 153 67V633Q153 646 151 654.5Q149 663 147 668H52V700H254V371ZM324 668 324 700H639V540H608L579 662Q574 664 565.5 666Q557 668 545 668ZM324 32 574 32Q586 32 594.5 34Q603 36 608 38L637 160H668V0H324ZM324 767 277 767L392 907H484Z" glyph-name="Eacute" horiz-adv-x="731" unicode="É" /><glyph d="M439 376Q453 376 461 378Q469 380 473 382L493 489H524V221H493L473 328Q469 330 461 332Q453 334 439 334L254 339V0H52V32H147Q149 37 151 45.5Q153 54 153 67V633Q153 646 151 654.5Q149 663 147 668H52V700H254V371ZM324 668 324 700H639V540H608L579 662Q574 664 565.5 666Q557 668 545 668ZM324 32 574 32Q586 32 594.5 34Q603 36 608 38L637 160H668V0H324ZM367 860 280 767H235L349 917H384L498 767H454Z" glyph-name="Ecircumflex" horiz-adv-x="731" unicode="Ê" /><glyph d="M439 376Q453 376 461 378Q469 380 473 382L493 489H524V221H493L473 328Q469 330 461 332Q453 334 439 334L254 339V0H52V32H147Q149 37 151 45.5Q153 54 153 67V633Q153 646 151 654.5Q149 663 147 668H52V700H254V371ZM324 668 324 700H639V540H608L579 662Q574 664 565.5 666Q557 668 545 668ZM324 32 574 32Q586 32 594.5 34Q603 36 608 38L637 160H668V0H324ZM207 836Q207 862 225 881Q243 900 270 900Q297 900 315.5 881Q334 862 334 836Q334 809 315.5 790.5Q297 772 270 772Q243 772 225 790.5Q207 809 207 836ZM400 836Q400 862 418.5 881Q437 900 463 900Q490 900 508.5 881Q527 862 527 836Q527 809 508.5 790.5Q490 772 463 772Q437 772 418.5 790.5Q400 809 400 836Z" glyph-name="Edieresis" horiz-adv-x="731" unicode="Ë" /><glyph d="M52 0 52 32H152Q154 37 156 45.5Q158 54 158 67V633Q158 646 156 654.5Q154 663 152 668H52V700H364V668H264Q259 658 259 633V67Q259 42 264 32H364V0ZM104 907 197 907L311 767H265Z" glyph-name="Igrave" horiz-adv-x="417" unicode="Ì" /><glyph d="M52 0 52 32H152Q154 37 156 45.5Q158 54 158 67V633Q158 646 156 654.5Q154 663 152 668H52V700H364V668H264Q259 658 259 633V67Q259 42 264 32H364V0ZM151 767 104 767L219 907H311Z" glyph-name="Iacute" horiz-adv-x="417" unicode="Í" /><glyph d="M52 0 52 32H152Q154 37 156 45.5Q158 54 158 67V633Q158 646 156 654.5Q154 663 152 668H52V700H364V668H264Q259 658 259 633V67Q259 42 264 32H364V0ZM208 860 121 767H76L190 917H225L339 767H295Z" glyph-name="Icircumflex" horiz-adv-x="417" unicode="Î" /><glyph d="M52 0 52 32H152Q154 37 156 45.5Q158 54 158 67V633Q158 646 156 654.5Q154 663 152 668H52V700H364V668H264Q259 658 259 633V67Q259 42 264 32H364V0ZM48 836Q48 862 66 881Q84 900 111 900Q138 900 156.5 881Q175 862 175 836Q175 809 156.5 790.5Q138 772 111 772Q84 772 66 790.5Q48 809 48 836ZM241 836Q241 862 259.5 881Q278 900 304 900Q331 900 349.5 881Q368 862 368 836Q368 809 349.5 790.5Q331 772 304 772Q278 772 259.5 790.5Q241 809 241 836Z" glyph-name="Idieresis" horiz-adv-x="417" unicode="Ï" /><glyph d="M52 371 152 371V633Q152 658 147 668H52V700H253V371H446V339H253V0H52V32H147Q152 42 152 67V339H52ZM663 348Q663 435 648 495.5Q633 556 603.5 594.5Q574 633 529.5 650.5Q485 668 426 668H323V700H442Q518 700 579 676Q640 652 682.5 607Q725 562 748 497.5Q771 433 771 352Q771 274 749.5 209.5Q728 145 687 98.5Q646 52 586.5 26Q527 0 451 0H323V32H435Q551 32 607 106Q663 180 663 348Z" glyph-name="Eth" horiz-adv-x="818" unicode="Ð" /><glyph d="M187 487 192 67Q192 53 194 45Q196 37 198 32H301V0H47V32H140Q142 37 144 45.5Q146 54 146 67L152 526ZM658 270 652 633Q652 647 650 655Q648 663 646 668H544V700H802V668H705Q703 663 701 654.5Q699 646 699 633L693 228ZM121 668 47 668V700H227L693 125L692 0H670ZM491 778Q472 778 451 784.5Q430 791 410 799Q390 807 371 813.5Q352 820 336 820Q322 820 304 812Q286 804 278 778L260 796Q265 831 290.5 852Q316 873 346 873Q364 873 383.5 866.5Q403 860 423.5 852Q444 844 464 837.5Q484 831 503 831Q516 831 533.5 838Q551 845 559 873L578 851Q571 814 546 796Q521 778 491 778Z" glyph-name="Ntilde" horiz-adv-x="832" unicode="Ñ" /><glyph d="M167 350Q167 192 214 114Q261 36 370 26V-6Q300 -6 242.5 21Q185 48 144.5 96Q104 144 82 209Q60 274 60 350Q60 426 82 491Q104 556 144.5 604Q185 652 242.5 679Q300 706 370 706V674Q261 664 214 586Q167 508 167 350ZM642 350Q642 508 594.5 586Q547 664 440 674V706Q509 706 566.5 679Q624 652 664.5 604Q705 556 727.5 491Q750 426 750 350Q750 274 727.5 209Q705 144 664.5 96Q624 48 566.5 21Q509 -6 440 -6V26Q547 36 594.5 114Q642 192 642 350ZM301 907 394 907L508 767H462Z" glyph-name="Ograve" horiz-adv-x="810" unicode="Ò" /><glyph d="M167 350Q167 192 214 114Q261 36 370 26V-6Q300 -6 242.5 21Q185 48 144.5 96Q104 144 82 209Q60 274 60 350Q60 426 82 491Q104 556 144.5 604Q185 652 242.5 679Q300 706 370 706V674Q261 664 214 586Q167 508 167 350ZM642 350Q642 508 594.5 586Q547 664 440 674V706Q509 706 566.5 679Q624 652 664.5 604Q705 556 727.5 491Q750 426 750 350Q750 274 727.5 209Q705 144 664.5 96Q624 48 566.5 21Q509 -6 440 -6V26Q547 36 594.5 114Q642 192 642 350ZM348 767 301 767L416 907H508Z" glyph-name="Oacute" horiz-adv-x="810" unicode="Ó" /><glyph d="M167 350Q167 192 214 114Q261 36 370 26V-6Q300 -6 242.5 21Q185 48 144.5 96Q104 144 82 209Q60 274 60 350Q60 426 82 491Q104 556 144.5 604Q185 652 242.5 679Q300 706 370 706V674Q261 664 214 586Q167 508 167 350ZM642 350Q642 508 594.5 586Q547 664 440 674V706Q509 706 566.5 679Q624 652 664.5 604Q705 556 727.5 491Q750 426 750 350Q750 274 727.5 209Q705 144 664.5 96Q624 48 566.5 21Q509 -6 440 -6V26Q547 36 594.5 114Q642 192 642 350ZM405 860 318 767H273L387 917H422L536 767H492Z" glyph-name="Ocircumflex" horiz-adv-x="810" unicode="Ô" /><glyph d="M167 350Q167 192 214 114Q261 36 370 26V-6Q300 -6 242.5 21Q185 48 144.5 96Q104 144 82 209Q60 274 60 350Q60 426 82 491Q104 556 144.5 604Q185 652 242.5 679Q300 706 370 706V674Q261 664 214 586Q167 508 167 350ZM642 350Q642 508 594.5 586Q547 664 440 674V706Q509 706 566.5 679Q624 652 664.5 604Q705 556 727.5 491Q750 426 750 350Q750 274 727.5 209Q705 144 664.5 96Q624 48 566.5 21Q509 -6 440 -6V26Q547 36 594.5 114Q642 192 642 350ZM476 778Q457 778 436 784.5Q415 791 395 799Q375 807 356 813.5Q337 820 321 820Q307 820 289 812Q271 804 263 778L245 796Q250 831 275.5 852Q301 873 331 873Q349 873 368.5 866.5Q388 860 408.5 852Q429 844 449 837.5Q469 831 488 831Q501 831 518.5 838Q536 845 544 873L563 851Q556 814 531 796Q506 778 476 778Z" glyph-name="Otilde" horiz-adv-x="810" unicode="Õ" /><glyph d="M167 350Q167 192 214 114Q261 36 370 26V-6Q300 -6 242.5 21Q185 48 144.5 96Q104 144 82 209Q60 274 60 350Q60 426 82 491Q104 556 144.5 604Q185 652 242.5 679Q300 706 370 706V674Q261 664 214 586Q167 508 167 350ZM642 350Q642 508 594.5 586Q547 664 440 674V706Q509 706 566.5 679Q624 652 664.5 604Q705 556 727.5 491Q750 426 750 350Q750 274 727.5 209Q705 144 664.5 96Q624 48 566.5 21Q509 -6 440 -6V26Q547 36 594.5 114Q642 192 642 350ZM244 836Q244 862 262 881Q280 900 307 900Q334 900 352.5 881Q371 862 371 836Q371 809 352.5 790.5Q334 772 307 772Q280 772 262 790.5Q244 809 244 836ZM437 836Q437 862 455.5 881Q474 900 500 900Q527 900 545.5 881Q564 862 564 836Q564 809 545.5 790.5Q527 772 500 772Q474 772 455.5 790.5Q437 809 437 836Z" glyph-name="Odieresis" horiz-adv-x="810" unicode="Ö" /><glyph d="M328 380 565 623L594 593L357 350L594 107L565 77L328 320L91 77L62 107L299 350L62 593L91 623Z" glyph-name="multiply" horiz-adv-x="657" unicode="×" /><glyph d="M610 784 641 770L590 668Q665 624 710 541Q755 458 755 349Q755 274 732.5 209Q710 144 669.5 96.5Q629 49 571.5 21.5Q514 -6 445 -6V26Q553 36 600 113.5Q647 191 647 346Q647 449 627.5 516.5Q608 584 568 622Q496 479 426 336.5Q356 194 285 51Q322 30 375 26V-6Q314 -6 266 13Q254 -12 241.5 -36.5Q229 -61 217 -87Q209 -82 201.5 -79Q194 -76 186 -71Q198 -46 210 -21.5Q222 3 235 27Q157 69 111 154.5Q65 240 65 351Q65 426 87 491Q109 556 149.5 604Q190 652 247.5 679Q305 706 375 706V674Q266 664 219 586Q172 508 172 353Q172 246 192.5 177.5Q213 109 257 71Q328 216 398.5 358Q469 500 540 645Q503 668 445 674V706Q507 706 559 683Z" glyph-name="Oslash" horiz-adv-x="820" unicode="Ø" /><glyph d="M123 633Q123 646 121 654.5Q119 663 117 668H22V700H325V668H230Q228 663 226 654.5Q224 646 224 633V237Q224 176 234 136.5Q244 97 265.5 73Q287 49 320.5 38.5Q354 28 400 26V-6Q363 -6 315 -1.5Q267 3 224 27Q181 51 152 101Q123 151 123 242ZM716 633 716 242Q716 158 692 109Q668 60 631 34.5Q594 9 551 1.5Q508 -6 470 -6V26Q579 30 626.5 79.5Q674 129 674 242V633Q674 646 672 654.5Q670 663 668 668H559V700H822V668H722Q720 663 718 654.5Q716 646 716 633ZM318 907 411 907L525 767H479Z" glyph-name="Ugrave" horiz-adv-x="844" unicode="Ù" /><glyph d="M123 633Q123 646 121 654.5Q119 663 117 668H22V700H325V668H230Q228 663 226 654.5Q224 646 224 633V237Q224 176 234 136.5Q244 97 265.5 73Q287 49 320.5 38.5Q354 28 400 26V-6Q363 -6 315 -1.5Q267 3 224 27Q181 51 152 101Q123 151 123 242ZM716 633 716 242Q716 158 692 109Q668 60 631 34.5Q594 9 551 1.5Q508 -6 470 -6V26Q579 30 626.5 79.5Q674 129 674 242V633Q674 646 672 654.5Q670 663 668 668H559V700H822V668H722Q720 663 718 654.5Q716 646 716 633ZM385 767 338 767L453 907H545Z" glyph-name="Uacute" horiz-adv-x="844" unicode="Ú" /><glyph d="M123 633Q123 646 121 654.5Q119 663 117 668H22V700H325V668H230Q228 663 226 654.5Q224 646 224 633V237Q224 176 234 136.5Q244 97 265.5 73Q287 49 320.5 38.5Q354 28 400 26V-6Q363 -6 315 -1.5Q267 3 224 27Q181 51 152 101Q123 151 123 242ZM716 633 716 242Q716 158 692 109Q668 60 631 34.5Q594 9 551 1.5Q508 -6 470 -6V26Q579 30 626.5 79.5Q674 129 674 242V633Q674 646 672 654.5Q670 663 668 668H559V700H822V668H722Q720 663 718 654.5Q716 646 716 633ZM422 860 335 767H290L404 917H439L553 767H509Z" glyph-name="Ucircumflex" horiz-adv-x="844" unicode="Û" /><glyph d="M123 633Q123 646 121 654.5Q119 663 117 668H22V700H325V668H230Q228 663 226 654.5Q224 646 224 633V237Q224 176 234 136.5Q244 97 265.5 73Q287 49 320.5 38.5Q354 28 400 26V-6Q363 -6 315 -1.5Q267 3 224 27Q181 51 152 101Q123 151 123 242ZM716 633 716 242Q716 158 692 109Q668 60 631 34.5Q594 9 551 1.5Q508 -6 470 -6V26Q579 30 626.5 79.5Q674 129 674 242V633Q674 646 672 654.5Q670 663 668 668H559V700H822V668H722Q720 663 718 654.5Q716 646 716 633ZM261 836Q261 862 279 881Q297 900 324 900Q351 900 369.5 881Q388 862 388 836Q388 809 369.5 790.5Q351 772 324 772Q297 772 279 790.5Q261 809 261 836ZM454 836Q454 862 472.5 881Q491 900 517 900Q544 900 562.5 881Q581 862 581 836Q581 809 562.5 790.5Q544 772 517 772Q491 772 472.5 790.5Q454 809 454 836Z" glyph-name="Udieresis" horiz-adv-x="844" unicode="Ü" /><glyph d="M218 0 218 32H313Q318 42 318 67V284L108 638Q89 668 68 668H12V700H303V668H219Q219 657 222.5 645.5Q226 634 237 616L419 305V67Q419 54 421 45.5Q423 37 425 32H520V0ZM434 403 573 626Q581 636 586 646.5Q591 657 591 668H491V700H730V668H679Q669 668 653.5 660Q638 652 622 630L453 370ZM354 767 307 767L422 907H514Z" glyph-name="Yacute" horiz-adv-x="743" unicode="Ý" /><glyph d="M50 0 50 32H145Q147 37 149 45.5Q151 54 151 67V633Q151 646 149 654.5Q147 663 145 668H50V700H252V67Q252 54 254 45.5Q256 37 258 32H357V0ZM545 368Q545 406 542.5 436.5Q540 467 526.5 489Q513 511 484.5 522.5Q456 534 405 534H322V566H436Q512 566 555 545Q598 524 619.5 494.5Q641 465 646.5 432Q652 399 652 375Q652 344 645 308.5Q638 273 614.5 242.5Q591 212 546 191.5Q501 171 425 171H322V203H404Q456 203 484.5 216.5Q513 230 526.5 253Q540 276 542.5 305.5Q545 335 545 368Z" glyph-name="Thorn" horiz-adv-x="695" unicode="Þ" /><glyph d="M203 67Q203 54 205 45.5Q207 37 209 32H286V0H34V32H101Q103 37 105 45.5Q107 54 107 67V436H34V468H107V587Q107 631 126.5 662Q146 693 203 700ZM459 607Q459 636 436.5 652Q414 668 379 668H273V700H387Q420 700 440.5 691Q461 682 473 668Q485 654 489.5 638.5Q494 623 494 609Q494 579 479 549.5Q464 520 445.5 493.5Q427 467 412 444.5Q397 422 397 406Q397 386 421.5 359Q446 332 475.5 299Q505 266 529.5 226Q554 186 554 141Q554 114 543.5 88Q533 62 513 42Q493 22 463 10Q433 -2 395 -2V30Q421 32 436 40.5Q451 49 458.5 60Q466 71 468.5 83Q471 95 471 103Q471 117 466.5 130.5Q462 144 454 157Q440 181 416.5 209Q393 237 370.5 263.5Q348 290 331.5 313.5Q315 337 315 353Q315 373 337.5 403.5Q360 434 387 469Q414 504 436.5 540.5Q459 577 459 607Z" glyph-name="germandbls" horiz-adv-x="581" unicode="ß" /><glyph d="M320 468Q373 463 394.5 436.5Q416 410 416 378V81Q416 64 422.5 48Q429 32 452 32Q469 32 481 45.5Q493 59 493 99V136H522V102Q522 51 499.5 22.5Q477 -6 423 -6Q367 -6 343.5 22.5Q320 51 320 91ZM250 222Q209 222 185.5 217Q162 212 150.5 199Q139 186 136.5 163Q134 140 134 105Q134 35 195 35Q208 35 222.5 37.5Q237 40 250 45V21Q230 7 205 0.5Q180 -6 154 -6Q94 -6 65.5 29.5Q37 65 37 114V126Q37 190 74.5 221Q112 252 202 252H250ZM118 356 84 356V468H250V436H133Q131 431 128 422.5Q125 414 123 401ZM162 675 255 675L369 535H323Z" glyph-name="agrave" horiz-adv-x="535" unicode="à" /><glyph d="M320 468Q373 463 394.5 436.5Q416 410 416 378V81Q416 64 422.5 48Q429 32 452 32Q469 32 481 45.5Q493 59 493 99V136H522V102Q522 51 499.5 22.5Q477 -6 423 -6Q367 -6 343.5 22.5Q320 51 320 91ZM250 222Q209 222 185.5 217Q162 212 150.5 199Q139 186 136.5 163Q134 140 134 105Q134 35 195 35Q208 35 222.5 37.5Q237 40 250 45V21Q230 7 205 0.5Q180 -6 154 -6Q94 -6 65.5 29.5Q37 65 37 114V126Q37 190 74.5 221Q112 252 202 252H250ZM118 356 84 356V468H250V436H133Q131 431 128 422.5Q125 414 123 401ZM209 535 162 535L277 675H369Z" glyph-name="aacute" horiz-adv-x="535" unicode="á" /><glyph d="M320 468Q373 463 394.5 436.5Q416 410 416 378V81Q416 64 422.5 48Q429 32 452 32Q469 32 481 45.5Q493 59 493 99V136H522V102Q522 51 499.5 22.5Q477 -6 423 -6Q367 -6 343.5 22.5Q320 51 320 91ZM250 222Q209 222 185.5 217Q162 212 150.5 199Q139 186 136.5 163Q134 140 134 105Q134 35 195 35Q208 35 222.5 37.5Q237 40 250 45V21Q230 7 205 0.5Q180 -6 154 -6Q94 -6 65.5 29.5Q37 65 37 114V126Q37 190 74.5 221Q112 252 202 252H250ZM118 356 84 356V468H250V436H133Q131 431 128 422.5Q125 414 123 401ZM261 628 174 535H129L243 685H278L392 535H348Z" glyph-name="acircumflex" horiz-adv-x="535" unicode="â" /><glyph d="M320 468Q373 463 394.5 436.5Q416 410 416 378V81Q416 64 422.5 48Q429 32 452 32Q469 32 481 45.5Q493 59 493 99V136H522V102Q522 51 499.5 22.5Q477 -6 423 -6Q367 -6 343.5 22.5Q320 51 320 91ZM250 222Q209 222 185.5 217Q162 212 150.5 199Q139 186 136.5 163Q134 140 134 105Q134 35 195 35Q208 35 222.5 37.5Q237 40 250 45V21Q230 7 205 0.5Q180 -6 154 -6Q94 -6 65.5 29.5Q37 65 37 114V126Q37 190 74.5 221Q112 252 202 252H250ZM118 356 84 356V468H250V436H133Q131 431 128 422.5Q125 414 123 401ZM338 546Q319 546 298 552.5Q277 559 257 567Q237 575 218 581.5Q199 588 183 588Q169 588 151 580Q133 572 125 546L107 564Q112 599 137.5 620Q163 641 193 641Q211 641 230.5 634.5Q250 628 270.5 620Q291 612 311 605.5Q331 599 350 599Q363 599 380.5 606Q398 613 406 641L425 619Q418 582 393 564Q368 546 338 546Z" glyph-name="atilde" horiz-adv-x="535" unicode="ã" /><glyph d="M320 468Q373 463 394.5 436.5Q416 410 416 378V81Q416 64 422.5 48Q429 32 452 32Q469 32 481 45.5Q493 59 493 99V136H522V102Q522 51 499.5 22.5Q477 -6 423 -6Q367 -6 343.5 22.5Q320 51 320 91ZM250 222Q209 222 185.5 217Q162 212 150.5 199Q139 186 136.5 163Q134 140 134 105Q134 35 195 35Q208 35 222.5 37.5Q237 40 250 45V21Q230 7 205 0.5Q180 -6 154 -6Q94 -6 65.5 29.5Q37 65 37 114V126Q37 190 74.5 221Q112 252 202 252H250ZM118 356 84 356V468H250V436H133Q131 431 128 422.5Q125 414 123 401ZM82 604Q82 630 100 649Q118 668 145 668Q172 668 190.5 649Q209 630 209 604Q209 577 190.5 558.5Q172 540 145 540Q118 540 100 558.5Q82 577 82 604ZM275 604Q275 630 293.5 649Q312 668 338 668Q365 668 383.5 649Q402 630 402 604Q402 577 383.5 558.5Q365 540 338 540Q312 540 293.5 558.5Q275 577 275 604Z" glyph-name="adieresis" horiz-adv-x="535" unicode="ä" /><glyph d="M320 468Q373 463 394.5 436.5Q416 410 416 378V81Q416 64 422.5 48Q429 32 452 32Q469 32 481 45.5Q493 59 493 99V136H522V102Q522 51 499.5 22.5Q477 -6 423 -6Q367 -6 343.5 22.5Q320 51 320 91ZM250 222Q209 222 185.5 217Q162 212 150.5 199Q139 186 136.5 163Q134 140 134 105Q134 35 195 35Q208 35 222.5 37.5Q237 40 250 45V21Q230 7 205 0.5Q180 -6 154 -6Q94 -6 65.5 29.5Q37 65 37 114V126Q37 190 74.5 221Q112 252 202 252H250ZM118 356 84 356V468H250V436H133Q131 431 128 422.5Q125 414 123 401ZM149 624Q149 645 157 663.5Q165 682 178.5 696Q192 710 210.5 718Q229 726 250 726Q271 726 290 718Q309 710 322.5 696Q336 682 344 663.5Q352 645 352 624Q352 581 322.5 552Q293 523 250 523Q208 523 178.5 552Q149 581 149 624ZM181 624Q181 592 199.5 571.5Q218 551 250 551Q282 551 301.5 571.5Q321 592 321 624Q321 656 301.5 677Q282 698 250 698Q218 698 199.5 677Q181 656 181 624Z" glyph-name="aring" horiz-adv-x="535" unicode="å" /><glyph d="M660 280 660 309Q660 369 646 404Q632 439 586 445V474Q621 474 652 460Q683 446 706.5 420.5Q730 395 743.5 357.5Q757 320 757 272V248H426V247V235Q426 176 429 137Q432 98 442 74.5Q452 51 469.5 39.5Q487 28 516 24V-6Q470 -6 435 12Q400 30 376 62Q352 94 340 138Q328 182 328 234V468Q354 465 374 453Q394 441 403 424Q421 447 450.5 460.5Q480 474 516 474V445Q463 440 444.5 399Q426 358 426 280ZM258 214Q221 213 198.5 208.5Q176 204 163.5 194.5Q151 185 146.5 167.5Q142 150 142 122Q142 74 154 54.5Q166 35 201 35Q215 35 229.5 37.5Q244 40 258 45V21Q238 7 212.5 0.5Q187 -6 162 -6Q103 -6 74 28.5Q45 63 45 113V125Q45 163 59 186Q73 209 100.5 222Q128 235 167.5 239.5Q207 244 258 244ZM126 356 92 356V468H258V436H136Q130 426 128 401ZM753 138Q751 110 740 83.5Q729 57 708.5 37.5Q688 18 657.5 6Q627 -6 586 -6V24Q612 24 635 31Q658 38 676 52Q694 66 705.5 87.5Q717 109 718 138Z" glyph-name="ae" horiz-adv-x="797" unicode="æ" /><glyph d="M153 235Q153 176 156 137Q159 98 168.5 74.5Q178 51 196 39.5Q214 28 243 24V-6Q197 -6 161 12Q125 30 100.5 62Q76 94 63 137.5Q50 181 50 232Q50 284 63.5 328Q77 372 101.5 404Q126 436 162 454.5Q198 473 243 474V445Q193 437 173 396.5Q153 356 153 280ZM344 345Q344 366 357.5 385Q371 404 397 408Q392 417 368 430.5Q344 444 313 445V474Q348 474 377 463Q406 452 427 434Q448 416 460 394Q472 372 472 351Q472 322 452.5 302Q433 282 406 282Q380 282 362 300.5Q344 319 344 345ZM480 138Q479 109 467.5 83Q456 57 435 37Q414 17 383.5 5.5Q353 -6 313 -6V24Q338 24 361 31Q384 38 402 52Q420 66 432 87.5Q444 109 445 138ZM188 -109Q190 -105 193 -97Q196 -89 199.5 -80Q203 -71 206.5 -63Q210 -55 212 -51Q218 -50 225 -50Q230 -50 236.5 -49.5Q243 -49 249 -49Q307 -49 339 -80Q371 -111 371 -159Q371 -212 333.5 -241.5Q296 -271 243 -271Q221 -271 204 -266.5Q187 -262 175 -257Q161 -250 151 -242V-213Q160 -220 172 -225Q184 -230 198.5 -233.5Q213 -237 232 -237Q268 -237 290 -221Q312 -205 312 -173Q312 -141 289.5 -126Q267 -111 230 -111Q223 -111 215 -112Q211 -112 208 -112Q203 -111 196 -111Q189 -111 188 -109Z" glyph-name="ccedilla" horiz-adv-x="522" unicode="ç" /><glyph d="M386 309Q386 368 372.5 403.5Q359 439 313 445V474Q348 474 379 460Q410 446 433.5 420.5Q457 395 470.5 357.5Q484 320 484 272V248H153V235Q153 176 156 137Q159 98 168.5 74.5Q178 51 196 39.5Q214 28 243 24V-6Q197 -6 161 12Q125 30 100.5 62Q76 94 63 138Q50 182 50 234Q50 286 63 330Q76 374 100.5 406Q125 438 161 456Q197 474 243 474V445Q191 440 172 399Q153 358 153 280H386ZM479 138Q478 109 466.5 83Q455 57 434.5 37Q414 17 383.5 5.5Q353 -6 313 -6V24Q338 24 361 31Q384 38 402 52Q420 66 432 87.5Q444 109 445 138ZM162 675 255 675L369 535H323Z" glyph-name="egrave" horiz-adv-x="534" unicode="è" /><glyph d="M386 309Q386 368 372.5 403.5Q359 439 313 445V474Q348 474 379 460Q410 446 433.5 420.5Q457 395 470.5 357.5Q484 320 484 272V248H153V235Q153 176 156 137Q159 98 168.5 74.5Q178 51 196 39.5Q214 28 243 24V-6Q197 -6 161 12Q125 30 100.5 62Q76 94 63 138Q50 182 50 234Q50 286 63 330Q76 374 100.5 406Q125 438 161 456Q197 474 243 474V445Q191 440 172 399Q153 358 153 280H386ZM479 138Q478 109 466.5 83Q455 57 434.5 37Q414 17 383.5 5.5Q353 -6 313 -6V24Q338 24 361 31Q384 38 402 52Q420 66 432 87.5Q444 109 445 138ZM209 535 162 535L277 675H369Z" glyph-name="eacute" horiz-adv-x="534" unicode="é" /><glyph d="M386 309Q386 368 372.5 403.5Q359 439 313 445V474Q348 474 379 460Q410 446 433.5 420.5Q457 395 470.5 357.5Q484 320 484 272V248H153V235Q153 176 156 137Q159 98 168.5 74.5Q178 51 196 39.5Q214 28 243 24V-6Q197 -6 161 12Q125 30 100.5 62Q76 94 63 138Q50 182 50 234Q50 286 63 330Q76 374 100.5 406Q125 438 161 456Q197 474 243 474V445Q191 440 172 399Q153 358 153 280H386ZM479 138Q478 109 466.5 83Q455 57 434.5 37Q414 17 383.5 5.5Q353 -6 313 -6V24Q338 24 361 31Q384 38 402 52Q420 66 432 87.5Q444 109 445 138ZM273 628 186 535H141L255 685H290L404 535H360Z" glyph-name="ecircumflex" horiz-adv-x="534" unicode="ê" /><glyph d="M386 309Q386 368 372.5 403.5Q359 439 313 445V474Q348 474 379 460Q410 446 433.5 420.5Q457 395 470.5 357.5Q484 320 484 272V248H153V235Q153 176 156 137Q159 98 168.5 74.5Q178 51 196 39.5Q214 28 243 24V-6Q197 -6 161 12Q125 30 100.5 62Q76 94 63 138Q50 182 50 234Q50 286 63 330Q76 374 100.5 406Q125 438 161 456Q197 474 243 474V445Q191 440 172 399Q153 358 153 280H386ZM479 138Q478 109 466.5 83Q455 57 434.5 37Q414 17 383.5 5.5Q353 -6 313 -6V24Q338 24 361 31Q384 38 402 52Q420 66 432 87.5Q444 109 445 138ZM112 604Q112 630 130 649Q148 668 175 668Q202 668 220.5 649Q239 630 239 604Q239 577 220.5 558.5Q202 540 175 540Q148 540 130 558.5Q112 577 112 604ZM305 604Q305 630 323.5 649Q342 668 368 668Q395 668 413.5 649Q432 630 432 604Q432 577 413.5 558.5Q395 540 368 540Q342 540 323.5 558.5Q305 577 305 604Z" glyph-name="edieresis" horiz-adv-x="534" unicode="ë" /><glyph d="M45 675 138 675L252 535H206ZM103 396Q103 409 101 417.5Q99 426 97 431H30V463H199V67Q199 54 201 45.5Q203 37 205 32H272V0H30V32H97Q99 37 101 45.5Q103 54 103 67Z" glyph-name="igrave" horiz-adv-x="298" unicode="ì" /><glyph d="M92 535 45 535L160 675H252ZM103 396Q103 409 101 417.5Q99 426 97 431H30V463H199V67Q199 54 201 45.5Q203 37 205 32H272V0H30V32H97Q99 37 101 45.5Q103 54 103 67Z" glyph-name="iacute" horiz-adv-x="298" unicode="í" /><glyph d="M103 396Q103 409 101 417.5Q99 426 97 431H30V463H199V67Q199 54 201 45.5Q203 37 205 32H272V0H30V32H97Q99 37 101 45.5Q103 54 103 67ZM149 628 62 535H17L131 685H166L280 535H236Z" glyph-name="icircumflex" horiz-adv-x="298" unicode="î" /><glyph d="M-11 604Q-11 630 7 649Q25 668 52 668Q79 668 97.5 649Q116 630 116 604Q116 577 97.5 558.5Q79 540 52 540Q25 540 7 558.5Q-11 577 -11 604ZM182 604Q182 630 200.5 649Q219 668 245 668Q272 668 290.5 649Q309 630 309 604Q309 577 290.5 558.5Q272 540 245 540Q219 540 200.5 558.5Q182 577 182 604ZM103 396Q103 409 101 417.5Q99 426 97 431H30V463H199V67Q199 54 201 45.5Q203 37 205 32H272V0H30V32H97Q99 37 101 45.5Q103 54 103 67Z" glyph-name="idieresis" horiz-adv-x="298" unicode="ï" /><glyph d="M172 573Q192 587 212 601Q232 615 252 629Q222 652 192 672Q162 692 133 706L151 729Q185 717 221 699Q257 681 293 658L381 721L398 695L319 639Q360 608 395 569.5Q430 531 456 486Q482 441 497 390Q512 339 512 282V234Q512 182 499 138Q486 94 461 62Q436 30 399.5 12Q363 -6 317 -6V24Q347 27 365 37.5Q383 48 393 72Q403 96 406 135Q409 174 409 234Q409 294 406 333Q403 372 393 396Q383 420 365 431Q347 442 317 445V474Q346 474 372 461Q398 448 408 430Q392 478 357 524Q322 570 277 608L189 546ZM51 234Q51 286 64.5 330Q78 374 103 406Q128 438 164.5 456Q201 474 247 474V445Q217 442 198.5 431Q180 420 170 396Q160 372 157 333Q154 294 154 234Q154 174 157 135Q160 96 170 72Q180 48 198.5 37.5Q217 27 247 24V-6Q201 -6 164.5 12Q128 30 103 62Q78 94 64.5 138Q51 182 51 234Z" glyph-name="eth" horiz-adv-x="564" unicode="ð" /><glyph d="M108 401Q108 414 106 422.5Q104 431 102 436H35V468H204V67Q204 54 206 45.5Q208 37 210 32H277V0H35V32H102Q104 37 106 45.5Q108 54 108 67ZM519 67Q519 54 520.5 45.5Q522 37 524 32H592V0H350V32H417Q419 37 421 45.5Q423 54 423 67V330Q423 380 400.5 401.5Q378 423 345 423Q325 423 305.5 417Q286 411 274 406V434Q289 445 317.5 459.5Q346 474 391 474Q459 474 489 435Q519 396 519 334ZM383 546Q364 546 343 552.5Q322 559 302 567Q282 575 263 581.5Q244 588 228 588Q214 588 196 580Q178 572 170 546L152 564Q157 599 182.5 620Q208 641 238 641Q256 641 275.5 634.5Q295 628 315.5 620Q336 612 356 605.5Q376 599 395 599Q408 599 425.5 606Q443 613 451 641L470 619Q463 582 438 564Q413 546 383 546Z" glyph-name="ntilde" horiz-adv-x="617" unicode="ñ" /><glyph d="M50 234Q50 286 63 330Q76 374 101 406Q126 438 162.5 456Q199 474 245 474V445Q215 442 197 431Q179 420 169 396Q159 372 156 333Q153 294 153 234Q153 174 156 135Q159 96 169 72Q179 48 197 37.5Q215 27 245 24V-6Q199 -6 162.5 12Q126 30 101 62Q76 94 63 138Q50 182 50 234ZM511 234Q511 182 497.5 138Q484 94 459 62Q434 30 397.5 12Q361 -6 315 -6V24Q345 27 363.5 37.5Q382 48 392 72Q402 96 405 135Q408 174 408 234Q408 294 405 333Q402 372 392 396Q382 420 363.5 431Q345 442 315 445V474Q361 474 397.5 456Q434 438 459 406Q484 374 497.5 330Q511 286 511 234ZM176 675 269 675L383 535H337Z" glyph-name="ograve" horiz-adv-x="561" unicode="ò" /><glyph d="M50 234Q50 286 63 330Q76 374 101 406Q126 438 162.5 456Q199 474 245 474V445Q215 442 197 431Q179 420 169 396Q159 372 156 333Q153 294 153 234Q153 174 156 135Q159 96 169 72Q179 48 197 37.5Q215 27 245 24V-6Q199 -6 162.5 12Q126 30 101 62Q76 94 63 138Q50 182 50 234ZM511 234Q511 182 497.5 138Q484 94 459 62Q434 30 397.5 12Q361 -6 315 -6V24Q345 27 363.5 37.5Q382 48 392 72Q402 96 405 135Q408 174 408 234Q408 294 405 333Q402 372 392 396Q382 420 363.5 431Q345 442 315 445V474Q361 474 397.5 456Q434 438 459 406Q484 374 497.5 330Q511 286 511 234ZM223 535 176 535L291 675H383Z" glyph-name="oacute" horiz-adv-x="561" unicode="ó" /><glyph d="M50 234Q50 286 63 330Q76 374 101 406Q126 438 162.5 456Q199 474 245 474V445Q215 442 197 431Q179 420 169 396Q159 372 156 333Q153 294 153 234Q153 174 156 135Q159 96 169 72Q179 48 197 37.5Q215 27 245 24V-6Q199 -6 162.5 12Q126 30 101 62Q76 94 63 138Q50 182 50 234ZM511 234Q511 182 497.5 138Q484 94 459 62Q434 30 397.5 12Q361 -6 315 -6V24Q345 27 363.5 37.5Q382 48 392 72Q402 96 405 135Q408 174 408 234Q408 294 405 333Q402 372 392 396Q382 420 363.5 431Q345 442 315 445V474Q361 474 397.5 456Q434 438 459 406Q484 374 497.5 330Q511 286 511 234ZM280 628 193 535H148L262 685H297L411 535H367Z" glyph-name="ocircumflex" horiz-adv-x="561" unicode="ô" /><glyph d="M50 234Q50 286 63 330Q76 374 101 406Q126 438 162.5 456Q199 474 245 474V445Q215 442 197 431Q179 420 169 396Q159 372 156 333Q153 294 153 234Q153 174 156 135Q159 96 169 72Q179 48 197 37.5Q215 27 245 24V-6Q199 -6 162.5 12Q126 30 101 62Q76 94 63 138Q50 182 50 234ZM511 234Q511 182 497.5 138Q484 94 459 62Q434 30 397.5 12Q361 -6 315 -6V24Q345 27 363.5 37.5Q382 48 392 72Q402 96 405 135Q408 174 408 234Q408 294 405 333Q402 372 392 396Q382 420 363.5 431Q345 442 315 445V474Q361 474 397.5 456Q434 438 459 406Q484 374 497.5 330Q511 286 511 234ZM352 546Q333 546 312 552.5Q291 559 271 567Q251 575 232 581.5Q213 588 197 588Q183 588 165 580Q147 572 139 546L121 564Q126 599 151.5 620Q177 641 207 641Q225 641 244.5 634.5Q264 628 284.5 620Q305 612 325 605.5Q345 599 364 599Q377 599 394.5 606Q412 613 420 641L439 619Q432 582 407 564Q382 546 352 546Z" glyph-name="otilde" horiz-adv-x="561" unicode="õ" /><glyph d="M50 234Q50 286 63 330Q76 374 101 406Q126 438 162.5 456Q199 474 245 474V445Q215 442 197 431Q179 420 169 396Q159 372 156 333Q153 294 153 234Q153 174 156 135Q159 96 169 72Q179 48 197 37.5Q215 27 245 24V-6Q199 -6 162.5 12Q126 30 101 62Q76 94 63 138Q50 182 50 234ZM511 234Q511 182 497.5 138Q484 94 459 62Q434 30 397.5 12Q361 -6 315 -6V24Q345 27 363.5 37.5Q382 48 392 72Q402 96 405 135Q408 174 408 234Q408 294 405 333Q402 372 392 396Q382 420 363.5 431Q345 442 315 445V474Q361 474 397.5 456Q434 438 459 406Q484 374 497.5 330Q511 286 511 234ZM120 604Q120 630 138 649Q156 668 183 668Q210 668 228.5 649Q247 630 247 604Q247 577 228.5 558.5Q210 540 183 540Q156 540 138 558.5Q120 577 120 604ZM313 604Q313 630 331.5 649Q350 668 376 668Q403 668 421.5 649Q440 630 440 604Q440 577 421.5 558.5Q403 540 376 540Q350 540 331.5 558.5Q313 577 313 604Z" glyph-name="odieresis" horiz-adv-x="561" unicode="ö" /><glyph d="M147 176Q147 205 167 225.5Q187 246 216 246Q245 246 265.5 225.5Q286 205 286 176Q286 147 265.5 127Q245 107 216 107Q187 107 167 127Q147 147 147 176ZM147 511Q147 540 167 560.5Q187 581 216 581Q245 581 265.5 560.5Q286 540 286 511Q286 482 265.5 462Q245 442 216 442Q187 442 167 462Q147 482 147 511ZM375 366 375 324H60V366Z" glyph-name="divide" horiz-adv-x="435" unicode="÷" /><glyph d="M442 556Q450 551 457 547Q464 543 472 539L419 443Q464 413 487.5 358Q511 303 511 233Q511 181 497.5 137.5Q484 94 459 62Q434 30 397.5 12Q361 -6 315 -6V24Q345 27 363 37Q381 47 391 70Q401 93 404.5 131.5Q408 170 408 229Q408 292 404.5 330.5Q401 369 392 392Q342 303 294 215Q246 127 196 37Q214 27 245 24V-6Q211 -6 178 5L123 -97Q115 -92 108 -88Q101 -84 93 -80Q107 -55 120.5 -30Q134 -5 148 20Q100 49 75 105Q50 161 50 234Q50 286 63 330Q76 374 101 406Q126 438 162.5 456Q199 474 245 474V445Q215 442 197 430.5Q179 419 169 395.5Q159 372 156 333.5Q153 295 153 237Q153 169 157 129.5Q161 90 173 67L371 425Q351 440 315 445V474Q336 474 354 470Q372 466 389 459Z" glyph-name="oslash" horiz-adv-x="561" unicode="ø" /><glyph d="M83 401Q83 414 81 422.5Q79 431 77 436H15V468H184Q182 460 180.5 446.5Q179 433 179 422V155Q179 95 196.5 69.5Q214 44 253 44Q274 44 292 49.5Q310 55 323 60V32Q312 23 282.5 8.5Q253 -6 210 -6Q146 -6 114.5 34Q83 74 83 132ZM489 67Q489 54 490.5 45.5Q492 37 494 32H557V0H393V401Q393 414 391 422.5Q389 431 387 436H320V468H493Q491 458 490 445.5Q489 433 489 422ZM173 675 266 675L380 535H334Z" glyph-name="ugrave" horiz-adv-x="587" unicode="ù" /><glyph d="M83 401Q83 414 81 422.5Q79 431 77 436H15V468H184Q182 460 180.5 446.5Q179 433 179 422V155Q179 95 196.5 69.5Q214 44 253 44Q274 44 292 49.5Q310 55 323 60V32Q312 23 282.5 8.5Q253 -6 210 -6Q146 -6 114.5 34Q83 74 83 132ZM489 67Q489 54 490.5 45.5Q492 37 494 32H557V0H393V401Q393 414 391 422.5Q389 431 387 436H320V468H493Q491 458 490 445.5Q489 433 489 422ZM250 535 203 535L318 675H410Z" glyph-name="uacute" horiz-adv-x="587" unicode="ú" /><glyph d="M83 401Q83 414 81 422.5Q79 431 77 436H15V468H184Q182 460 180.5 446.5Q179 433 179 422V155Q179 95 196.5 69.5Q214 44 253 44Q274 44 292 49.5Q310 55 323 60V32Q312 23 282.5 8.5Q253 -6 210 -6Q146 -6 114.5 34Q83 74 83 132ZM489 67Q489 54 490.5 45.5Q492 37 494 32H557V0H393V401Q393 414 391 422.5Q389 431 387 436H320V468H493Q491 458 490 445.5Q489 433 489 422ZM290 628 203 535H158L272 685H307L421 535H377Z" glyph-name="ucircumflex" horiz-adv-x="587" unicode="û" /><glyph d="M83 401Q83 414 81 422.5Q79 431 77 436H15V468H184Q182 460 180.5 446.5Q179 433 179 422V155Q179 95 196.5 69.5Q214 44 253 44Q274 44 292 49.5Q310 55 323 60V32Q312 23 282.5 8.5Q253 -6 210 -6Q146 -6 114.5 34Q83 74 83 132ZM489 67Q489 54 490.5 45.5Q492 37 494 32H557V0H393V401Q393 414 391 422.5Q389 431 387 436H320V468H493Q491 458 490 445.5Q489 433 489 422ZM120 604Q120 630 138 649Q156 668 183 668Q210 668 228.5 649Q247 630 247 604Q247 577 228.5 558.5Q210 540 183 540Q156 540 138 558.5Q120 577 120 604ZM313 604Q313 630 331.5 649Q350 668 376 668Q403 668 421.5 649Q440 630 440 604Q440 577 421.5 558.5Q403 540 376 540Q350 540 331.5 558.5Q313 577 313 604Z" glyph-name="udieresis" horiz-adv-x="587" unicode="ü" /><glyph d="M358 192 439 382Q444 396 446.5 407Q449 418 449 422Q449 429 446 436H367V468H562V436H527Q516 436 507 429.5Q498 423 490 406L376 154ZM78 406Q70 423 61.5 429.5Q53 436 42 436H7V468H258V436H187Q186 434 186 432Q185 427 185 420Q185 415 186.5 406.5Q188 398 195 384L205 363Q240 291 270.5 218Q301 145 336 73L204 -218Q193 -241 180 -256Q167 -271 147 -271H138Q170 -202 201.5 -134Q233 -66 265 3ZM-12 -207Q-12 -180 6.5 -160.5Q25 -141 52 -141Q79 -141 98.5 -160.5Q118 -180 118 -207Q118 -234 98.5 -253Q79 -272 52 -272Q25 -272 6.5 -253Q-12 -234 -12 -207ZM271 535 224 535L339 675H431Z" glyph-name="yacute" horiz-adv-x="565" unicode="ý" /><glyph d="M107 643Q107 656 105 664.5Q103 673 101 678H34V710H203V-194Q203 -207 205 -215.5Q207 -224 209 -229H295V-261H34V-229H101Q103 -224 105 -215.5Q107 -207 107 -194ZM558 240Q558 190 545.5 145.5Q533 101 508.5 67Q484 33 447 13.5Q410 -6 361 -6Q309 -6 273 13V41Q290 33 308.5 30.5Q327 28 339 28Q404 28 429.5 84Q455 140 455 236Q455 334 429 386.5Q403 439 336 439Q322 439 305.5 436.5Q289 434 273 427V456Q290 464 313 469Q336 474 362 474Q409 474 445.5 456.5Q482 439 507 408Q532 377 545 334Q558 291 558 240Z" glyph-name="thorn" horiz-adv-x="610" unicode="þ" /><glyph d="M358 192 439 382Q444 396 446.5 407Q449 418 449 422Q449 429 446 436H367V468H562V436H527Q516 436 507 429.5Q498 423 490 406L376 154ZM78 406Q70 423 61.5 429.5Q53 436 42 436H7V468H258V436H187Q186 434 186 432Q185 427 185 420Q185 415 186.5 406.5Q188 398 195 384L205 363Q240 291 270.5 218Q301 145 336 73L204 -218Q193 -241 180 -256Q167 -271 147 -271H138Q170 -202 201.5 -134Q233 -66 265 3ZM-12 -207Q-12 -180 6.5 -160.5Q25 -141 52 -141Q79 -141 98.5 -160.5Q118 -180 118 -207Q118 -234 98.5 -253Q79 -272 52 -272Q25 -272 6.5 -253Q-12 -234 -12 -207ZM124 604Q124 630 142 649Q160 668 187 668Q214 668 232.5 649Q251 630 251 604Q251 577 232.5 558.5Q214 540 187 540Q160 540 142 558.5Q124 577 124 604ZM317 604Q317 630 335.5 649Q354 668 380 668Q407 668 425.5 649Q444 630 444 604Q444 577 425.5 558.5Q407 540 380 540Q354 540 335.5 558.5Q317 577 317 604Z" glyph-name="ydieresis" horiz-adv-x="570" unicode="ÿ" /><glyph d="M103 396Q103 409 101 417.5Q99 426 97 431H30V463H199V67Q199 54 201 45.5Q203 37 205 32H272V0H30V32H97Q99 37 101 45.5Q103 54 103 67Z" glyph-name="dotlessi" horiz-adv-x="298" unicode="ı" /><glyph d="M254 323 254 0H53V32H148Q150 37 152 45.5Q154 54 154 67V284L62 248V284Q85 292 108 301.5Q131 311 154 319V633Q154 646 152 654.5Q150 663 148 668H53V700H375V668H260Q258 663 256 654.5Q254 646 254 633V359L470 443V408ZM550 32Q563 32 571.5 34Q580 36 584 38L614 160H645V0H324V32Z" glyph-name="Lslash" horiz-adv-x="695" unicode="Ł" /><glyph d="M272 394 199 365V67Q199 54 201 45.5Q203 37 205 32H272V0H30V32H97Q99 37 101 45.5Q103 54 103 67V327L30 299V334Q48 341 66.5 347.5Q85 354 103 362V633Q103 646 101 654.5Q99 663 97 668H30V700H199V399L272 428Z" glyph-name="lslash" horiz-adv-x="308" unicode="ł" /><glyph d="M912 373Q926 373 933.5 375Q941 377 946 379L961 489H992V221H961L946 330Q941 332 933 334Q925 336 912 336L724 339V0H523V32H618Q623 42 623 67V633Q623 658 618 668H523V700H724V371ZM794 668 794 700H1119V550H1088L1059 662Q1054 664 1046 666Q1038 668 1025 668ZM794 32 1044 32Q1057 32 1065 34Q1073 36 1078 38L1108 150H1139V0H794ZM167 348Q167 180 224 106Q281 32 396 32H452V0H380Q304 0 244.5 26Q185 52 144 98.5Q103 145 81.5 209.5Q60 274 60 352Q60 433 83 497.5Q106 562 148.5 607Q191 652 251.5 676Q312 700 388 700H452V668H405Q346 668 301.5 650.5Q257 633 227 594.5Q197 556 182 495.5Q167 435 167 348Z" glyph-name="OE" horiz-adv-x="1206" unicode="Œ" /><glyph d="M55 234Q55 286 68.5 330Q82 374 107 406Q132 438 168.5 456Q205 474 251 474V445Q221 442 202.5 431Q184 420 174 396Q164 372 161 333Q158 294 158 234Q158 174 161 135Q164 96 174 72Q184 48 202.5 37.5Q221 27 251 24V-6Q205 -6 168.5 12Q132 30 107 62Q82 94 68.5 138Q55 182 55 234ZM750 280 750 309Q750 368 736.5 403.5Q723 439 677 445V474Q712 474 743 460Q774 446 797.5 420.5Q821 395 834.5 357.5Q848 320 848 272V248H517V247V235Q517 176 520 137Q523 98 532.5 74.5Q542 51 560 39.5Q578 28 607 24V-6Q557 -6 522 14Q487 34 464 70Q441 34 405.5 14Q370 -6 321 -6V24Q351 27 369.5 37.5Q388 48 398 72Q408 96 411 135Q414 174 414 234Q414 294 411 333Q408 372 398 396Q388 420 369.5 431Q351 442 321 445V474Q370 474 405.5 453Q441 432 464 397Q487 433 522 453.5Q557 474 607 474V445Q554 440 535.5 399Q517 358 517 280ZM843 138Q842 109 830.5 83Q819 57 798.5 37Q778 17 747.5 5.5Q717 -6 677 -6V24Q702 24 725 31Q748 38 766 52Q784 66 796 87.5Q808 109 809 138Z" glyph-name="oe" horiz-adv-x="901" unicode="œ" /><glyph d="M66 512Q66 556 80.5 591.5Q95 627 122 652.5Q149 678 186.5 692Q224 706 270 706V674Q245 674 221.5 666.5Q198 659 180.5 644.5Q163 630 152.5 608.5Q142 587 142 558Q142 507 173.5 479Q205 451 251.5 433.5Q298 416 353 402.5Q408 389 454.5 366.5Q501 344 532.5 307Q564 270 564 205Q564 160 547.5 121.5Q531 83 502 54.5Q473 26 432 10Q391 -6 341 -6V26Q367 26 393 34Q419 42 440 57.5Q461 73 474 97.5Q487 122 487 155Q487 208 456 236.5Q425 265 378 282.5Q331 300 276.5 313.5Q222 327 175 349Q128 371 97 408.5Q66 446 66 512ZM472 522Q467 566 452.5 594.5Q438 623 419.5 640Q401 657 380 664.5Q359 672 341 674V706Q380 706 416 687.5Q452 669 469 640L483 700H514V522ZM102 213Q107 180 117 148Q127 116 146 89.5Q165 63 195.5 46Q226 29 271 26V-6Q213 -6 172.5 16.5Q132 39 113 70L99 0H66V213ZM390 917 434 917L320 767H285L171 917H216L303 824Z" glyph-name="Scaron" horiz-adv-x="591" unicode="Š" /><glyph d="M56 339Q56 402 96 438Q136 474 199 474V443Q167 442 146 425.5Q125 409 125 378Q125 347 147 329.5Q169 312 202.5 301Q236 290 274.5 280.5Q313 271 346.5 255Q380 239 402 212Q424 185 424 140Q424 115 416 89Q408 63 390 42Q372 21 343 7.5Q314 -6 272 -6V25Q295 26 310 33Q325 40 334.5 51Q344 62 348 75.5Q352 89 352 102Q352 136 330 153.5Q308 171 275 182Q242 193 204 201.5Q166 210 133 225Q100 240 78 266.5Q56 293 56 339ZM358 333Q357 386 332.5 412Q308 438 270 443V474Q293 474 316 464Q339 454 352 440L361 471H392V333ZM91 163Q94 34 200 25V-6Q175 -5 156.5 0Q138 5 125 11.5Q112 18 104.5 24.5Q97 31 95 34L86 -2H56V163ZM323 685 367 685L253 535H218L104 685H149L236 592Z" glyph-name="scaron" horiz-adv-x="459" unicode="š" /><glyph d="M218 0 218 32H313Q318 42 318 67V284L108 638Q89 668 68 668H12V700H303V668H219Q219 657 222.5 645.5Q226 634 237 616L419 305V67Q419 54 421 45.5Q423 37 425 32H520V0ZM434 403 573 626Q581 636 586 646.5Q591 657 591 668H491V700H730V668H679Q669 668 653.5 660Q638 652 622 630L453 370ZM213 846Q213 872 231 891Q249 910 276 910Q303 910 321.5 891Q340 872 340 846Q340 819 321.5 800.5Q303 782 276 782Q249 782 231 800.5Q213 819 213 846ZM406 846Q406 872 424.5 891Q443 910 469 910Q496 910 514.5 891Q533 872 533 846Q533 819 514.5 800.5Q496 782 469 782Q443 782 424.5 800.5Q406 819 406 846Z" glyph-name="Ydieresis" horiz-adv-x="743" unicode="Ÿ" /><glyph d="M52 13 553 700H655V689L157 0H52ZM560 32Q572 32 580.5 34Q589 36 594 38Q602 68 609 98.5Q616 129 623 160H654V0H236L258 32ZM160 668Q148 668 139.5 666Q131 664 126 662L97 540H66V700H474L450 668ZM441 917 485 917L371 767H336L222 917H267L354 824Z" glyph-name="Zcaron" horiz-adv-x="708" unicode="Ž" /><glyph d="M459 468 459 443L140 0H35L368 468ZM78 341 48 341V468H289L265 436H99Q94 431 89 415Q84 399 83 389ZM434 132 464 132V0H218L240 32H414Q419 37 423.5 51.5Q428 66 430 79ZM342 685 386 685L272 535H237L123 685H168L255 592Z" glyph-name="zcaron" horiz-adv-x="501" unicode="ž" /><glyph d="M244 -170Q244 -207 221.5 -233Q199 -259 148 -264V261H36V293H148V606Q148 643 170.5 669Q193 695 244 700V293H361V261H244ZM360 633Q360 645 358 654Q356 663 354 668H314V700H393V598H360ZM32 -197 32 -204Q32 -209 34 -218.5Q36 -228 38 -232H78V-264H-2V-162H32Z" glyph-name="florin" horiz-adv-x="401" unicode="ƒ" /><glyph d="M184 628 97 535H52L166 685H201L315 535H271Z" glyph-name="circumflex" horiz-adv-x="368" unicode="ˆ" /><glyph d="M271 685 315 685L201 535H166L52 685H97L184 592Z" glyph-name="caron" horiz-adv-x="368" unicode="ˇ" /><glyph d="M271 626Q271 585 244.5 561Q218 537 171 537Q124 537 98 561Q72 585 72 626V670H103V648Q103 615 121 600Q139 585 171 585Q203 585 221.5 600Q240 615 240 648V670H271Z" glyph-name="breve" horiz-adv-x="344" unicode="˘" /><glyph d="M85 589Q85 615 103.5 634Q122 653 148 653Q175 653 193.5 634Q212 615 212 589Q212 562 193.5 543.5Q175 525 148 525Q122 525 103.5 543.5Q85 562 85 589Z" glyph-name="dotaccent" horiz-adv-x="300" unicode="˙" /><glyph d="M72 624Q72 645 80 663.5Q88 682 101.5 696Q115 710 133.5 718Q152 726 173 726Q194 726 213 718Q232 710 245.5 696Q259 682 267 663.5Q275 645 275 624Q275 581 245.5 552Q216 523 173 523Q131 523 101.5 552Q72 581 72 624ZM104 624Q104 592 122.5 571.5Q141 551 173 551Q205 551 224.5 571.5Q244 592 244 624Q244 656 224.5 677Q205 698 173 698Q141 698 122.5 677Q104 656 104 624Z" glyph-name="ring" horiz-adv-x="348" unicode="˚" /><glyph d="M230 -10Q190 -33 167 -67Q144 -101 144 -136Q144 -174 168 -187.5Q192 -201 220 -201Q241 -201 263 -196Q285 -191 306 -183V-205Q285 -219 254 -228.5Q223 -238 191 -238Q168 -238 147.5 -232.5Q127 -227 111 -215.5Q95 -204 86 -186Q77 -168 77 -143Q77 -107 94 -82Q111 -57 133.5 -40.5Q156 -24 177.5 -15Q199 -6 209 -3Z" glyph-name="ogonek" horiz-adv-x="384" unicode="˛" /><glyph d="M310 546Q291 546 270 552.5Q249 559 229 567Q209 575 190 581.5Q171 588 155 588Q141 588 123 580Q105 572 97 546L79 564Q84 599 109.5 620Q135 641 165 641Q183 641 202.5 634.5Q222 628 242.5 620Q263 612 283 605.5Q303 599 322 599Q335 599 352.5 606Q370 613 378 641L397 619Q390 582 365 564Q340 546 310 546Z" glyph-name="tilde" horiz-adv-x="476" unicode="˜" /><glyph d="M99 535 52 535L167 675H259ZM247 535 200 535L315 675H407Z" glyph-name="hungarumlaut" horiz-adv-x="460" unicode="˝" /><glyph d="M118 396Q118 409 116 417.5Q114 426 112 431H45V463H214V67Q214 54 216 45.5Q218 37 220 32H287V0H45V32H112Q114 37 116 45.5Q118 54 118 67ZM651 463 651 431H534V87Q534 78 535.5 68.5Q537 59 542 51Q547 43 556.5 38Q566 33 581 33Q604 33 621 48Q638 63 638 103V127H667V103Q667 52 639.5 23.5Q612 -5 556 -5Q524 -5 501.5 4.5Q479 14 465 29Q451 44 445 63.5Q439 83 439 102V431H284V463Z" glyph-name="pi" horiz-adv-x="707" unicode="π" /><glyph d="M77 277 77 319H475V277Z" glyph-name="endash" horiz-adv-x="553" unicode="–" /><glyph d="M77 277 77 319H835V277Z" glyph-name="emdash" horiz-adv-x="913" unicode="—" /><glyph d="M274 681Q234 670 206 654Q178 638 160 618.5Q142 599 132.5 577.5Q123 556 119 533H137Q176 533 194 512Q212 491 212 464Q212 434 192.5 413.5Q173 393 140 393Q107 393 83.5 417Q60 441 60 492Q60 530 74.5 564.5Q89 599 115 627.5Q141 656 177.5 676.5Q214 697 258 706Z" glyph-name="quoteleft" horiz-adv-x="292" unicode="‘" /><glyph d="M19 418Q59 429 87 445Q115 461 133 480.5Q151 500 160.5 522Q170 544 174 566H155Q117 566 98.5 587Q80 608 80 635Q80 665 100 685.5Q120 706 152 706Q184 706 208.5 682.5Q233 659 233 607Q233 570 219 536Q205 502 179 473.5Q153 445 116 424Q79 403 34 393Z" glyph-name="quoteright" horiz-adv-x="293" unicode="’" /><glyph d="M-1 -151Q39 -140 67 -124Q95 -108 113 -88.5Q131 -69 140.5 -47.5Q150 -26 154 -3H136Q97 -3 79 18Q61 39 61 66Q61 97 80.5 117Q100 137 132 137Q146 137 161 132Q176 127 188 115Q200 103 208 84Q216 65 216 37Q216 -1 200.5 -36Q185 -71 158 -99Q131 -127 94.5 -147Q58 -167 15 -176Z" glyph-name="quotesinglbase" horiz-adv-x="262" unicode="‚" /><glyph d="M484 681Q444 670 416 654Q388 638 370 618.5Q352 599 342.5 577.5Q333 556 329 533H348Q387 533 404.5 512Q422 491 422 464Q422 434 402.5 413.5Q383 393 351 393Q319 393 294.5 416.5Q270 440 270 492Q270 529 284 563.5Q298 598 324 626.5Q350 655 386.5 675.5Q423 696 468 706ZM274 681Q234 670 206 654Q178 638 160 618.5Q142 599 132.5 577.5Q123 556 119 533H137Q176 533 194 512Q212 491 212 464Q212 434 192.5 413.5Q173 393 141 393Q109 393 84.5 416.5Q60 440 60 492Q60 529 74 563.5Q88 598 114 626.5Q140 655 176.5 675.5Q213 696 258 706Z" glyph-name="quotedblleft" horiz-adv-x="503" unicode="“" /><glyph d="M19 418Q59 429 87 445Q115 461 133 480.5Q151 500 160.5 522Q170 544 174 566H156Q117 566 99 587Q81 608 81 635Q81 665 101 685.5Q121 706 153 706Q185 706 209.5 682.5Q234 659 234 607Q234 570 220 536Q206 502 180 473.5Q154 445 117 424Q80 403 35 393ZM229 418Q269 429 297 445Q325 461 343 480.5Q361 500 371 522Q381 544 384 566H366Q327 566 309 587Q291 608 291 635Q291 665 311 685.5Q331 706 363 706Q395 706 419.5 682.5Q444 659 444 607Q444 570 430 536Q416 502 390 473.5Q364 445 327 424Q290 403 245 393Z" glyph-name="quotedblright" horiz-adv-x="503" unicode="”" /><glyph d="M19 -151Q59 -140 87 -124Q115 -108 133 -88.5Q151 -69 160.5 -47.5Q170 -26 174 -3H156Q117 -3 99 18Q81 39 81 66Q81 96 101 116.5Q121 137 153 137Q185 137 209.5 113.5Q234 90 234 38Q234 1 220 -33.5Q206 -68 180 -96.5Q154 -125 117 -145.5Q80 -166 35 -176ZM229 -151Q269 -140 297 -124Q325 -108 343 -88.5Q361 -69 371 -47.5Q381 -26 384 -3H366Q327 -3 309 18Q291 39 291 66Q291 96 311 116.5Q331 137 363 137Q395 137 419.5 113.5Q444 90 444 38Q444 1 430 -33.5Q416 -68 390 -96.5Q364 -125 327 -145.5Q290 -166 245 -176Z" glyph-name="quotedblbase" horiz-adv-x="503" unicode="„" /><glyph d="M215 0 263 407L62 377V479L263 449L219 700H347L303 449L495 479V377L303 407L351 0L283 -67Z" glyph-name="dagger" horiz-adv-x="558" unicode="†" /><glyph d="M263 442 62 412V514L263 484L219 715H347L303 484L495 514V412L303 442L347 350L303 258L495 288V186L303 216L347 -15H219L263 216L62 186V288L263 258L220 350Z" glyph-name="daggerdbl" horiz-adv-x="558" unicode="‡" /><glyph d="M62 356Q62 387 73.5 414Q85 441 105 461Q125 481 151.5 492.5Q178 504 209 504Q240 504 267 492.5Q294 481 314 461Q334 441 345.5 414Q357 387 357 356Q357 325 345.5 298.5Q334 272 314 252Q294 232 267 220.5Q240 209 209 209Q178 209 151.5 220.5Q125 232 105 252Q85 272 73.5 298.5Q62 325 62 356Z" glyph-name="bullet" horiz-adv-x="420" unicode="•" /><glyph d="M62 62Q62 91 82 111.5Q102 132 131 132Q160 132 180.5 111.5Q201 91 201 62Q201 33 180.5 13Q160 -7 131 -7Q102 -7 82 13Q62 33 62 62ZM350 62Q350 91 370 111.5Q390 132 419 132Q448 132 469 111.5Q490 91 490 62Q490 33 469 13Q448 -7 419 -7Q390 -7 370 13Q350 33 350 62ZM639 62Q639 91 659 111.5Q679 132 708 132Q737 132 757.5 111.5Q778 91 778 62Q778 33 757.5 13Q737 -7 708 -7Q679 -7 659 13Q639 33 639 62Z" glyph-name="ellipsis" horiz-adv-x="840" unicode="…" /><glyph d="M165 -6 136 19L793 713L822 688ZM712 -6Q673 -6 643 9Q613 24 592.5 49.5Q572 75 562 110.5Q552 146 552 186Q552 226 562 261Q572 296 592.5 322.5Q613 349 643 364Q673 379 712 379Q751 379 781 364Q811 349 831.5 322.5Q852 296 862 261Q872 226 872 186Q872 146 862 110.5Q852 75 831.5 49.5Q811 24 781 9Q751 -6 712 -6ZM712 350Q687 350 672.5 340.5Q658 331 650 311Q642 291 639.5 259.5Q637 228 637 184Q637 140 639.5 109.5Q642 79 650 59.5Q658 40 672.5 31.5Q687 23 712 23Q737 23 751.5 31.5Q766 40 774 59.5Q782 79 784.5 109.5Q787 140 787 184Q787 228 784.5 259.5Q782 291 774 311Q766 331 751.5 340.5Q737 350 712 350ZM237 315Q198 315 168 330Q138 345 117.5 370.5Q97 396 87 431.5Q77 467 77 507Q77 547 87 582Q97 617 117.5 643.5Q138 670 168 685Q198 700 237 700Q276 700 306 685Q336 670 356.5 643.5Q377 617 387 582Q397 547 397 507Q397 467 387 431.5Q377 396 356.5 370.5Q336 345 306 330Q276 315 237 315ZM237 671Q212 671 197.5 661.5Q183 652 175 632Q167 612 164.5 580.5Q162 549 162 505Q162 461 164.5 430.5Q167 400 175 380.5Q183 361 197.5 352.5Q212 344 237 344Q262 344 276.5 352.5Q291 361 299 380.5Q307 400 309.5 430.5Q312 461 312 505Q312 549 309.5 580.5Q307 612 299 632Q291 652 276.5 661.5Q262 671 237 671ZM1112 -6Q1073 -6 1043 9Q1013 24 992.5 49.5Q972 75 962 110.5Q952 146 952 186Q952 227 962 262Q972 297 992.5 323Q1013 349 1043 364Q1073 379 1112 379Q1151 379 1181 364Q1211 349 1231.5 322.5Q1252 296 1262 261Q1272 226 1272 186Q1272 146 1262 111Q1252 76 1231.5 50Q1211 24 1181 9Q1151 -6 1112 -6ZM1112 350Q1087 350 1072.5 340.5Q1058 331 1050 311Q1042 291 1039.5 260Q1037 229 1037 185Q1037 141 1039.5 110Q1042 79 1050 59.5Q1058 40 1072.5 31.5Q1087 23 1112 23Q1137 23 1151.5 32Q1166 41 1174 60.5Q1182 80 1184.5 110.5Q1187 141 1187 185Q1187 229 1184.5 260Q1182 291 1174 311Q1166 331 1151.5 340.5Q1137 350 1112 350Z" glyph-name="perthousand" horiz-adv-x="1349" unicode="‰" /><glyph d="M179 365 346 176L327 140L77 347V383L327 590L346 554Z" glyph-name="guilsinglleft" horiz-adv-x="424" unicode="‹" /><glyph d="M77 554 96 590L346 383V347L96 140L77 176L244 365Z" glyph-name="guilsinglright" horiz-adv-x="424" unicode="›" /><glyph d="M26 -16 -4 10L605 724L635 698Z" glyph-name="fraction" horiz-adv-x="631" unicode="⁄" /><glyph d="M748 228 748 0H717Q712 20 706 39.5Q700 59 694 79Q675 55 648 37Q624 19 590.5 6.5Q557 -6 511 -6V26Q561 28 597 47.5Q633 67 657 97Q681 127 694.5 162Q708 197 713 228ZM711 472Q706 502 693 537.5Q680 573 656 603Q632 633 596.5 653Q561 673 511 674V706Q557 706 591 692.5Q625 679 647 663Q674 644 692 620Q698 640 704 660Q710 680 715 700H746V472ZM47 409 47 446H126Q137 503 163.5 551Q190 599 230.5 633.5Q271 668 324 687Q377 706 441 706V674Q344 666 292.5 610.5Q241 555 229 446H513V409H225Q224 396 224 380Q224 364 224 350Q224 336 224 320Q224 304 225 291H513V254H229Q241 144 292.5 89Q344 34 441 26V-6Q377 -6 324 13Q271 32 230.5 66.5Q190 101 163.5 148.5Q137 196 126 254H47V291H119Q118 304 117.5 320Q117 336 117 350Q117 364 117.5 379.5Q118 395 119 409Z" glyph-name="Euro" horiz-adv-x="811" unicode="€" /><glyph d="M325 672 325 700H454V595H433L417 668Q417 668 408.5 669Q400 670 386.5 671.5Q373 673 356.5 673.5Q340 674 325 672ZM146 287 146 315H213Q215 318 216 322.5Q217 327 217 335V700H285V335Q285 327 286 322.5Q287 318 289 315H355V287ZM177 672Q162 674 145.5 673.5Q129 673 115.5 671.5Q102 670 93.5 669Q85 668 85 668L69 595H47V700H177ZM846 458Q842 464 838 469.5Q834 475 829 481L961 700H1097V672H1035Q1033 669 1032 664.5Q1031 660 1031 652V335Q1031 327 1032 322.5Q1033 318 1035 315H1097V287H898V315H959Q961 318 962 322.5Q963 327 963 335V652ZM781 358 567 672H519V700H633Q681 628 728.5 558Q776 488 824 417L791 358ZM574 315Q576 318 577 322.5Q578 327 578 335V579L612 534V335Q612 327 613 322.5Q614 318 615 315H673V287H515V315Z" glyph-name="trademark" horiz-adv-x="1159" unicode="™" /><glyph d="M180 442Q180 369 191.5 325Q203 281 224 257Q245 233 274 225Q303 217 338 216V0H117V155H148L163 82Q168 80 178.5 78Q189 76 202 76H302V184Q266 187 225.5 199Q185 211 151 239.5Q117 268 94.5 315.5Q72 363 72 436Q72 511 96.5 562.5Q121 614 162.5 646Q204 678 259.5 692Q315 706 377 706V674Q326 673 289 663.5Q252 654 228 628.5Q204 603 192 558.5Q180 514 180 442ZM644 442Q644 514 632 558.5Q620 603 595.5 628.5Q571 654 534 663.5Q497 673 447 674V706Q509 706 564.5 692Q620 678 661.5 646Q703 614 727 563Q751 512 751 437Q751 364 728.5 316Q706 268 672.5 239.5Q639 211 598.5 199Q558 187 522 184V76H622Q635 76 645 78Q655 80 660 82L676 155H707V0H486V216Q521 217 550 225Q579 233 600 257Q621 281 632.5 325Q644 369 644 442Z" glyph-name="Omega" horiz-adv-x="824" unicode="Ω" /><glyph d="M51 234Q51 286 64.5 330Q78 374 103 406Q128 438 164.5 456Q201 474 247 474V445Q217 442 198.5 431Q180 420 170 396Q160 372 157 333Q154 294 154 234Q154 174 157 135Q160 96 170 72Q180 48 198.5 37.5Q217 27 247 24V-6Q201 -6 164.5 12Q128 30 103 62Q78 94 64.5 138Q51 182 51 234ZM151 729Q213 708 277 668Q341 628 393.5 570.5Q446 513 479 440.5Q512 368 512 282V234Q512 182 499 138Q486 94 461 62Q436 30 399.5 12Q363 -6 317 -6V24Q347 27 365 37.5Q383 48 393 72Q403 96 406 135Q409 174 409 234Q409 294 406 333Q403 372 393 396Q383 420 365 431Q347 442 317 445V474Q346 474 372 461Q398 448 408 430Q394 472 364 513.5Q334 555 296 591Q258 627 215.5 657Q173 687 133 706Z" glyph-name="partialdiff" horiz-adv-x="564" unicode="∂" /><glyph d="M62 0 62 21L410 700H435L782 21V0ZM422 652Q343 496 264.5 341.5Q186 187 106 32H738Z" glyph-name="Delta" horiz-adv-x="845" unicode="∆" /><glyph d="M410 668 260 668Q258 664 256 657Q254 650 254 640V67Q254 54 256 45.5Q258 37 260 32H355V0H52V32H147Q149 37 151 45.5Q153 54 153 67V633Q153 646 151 654.5Q149 663 147 668H52V700H410ZM480 700 838 700V668H743Q741 663 739 654.5Q737 646 737 633V67Q737 54 739 45.5Q741 37 743 32H838V0H536V32H631Q633 37 635 45.5Q637 54 637 67V633Q637 646 635 654.5Q633 663 631 668H480Z" glyph-name="product" horiz-adv-x="891" unicode="∏" /><glyph d="M404 358 90 0H61V27L317 320Q251 408 184 496Q117 584 51 673V700H160Q221 618 281.5 537Q342 456 404 375ZM241 700 633 700V540H602L572 662Q566 665 556.5 666.5Q547 668 530 668H264ZM543 32Q556 32 564 34Q572 36 577 38Q585 68 592 98.5Q599 129 606 160H637V0H170L197 32Z" glyph-name="summation" horiz-adv-x="683" unicode="∑" /><glyph d="M375 366 375 324H60V366Z" glyph-name="minus" horiz-adv-x="435" unicode="−" /><glyph d="M300 -6Q273 52 243.5 114Q214 176 188 232.5Q162 289 140.5 334.5Q119 380 107 406Q99 423 90.5 429.5Q82 436 71 436H36V468H289V436H218Q216 432 216 421Q216 404 226 383L366 75Q356 55 347 34.5Q338 14 329 -6ZM659 842 709 842Q633 669 557.5 498Q482 327 405 154Q401 163 396.5 172.5Q392 182 388 192Z" glyph-name="radical" horiz-adv-x="761" unicode="√" /><glyph d="M776 322Q776 267 761.5 226.5Q747 186 723 159Q699 132 667.5 119Q636 106 601 106Q546 106 508 136.5Q470 167 442 213Q414 259 391.5 312Q369 365 345 411Q321 457 291 487.5Q261 518 217 518Q169 518 138.5 481.5Q108 445 103 387H72Q73 437 86.5 476Q100 515 123.5 542Q147 569 178.5 583.5Q210 598 247 598Q303 598 341 567.5Q379 537 407.5 491Q436 445 459 391Q482 337 506.5 291Q531 245 562 214.5Q593 184 637 184Q665 184 685.5 196.5Q706 209 719 229Q732 249 738.5 273.5Q745 298 745 322ZM484 477Q505 537 544.5 563Q584 589 626 589Q655 589 682 576.5Q709 564 730 539Q751 514 763.5 476Q776 438 776 387H745Q740 423 727.5 447Q715 471 698 486Q681 501 661 507.5Q641 514 621 514Q580 514 549 493Q518 472 498 443ZM368 228Q357 198 340.5 176.5Q324 155 305 141.5Q286 128 265 122Q244 116 224 116Q194 116 167 129Q140 142 119 168Q98 194 85.5 233Q73 272 73 324H103Q109 287 122.5 262.5Q136 238 153 223Q170 208 189.5 202Q209 196 226 196Q243 196 261.5 201Q280 206 297.5 214.5Q315 223 330 235Q345 247 353 262Z" glyph-name="infinity" horiz-adv-x="849" unicode="∞" /><glyph d="M244 -170Q244 -207 221.5 -233Q199 -259 148 -264V606Q148 643 170.5 669Q193 695 244 700ZM360 633Q360 645 358 654Q356 663 354 668H314V700H393V598H360ZM32 -197 32 -204Q32 -209 34 -218.5Q36 -228 38 -232H78V-264H-2V-162H32Z" glyph-name="integral" horiz-adv-x="401" unicode="∫" /><glyph d="M361 442Q375 442 385 453.5Q395 465 397 500L431 495Q431 464 423.5 446Q416 428 405 418Q394 408 382 405Q370 402 361 402Q340 402 306.5 411Q273 420 238.5 430.5Q204 441 174.5 450Q145 459 132 459Q121 459 109.5 448Q98 437 96 402L62 407Q62 437 70 455.5Q78 474 89 483.5Q100 493 111.5 496Q123 499 131 499Q149 499 182 490Q215 481 250 470.5Q285 460 315.5 451Q346 442 361 442ZM366 282Q380 282 390 293.5Q400 305 402 340L436 335Q436 304 428.5 286Q421 268 410 258Q399 248 387 245Q375 242 366 242Q345 242 311 251Q277 260 241.5 270.5Q206 281 175.5 290Q145 299 132 299Q121 299 109.5 288Q98 277 96 242L62 247Q62 277 70 295.5Q78 314 89 323.5Q100 333 111.5 336Q123 339 131 339Q149 339 182.5 330Q216 321 252 310.5Q288 300 319.5 291Q351 282 366 282Z" glyph-name="approxequal" horiz-adv-x="499" unicode="≈" /><glyph d="M200 647 243 647V444H379V402H243V284H379V242H243V39H200V242H64V284H200V402H64V444H200Z" glyph-name="notequal" horiz-adv-x="440" unicode="≠" /><glyph d="M127 430 468 258V206L77 407V453L468 653V602ZM468 0 77 0V43H468Z" glyph-name="lessequal" horiz-adv-x="546" unicode="≤" /><glyph d="M77 43 468 43V0H77ZM77 602 77 653L468 453V407L77 206V258L419 430Z" glyph-name="greaterequal" horiz-adv-x="546" unicode="≥" /><glyph d="M600 347 347 -151H316L62 347V362L316 861H347L600 362ZM331 818 98 355L331 -109L564 355Z" glyph-name="lozenge" horiz-adv-x="663" unicode="◊" /><glyph d="M201 468 293 468V436H201V67Q201 42 206 32H283V0H32V32H99Q101 37 103 45.5Q105 54 105 67V436H32V468H105V616Q105 653 127.5 679Q150 705 201 710ZM326 643Q326 656 324 664.5Q322 673 320 678H271V710H360V598H326ZM442 401Q442 414 440 422.5Q438 431 436 436H369V468H538V67Q538 54 540 45.5Q542 37 544 32H611V0H369V32H436Q438 37 440 45.5Q442 54 442 67ZM418 649Q418 678 438 698.5Q458 719 487 719Q516 719 536.5 698.5Q557 678 557 649Q557 620 536.5 600Q516 580 487 580Q458 580 438 600Q418 620 418 649Z" glyph-name="fi" horiz-adv-x="636" unicode="ﬁ" /><glyph d="M203 463 315 463V431H203V67Q203 54 205 45.5Q207 37 209 32H286V0H35V32H102Q104 37 106 45.5Q108 54 108 67V431H35V463H108V606Q108 643 130 669Q152 695 203 700ZM451 633Q451 646 449 654.5Q447 663 445 668H274V700H547V67Q547 54 549 45.5Q551 37 553 32H620V0H378V32H445Q447 37 449 45.5Q451 54 451 67Z" glyph-name="fl" horiz-adv-x="660" unicode="ﬂ" /><glyph d="M1131 472Q1131 541 1107 602Q1083 663 1038 708Q999 746 948.5 766.5Q898 787 840 787Q774 787 720 762.5Q666 738 623 700Q573 743 518 765.5Q463 788 403 788Q344 788 294.5 767Q245 746 208 710Q163 665 138.5 603Q114 541 114 472Q114 400 139 331.5Q164 263 203 205Q233 160 276.5 113.5Q320 67 373 25Q418 -11 460.5 -38.5Q503 -66 536.5 -85Q570 -104 591 -114Q612 -124 613 -124Q622 -128 630 -124Q635 -122 657.5 -111Q680 -100 713.5 -81.5Q747 -63 788 -36.5Q829 -10 871 24Q976 108 1041 203Q1083 264 1107 332Q1131 400 1131 472ZM1075 734Q1123 684 1149 615.5Q1175 547 1175 472Q1175 399 1151 329.5Q1127 260 1087 197Q1047 134 994 78Q941 22 883 -24Q825 -70 765.5 -105Q706 -140 652 -162Q630 -171 620 -170.5Q610 -170 590 -162Q533 -139 472 -102Q411 -65 353 -18Q295 29 243.5 85Q192 141 153.5 204Q115 267 92.5 335Q70 403 70 474Q70 550 96.5 618.5Q123 687 172 737Q217 782 275.5 806Q334 830 403 830Q472 830 526.5 807Q581 784 627 744Q721 828 844 828Q910 828 970 804.5Q1030 781 1075 734ZM621 506Q572 506 530 520Q550 555 573 588.5Q596 622 623 650Q648 624 671 591Q694 558 715 521Q694 513 669.5 509.5Q645 506 621 506ZM1013 492Q1012 496 1008.5 498.5Q1005 501 1003 502Q1001 503 996.5 503Q992 503 989 501L860 439Q854 435 851.5 428.5Q849 422 852 415L898 310Q905 294 921 301Q929 304 931.5 311Q934 318 932 324L892 414L924 429L939 396Q942 389 949 386.5Q956 384 963 387Q979 394 972 411L957 445L988 460L1020 388Q1023 381 1030 378.5Q1037 376 1044 379Q1050 382 1053 389Q1056 396 1052 403ZM839 545Q844 535 853.5 527Q863 519 874 515Q886 511 901 512.5Q916 514 930 522Q955 536 964 562Q973 588 961 611L929 678Q925 686 917.5 687.5Q910 689 903 686L769 612Q760 607 759.5 601Q759 595 762 587Q766 579 771 578Q776 577 787 581Q796 584 805 590Q809 592 813 595ZM770 97Q770 105 765 110Q760 115 752 115H573Q600 129 630.5 147.5Q661 166 686.5 189Q712 212 729 241Q746 270 746 305Q746 328 738 350Q730 372 714.5 389Q699 406 676 417Q653 428 623 428Q596 428 572.5 419.5Q549 411 531 395.5Q513 380 503 359.5Q493 339 493 315Q493 297 499 279.5Q505 262 516 248.5Q527 235 543 227Q559 219 578 219Q592 219 606 223Q620 227 631 236Q642 245 649.5 258.5Q657 272 657 291Q657 319 644 327.5Q631 336 621 336Q607 336 597.5 326.5Q588 317 588 303Q588 294 592 288Q596 282 603 277Q605 275 601 265Q597 255 578 255Q554 255 542.5 274.5Q531 294 531 315Q531 348 555.5 370.5Q580 393 619 393Q663 393 684.5 365.5Q706 338 706 306Q706 283 696 262.5Q686 242 670 224.5Q654 207 634.5 192.5Q615 178 597 166Q579 155 562 145.5Q545 136 531 128.5Q517 121 508 116.5Q499 112 497 110Q495 108 493 101.5Q491 95 493 90Q495 86 499 82.5Q503 79 511 79H751Q770 79 770 97ZM250 412 364 372Q371 369 378 372Q385 375 387 383Q390 390 386.5 397Q383 404 375 406L261 447L275 494Q278 502 274.5 508.5Q271 515 264 517Q257 519 250 516Q243 513 241 505L198 373Q196 366 199 359Q202 352 210 350Q218 348 224.5 351Q231 354 233 362ZM278 575Q270 573 266 567Q262 561 264 553Q267 536 286 539L390 562L398 540Q392 533 392 523Q392 512 399.5 504Q407 496 417 496Q429 496 434 504Q442 511 441.5 520.5Q441 530 438 538L375 697Q373 704 366.5 707Q360 710 352 707Q345 704 341.5 697.5Q338 691 342 683L375 597ZM445 655Q445 641 453.5 631.5Q462 622 476 622Q490 622 499.5 631.5Q509 641 509 655Q509 669 499.5 678Q490 687 476 687Q462 687 453.5 677.5Q445 668 445 655ZM842 751Q891 751 934 734Q977 717 1012 682Q1052 643 1073 588.5Q1094 534 1094 472Q1094 403 1070.5 339.5Q1047 276 1012 223Q980 177 936.5 132.5Q893 88 848 53Q811 23 774.5 -1Q738 -25 707 -43.5Q676 -62 653 -74Q630 -86 621 -90Q612 -86 589 -74Q566 -62 535.5 -43.5Q505 -25 468.5 -0.5Q432 24 395 54Q293 136 233 226Q194 283 172.5 346.5Q151 410 151 473Q151 536 172.5 590.5Q194 645 233 684Q306 752 404 752Q463 752 511 729.5Q559 707 597 675Q546 621 498 540Q473 495 453 449.5Q433 404 418 361.5Q403 319 392.5 283Q382 247 375 221L326 231Q318 233 312.5 229Q307 225 305 218Q303 211 307 205.5Q311 200 319 198L453 169Q460 167 465.5 170.5Q471 174 473 182Q477 200 460 203L413 213Q418 234 426.5 264.5Q435 295 447 331Q459 367 475.5 407Q492 447 513 487Q537 478 564.5 473Q592 468 621 468Q681 468 732 488Q752 449 768 409Q784 369 796 333Q808 297 816.5 266Q825 235 831 212L783 202Q775 200 771.5 194.5Q768 189 769 182Q771 174 777 170Q783 166 790 168L924 196Q931 198 935 203.5Q939 209 937 216Q936 224 930 228Q924 232 917 230L869 220Q869 221 868.5 221.5Q868 222 868 223Q862 246 851.5 282Q841 318 826 361.5Q811 405 790.5 452Q770 499 745 543Q726 576 700.5 612.5Q675 649 650 674Q692 710 740 730.5Q788 751 842 751ZM846 613 904 645L930 595Q935 583 929.5 571Q924 559 912 553Q901 548 889 549Q877 550 872 561ZM589 3Q589 -11 598 -20.5Q607 -30 621 -30Q635 -30 643.5 -20.5Q652 -11 652 3Q652 17 643.5 26Q635 35 621 35Q607 35 598 25.5Q589 16 589 3Z" glyph-name="apple" horiz-adv-x="1245" unicode="" /></font>
</defs>
</svg>
