<?xml version="1.0" standalone="no"?>
<!DOCTYPE svg
  PUBLIC '-//W3C//DTD SVG 1.1//EN'
  'http://www.w3.org/Graphics/SVG/1.1/DTD/svg11.dtd'><svg version="1.1" xmlns="http://www.w3.org/2000/svg"><defs><font horiz-adv-x="0" id="font"><font-face ascent="750" bbox="-202 -370 1200 986" cap-height="700" descent="-250" font-family="FM _WEB" font-stretch="normal" font-style="normal" font-weight="700" units-per-em="1000" x-height="474" /><missing-glyph d="M292 202 309 202Q318 202 320.5 195.5Q323 189 323 184V158Q323 153 320.5 147Q318 141 309 141H292ZM460 393Q460 404 454.5 410.5Q449 417 437 417H428Q416 417 410 410.5Q404 404 404 393V373Q404 362 410 355.5Q416 349 428 349H437Q449 349 454.5 355.5Q460 362 460 373ZM65 42 93 42V202H123V228H35V202H65ZM237 228 208 228L191 151L171 228H141L174 107V42H205V107ZM380 42 465 42V69H410V123H442V150H410V202H465V228H380ZM264 42 292 42V113H316Q332 113 342 124.5Q352 136 352 154V187Q352 206 342 217Q332 228 316 228H264ZM434 470Q445 484 452.5 503Q460 522 460 551V567Q460 609 434 634Q408 659 373 659H356Q321 659 294.5 634Q268 609 268 567V517H330V559Q330 572 336 585.5Q342 599 363 599H366Q386 599 391.5 585.5Q397 572 397 559V552Q396 522 376 495L298 391Q283 371 276 354Q269 337 269 313V270H461V331H339V335Q339 339 342 345.5Q345 352 355 365ZM178 270 244 270L201 657H83L40 270H105L112 347H170ZM415 392Q415 407 429 407H435Q449 407 449 392V388H438V389Q438 392 437.5 394.5Q437 397 432 397Q426 397 426 389V377Q426 369 432 369Q437 369 437.5 371.5Q438 374 438 377V378H449V374Q449 359 435 359H429Q415 359 415 374ZM0 671Q0 683 8 691.5Q16 700 28 700H473Q484 700 492 691.5Q500 683 500 671V29Q500 17 492 8.5Q484 0 473 0H28Q16 0 8 8.5Q0 17 0 29ZM164 408 118 408L136 604H146Z" horiz-adv-x="500" /><glyph d="" glyph-name=".null" horiz-adv-x="0" unicode="" /><glyph d="" glyph-name="nonmarkingreturn" horiz-adv-x="250" unicode="" /><glyph d="" glyph-name="space" horiz-adv-x="200" unicode=" " /><glyph d="M180 365 165 211H121L106 365L92 710H194ZM88 0 88 130H198V0Z" glyph-name="exclam" horiz-adv-x="286" unicode="!" /><glyph d="M119 414 69 414V700H169ZM279 414 229 414V700H329Z" glyph-name="quotedbl" horiz-adv-x="372" unicode="&quot;" /><glyph d="M581 421 448 421L417 262H551L541 210H407L366 0H307L348 210H229L187 0H126L171 210H36L46 262H180L212 421H76L88 474H222L265 700H324L281 474H399L442 700H500L458 474H592ZM271 421 240 262H358L389 421Z" glyph-name="numbersign" horiz-adv-x="629" unicode="#" /><glyph d="M200 -9Q163 -7 125.5 -2Q88 3 58 13L52 189H102L137 49Q151 45 168 42.5Q185 40 204 39L225 331Q192 347 160 364.5Q128 382 103 405.5Q78 429 62.5 459.5Q47 490 47 532Q47 564 59 595Q71 626 96 651Q121 676 160 692Q199 708 252 710L259 802H309L302 709Q330 707 355 704.5Q380 702 399 699Q421 695 441 691L435 518H384L361 650Q354 651 345 653Q337 654 325.5 655.5Q314 657 299 658L280 400Q315 384 350.5 365.5Q386 347 414.5 323Q443 299 460.5 267.5Q478 236 478 192Q478 144 460 106.5Q442 69 411.5 43.5Q381 18 339.5 4.5Q298 -9 250 -10L240 -152H190ZM401 168Q401 194 391 214.5Q381 235 363.5 251.5Q346 268 322.5 281.5Q299 295 273 308L254 38Q331 42 366 79.5Q401 117 401 168ZM126 553Q126 506 156 476.5Q186 447 231 424L248 658Q224 657 201.5 649.5Q179 642 162.5 629Q146 616 136 597Q126 578 126 553Z" glyph-name="dollar" horiz-adv-x="516" unicode="$" /><glyph d="M350 526Q350 482 335.5 449.5Q321 417 298 395.5Q275 374 247.5 363.5Q220 353 194 353Q168 353 140.5 363.5Q113 374 90.5 395.5Q68 417 53.5 449.5Q39 482 39 526Q39 570 53.5 603Q68 636 90.5 657.5Q113 679 140.5 689.5Q168 700 194 700Q220 700 247.5 689.5Q275 679 298 657.5Q321 636 335.5 603Q350 570 350 526ZM274 526Q274 592 256.5 626Q239 660 194 660Q149 660 131.5 626Q114 592 114 526Q114 461 131.5 426Q149 391 194 391Q239 391 256.5 426.5Q274 462 274 526ZM153 0 95 0L674 700H729ZM780 163Q780 119 765.5 86.5Q751 54 728.5 32.5Q706 11 678.5 0.5Q651 -10 625 -10Q599 -10 571.5 0.5Q544 11 521 32.5Q498 54 483.5 86.5Q469 119 469 163Q469 207 483.5 240Q498 273 521 294.5Q544 316 571.5 326.5Q599 337 625 337Q651 337 678.5 326.5Q706 316 728.5 294.5Q751 273 765.5 240Q780 207 780 163ZM705 163Q705 229 687.5 263.5Q670 298 625 298Q580 298 562 263.5Q544 229 544 163Q544 98 562 63.5Q580 29 625 29Q670 29 687.5 64Q705 99 705 163Z" glyph-name="percent" horiz-adv-x="819" unicode="%" /><glyph d="M427 123Q423 118 405 96.5Q387 75 357 51.5Q327 28 286 9Q245 -10 195 -10Q155 -10 125 2Q95 14 75.5 33.5Q56 53 46.5 78Q37 103 37 130Q37 163 50.5 194Q64 225 86 253.5Q108 282 136.5 307.5Q165 333 196 356Q152 398 127 444Q102 490 102 544Q102 576 113 605.5Q124 635 145 658.5Q166 682 197.5 696Q229 710 270 710Q309 710 337 698Q365 686 383 666.5Q401 647 410 623Q419 599 419 575Q419 541 408.5 513.5Q398 486 380.5 463Q363 440 339.5 419Q316 398 290 376L447 219L544 371H451V422H701V371H606Q576 325 543.5 279.5Q511 234 478 189L620 52H701V0H553ZM361 566Q361 605 338 635.5Q315 666 270 666Q222 666 198.5 640.5Q175 615 175 568Q175 519 199.5 481.5Q224 444 262 406Q279 420 297 437.5Q315 455 329 475.5Q343 496 352 519Q361 542 361 566ZM122 157Q122 112 150 81.5Q178 51 226 51Q259 51 288 65Q317 79 339.5 97Q362 115 376.5 131.5Q391 148 395 153L223 328Q165 274 143.5 233Q122 192 122 157Z" glyph-name="ampersand" horiz-adv-x="745" unicode="&amp;" /><glyph d="M119 414 69 414V700H169Z" glyph-name="quotesingle" horiz-adv-x="212" unicode="'" /><glyph d="M136 322Q136 228 150.5 155.5Q165 83 188.5 27.5Q212 -28 241.5 -70Q271 -112 301 -145L262 -173Q240 -155 203 -112.5Q166 -70 130 -6.5Q94 57 68 140Q42 223 42 322Q42 421 68 505.5Q94 590 130 655.5Q166 721 203 765Q240 809 262 827L301 799Q271 766 241.5 722.5Q212 679 188.5 621.5Q165 564 150.5 490Q136 416 136 322Z" glyph-name="parenleft" horiz-adv-x="314" unicode="(" /><glyph d="M178 322Q178 416 163.5 490Q149 564 125.5 621.5Q102 679 72.5 722.5Q43 766 13 799L51 827Q73 809 110 765Q147 721 183 655.5Q219 590 245 505.5Q271 421 271 322Q271 223 245 140Q219 57 183 -6.5Q147 -70 110 -112.5Q73 -155 51 -173L13 -145Q43 -112 72.5 -70Q102 -28 125.5 27.5Q149 83 163.5 155.5Q178 228 178 322Z" glyph-name="parenright" horiz-adv-x="313" unicode=")" /><glyph d="M478 401 435 325L277 448L304 248H219L246 449L87 325L44 401L232 474L44 546L87 622L246 498L219 700H304L277 499L435 622L478 546L289 474Z" glyph-name="asterisk" horiz-adv-x="522" unicode="*" /><glyph d="M508 364 508 306H305V98H242V306H39V364H242V572H305V364Z" glyph-name="plus" horiz-adv-x="547" unicode="+" /><glyph d="M191 115 74 -136H24L94 152H191Z" glyph-name="comma" horiz-adv-x="261" unicode="," /><glyph d="M66 278 66 335H333V278Z" glyph-name="hyphen" horiz-adv-x="399" unicode="-" /><glyph d="M78 0 78 130H187V0Z" glyph-name="period" horiz-adv-x="265" unicode="." /><glyph d="M74 -130 21 -130L342 762H396Z" glyph-name="slash" horiz-adv-x="422" unicode="/" /><glyph d="M506 332Q506 258 490 195.5Q474 133 444.5 87Q415 41 373 15.5Q331 -10 279 -10Q228 -10 186.5 15.5Q145 41 115 87Q85 133 69 195.5Q53 258 53 332V358Q53 432 69 495Q85 558 115 603.5Q145 649 186.5 675Q228 701 279 701Q331 701 373 675Q415 649 444.5 603.5Q474 558 490 495Q506 432 506 358ZM410 365Q410 413 405.5 464.5Q401 516 387.5 559Q374 602 348 629.5Q322 657 279 657Q236 657 210 629.5Q184 602 170.5 559Q157 516 153 464.5Q149 413 149 365V324Q149 277 153 225.5Q157 174 170.5 131.5Q184 89 210 61.5Q236 34 279 34Q322 34 348 61.5Q374 89 387.5 131.5Q401 174 405.5 225.5Q410 277 410 324Z" glyph-name="zero" horiz-adv-x="560" unicode="0" /><glyph d="M97 0 97 51L239 58V624L106 585L102 632L283 704H325V58L463 51V0Z" glyph-name="one" horiz-adv-x="560" unicode="1" /><glyph d="M488 0 59 0V61L264 281Q324 346 354.5 406Q385 466 385 527Q385 566 373 590.5Q361 615 341.5 629.5Q322 644 297 649.5Q272 655 246 655Q201 655 179.5 648Q158 641 155 641L140 518H91L83 675Q106 682 135 688Q162 693 197 697Q232 701 277 701Q328 701 366 689Q404 677 429.5 656Q455 635 468 607.5Q481 580 481 549Q481 486 450.5 434.5Q420 383 375 335L131 73H421L449 163H491Z" glyph-name="two" horiz-adv-x="560" unicode="2" /><glyph d="M163 396Q207 396 248 403.5Q289 411 320.5 429Q352 447 370.5 476.5Q389 506 389 550Q389 595 357.5 624.5Q326 654 257 654Q225 654 198 649.5Q171 645 154 641L136 547H89L86 673Q115 681 148 687Q179 693 214 697Q249 701 288 701Q320 701 353.5 694Q387 687 414 670.5Q441 654 458 627Q475 600 475 560Q475 525 461.5 497Q448 469 425 448Q402 427 373 413Q344 399 312 391Q397 385 447 338.5Q497 292 497 215Q497 175 479.5 135Q462 95 428 63Q394 31 343 10.5Q292 -10 225 -10Q191 -10 162 -6.5Q133 -3 111 2Q85 7 64 13L63 154H111L133 42Q138 41 160.5 37.5Q183 34 209 34Q306 34 357.5 78.5Q409 123 409 203Q409 240 395 264.5Q381 289 358 304Q335 319 305.5 325Q276 331 245 331Q225 331 199.5 329Q174 327 154 324Z" glyph-name="three" horiz-adv-x="560" unicode="3" /><glyph d="M417 209 417 45H504V0H246V45H334V209H37V259L322 689H417V261H522V209ZM334 261 334 632L92 261Z" glyph-name="four" horiz-adv-x="560" unicode="4" /><glyph d="M204 439Q254 439 304.5 428.5Q355 418 396.5 393Q438 368 464 325.5Q490 283 490 220Q490 169 470 126.5Q450 84 414 53.5Q378 23 328 6.5Q278 -10 218 -10Q183 -10 144.5 -6.5Q106 -3 71 7L72 154H118L141 43Q158 38 180 36Q202 34 220 34Q268 34 304.5 46.5Q341 59 366 81.5Q391 104 403.5 134Q416 164 416 199Q416 247 394.5 277.5Q373 308 338.5 325.5Q304 343 262.5 349Q221 355 180 355Q161 355 139.5 354Q118 353 98 351L107 687H481V611H151L146 436Q149 436 157 436.5Q165 437 174 437.5Q183 438 191.5 438.5Q200 439 204 439Z" glyph-name="five" horiz-adv-x="560" unicode="5" /><glyph d="M287 35Q324 35 350.5 48Q377 61 394 83Q411 105 419 134.5Q427 164 427 196Q427 240 413 275Q399 310 374 334Q349 358 314.5 370.5Q280 383 239 383Q207 383 171 374Q157 349 145 307.5Q133 266 133 225Q133 189 141.5 155Q150 121 168.5 94Q187 67 216 51Q245 35 287 35ZM498 723Q487 716 449.5 690.5Q412 665 365 625Q318 585 270 532Q222 479 190 416Q210 423 232 426Q254 429 276 429Q332 429 376.5 413Q421 397 451.5 368.5Q482 340 498.5 301.5Q515 263 515 218Q515 177 501 136.5Q487 96 457.5 63.5Q428 31 384 10.5Q340 -10 280 -10Q237 -10 194.5 4.5Q152 19 118.5 50Q85 81 64.5 128Q44 175 44 239Q44 314 72 379.5Q100 445 142.5 499.5Q185 554 236 597.5Q287 641 332.5 671.5Q378 702 412 719Q446 736 454 739Z" glyph-name="six" horiz-adv-x="560" unicode="6" /><glyph d="M228 0 132 0L443 612H126L106 491H56L55 687H503V641Z" glyph-name="seven" horiz-adv-x="560" unicode="7" /><glyph d="M513 183Q513 141 496.5 106Q480 71 449.5 45Q419 19 375.5 4.5Q332 -10 278 -10Q221 -10 178 4.5Q135 19 105.5 44Q76 69 61.5 101.5Q47 134 47 171Q47 207 59.5 236.5Q72 266 93.5 289.5Q115 313 143.5 330Q172 347 204 358Q140 387 108 430.5Q76 474 76 526Q76 570 93 603Q110 636 139 658Q168 680 206 691.5Q244 703 286 703Q324 703 359.5 693.5Q395 684 423 663.5Q451 643 468 612.5Q485 582 485 540Q485 506 472 480.5Q459 455 439 436Q419 417 393.5 403.5Q368 390 343 380Q424 348 468.5 300.5Q513 253 513 183ZM432 161Q432 190 421.5 212Q411 234 390.5 253Q370 272 341 288Q312 304 276 321L235 340Q187 313 160 271Q133 229 133 171Q133 108 174.5 70Q216 32 285 32Q312 32 338.5 40Q365 48 386 64Q407 80 419.5 104Q432 128 432 161ZM161 545Q161 518 170.5 498.5Q180 479 199 462.5Q218 446 246.5 430.5Q275 415 312 396Q363 419 390 460Q417 501 417 546Q417 593 384 627.5Q351 662 287 662Q255 662 231.5 652.5Q208 643 192 627Q176 611 168.5 589.5Q161 568 161 545Z" glyph-name="eight" horiz-adv-x="560" unicode="8" /><glyph d="M272 655Q235 655 208.5 642.5Q182 630 165 608.5Q148 587 140 558Q132 529 132 497Q132 453 146 418Q160 383 184.5 358.5Q209 334 243.5 321Q278 308 319 308Q336 308 352.5 310Q369 312 388 316Q402 342 414 383Q426 424 426 466Q426 502 417.5 536Q409 570 390.5 596.5Q372 623 342.5 639Q313 655 272 655ZM62 -33Q73 -26 110 -1Q147 24 194 64Q241 104 289 157.5Q337 211 369 274Q348 268 326 264.5Q304 261 283 261Q227 261 182.5 277.5Q138 294 107.5 323Q77 352 60.5 391Q44 430 44 475Q44 516 58 556.5Q72 597 101 629Q130 661 174 681Q218 701 278 701Q322 701 364 686.5Q406 672 440 641Q474 610 494.5 563.5Q515 517 515 452Q515 377 487 311.5Q459 246 416.5 191.5Q374 137 323 93.5Q272 50 226.5 19.5Q181 -11 147.5 -28Q114 -45 106 -48Z" glyph-name="nine" horiz-adv-x="560" unicode="9" /><glyph d="M91 344 91 474H200V344ZM91 0 91 130H200V0Z" glyph-name="colon" horiz-adv-x="291" unicode=":" /><glyph d="M202 115 85 -136H35L105 152H202ZM91 344 91 474H200V344Z" glyph-name="semicolon" horiz-adv-x="286" unicode=";" /><glyph d="M809 289 158 331L397 0H331L40 348V352L331 700H397L158 369L809 391Z" glyph-name="less" horiz-adv-x="850" unicode="&lt;" /><glyph d="M75 226 75 284H434V226ZM75 386 75 444H434V386Z" glyph-name="equal" horiz-adv-x="509" unicode="=" /><glyph d="M40 391 691 369L452 700H518L809 352V348L518 0H452L691 331L40 289Z" glyph-name="greater" horiz-adv-x="850" unicode="&gt;" /><glyph d="M277 554Q277 611 248.5 636Q220 661 172 661Q157 661 144 660Q131 659 122 657Q111 655 102 653L86 549H40L38 683Q60 691 85 697Q108 702 136 706Q164 710 196 710Q243 710 276 698Q309 686 330 666Q351 646 361 620Q371 594 371 566Q371 508 347.5 463Q324 418 294.5 377.5Q265 337 238 297Q211 257 205 209H160Q160 257 178.5 299.5Q197 342 218.5 383.5Q240 425 258.5 467Q277 509 277 554ZM133 0 133 130H242V0Z" glyph-name="question" horiz-adv-x="416" unicode="?" /><glyph d="M587 62Q531 21 490 5.5Q449 -10 415 -10Q358 -10 328 23Q298 56 298 107Q298 144 312.5 168.5Q327 193 352 208.5Q377 224 411.5 232.5Q446 241 485 247L584 262V349Q584 365 579 380Q574 395 562.5 407Q551 419 532 426Q513 433 485 433Q469 433 453.5 431.5Q438 430 426 428Q412 425 400 422L382 323H332L330 441Q379 460 428 472Q477 484 523 484Q550 484 575 477Q600 470 620 455Q640 440 652 416.5Q664 393 664 360V96Q664 77 668.5 65.5Q673 54 680 48Q687 42 695.5 40Q704 38 712 38Q756 38 785.5 61Q815 84 833 121Q851 158 858.5 203.5Q866 249 866 294Q866 375 839.5 438.5Q813 502 765.5 546Q718 590 652.5 613.5Q587 637 508 637Q417 637 345 608Q273 579 222.5 526Q172 473 145 399Q118 325 118 235Q118 141 146.5 67Q175 -7 227 -58.5Q279 -110 352 -137Q425 -164 514 -164Q554 -164 597.5 -159Q641 -154 683 -143.5Q725 -133 764 -117.5Q803 -102 835 -81V-123Q755 -170 675.5 -193Q596 -216 498 -216Q410 -216 328 -188Q246 -160 183 -104.5Q120 -49 82 34.5Q44 118 44 230Q44 331 78.5 414Q113 497 175 556.5Q237 616 323 649Q409 682 512 682Q617 682 696.5 648.5Q776 615 828.5 560.5Q881 506 907.5 437.5Q934 369 934 299Q934 238 919 182.5Q904 127 873 84Q842 41 796.5 15.5Q751 -10 689 -10Q637 -10 614.5 12Q592 34 587 62ZM467 196Q417 185 399.5 168Q382 151 382 116V111Q382 87 396.5 67.5Q411 48 449 48Q475 48 505.5 58.5Q536 69 584 98V223Z" glyph-name="at" horiz-adv-x="981" unicode="@" /><glyph d="M79 52 317 710H407L652 52H727V0H450V52H552L474 270H216L141 52H248V0H-3V52ZM234 322 457 322L349 634H343Z" glyph-name="A" horiz-adv-x="727" unicode="A" /><glyph d="M607 185Q607 149 594 115.5Q581 82 553 56.5Q525 31 481.5 15.5Q438 0 378 0H45V52H140V648H45V700H355Q402 700 440.5 689.5Q479 679 507.5 657.5Q536 636 551.5 604Q567 572 567 529Q567 495 554 467.5Q541 440 520.5 419.5Q500 399 474.5 385Q449 371 423 363Q453 363 485.5 351.5Q518 340 545 318.5Q572 297 589.5 266Q607 235 607 195ZM478 522Q478 586 442 617Q406 648 343 648H227V383H346Q362 383 384.5 389Q407 395 428 410.5Q449 426 463.5 453Q478 480 478 522ZM514 190Q514 231 500.5 258.5Q487 286 463.5 302Q440 318 408 324.5Q376 331 339 331H227V52H374Q448 52 481 89Q514 126 514 181Z" glyph-name="B" horiz-adv-x="660" unicode="B" /><glyph d="M149 366Q149 293 165.5 233Q182 173 216 130.5Q250 88 301 65Q352 42 422 42Q457 42 484.5 45.5Q512 49 531 53Q554 57 571 63L609 189H662L642 29Q613 18 576 10Q543 2 500 -4Q457 -10 402 -10Q323 -10 259 15.5Q195 41 149.5 87.5Q104 134 79.5 200Q55 266 55 348Q55 439 83.5 507Q112 575 162 620Q212 665 280.5 687.5Q349 710 430 710Q452 710 479 708.5Q506 707 535 704Q564 701 593 697Q622 693 646 687L642 509H589L573 643Q538 652 495.5 655Q453 658 419 658Q362 658 312.5 642.5Q263 627 226.5 592Q190 557 169.5 501.5Q149 446 149 366Z" glyph-name="C" horiz-adv-x="717" unicode="C" /><glyph d="M732 357Q732 266 704 198.5Q676 131 626 87Q576 43 507 21.5Q438 0 356 0H45V52H140V648H45V700H365Q444 700 511 679.5Q578 659 627 617Q676 575 704 510.5Q732 446 732 357ZM641 347Q641 438 618.5 496.5Q596 555 556.5 588.5Q517 622 463 635Q409 648 345 648H227V52H343Q410 52 465 65Q520 78 559 111.5Q598 145 619.5 202Q641 259 641 347Z" glyph-name="D" horiz-adv-x="787" unicode="D" /><glyph d="M617 0 45 0V52H140V648H45V700H587V520H538L507 648H227V375H378L385 470H437V224H385L378 323H227V52H537L578 179H628Z" glyph-name="E" horiz-adv-x="671" unicode="E" /><glyph d="M538 520 507 648H227V365H410L418 458H470V217H418L410 313H227V52H328V0H45V52H140V648H45V700H587V520Z" glyph-name="F" horiz-adv-x="620" unicode="F" /><glyph d="M53 347Q53 438 83 506Q113 574 165.5 619.5Q218 665 288.5 687.5Q359 710 440 710Q462 710 488.5 708.5Q515 707 543.5 704Q572 701 600 697Q628 693 652 687L647 509H594L578 643Q543 652 503.5 655Q464 658 430 658Q373 658 321.5 642.5Q270 627 231 592Q192 557 169.5 501Q147 445 147 365Q147 290 167 230.5Q187 171 224.5 129.5Q262 88 315.5 65.5Q369 43 436 43Q476 43 504.5 45.5Q533 48 552 52Q574 55 589 60V269H457V321H750V269H676V28Q642 17 600 9Q561 1 513 -4.5Q465 -10 406 -10Q328 -10 263 15.5Q198 41 151.5 88Q105 135 79 200.5Q53 266 53 347Z" glyph-name="G" horiz-adv-x="783" unicode="G" /><glyph d="M615 648 520 648V700H797V648H702V52H797V0H520V52H615V325H227V52H322V0H45V52H140V648H45V700H322V648H227V377H615Z" glyph-name="H" horiz-adv-x="842" unicode="H" /><glyph d="M40 0 40 52H156V648H40V700H359V648H243V52H359V0Z" glyph-name="I" horiz-adv-x="399" unicode="I" /><glyph d="M274 648 213 648V10Q213 -33 185 -78Q157 -123 82 -179L46 -147L126 -47V648H41V700H294Z" glyph-name="J" horiz-adv-x="337" unicode="J" /><glyph d="M561 0 309 321H227V52H318V0H45V52H140V648H45V700H318V648H227V369H303L556 648H450V700H708V648H624L373 372L633 52H723V0Z" glyph-name="K" horiz-adv-x="739" unicode="K" /><glyph d="M600 0 45 0V52H140V648H45V700H323V648H227V52H520L571 184H621Z" glyph-name="L" horiz-adv-x="643" unicode="L" /><glyph d="M645 0 645 52H750V610L507 104H434L194 608V52H292V0H45V52H139V648H45V700H248L492 180L739 700H933V648H837V52H933V0Z" glyph-name="M" horiz-adv-x="978" unicode="M" /><glyph d="M691 648 691 0H620L195 607V52H301V0H45V52H140V648H45V700H234L635 123V648H532V700H787V648Z" glyph-name="N" horiz-adv-x="819" unicode="N" /><glyph d="M382 -10Q312 -10 252.5 16Q193 42 149 89.5Q105 137 80 203Q55 269 55 348Q55 427 80 493.5Q105 560 149 608Q193 656 252.5 683Q312 710 382 710Q452 710 511.5 683Q571 656 614.5 608Q658 560 683 493.5Q708 427 708 348Q708 269 683 203Q658 137 614.5 89.5Q571 42 511.5 16Q452 -10 382 -10ZM382 661Q325 661 281.5 640Q238 619 208.5 580.5Q179 542 164 487.5Q149 433 149 365V334Q149 266 164 211.5Q179 157 208.5 118.5Q238 80 281.5 59.5Q325 39 382 39Q439 39 482 59.5Q525 80 554.5 118.5Q584 157 599 211.5Q614 266 614 334V365Q614 433 599 487.5Q584 542 554.5 580.5Q525 619 482 640Q439 661 382 661Z" glyph-name="O" horiz-adv-x="764" unicode="O" /><glyph d="M563 506Q563 454 546.5 412Q530 370 499.5 340Q469 310 425 294Q381 278 326 278Q303 278 275 280.5Q247 283 227 288V52H333V0H45V52H140V648H45V700H355Q405 700 443.5 684Q482 668 508.5 641Q535 614 549 579Q563 544 563 506ZM472 493Q472 568 429 608Q386 648 310 648H227V336Q244 334 266.5 332.5Q289 331 304 331Q392 331 432 369Q472 407 472 493Z" glyph-name="P" horiz-adv-x="600" unicode="P" /><glyph d="M543 34Q473 -10 382 -10Q312 -10 252.5 16Q193 42 149 89.5Q105 137 80 203Q55 269 55 348Q55 427 80 493.5Q105 560 149 608Q193 656 252.5 683Q312 710 382 710Q452 710 511.5 683Q571 656 614.5 608Q658 560 683 493.5Q708 427 708 348Q708 257 673.5 185Q639 113 586 65L704 -45L670 -83ZM614 365Q614 433 599 487Q584 541 554.5 579.5Q525 618 482 638.5Q439 659 382 659Q325 659 281.5 638.5Q238 618 208.5 579.5Q179 541 164 487Q149 433 149 365V334Q149 266 164 211.5Q179 157 208.5 119Q238 81 281.5 60.5Q325 40 382 40Q455 40 501 73L346 218L381 257L540 108Q572 146 593 203Q614 260 614 334Z" glyph-name="Q" horiz-adv-x="766" unicode="Q" /><glyph d="M584 0 366 291Q360 290 347.5 289.5Q335 289 327 289Q318 289 305 290Q292 291 278 292.5Q264 294 250.5 296Q237 298 227 300V52H325V0H45V52H140V648H45V700H376Q426 700 464 684.5Q502 669 528.5 643.5Q555 618 568.5 584Q582 550 582 512Q582 473 570.5 441.5Q559 410 540 386.5Q521 363 496 347Q471 331 445 322L654 52H749V0ZM491 498Q491 573 448 610.5Q405 648 329 648H227V346H365Q374 346 395 350.5Q416 355 437.5 371Q459 387 475 417Q491 447 491 498Z" glyph-name="R" horiz-adv-x="726" unicode="R" /><glyph d="M144 553Q144 511 170 482.5Q196 454 235 432Q274 410 319.5 389.5Q365 369 404 343Q443 317 469 281.5Q495 246 495 192Q495 144 477 106Q459 68 427.5 42.5Q396 17 353.5 3.5Q311 -10 263 -10Q219 -10 167 -5.5Q115 -1 75 13L69 189H119L154 49Q174 44 201.5 41Q229 38 256 38Q298 38 329 48.5Q360 59 379.5 76.5Q399 94 408.5 117.5Q418 141 418 168Q418 211 392 239Q366 267 326.5 289Q287 311 241.5 331Q196 351 156.5 377.5Q117 404 91 440.5Q65 477 65 532Q65 564 77.5 596Q90 628 116.5 653.5Q143 679 184 694.5Q225 710 282 710Q315 710 346.5 707Q378 704 403 701Q432 696 459 691L453 518H402L379 650Q368 653 354 655Q340 656 321.5 657.5Q303 659 278 659Q252 659 227.5 652.5Q203 646 184.5 632.5Q166 619 155 599Q144 579 144 553Z" glyph-name="S" horiz-adv-x="546" unicode="S" /><glyph d="M655 700 655 517H606L577 648H386V52H501V0H184V52H299V648H110L81 517H32V700Z" glyph-name="T" horiz-adv-x="686" unicode="T" /><glyph d="M672 648 672 218Q672 169 652.5 127Q633 85 596.5 54.5Q560 24 508.5 7Q457 -10 393 -10Q317 -10 264 8Q211 26 178.5 56Q146 86 131.5 125Q117 164 117 205V648H22V700H308V648H204V237Q204 198 212.5 162.5Q221 127 243 100Q265 73 304 57Q343 41 404 41Q504 41 559.5 91Q615 141 615 226V648H513V700H766V648Z" glyph-name="U" horiz-adv-x="787" unicode="U" /><glyph d="M654 648 408 0H323L78 648H2V700H272V648H174L384 81L593 648H494V700H737V648Z" glyph-name="V" horiz-adv-x="732" unicode="V" /><glyph d="M1059 648 813 0H728L566 428L408 0H323L78 648H2V700H272V648H174L384 81L539 499L483 648H407V700H677V648H579L789 81L998 648H899V700H1142V648Z" glyph-name="W" horiz-adv-x="1137" unicode="W" /><glyph d="M319 344 105 648H27V700H299V648H208L370 406L540 648H416V700H693V648H610L400 367L621 52H711V0H435V52H518L348 301L169 52H283V0H18V52H99Z" glyph-name="X" horiz-adv-x="725" unicode="X" /><glyph d="M606 648 389 246V52H504V0H186V52H301V245L82 648H-1V700H284V648H183L367 298L546 648H437V700H687V648Z" glyph-name="Y" horiz-adv-x="689" unicode="Y" /><glyph d="M613 0 44 0V44L506 648H149L119 515H70V700H612V656L148 52H533L566 184H613Z" glyph-name="Z" horiz-adv-x="672" unicode="Z" /><glyph d="M92 -156 92 812H328V760H165V-104H328V-156Z" glyph-name="bracketleft" horiz-adv-x="310" unicode="[" /><glyph d="M26 762 80 762L401 -130H348Z" glyph-name="backslash" horiz-adv-x="422" unicode="\" /><glyph d="M-18 -156 -18 -104H145V760H-18V812H218V-156Z" glyph-name="bracketright" horiz-adv-x="310" unicode="]" /><glyph d="M406 257 273 638L140 257H80L242 700H304L466 257Z" glyph-name="asciicircum" horiz-adv-x="546" unicode="^" /><glyph d="M12 -128 12 -71H309V-128Z" glyph-name="underscore" horiz-adv-x="321" unicode="_" /><glyph d="M347 540 297 530L80 705L185 712Z" glyph-name="grave" horiz-adv-x="427" unicode="`" /><glyph d="M169 -10Q112 -10 77 23Q42 56 42 107Q42 144 56.5 168.5Q71 193 96 208.5Q121 224 155.5 232.5Q190 241 229 247L328 262V349Q328 384 307 408.5Q286 433 230 433Q207 433 181 429Q155 425 141 422L123 323H74L72 441Q121 460 170.5 472Q220 484 266 484Q293 484 318 477Q343 470 363 455Q383 440 395 416.5Q407 393 407 360V47H471V5L326 -5L329 62Q274 22 238.5 6Q203 -10 169 -10ZM211 197Q161 186 143.5 168.5Q126 151 126 116V111Q126 87 140.5 67.5Q155 48 193 48Q219 48 249.5 58.5Q280 69 328 98V223Z" glyph-name="a" horiz-adv-x="499" unicode="a" /><glyph d="M122 -8 83 -8V687L17 697V742H162V411Q200 453 238.5 468.5Q277 484 322 484Q419 484 469 421.5Q519 359 519 251Q519 127 464 58.5Q409 -10 300 -10Q245 -10 210.5 3Q176 16 155 32ZM296 430Q269 430 244.5 422.5Q220 415 202 398Q184 381 173 353.5Q162 326 162 286V60Q175 54 192 50Q207 46 226.5 43Q246 40 270 40Q358 40 394 85Q430 130 430 218V259Q430 342 397 386Q364 430 296 430Z" glyph-name="b" horiz-adv-x="568" unicode="b" /><glyph d="M433 21Q393 3 346 -3.5Q299 -10 267 -10Q212 -10 170.5 9Q129 28 101.5 61.5Q74 95 60.5 139.5Q47 184 47 235Q47 289 62 334.5Q77 380 105.5 413Q134 446 175 465Q216 484 268 484Q292 484 316.5 481.5Q341 479 362 475Q383 471 398.5 468Q414 465 419 463L414 346H369L350 429Q341 431 330 433Q319 434 306.5 435Q294 436 279 436Q207 436 171 391.5Q135 347 135 261V214Q135 128 175.5 82.5Q216 37 293 37Q303 37 316 38.5Q329 40 341 42Q355 44 369 47L401 143H445Z" glyph-name="c" horiz-adv-x="484" unicode="c" /><glyph d="M264 484Q315 484 349 472.5Q383 461 404 447V687L327 697V742H484V45H549V5L399 -5L404 63Q366 21 327.5 5.5Q289 -10 244 -10Q148 -10 98.5 56Q49 122 49 231Q49 287 62 333.5Q75 380 101.5 413.5Q128 447 168.5 465.5Q209 484 264 484ZM272 44Q299 44 323 51.5Q347 59 365 75.5Q383 92 393.5 119.5Q404 147 404 187V414Q391 420 374 424Q359 428 339.5 431Q320 434 296 434Q208 434 172.5 389Q137 344 137 255V215Q137 132 170 88Q203 44 272 44Z" glyph-name="d" horiz-adv-x="581" unicode="d" /><glyph d="M135 278 135 232Q135 135 181 94Q227 53 303 53Q325 53 350 58Q375 63 397 69Q422 75 446 84L437 43Q389 19 338.5 4.5Q288 -10 250 -10Q200 -10 162.5 7.5Q125 25 99.5 56Q74 87 61 130Q48 173 48 224Q48 277 61 324.5Q74 372 101 407.5Q128 443 170 463.5Q212 484 269 484Q354 484 398.5 434.5Q443 385 443 308Q443 301 443 292.5Q443 284 442 278ZM357 320Q357 379 333.5 412Q310 445 254 445Q201 445 172.5 410.5Q144 376 137 310Z" glyph-name="e" horiz-adv-x="494" unicode="e" /><glyph d="M346 621 311 699Q305 700 296.5 700Q288 700 283 700Q253 700 235 691Q217 682 207.5 667.5Q198 653 195 634.5Q192 616 192 596V474H296L291 429H192V45H284V0H36V45H113V429H50V474H113V592Q113 669 157 708Q201 747 277 747Q295 747 311.5 746Q328 745 341 745Q356 743 369 742L383 628Z" glyph-name="f" horiz-adv-x="329" unicode="f" /><glyph d="M513 482 513 417Q512 417 511.5 416.5Q511 416 510 416L391 425Q418 399 431 367.5Q444 336 444 303Q444 264 429.5 232Q415 200 389.5 176.5Q364 153 328.5 140Q293 127 251 127Q233 127 211 131Q189 135 173 140Q165 130 155 108Q145 86 145 60Q145 37 162.5 24Q180 11 226 8L379 -1Q442 -5 476 -36Q510 -67 510 -113Q510 -164 483.5 -197Q457 -230 416 -248.5Q375 -267 326 -274.5Q277 -282 232 -282Q187 -282 150 -274.5Q113 -267 86.5 -252Q60 -237 45.5 -214Q31 -191 31 -159Q31 -114 64 -85.5Q97 -57 150 -46Q141 -44 129.5 -39Q118 -34 108.5 -25Q99 -16 92 -2Q85 12 85 33Q85 67 102 95Q119 123 134 142L143 153Q101 178 79.5 217Q58 256 58 304Q58 343 72.5 376Q87 409 112.5 433Q138 457 173.5 470.5Q209 484 251 484Q268 484 291 481.5Q314 479 328 474ZM356 323Q356 386 327 414.5Q298 443 251 443Q204 443 175 415Q146 387 146 323V288Q146 224 175 195.5Q204 167 251 167Q298 167 327 196Q356 225 356 288ZM441 -143Q441 -105 416.5 -89.5Q392 -74 346 -72Q320 -71 293.5 -69.5Q267 -68 244.5 -67Q222 -66 206 -65.5Q190 -65 185 -65Q171 -65 156 -69.5Q141 -74 129 -83.5Q117 -93 109 -107Q101 -121 101 -140Q101 -182 137.5 -208Q174 -234 264 -234Q293 -234 324 -231.5Q355 -229 381 -220Q407 -211 424 -193Q441 -175 441 -143Z" glyph-name="g" horiz-adv-x="517" unicode="g" /><glyph d="M186 742Q185 701 181.5 621Q178 541 178 401V368Q201 391 225 412Q249 433 274 449Q299 465 324.5 474.5Q350 484 375 484Q442 484 472 450Q502 416 502 359V45H577V0H347V45H423V347Q423 357 419.5 369.5Q416 382 408 393Q400 404 385.5 411.5Q371 419 349 419Q317 419 278 397Q239 375 179 323V45H255V0H25V45H100V687L28 697V742Z" glyph-name="h" horiz-adv-x="598" unicode="h" /><glyph d="M38 0 38 45H123V429H38V474H202V45H287V0ZM115 580 115 694H207V580Z" glyph-name="i" horiz-adv-x="306" unicode="i" /><glyph d="M177 -108Q177 -127 174.5 -144Q172 -161 164 -177Q156 -193 141 -208.5Q126 -224 101 -240L53 -270L25 -240L98 -175V429H31V474H177ZM91 580 91 694H183V580Z" glyph-name="j" horiz-adv-x="261" unicode="j" /><glyph d="M25 45 100 45V687L30 697V742H179V276H276L416 429H314V474H523V429H482L325 265L495 45H557V0H428L257 232H179V45H253V0H25Z" glyph-name="k" horiz-adv-x="572" unicode="k" /><glyph d="M19 0 19 45H105V687L25 697V742H184V45H270V0Z" glyph-name="l" horiz-adv-x="289" unicode="l" /><glyph d="M119 429 39 429V474L199 484Q199 477 198.5 462.5Q198 448 197.5 431Q197 414 196.5 397Q196 380 196 367Q215 391 238 412Q261 433 285.5 449Q310 465 335.5 474.5Q361 484 385 484Q449 484 477.5 451Q506 418 510 368Q529 392 552 413Q575 434 599.5 449.5Q624 465 649 474.5Q674 484 698 484Q765 484 795.5 450Q826 416 826 359V45H901V0H671V45H747V347Q747 359 744 371.5Q741 384 732.5 394.5Q724 405 710 412Q696 419 674 419Q641 419 601.5 394.5Q562 370 512 323V45H587V0H358V45H433V347Q433 359 430 371.5Q427 384 418.5 394.5Q410 405 396 412Q382 419 360 419Q328 419 288 394.5Q248 370 198 323V45H274V0H44V45H119Z" glyph-name="m" horiz-adv-x="922" unicode="m" /><glyph d="M521 45 596 45V0H366V45H442V347Q442 359 438.5 371.5Q435 384 427 394.5Q419 405 404.5 412Q390 419 368 419Q336 419 297 397Q258 375 198 323V45H274V0H44V45H119V429H39V474L199 484Q198 461 197 429.5Q196 398 196 367Q219 390 243 411Q267 432 292.5 448.5Q318 465 343.5 474.5Q369 484 394 484Q461 484 491 450Q521 416 521 359Z" glyph-name="n" horiz-adv-x="617" unicode="n" /><glyph d="M491 237Q491 183 474 137.5Q457 92 427.5 59Q398 26 357.5 8Q317 -10 269 -10Q221 -10 180 8Q139 26 109.5 58.5Q80 91 63 136.5Q46 182 46 236Q46 291 63 336.5Q80 382 109.5 415Q139 448 180 466Q221 484 269 484Q317 484 357.5 466Q398 448 427.5 415Q457 382 474 336.5Q491 291 491 237ZM402 266Q402 353 366.5 397.5Q331 442 269 442Q206 442 170.5 398Q135 354 135 267V207Q135 120 170.5 76Q206 32 269 32Q331 32 366.5 76Q402 120 402 207Z" glyph-name="o" horiz-adv-x="537" unicode="o" /><glyph d="M180 411Q218 453 256 468.5Q294 484 339 484Q436 484 486.5 421.5Q537 359 537 251Q537 127 481.5 58.5Q426 -10 317 -10Q267 -10 234.5 1Q202 12 180 26V-205H271V-250H26V-205H101V427H21V472L180 482ZM314 430Q287 430 262.5 422.5Q238 415 219.5 398Q201 381 190.5 353.5Q180 326 180 286V60Q193 54 210 50Q225 46 244 43Q263 40 288 40Q376 40 411.5 85Q447 130 447 218V259Q447 342 414.5 386Q382 430 314 430Z" glyph-name="p" horiz-adv-x="586" unicode="p" /><glyph d="M452 484 484 484V-205H553V-250H311V-205H404V63Q366 21 327.5 5.5Q289 -10 244 -10Q148 -10 98.5 56Q49 122 49 231Q49 287 62 333.5Q75 380 101.5 413.5Q128 447 168.5 465.5Q209 484 264 484Q319 484 354.5 471Q390 458 410 443ZM137 215Q137 132 170 88Q203 44 272 44Q299 44 323 51.5Q347 59 365 75.5Q383 92 393.5 119.5Q404 147 404 187V414Q391 420 374 425Q359 429 339.5 432.5Q320 436 296 436Q208 436 172.5 390Q137 344 137 255Z" glyph-name="q" horiz-adv-x="567" unicode="q" /><glyph d="M246 423Q275 455 297.5 469.5Q320 484 341 484Q364 484 384 481.5Q404 479 413 477L399 392Q390 395 379 398Q369 400 357.5 401.5Q346 403 333 403Q304 403 270.5 381Q237 359 198 326V45H293V0H44V45H119V429H39V474L202 484Q202 476 201 462Q200 448 199 431.5Q198 415 197 398Q196 381 196 367Z" glyph-name="r" horiz-adv-x="425" unicode="r" /><glyph d="M127 371Q127 343 146 325.5Q165 308 193.5 294.5Q222 281 255 269Q288 257 316 241Q344 225 363 201.5Q382 178 382 141Q382 102 368.5 73.5Q355 45 331 26.5Q307 8 274.5 -1Q242 -10 204 -10Q165 -10 125 -5Q85 0 58 9V138H101L120 42Q125 40 144.5 36Q164 32 196 32Q255 32 281.5 52Q308 72 308 111Q308 141 289 158Q270 175 242 187.5Q214 200 181 211.5Q148 223 120 240Q92 257 73 283.5Q54 310 54 353Q54 375 62.5 398.5Q71 422 90.5 441Q110 460 141.5 472Q173 484 219 484Q242 484 266 482Q290 480 311 478Q335 475 358 471Q357 456 355.5 434.5Q354 413 353 393Q351 370 350 346H305L295 435Q284 437 272 439Q261 440 247 441Q233 442 218 442Q173 442 150 423.5Q127 405 127 371Z" glyph-name="s" horiz-adv-x="426" unicode="s" /><glyph d="M335 35Q316 24 294 15Q274 7 250 1Q226 -5 200 -5Q167 -5 148 5.5Q129 16 119 33Q109 50 106 71Q103 92 103 114V429H16V470L104 483V626H182V474H320L315 429H182V121Q182 84 194.5 67.5Q207 51 235 51Q261 51 290.5 58Q320 65 335 73Z" glyph-name="t" horiz-adv-x="355" unicode="t" /><glyph d="M96 429 23 429V474H175V127Q175 115 178 102.5Q181 90 189 79Q197 68 211 61Q225 54 247 54Q278 54 314 76.5Q350 99 411 151V429H335V474H495Q495 422 492.5 353Q490 284 490 199V45H563V0L410 -10Q410 -3 410.5 11.5Q411 26 411.5 43Q412 60 412.5 77Q413 94 413 107Q390 84 366.5 62.5Q343 41 319 25Q295 9 270.5 -0.5Q246 -10 222 -10Q155 -10 125.5 24Q96 58 96 115Z" glyph-name="u" horiz-adv-x="591" unicode="u" /><glyph d="M484 429 319 0H244L70 429H5V474H233V429H162L298 69L429 429H350V474H549V429Z" glyph-name="v" horiz-adv-x="555" unicode="v" /><glyph d="M617 69 740 429H663V474H857V429H791L637 0H562L430 390L302 0H226L71 429H6V474H241V429H158L280 69L418 474H480Z" glyph-name="w" horiz-adv-x="863" unicode="w" /><glyph d="M312 0 312 45H369L264 197L141 45H224V0H29V45H81L237 231L92 429H30V474H246V429H187L291 279L410 429H328V474H511V429H470L317 247L465 45H517V0Z" glyph-name="x" horiz-adv-x="547" unicode="x" /><glyph d="M478 429 209 -250L59 -240V-195L173 -185L245 -8L77 429H5V474H153L293 82L424 429H353V474H533V429Z" glyph-name="y" horiz-adv-x="539" unicode="y" /><glyph d="M449 0 40 0V35L348 429H127L111 314H67L60 474H442V432L141 45H377L419 169H459Z" glyph-name="z" horiz-adv-x="507" unicode="z" /><glyph d="M71 349Q98 349 108.5 365Q119 381 119 404V711Q119 765 149 787.5Q179 810 227 810H317V758H270Q257 758 244.5 756Q232 754 222.5 745.5Q213 737 207 721Q201 705 201 676Q200 628 200 580Q200 536 199.5 491Q199 446 199 408Q199 398 195.5 385.5Q192 373 182 361.5Q172 350 154.5 340.5Q137 331 108 327Q137 323 154.5 313.5Q172 304 182 292Q192 280 195.5 268Q199 256 199 245Q199 207 199.5 160.5Q200 114 200 73Q200 25 201 -23Q201 -52 207 -68Q213 -84 222.5 -92.5Q232 -101 244.5 -103Q257 -105 270 -105H317V-157H227Q179 -157 149 -134.5Q119 -112 119 -58V249Q119 272 108.5 288Q98 304 71 304H18V349Z" glyph-name="braceleft" horiz-adv-x="335" unicode="{" /><glyph d="M92 -157 92 834H156V-157Z" glyph-name="bar" horiz-adv-x="248" unicode="|" /><glyph d="M317 349 317 304H264Q237 304 226.5 288Q216 272 216 249V-58Q216 -112 186 -134.5Q156 -157 108 -157H18V-105H65Q78 -105 90.5 -103Q103 -101 112.5 -92.5Q122 -84 128 -68Q134 -52 134 -23Q135 25 135 73Q135 117 135.5 162Q136 207 136 245Q136 256 139.5 268Q143 280 153 292Q163 304 181 313.5Q199 323 227 327Q199 331 181 340.5Q163 350 153 361.5Q143 373 139.5 385.5Q136 398 136 408Q136 446 135.5 492.5Q135 539 135 580Q135 628 134 676Q134 705 128 721Q122 737 112.5 745.5Q103 754 90.5 756Q78 758 65 758H18V810H108Q156 810 186 787.5Q216 765 216 711V404Q216 381 226.5 365Q237 349 264 349Z" glyph-name="braceright" horiz-adv-x="335" unicode="}" /><glyph d="M372 308Q355 308 322 315.5Q289 323 254 332.5Q219 342 189.5 349.5Q160 357 149 357Q129 357 121.5 343.5Q114 330 114 304H74Q74 363 97 394Q120 425 160 425Q178 425 210 417Q242 409 276 400Q310 391 340.5 383Q371 375 385 375Q405 375 412.5 388.5Q420 402 420 428H460Q460 368 436 338Q412 308 372 308Z" glyph-name="asciitilde" horiz-adv-x="526" unicode="~" /><glyph d="M82 -236 96 109L111 263H155L170 109L184 -236ZM188 474 188 344H78V474Z" glyph-name="exclamdown" horiz-adv-x="266" unicode="¡" /><glyph d="M314 681 296 482Q335 479 367.5 472Q400 465 408 463L403 346H358L339 429Q333 430 326 431Q319 432 310.5 433Q302 434 292 435L257 38Q263 37 269 37Q275 37 282 37Q292 37 305 38.5Q318 40 330 42Q344 44 358 47L390 143H434L422 21Q382 3 335 -3.5Q288 -10 256 -10H252L234 -217H186L205 -5Q163 3 131 25Q99 47 78 78.5Q57 110 46.5 150Q36 190 36 235Q36 288 50.5 332.5Q65 377 92 410.5Q119 444 158.5 463.5Q198 483 248 484L266 681ZM124 214Q124 87 210 50L244 434Q124 419 124 261Z" glyph-name="cent" horiz-adv-x="482" unicode="¢" /><glyph d="M156 226 50 226V270H156V370H50V414H156V485Q156 597 207.5 648.5Q259 700 359 700Q392 700 435.5 693.5Q479 687 511 679L498 560H460L448 645Q435 647 420 649Q407 651 392.5 652Q378 653 363 653Q304 653 279.5 615.5Q255 578 249 498L243 414H417V370H238L230 270H417V226H225L210 67H524L508 0H50V66H156Z" glyph-name="sterling" horiz-adv-x="565" unicode="£" /><glyph d="M552 137Q516 108 472 92Q428 76 379 76Q330 76 285.5 92.5Q241 109 206 138L86 18L46 56L166 177Q139 212 123 255.5Q107 299 107 347Q107 397 123 441Q139 485 168 520L46 643L86 682L208 559Q243 588 286.5 604Q330 620 379 620Q428 620 471 604Q514 588 549 560L672 682L710 642L588 520Q617 485 634 440.5Q651 396 651 347Q651 298 635 255Q619 212 590 176L711 57L672 17ZM171 347Q171 302 187 263Q203 224 231.5 195Q260 166 298 149Q336 132 379 132Q422 132 460 149Q498 166 526 195Q554 224 570.5 263Q587 302 587 347Q587 392 570.5 431.5Q554 471 526 500.5Q498 530 460 547Q422 564 379 564Q336 564 298 547Q260 530 231.5 500.5Q203 471 187 431.5Q171 392 171 347Z" glyph-name="currency" horiz-adv-x="756" unicode="¤" /><glyph d="M96 421 242 421L119 648H36V700H324V648H221L404 298L583 648H474V700H724V648H643L520 421H659V374H495L440 273H659V226H426V52H541V0H223V52H338V226H96V273H322L268 374H96Z" glyph-name="yen" horiz-adv-x="759" unicode="¥" /><glyph d="M93 393 93 834H157V393ZM157 306 157 -157H93V306Z" glyph-name="brokenbar" horiz-adv-x="250" unicode="¦" /><glyph d="M165 351Q148 335 136 314.5Q124 294 124 274Q124 239 148 219.5Q172 200 208.5 186Q245 172 287 160Q329 148 365.5 128.5Q402 109 426 78Q450 47 450 -4Q450 -33 439 -62.5Q428 -92 401.5 -116Q375 -140 332 -155Q289 -170 225 -170Q192 -170 163.5 -166Q135 -162 113 -158Q87 -152 66 -145L69 -2H113L139 -109Q150 -113 165 -117Q178 -120 195 -122Q212 -124 234 -124Q305 -124 338 -97.5Q371 -71 371 -27Q371 12 347 34Q323 56 287 70.5Q251 85 209.5 96Q168 107 132 124.5Q96 142 72 170.5Q48 199 48 247Q48 286 68 317Q88 348 125 370ZM351 192Q368 207 379 226.5Q390 246 390 265Q390 300 366 320Q342 340 305.5 354Q269 368 226.5 380.5Q184 393 147.5 413Q111 433 87 464Q63 495 63 547Q63 578 74.5 607.5Q86 637 111 659.5Q136 682 175.5 696Q215 710 271 710Q304 710 332.5 706.5Q361 703 383 699Q408 694 429 688L422 546H378L356 652Q345 655 331 658Q318 660 302 661.5Q286 663 267 663Q210 663 174.5 640Q139 617 139 573Q139 535 163 512.5Q187 490 223.5 475Q260 460 302.5 447.5Q345 435 381.5 417Q418 399 442 370.5Q466 342 466 295Q466 257 446.5 226Q427 195 395 172Z" glyph-name="section" horiz-adv-x="511" unicode="§" /><glyph d="M248 554 248 666H334V554ZM80 554 80 666H166V554Z" glyph-name="dieresis" horiz-adv-x="414" unicode="¨" /><glyph d="M804 350Q804 271 777.5 202.5Q751 134 701.5 83Q652 32 581.5 2.5Q511 -27 424 -27Q336 -27 266 2Q196 31 146.5 82Q97 133 70.5 201.5Q44 270 44 349Q44 428 70.5 497Q97 566 146.5 617.5Q196 669 266 698.5Q336 728 424 728Q511 728 581.5 698.5Q652 669 701.5 618Q751 567 777.5 498Q804 429 804 350ZM734 350Q734 419 715.5 479Q697 539 658.5 583.5Q620 628 562 653.5Q504 679 424 679Q344 679 285.5 653.5Q227 628 188.5 583Q150 538 131 478Q112 418 112 349Q112 280 131 220.5Q150 161 188.5 116.5Q227 72 285.5 46.5Q344 21 424 21Q504 21 562 46.5Q620 72 658.5 116.5Q697 161 715.5 221Q734 281 734 350ZM569 159Q533 142 495 136Q457 130 429 130Q378 130 339.5 147Q301 164 276 194Q251 224 238.5 265Q226 306 226 353Q226 402 240 443.5Q254 485 280 515Q306 545 343.5 562Q381 579 428 579Q456 579 479 576Q502 573 519 570Q540 565 556 560L551 456H515L499 528Q492 530 482 531Q473 532 461 533Q449 534 433 534Q370 534 339 492.5Q308 451 308 374V333Q308 256 343 214.5Q378 173 448 173Q457 173 468.5 174.5Q480 176 490 178Q502 179 514 182L544 265H581Z" glyph-name="copyright" horiz-adv-x="848" unicode="©" /><glyph d="M136 358Q95 358 72 382Q49 406 49 442Q49 465 57 481.5Q65 498 83 509.5Q101 521 129.5 529.5Q158 538 199 545L251 554V613Q251 637 237 653.5Q223 670 185 670Q174 670 163.5 669Q153 668 144 666Q135 664 126 662L112 592H75L73 679Q107 693 142.5 701.5Q178 710 210 710Q229 710 247 705Q265 700 279.5 689.5Q294 679 302.5 661.5Q311 644 311 620V403H355V369L249 361L251 406Q216 380 187.5 369Q159 358 136 358ZM222 515Q174 507 144.5 494Q115 481 115 451Q115 425 128 414.5Q141 404 161 404Q178 404 198.5 410.5Q219 417 251 437V520Z" glyph-name="ordfeminine" horiz-adv-x="405" unicode="ª" /><glyph d="M201 235 201 239L352 474H413L291 237L413 0H352ZM25 235 25 239L176 474H237L114 237L237 0H176Z" glyph-name="guillemotleft" horiz-adv-x="457" unicode="«" /><glyph d="M364 301 63 301V359H427V171H364Z" glyph-name="logicalnot" horiz-adv-x="494" unicode="¬" /><glyph d="" glyph-name="uni00AD" horiz-adv-x="0" unicode="­" /><glyph d="M804 350Q804 271 777.5 202.5Q751 134 701.5 83Q652 32 581.5 2.5Q511 -27 424 -27Q336 -27 266 2Q196 31 146.5 82Q97 133 70.5 201.5Q44 270 44 349Q44 428 70.5 497Q97 566 146.5 617.5Q196 669 266 698.5Q336 728 424 728Q511 728 581.5 698.5Q652 669 701.5 618Q751 567 777.5 498Q804 429 804 350ZM424 21Q514 21 576.5 53Q639 85 676 141H571L432 321Q415 321 399.5 322Q384 323 367 324V182H428V141H238V182H295V531H238V573H456Q489 573 514 563.5Q539 554 556.5 538Q574 522 583 501Q592 480 592 457Q592 407 564 378Q536 349 501 338L629 182H700Q734 254 734 350Q734 419 715.5 479Q697 539 658.5 583.5Q620 628 562 653.5Q504 679 424 679Q344 679 285.5 653.5Q227 628 188.5 583Q150 538 131 478Q112 418 112 349Q112 280 131 220.5Q150 161 188.5 116.5Q227 72 285.5 46.5Q344 21 424 21ZM519 447Q519 493 492 512Q465 531 415 531H367V363H436Q445 363 459 365.5Q473 368 486.5 376.5Q500 385 509.5 401.5Q519 418 519 447Z" glyph-name="registered" horiz-adv-x="848" unicode="®" /><glyph d="M80 558 80 615H354V558Z" glyph-name="macron" horiz-adv-x="434" unicode="¯" /><glyph d="M43 531Q43 566 56 596.5Q69 627 92 650Q115 673 145.5 686.5Q176 700 211 700Q246 700 276.5 686.5Q307 673 330 650Q353 627 366.5 596.5Q380 566 380 531Q380 496 366.5 465.5Q353 435 330 412Q307 389 276.5 376Q246 363 211 363Q176 363 145.5 376Q115 389 92 412Q69 435 56 465.5Q43 496 43 531ZM94 531Q94 506 103 483.5Q112 461 127.5 444.5Q143 428 164.5 418.5Q186 409 211 409Q236 409 257.5 418.5Q279 428 295 444.5Q311 461 320 483.5Q329 506 329 531Q329 556 320 578.5Q311 601 295 617.5Q279 634 257.5 644Q236 654 211 654Q186 654 164.5 644Q143 634 127.5 617.5Q112 601 103 578.5Q94 556 94 531Z" glyph-name="degree" horiz-adv-x="423" unicode="°" /><glyph d="M522 415 522 357H319V149H256V357H53V415H256V623H319V415ZM53 0 53 58H522V0Z" glyph-name="plusminus" horiz-adv-x="575" unicode="±" /><glyph d="M323 301 58 301V340L183 468Q215 500 231.5 533Q248 566 248 598Q248 618 241.5 630.5Q235 643 224.5 650.5Q214 658 200.5 660.5Q187 663 173 663Q162 663 153 662Q144 661 138 661Q130 659 123 658L114 585H77L71 684Q86 689 105 693Q122 696 143.5 698.5Q165 701 193 701Q256 701 287.5 674Q319 647 319 610Q319 576 302.5 547Q286 518 258 491L121 355H275L296 407H327Z" glyph-name="twosuperior" horiz-adv-x="382" unicode="²" /><glyph d="M120 531Q185 531 215.5 549Q246 567 246 610Q246 634 229 650Q212 666 174 666Q167 666 157.5 665.5Q148 665 139 664Q129 663 118 662L104 605H70L66 685Q85 690 107 694Q126 697 148 699.5Q170 702 193 702Q214 702 234.5 698Q255 694 272 684.5Q289 675 299.5 658.5Q310 642 310 618Q310 583 284 558.5Q258 534 218 524Q270 522 297.5 494.5Q325 467 325 425Q325 402 314 378.5Q303 355 282 336.5Q261 318 230 306Q199 294 158 294Q118 294 92.5 299.5Q67 305 56 309V389H93L107 331Q109 331 123 329.5Q137 328 148 328Q202 328 230.5 351Q259 374 259 416Q259 453 234.5 469Q210 485 169 485Q158 485 142.5 483.5Q127 482 113 481Z" glyph-name="threesuperior" horiz-adv-x="382" unicode="³" /><glyph d="M347 705 130 530L80 540L242 712Z" glyph-name="acute" horiz-adv-x="427" unicode="´" /><glyph d="M159 -250 99 -250Q99 -207 101 -149.5Q103 -92 105.5 -11Q108 70 110 178Q112 286 112 429H39V474H191V127Q191 115 194 102.5Q197 90 205 79Q213 68 227 61Q241 54 263 54Q294 54 330 76.5Q366 99 427 151V429H351V474H508Q508 422 507 353Q506 284 506 199V45H579V0L426 -10Q426 -3 426.5 11.5Q427 26 427.5 43Q428 60 428.5 77Q429 94 429 107Q406 84 382.5 62.5Q359 41 335 25Q311 9 286.5 -0.5Q262 -10 238 -10Q215 -10 194 -4.5Q173 1 159 12Z" glyph-name="mu" horiz-adv-x="620" unicode="µ" /><glyph d="M408 0Q329 0 263 23.5Q197 47 149.5 92Q102 137 75.5 201.5Q49 266 49 348Q49 431 75.5 496Q102 561 149 606.5Q196 652 261.5 676Q327 700 406 700H858V648H742V52H858V0ZM468 52 655 52V648H468Z" glyph-name="paragraph" horiz-adv-x="898" unicode="¶" /><glyph d="M82 297 82 427H191V297Z" glyph-name="periodcentered" horiz-adv-x="273" unicode="·" /><glyph d="M289 -163Q289 -181 282.5 -198.5Q276 -216 261 -230Q246 -244 222 -252.5Q198 -261 163 -261Q130 -261 107.5 -253Q85 -245 80 -241L86 -207Q94 -209 110.5 -212.5Q127 -216 147 -216Q179 -216 200 -203.5Q221 -191 221 -166Q221 -147 209.5 -135.5Q198 -124 180.5 -118Q163 -112 142 -110Q121 -108 103 -108L168 8L200 4L173 -72Q203 -72 225 -80Q247 -88 261.5 -100.5Q276 -113 282.5 -129.5Q289 -146 289 -163Z" glyph-name="cedilla" horiz-adv-x="369" unicode="¸" /><glyph d="M76 301 76 340L161 345V640L81 619V656L191 698H224V345L306 340V301Z" glyph-name="onesuperior" horiz-adv-x="382" unicode="¹" /><glyph d="M203 710Q237 710 266 697Q295 684 316 660.5Q337 637 348.5 604.5Q360 572 360 533Q360 494 348.5 462Q337 430 316 407Q295 384 266 371Q237 358 203 358Q169 358 140 371Q111 384 90 407Q69 430 57.5 462Q46 494 46 533Q46 572 57.5 604.5Q69 637 90 660.5Q111 684 140 697Q169 710 203 710ZM203 394Q245 394 269 425.5Q293 457 293 516V552Q293 612 269 643Q245 674 203 674Q161 674 137 643Q113 612 113 552V516Q113 457 137 425.5Q161 394 203 394Z" glyph-name="ordmasculine" horiz-adv-x="406" unicode="º" /><glyph d="M281 0 220 0L343 237L220 474H281L432 239V235ZM105 0 44 0L166 237L44 474H105L256 239V235Z" glyph-name="guillemotright" horiz-adv-x="457" unicode="»" /><glyph d="M871 685 237 -13Q229 -6 220.5 0.5Q212 7 204 15L840 712ZM96 301 96 340L181 345V640L101 619V656L211 698H244V345L326 340V301ZM903 117 903 35H955V0H787V35H841V117H658V153L834 396H903V156H967V117ZM841 156 841 348L703 156Z" glyph-name="onequarter" horiz-adv-x="1075" unicode="¼" /><glyph d="M978 0 713 0V39L838 167Q870 199 886.5 232Q903 265 903 297Q903 317 896.5 329.5Q890 342 879.5 349.5Q869 357 855.5 359.5Q842 362 828 362Q817 362 808 361Q799 360 793 360Q785 358 778 357L769 284H732L726 383Q741 388 760 392Q777 395 798.5 397.5Q820 400 848 400Q911 400 942.5 373Q974 346 974 309Q974 275 957.5 246Q941 217 913 190L776 54H930L951 106H982ZM871 685 237 -13Q229 -6 220.5 0.5Q212 7 204 15L840 712ZM96 301 96 340L181 345V640L101 619V656L211 698H244V345L326 340V301Z" glyph-name="onehalf" horiz-adv-x="1075" unicode="½" /><glyph d="M913 117 913 35H965V0H797V35H851V117H668V153L844 396H913V156H977V117ZM851 156 851 348L713 156ZM139 531Q204 531 234.5 549Q265 567 265 610Q265 634 248 650Q231 666 193 666Q186 666 176.5 665.5Q167 665 158 664Q148 663 137 662L123 605H89L85 685Q104 690 126 694Q145 697 167 699.5Q189 702 212 702Q233 702 253.5 698Q274 694 291 684.5Q308 675 318.5 658.5Q329 642 329 618Q329 583 303 558.5Q277 534 237 524Q289 522 316.5 494.5Q344 467 344 425Q344 402 333 378.5Q322 355 301 336.5Q280 318 249 306Q218 294 177 294Q137 294 111.5 299.5Q86 305 75 309V389H112L126 331Q128 331 142 329.5Q156 328 167 328Q221 328 249.5 351Q278 374 278 416Q278 453 253.5 469Q229 485 188 485Q177 485 161.5 483.5Q146 482 132 481ZM871 685 237 -13Q229 -6 220.5 0.5Q212 7 204 15L840 712Z" glyph-name="threequarters" horiz-adv-x="1075" unicode="¾" /><glyph d="M304 474 304 344H195V474ZM159 -80Q159 -137 187.5 -162Q216 -187 264 -187Q279 -187 292 -186Q305 -185 314 -183Q325 -181 334 -179L350 -75H396L398 -209Q376 -217 351 -223Q328 -228 300 -232Q272 -236 240 -236Q194 -236 160.5 -224Q127 -212 106 -192Q85 -172 75 -146.5Q65 -121 65 -93Q65 -35 88.5 10Q112 55 141.5 95.5Q171 136 198 176.5Q225 217 231 265H276Q276 217 257.5 174.5Q239 132 217.5 90.5Q196 49 177.5 7Q159 -35 159 -80Z" glyph-name="questiondown" horiz-adv-x="421" unicode="¿" /><glyph d="M79 52 317 710H407L652 52H727V0H450V52H552L474 270H216L141 52H248V0H-3V52ZM234 322 457 322L349 634H343ZM495 766 445 756L228 931L333 938Z" glyph-name="Agrave" horiz-adv-x="727" unicode="À" /><glyph d="M79 52 317 710H407L652 52H727V0H450V52H552L474 270H216L141 52H248V0H-3V52ZM234 322 457 322L349 634H343ZM485 931 268 756L218 766L380 938Z" glyph-name="Aacute" horiz-adv-x="727" unicode="Á" /><glyph d="M79 52 317 710H407L652 52H727V0H450V52H552L474 270H216L141 52H248V0H-3V52ZM234 322 457 322L349 634H343ZM391 941 521 766L471 756L362 884L253 756L203 766L333 941Z" glyph-name="Acircumflex" horiz-adv-x="727" unicode="Â" /><glyph d="M79 52 317 710H407L652 52H727V0H450V52H552L474 270H216L141 52H248V0H-3V52ZM234 322 457 322L349 634H343ZM434 783Q417 783 394.5 790Q372 797 350.5 805Q329 813 310 820Q291 827 280 827Q260 827 253 814Q246 801 246 779H208Q208 830 228.5 860.5Q249 891 289 891Q307 891 328 884Q349 877 370 868Q391 859 410.5 852Q430 845 444 845Q464 845 470.5 859Q477 873 477 895H515Q515 844 494.5 813.5Q474 783 434 783Z" glyph-name="Atilde" horiz-adv-x="727" unicode="Ã" /><glyph d="M79 52 317 710H407L652 52H727V0H450V52H552L474 270H216L141 52H248V0H-3V52ZM234 322 457 322L349 634H343ZM403 780 403 892H489V780ZM235 780 235 892H321V780Z" glyph-name="Adieresis" horiz-adv-x="727" unicode="Ä" /><glyph d="M77 52 295 654Q261 671 240.5 702Q220 733 220 773Q220 802 231 826.5Q242 851 261 869Q280 887 305.5 897.5Q331 908 360 908Q389 908 414.5 897.5Q440 887 459 869Q478 851 489 826.5Q500 802 500 773Q500 733 479 702Q458 671 425 654L650 52H725V0H448V52H550L472 270H214L139 52H246V0H-5V52ZM232 322 455 322L347 634H341ZM360 862Q319 862 297.5 836Q276 810 276 773Q276 735 297.5 710Q319 685 360 685Q401 685 422.5 710Q444 735 444 773Q444 810 422.5 836Q401 862 360 862Z" glyph-name="Aring" horiz-adv-x="724" unicode="Å" /><glyph d="M970 0 397 0V52H492V314H277L125 52H224V0H-15V52H55L419 648H300V700H940V520H891L860 648H580V375H730L738 470H790V224H738L730 323H580V52H890L931 179H981ZM306 366 492 366V648H476Z" glyph-name="AE" horiz-adv-x="1024" unicode="Æ" /><glyph d="M470 -163Q470 -181 463.5 -198.5Q457 -216 442 -230Q427 -244 403 -252.5Q379 -261 344 -261Q311 -261 288.5 -253Q266 -245 261 -241L267 -207Q275 -209 291.5 -212.5Q308 -216 328 -216Q360 -216 381 -203.5Q402 -191 402 -166Q402 -147 390.5 -135.5Q379 -124 361.5 -118Q344 -112 323 -110Q302 -108 284 -108L341 -5Q275 4 222.5 32.5Q170 61 133.5 107Q97 153 77 214Q57 275 57 348Q57 439 85.5 507Q114 575 164 620Q214 665 282.5 687.5Q351 710 432 710Q454 710 481 708.5Q508 707 537 704Q566 701 595 697Q624 693 648 687L644 509H591L575 643Q540 652 497.5 655Q455 658 421 658Q364 658 314.5 642.5Q265 627 228.5 592Q192 557 171.5 501.5Q151 446 151 366Q151 293 167.5 233Q184 173 218 130.5Q252 88 303 65Q354 42 424 42Q459 42 486.5 45.5Q514 49 533 53Q556 57 573 63L611 189H664L644 29Q615 18 578 10Q545 2 502 -4Q459 -10 404 -10Q396 -10 389.5 -9.5Q383 -9 376 -9L354 -72Q384 -72 406 -80Q428 -88 442.5 -100.5Q457 -113 463.5 -129.5Q470 -146 470 -163Z" glyph-name="Ccedilla" horiz-adv-x="719" unicode="Ç" /><glyph d="M617 0 45 0V52H140V648H45V700H587V520H538L507 648H227V375H378L385 470H437V224H385L378 323H227V52H537L578 179H628ZM475 766 425 756L208 931L313 938Z" glyph-name="Egrave" horiz-adv-x="671" unicode="È" /><glyph d="M617 0 45 0V52H140V648H45V700H587V520H538L507 648H227V375H378L385 470H437V224H385L378 323H227V52H537L578 179H628ZM475 931 258 756L208 766L370 938Z" glyph-name="Eacute" horiz-adv-x="671" unicode="É" /><glyph d="M617 0 45 0V52H140V648H45V700H587V520H538L507 648H227V375H378L385 470H437V224H385L378 323H227V52H537L578 179H628ZM370 941 500 766L450 756L341 884L232 756L182 766L312 941Z" glyph-name="Ecircumflex" horiz-adv-x="671" unicode="Ê" /><glyph d="M617 0 45 0V52H140V648H45V700H587V520H538L507 648H227V375H378L385 470H437V224H385L378 323H227V52H537L578 179H628ZM382 780 382 892H468V780ZM214 780 214 892H300V780Z" glyph-name="Edieresis" horiz-adv-x="671" unicode="Ë" /><glyph d="M40 0 40 52H156V648H40V700H359V648H243V52H359V0ZM333 766 283 756L66 931L171 938Z" glyph-name="Igrave" horiz-adv-x="399" unicode="Ì" /><glyph d="M40 0 40 52H156V648H40V700H359V648H243V52H359V0ZM333 931 116 756L66 766L228 938Z" glyph-name="Iacute" horiz-adv-x="399" unicode="Í" /><glyph d="M40 0 40 52H156V648H40V700H359V648H243V52H359V0ZM229 941 359 766L309 756L200 884L91 756L41 766L171 941Z" glyph-name="Icircumflex" horiz-adv-x="399" unicode="Î" /><glyph d="M40 0 40 52H156V648H40V700H359V648H243V52H359V0ZM240 780 240 892H326V780ZM72 780 72 892H158V780Z" glyph-name="Idieresis" horiz-adv-x="399" unicode="Ï" /><glyph d="M734 358Q734 267 706 199.5Q678 132 628 87.5Q578 43 509 21.5Q440 0 358 0H47V52H142V323H52V375H142V648H47V700H367Q446 700 513 680Q580 660 629 618Q678 576 706 511.5Q734 447 734 358ZM643 347Q643 438 620.5 496.5Q598 555 558.5 588.5Q519 622 465 635Q411 648 347 648H229V375H439V323H229V52H345Q412 52 467 65Q522 78 561 111.5Q600 145 621.5 202Q643 259 643 347Z" glyph-name="Eth" horiz-adv-x="789" unicode="Ð" /><glyph d="M691 648 691 0H620L195 607V52H301V0H45V52H140V648H45V700H234L635 123V648H532V700H787V648ZM481 783Q464 783 441.5 790Q419 797 397.5 805Q376 813 357 820Q338 827 327 827Q307 827 300 814Q293 801 293 779H255Q255 830 275.5 860.5Q296 891 336 891Q354 891 375 884Q396 877 417 868Q438 859 457.5 852Q477 845 491 845Q511 845 517.5 859Q524 873 524 895H562Q562 844 541.5 813.5Q521 783 481 783Z" glyph-name="Ntilde" horiz-adv-x="819" unicode="Ñ" /><glyph d="M382 -10Q312 -10 252.5 16Q193 42 149 89.5Q105 137 80 203Q55 269 55 348Q55 427 80 493.5Q105 560 149 608Q193 656 252.5 683Q312 710 382 710Q452 710 511.5 683Q571 656 614.5 608Q658 560 683 493.5Q708 427 708 348Q708 269 683 203Q658 137 614.5 89.5Q571 42 511.5 16Q452 -10 382 -10ZM382 661Q325 661 281.5 640Q238 619 208.5 580.5Q179 542 164 487.5Q149 433 149 365V334Q149 266 164 211.5Q179 157 208.5 118.5Q238 80 281.5 59.5Q325 39 382 39Q439 39 482 59.5Q525 80 554.5 118.5Q584 157 599 211.5Q614 266 614 334V365Q614 433 599 487.5Q584 542 554.5 580.5Q525 619 482 640Q439 661 382 661ZM515 766 465 756L248 931L353 938Z" glyph-name="Ograve" horiz-adv-x="764" unicode="Ò" /><glyph d="M382 -10Q312 -10 252.5 16Q193 42 149 89.5Q105 137 80 203Q55 269 55 348Q55 427 80 493.5Q105 560 149 608Q193 656 252.5 683Q312 710 382 710Q452 710 511.5 683Q571 656 614.5 608Q658 560 683 493.5Q708 427 708 348Q708 269 683 203Q658 137 614.5 89.5Q571 42 511.5 16Q452 -10 382 -10ZM382 661Q325 661 281.5 640Q238 619 208.5 580.5Q179 542 164 487.5Q149 433 149 365V334Q149 266 164 211.5Q179 157 208.5 118.5Q238 80 281.5 59.5Q325 39 382 39Q439 39 482 59.5Q525 80 554.5 118.5Q584 157 599 211.5Q614 266 614 334V365Q614 433 599 487.5Q584 542 554.5 580.5Q525 619 482 640Q439 661 382 661ZM515 931 298 756L248 766L410 938Z" glyph-name="Oacute" horiz-adv-x="764" unicode="Ó" /><glyph d="M382 -10Q312 -10 252.5 16Q193 42 149 89.5Q105 137 80 203Q55 269 55 348Q55 427 80 493.5Q105 560 149 608Q193 656 252.5 683Q312 710 382 710Q452 710 511.5 683Q571 656 614.5 608Q658 560 683 493.5Q708 427 708 348Q708 269 683 203Q658 137 614.5 89.5Q571 42 511.5 16Q452 -10 382 -10ZM382 661Q325 661 281.5 640Q238 619 208.5 580.5Q179 542 164 487.5Q149 433 149 365V334Q149 266 164 211.5Q179 157 208.5 118.5Q238 80 281.5 59.5Q325 39 382 39Q439 39 482 59.5Q525 80 554.5 118.5Q584 157 599 211.5Q614 266 614 334V365Q614 433 599 487.5Q584 542 554.5 580.5Q525 619 482 640Q439 661 382 661ZM410 941 540 766L490 756L381 884L272 756L222 766L352 941Z" glyph-name="Ocircumflex" horiz-adv-x="764" unicode="Ô" /><glyph d="M382 -10Q312 -10 252.5 16Q193 42 149 89.5Q105 137 80 203Q55 269 55 348Q55 427 80 493.5Q105 560 149 608Q193 656 252.5 683Q312 710 382 710Q452 710 511.5 683Q571 656 614.5 608Q658 560 683 493.5Q708 427 708 348Q708 269 683 203Q658 137 614.5 89.5Q571 42 511.5 16Q452 -10 382 -10ZM382 661Q325 661 281.5 640Q238 619 208.5 580.5Q179 542 164 487.5Q149 433 149 365V334Q149 266 164 211.5Q179 157 208.5 118.5Q238 80 281.5 59.5Q325 39 382 39Q439 39 482 59.5Q525 80 554.5 118.5Q584 157 599 211.5Q614 266 614 334V365Q614 433 599 487.5Q584 542 554.5 580.5Q525 619 482 640Q439 661 382 661ZM454 783Q437 783 414.5 790Q392 797 370.5 805Q349 813 330 820Q311 827 300 827Q280 827 273 814Q266 801 266 779H228Q228 830 248.5 860.5Q269 891 309 891Q327 891 348 884Q369 877 390 868Q411 859 430.5 852Q450 845 464 845Q484 845 490.5 859Q497 873 497 895H535Q535 844 514.5 813.5Q494 783 454 783Z" glyph-name="Otilde" horiz-adv-x="764" unicode="Õ" /><glyph d="M382 -10Q312 -10 252.5 16Q193 42 149 89.5Q105 137 80 203Q55 269 55 348Q55 427 80 493.5Q105 560 149 608Q193 656 252.5 683Q312 710 382 710Q452 710 511.5 683Q571 656 614.5 608Q658 560 683 493.5Q708 427 708 348Q708 269 683 203Q658 137 614.5 89.5Q571 42 511.5 16Q452 -10 382 -10ZM382 661Q325 661 281.5 640Q238 619 208.5 580.5Q179 542 164 487.5Q149 433 149 365V334Q149 266 164 211.5Q179 157 208.5 118.5Q238 80 281.5 59.5Q325 39 382 39Q439 39 482 59.5Q525 80 554.5 118.5Q584 157 599 211.5Q614 266 614 334V365Q614 433 599 487.5Q584 542 554.5 580.5Q525 619 482 640Q439 661 382 661ZM422 780 422 892H508V780ZM254 780 254 892H340V780Z" glyph-name="Odieresis" horiz-adv-x="764" unicode="Ö" /><glyph d="M342 312 77 47L45 80L309 345L44 610L77 643L342 378L606 643L640 609L375 345L640 81L607 48Z" glyph-name="multiply" horiz-adv-x="684" unicode="×" /><glyph d="M177 58Q120 105 88 179.5Q56 254 56 348Q56 427 79.5 493.5Q103 560 145 608Q187 656 245 683Q303 710 373 710Q466 710 539 662L607 775L644 753L573 635Q627 587 658 513Q689 439 689 348Q689 269 666 203Q643 137 601 89.5Q559 42 501 16Q443 -10 373 -10Q282 -10 211 33L143 -81L107 -59ZM373 661Q316 661 274.5 640Q233 619 205 580.5Q177 542 163.5 487.5Q150 433 150 365V334Q150 263 164.5 207Q179 151 209 112L510 614Q484 637 450 649Q416 661 373 661ZM595 365Q595 433 581.5 487.5Q568 542 540 580L240 81Q291 39 373 39Q430 39 471.5 59.5Q513 80 540.5 118.5Q568 157 581.5 211.5Q595 266 595 334Z" glyph-name="Oslash" horiz-adv-x="745" unicode="Ø" /><glyph d="M672 648 672 218Q672 169 652.5 127Q633 85 596.5 54.5Q560 24 508.5 7Q457 -10 393 -10Q317 -10 264 8Q211 26 178.5 56Q146 86 131.5 125Q117 164 117 205V648H22V700H308V648H204V237Q204 198 212.5 162.5Q221 127 243 100Q265 73 304 57Q343 41 404 41Q504 41 559.5 91Q615 141 615 226V648H513V700H766V648ZM527 766 477 756L260 931L365 938Z" glyph-name="Ugrave" horiz-adv-x="787" unicode="Ù" /><glyph d="M672 648 672 218Q672 169 652.5 127Q633 85 596.5 54.5Q560 24 508.5 7Q457 -10 393 -10Q317 -10 264 8Q211 26 178.5 56Q146 86 131.5 125Q117 164 117 205V648H22V700H308V648H204V237Q204 198 212.5 162.5Q221 127 243 100Q265 73 304 57Q343 41 404 41Q504 41 559.5 91Q615 141 615 226V648H513V700H766V648ZM527 931 310 756L260 766L422 938Z" glyph-name="Uacute" horiz-adv-x="787" unicode="Ú" /><glyph d="M672 648 672 218Q672 169 652.5 127Q633 85 596.5 54.5Q560 24 508.5 7Q457 -10 393 -10Q317 -10 264 8Q211 26 178.5 56Q146 86 131.5 125Q117 164 117 205V648H22V700H308V648H204V237Q204 198 212.5 162.5Q221 127 243 100Q265 73 304 57Q343 41 404 41Q504 41 559.5 91Q615 141 615 226V648H513V700H766V648ZM423 941 553 766L503 756L394 884L285 756L235 766L365 941Z" glyph-name="Ucircumflex" horiz-adv-x="787" unicode="Û" /><glyph d="M672 648 672 218Q672 169 652.5 127Q633 85 596.5 54.5Q560 24 508.5 7Q457 -10 393 -10Q317 -10 264 8Q211 26 178.5 56Q146 86 131.5 125Q117 164 117 205V648H22V700H308V648H204V237Q204 198 212.5 162.5Q221 127 243 100Q265 73 304 57Q343 41 404 41Q504 41 559.5 91Q615 141 615 226V648H513V700H766V648ZM435 780 435 892H521V780ZM267 780 267 892H353V780Z" glyph-name="Udieresis" horiz-adv-x="787" unicode="Ü" /><glyph d="M606 648 389 246V52H504V0H186V52H301V245L82 648H-1V700H284V648H183L367 298L546 648H437V700H687V648ZM526 931 309 756L259 766L421 938Z" glyph-name="Yacute" horiz-adv-x="689" unicode="Ý" /><glyph d="M408 564Q458 564 496.5 548Q535 532 561.5 505Q588 478 602 443Q616 408 616 370Q616 318 599.5 276Q583 234 552 204Q521 174 477 158Q433 142 378 142Q367 142 345.5 142.5Q324 143 301 144.5Q278 146 257.5 148Q237 150 227 152V52H331V0H45V52H140V648H45V700H331V648H227V564ZM525 357Q525 402 511 432Q497 462 470.5 479.5Q444 497 407 504.5Q370 512 323 512H227V200Q235 199 251 198Q267 197 285 196.5Q303 196 320 195.5Q337 195 346 195Q438 195 481.5 231.5Q525 268 525 357Z" glyph-name="Thorn" horiz-adv-x="655" unicode="Þ" /><glyph d="M281 43Q291 40 303 37Q314 35 327.5 33Q341 31 357 31Q405 31 434 53.5Q463 76 463 127Q463 161 440 195Q417 229 389.5 261.5Q362 294 339 322.5Q316 351 316 373Q316 383 335 410.5Q354 438 376.5 472.5Q399 507 417.5 543.5Q436 580 436 607Q436 653 405.5 677.5Q375 702 334 702Q306 702 280.5 694Q255 686 235.5 666Q216 646 204 612Q192 578 192 526V0H36V45H113V429H50V474H113V532Q113 586 130.5 626.5Q148 667 177 693.5Q206 720 244 733.5Q282 747 323 747Q371 747 402 733.5Q433 720 451.5 699.5Q470 679 477.5 655Q485 631 485 609Q485 579 471 548.5Q457 518 440 490Q423 462 409 438.5Q395 415 395 398Q395 379 418 353Q441 327 468 295Q495 263 518 226Q541 189 541 147Q541 74 497.5 32Q454 -10 378 -10Q358 -10 342.5 -8Q327 -6 316 -4Q302 -1 292 3Z" glyph-name="germandbls" horiz-adv-x="573" unicode="ß" /><glyph d="M169 -10Q112 -10 77 23Q42 56 42 107Q42 144 56.5 168.5Q71 193 96 208.5Q121 224 155.5 232.5Q190 241 229 247L328 262V349Q328 384 307 408.5Q286 433 230 433Q207 433 181 429Q155 425 141 422L123 323H74L72 441Q121 460 170.5 472Q220 484 266 484Q293 484 318 477Q343 470 363 455Q383 440 395 416.5Q407 393 407 360V47H471V5L326 -5L329 62Q274 22 238.5 6Q203 -10 169 -10ZM211 197Q161 186 143.5 168.5Q126 151 126 116V111Q126 87 140.5 67.5Q155 48 193 48Q219 48 249.5 58.5Q280 69 328 98V223ZM382 540 332 530L115 705L220 712Z" glyph-name="agrave" horiz-adv-x="499" unicode="à" /><glyph d="M169 -10Q112 -10 77 23Q42 56 42 107Q42 144 56.5 168.5Q71 193 96 208.5Q121 224 155.5 232.5Q190 241 229 247L328 262V349Q328 384 307 408.5Q286 433 230 433Q207 433 181 429Q155 425 141 422L123 323H74L72 441Q121 460 170.5 472Q220 484 266 484Q293 484 318 477Q343 470 363 455Q383 440 395 416.5Q407 393 407 360V47H471V5L326 -5L329 62Q274 22 238.5 6Q203 -10 169 -10ZM211 197Q161 186 143.5 168.5Q126 151 126 116V111Q126 87 140.5 67.5Q155 48 193 48Q219 48 249.5 58.5Q280 69 328 98V223ZM382 705 165 530L115 540L277 712Z" glyph-name="aacute" horiz-adv-x="499" unicode="á" /><glyph d="M169 -10Q112 -10 77 23Q42 56 42 107Q42 144 56.5 168.5Q71 193 96 208.5Q121 224 155.5 232.5Q190 241 229 247L328 262V349Q328 384 307 408.5Q286 433 230 433Q207 433 181 429Q155 425 141 422L123 323H74L72 441Q121 460 170.5 472Q220 484 266 484Q293 484 318 477Q343 470 363 455Q383 440 395 416.5Q407 393 407 360V47H471V5L326 -5L329 62Q274 22 238.5 6Q203 -10 169 -10ZM211 197Q161 186 143.5 168.5Q126 151 126 116V111Q126 87 140.5 67.5Q155 48 193 48Q219 48 249.5 58.5Q280 69 328 98V223ZM277 715 407 540L357 530L248 658L139 530L89 540L219 715Z" glyph-name="acircumflex" horiz-adv-x="499" unicode="â" /><glyph d="M169 -10Q112 -10 77 23Q42 56 42 107Q42 144 56.5 168.5Q71 193 96 208.5Q121 224 155.5 232.5Q190 241 229 247L328 262V349Q328 384 307 408.5Q286 433 230 433Q207 433 181 429Q155 425 141 422L123 323H74L72 441Q121 460 170.5 472Q220 484 266 484Q293 484 318 477Q343 470 363 455Q383 440 395 416.5Q407 393 407 360V47H471V5L326 -5L329 62Q274 22 238.5 6Q203 -10 169 -10ZM211 197Q161 186 143.5 168.5Q126 151 126 116V111Q126 87 140.5 67.5Q155 48 193 48Q219 48 249.5 58.5Q280 69 328 98V223ZM311 557Q294 557 271.5 564Q249 571 227.5 579Q206 587 187 594Q168 601 157 601Q137 601 130 588Q123 575 123 553H85Q85 604 105.5 634.5Q126 665 166 665Q184 665 205 658Q226 651 247 642Q268 633 287.5 626Q307 619 321 619Q341 619 347.5 633Q354 647 354 669H392Q392 618 371.5 587.5Q351 557 311 557Z" glyph-name="atilde" horiz-adv-x="499" unicode="ã" /><glyph d="M169 -10Q112 -10 77 23Q42 56 42 107Q42 144 56.5 168.5Q71 193 96 208.5Q121 224 155.5 232.5Q190 241 229 247L328 262V349Q328 384 307 408.5Q286 433 230 433Q207 433 181 429Q155 425 141 422L123 323H74L72 441Q121 460 170.5 472Q220 484 266 484Q293 484 318 477Q343 470 363 455Q383 440 395 416.5Q407 393 407 360V47H471V5L326 -5L329 62Q274 22 238.5 6Q203 -10 169 -10ZM211 197Q161 186 143.5 168.5Q126 151 126 116V111Q126 87 140.5 67.5Q155 48 193 48Q219 48 249.5 58.5Q280 69 328 98V223ZM279 554 279 666H365V554ZM111 554 111 666H197V554Z" glyph-name="adieresis" horiz-adv-x="499" unicode="ä" /><glyph d="M169 -10Q112 -10 77 23Q42 56 42 107Q42 144 56.5 168.5Q71 193 96 208.5Q121 224 155.5 232.5Q190 241 229 247L328 262V349Q328 384 307 408.5Q286 433 230 433Q207 433 181 429Q155 425 141 422L123 323H74L72 441Q121 460 170.5 472Q220 484 266 484Q293 484 318 477Q343 470 363 455Q383 440 395 416.5Q407 393 407 360V47H471V5L326 -5L329 62Q274 22 238.5 6Q203 -10 169 -10ZM211 197Q161 186 143.5 168.5Q126 151 126 116V111Q126 87 140.5 67.5Q155 48 193 48Q219 48 249.5 58.5Q280 69 328 98V223ZM119 646Q119 670 128.5 691Q138 712 154 727.5Q170 743 191.5 751.5Q213 760 237 760Q261 760 282.5 751.5Q304 743 320 727.5Q336 712 345.5 691Q355 670 355 646Q355 622 345.5 601Q336 580 320 564.5Q304 549 282.5 540.5Q261 532 237 532Q213 532 191.5 540.5Q170 549 154 564.5Q138 580 128.5 601Q119 622 119 646ZM168 646Q168 615 186 593Q204 571 237 571Q271 571 288.5 593Q306 615 306 646Q306 676 288.5 698Q271 720 237 720Q204 720 186 698Q168 676 168 646Z" glyph-name="aring" horiz-adv-x="499" unicode="å" /><glyph d="M618 302Q618 332 613.5 357.5Q609 383 597.5 401.5Q586 420 567.5 431Q549 442 521 442Q467 442 439 406Q411 370 411 303V272ZM294 213Q249 206 217 200Q185 194 165 184.5Q145 175 135.5 160Q126 145 126 120V112Q126 86 143 67Q160 48 195 48Q239 48 274 63.5Q309 79 344 107Q324 156 324 218ZM74 323 72 441Q121 460 170 472Q219 484 265 484Q303 484 337 469.5Q371 455 390 424Q414 452 450 468Q486 484 534 484Q618 484 661 434.5Q704 385 704 308Q704 301 704 290.5Q704 280 703 274Q694 273 665 269Q636 265 595.5 259.5Q555 254 507 247Q459 240 411 232Q419 135 459.5 94Q500 53 579 53Q601 53 624 58Q647 63 665 69Q687 75 707 84L698 43Q650 19 607 4.5Q564 -10 526 -10Q466 -10 424 13.5Q382 37 357 80Q319 41 272 15.5Q225 -10 163 -10Q112 -10 77 19Q42 48 42 105Q42 150 62 177Q82 204 116.5 219.5Q151 235 196.5 242Q242 249 293 255L324 259V349Q324 366 319.5 381.5Q315 397 304 408.5Q293 420 274 426.5Q255 433 226 433Q214 433 199.5 431.5Q185 430 172 428Q156 425 141 422L113 323Z" glyph-name="ae" horiz-adv-x="754" unicode="æ" /><glyph d="M349 -163Q349 -181 342.5 -198.5Q336 -216 321 -230Q306 -244 282 -252.5Q258 -261 223 -261Q190 -261 167.5 -253Q145 -245 140 -241L146 -207Q154 -209 170.5 -212.5Q187 -216 207 -216Q239 -216 260 -203.5Q281 -191 281 -166Q281 -147 269.5 -135.5Q258 -124 240.5 -118Q223 -112 202 -110Q181 -108 163 -108L220 -6Q177 2 144.5 23.5Q112 45 90.5 77Q69 109 58.5 149.5Q48 190 48 235Q48 289 63 334.5Q78 380 106.5 413Q135 446 176 465Q217 484 269 484Q293 484 317.5 481.5Q342 479 363 475Q384 471 399.5 468Q415 465 420 463L415 346H370L351 429Q342 431 331 433Q320 434 307.5 435Q295 436 280 436Q208 436 172 391.5Q136 347 136 261V214Q136 128 176.5 82.5Q217 37 294 37Q304 37 317 38.5Q330 40 342 42Q356 44 370 47L402 143H446L434 21Q394 3 347 -3.5Q300 -10 268 -10H255L233 -72Q263 -72 285 -80Q307 -88 321.5 -100.5Q336 -113 342.5 -129.5Q349 -146 349 -163Z" glyph-name="ccedilla" horiz-adv-x="485" unicode="ç" /><glyph d="M135 278 135 232Q135 135 181 94Q227 53 303 53Q325 53 350 58Q375 63 397 69Q422 75 446 84L437 43Q389 19 338.5 4.5Q288 -10 250 -10Q200 -10 162.5 7.5Q125 25 99.5 56Q74 87 61 130Q48 173 48 224Q48 277 61 324.5Q74 372 101 407.5Q128 443 170 463.5Q212 484 269 484Q354 484 398.5 434.5Q443 385 443 308Q443 301 443 292.5Q443 284 442 278ZM357 320Q357 379 333.5 412Q310 445 254 445Q201 445 172.5 410.5Q144 376 137 310ZM380 540 330 530L113 705L218 712Z" glyph-name="egrave" horiz-adv-x="494" unicode="è" /><glyph d="M135 278 135 232Q135 135 181 94Q227 53 303 53Q325 53 350 58Q375 63 397 69Q422 75 446 84L437 43Q389 19 338.5 4.5Q288 -10 250 -10Q200 -10 162.5 7.5Q125 25 99.5 56Q74 87 61 130Q48 173 48 224Q48 277 61 324.5Q74 372 101 407.5Q128 443 170 463.5Q212 484 269 484Q354 484 398.5 434.5Q443 385 443 308Q443 301 443 292.5Q443 284 442 278ZM357 320Q357 379 333.5 412Q310 445 254 445Q201 445 172.5 410.5Q144 376 137 310ZM380 705 163 530L113 540L275 712Z" glyph-name="eacute" horiz-adv-x="494" unicode="é" /><glyph d="M135 278 135 232Q135 135 181 94Q227 53 303 53Q325 53 350 58Q375 63 397 69Q422 75 446 84L437 43Q389 19 338.5 4.5Q288 -10 250 -10Q200 -10 162.5 7.5Q125 25 99.5 56Q74 87 61 130Q48 173 48 224Q48 277 61 324.5Q74 372 101 407.5Q128 443 170 463.5Q212 484 269 484Q354 484 398.5 434.5Q443 385 443 308Q443 301 443 292.5Q443 284 442 278ZM357 320Q357 379 333.5 412Q310 445 254 445Q201 445 172.5 410.5Q144 376 137 310ZM276 715 406 540L356 530L247 658L138 530L88 540L218 715Z" glyph-name="ecircumflex" horiz-adv-x="494" unicode="ê" /><glyph d="M135 278 135 232Q135 135 181 94Q227 53 303 53Q325 53 350 58Q375 63 397 69Q422 75 446 84L437 43Q389 19 338.5 4.5Q288 -10 250 -10Q200 -10 162.5 7.5Q125 25 99.5 56Q74 87 61 130Q48 173 48 224Q48 277 61 324.5Q74 372 101 407.5Q128 443 170 463.5Q212 484 269 484Q354 484 398.5 434.5Q443 385 443 308Q443 301 443 292.5Q443 284 442 278ZM357 320Q357 379 333.5 412Q310 445 254 445Q201 445 172.5 410.5Q144 376 137 310ZM288 554 288 666H374V554ZM120 554 120 666H206V554Z" glyph-name="edieresis" horiz-adv-x="494" unicode="ë" /><glyph d="M38 0 38 45H130V429H43V474H209V45H294V0ZM291 540 241 530L24 705L129 712Z" glyph-name="igrave" horiz-adv-x="313" unicode="ì" /><glyph d="M38 0 38 45H130V429H43V474H209V45H294V0ZM291 705 74 530L24 540L186 712Z" glyph-name="iacute" horiz-adv-x="313" unicode="í" /><glyph d="M38 0 38 45H130V429H43V474H209V45H294V0ZM187 715 317 540L267 530L158 658L49 530L-1 540L129 715Z" glyph-name="icircumflex" horiz-adv-x="313" unicode="î" /><glyph d="M38 0 38 45H130V429H43V474H209V45H294V0ZM199 554 199 666H285V554ZM31 554 31 666H117V554Z" glyph-name="idieresis" horiz-adv-x="313" unicode="ï" /><glyph d="M440 653 350 617Q377 587 402.5 549.5Q428 512 448.5 466Q469 420 481 365.5Q493 311 493 247Q493 193 477.5 146.5Q462 100 433 65Q404 30 362 10Q320 -10 267 -10Q217 -10 176 8.5Q135 27 106.5 59.5Q78 92 62.5 137Q47 182 47 236Q47 291 62.5 336.5Q78 382 106 415Q134 448 173.5 466Q213 484 261 484Q290 484 322.5 473.5Q355 463 379 436Q362 482 337.5 521Q313 560 285 592L181 551L169 585Q192 594 214 603Q236 612 259 620Q221 662 184.5 691.5Q148 721 129 735L183 745Q203 735 226 720Q247 707 271 688.5Q295 670 322 645L428 686ZM403 261Q403 348 367.5 393.5Q332 439 270 439Q207 439 171.5 393.5Q136 348 136 262V210Q136 123 171.5 78.5Q207 34 270 34Q332 34 367.5 78Q403 122 403 209Z" glyph-name="eth" horiz-adv-x="552" unicode="ð" /><glyph d="M521 45 596 45V0H366V45H442V347Q442 359 438.5 371.5Q435 384 427 394.5Q419 405 404.5 412Q390 419 368 419Q336 419 297 397Q258 375 198 323V45H274V0H44V45H119V429H39V474L199 484Q198 461 197 429.5Q196 398 196 367Q219 390 243 411Q267 432 292.5 448.5Q318 465 343.5 474.5Q369 484 394 484Q461 484 491 450Q521 416 521 359ZM385 557Q368 557 345.5 564Q323 571 301.5 579Q280 587 261 594Q242 601 231 601Q211 601 204 588Q197 575 197 553H159Q159 604 179.5 634.5Q200 665 240 665Q258 665 279 658Q300 651 321 642Q342 633 361.5 626Q381 619 395 619Q415 619 421.5 633Q428 647 428 669H466Q466 618 445.5 587.5Q425 557 385 557Z" glyph-name="ntilde" horiz-adv-x="617" unicode="ñ" /><glyph d="M491 237Q491 183 474 137.5Q457 92 427.5 59Q398 26 357.5 8Q317 -10 269 -10Q221 -10 180 8Q139 26 109.5 58.5Q80 91 63 136.5Q46 182 46 236Q46 291 63 336.5Q80 382 109.5 415Q139 448 180 466Q221 484 269 484Q317 484 357.5 466Q398 448 427.5 415Q457 382 474 336.5Q491 291 491 237ZM402 266Q402 353 366.5 397.5Q331 442 269 442Q206 442 170.5 398Q135 354 135 267V207Q135 120 170.5 76Q206 32 269 32Q331 32 366.5 76Q402 120 402 207ZM402 540 352 530L135 705L240 712Z" glyph-name="ograve" horiz-adv-x="537" unicode="ò" /><glyph d="M491 237Q491 183 474 137.5Q457 92 427.5 59Q398 26 357.5 8Q317 -10 269 -10Q221 -10 180 8Q139 26 109.5 58.5Q80 91 63 136.5Q46 182 46 236Q46 291 63 336.5Q80 382 109.5 415Q139 448 180 466Q221 484 269 484Q317 484 357.5 466Q398 448 427.5 415Q457 382 474 336.5Q491 291 491 237ZM402 266Q402 353 366.5 397.5Q331 442 269 442Q206 442 170.5 398Q135 354 135 267V207Q135 120 170.5 76Q206 32 269 32Q331 32 366.5 76Q402 120 402 207ZM402 705 185 530L135 540L297 712Z" glyph-name="oacute" horiz-adv-x="537" unicode="ó" /><glyph d="M491 237Q491 183 474 137.5Q457 92 427.5 59Q398 26 357.5 8Q317 -10 269 -10Q221 -10 180 8Q139 26 109.5 58.5Q80 91 63 136.5Q46 182 46 236Q46 291 63 336.5Q80 382 109.5 415Q139 448 180 466Q221 484 269 484Q317 484 357.5 466Q398 448 427.5 415Q457 382 474 336.5Q491 291 491 237ZM402 266Q402 353 366.5 397.5Q331 442 269 442Q206 442 170.5 398Q135 354 135 267V207Q135 120 170.5 76Q206 32 269 32Q331 32 366.5 76Q402 120 402 207ZM297 715 427 540L377 530L268 658L159 530L109 540L239 715Z" glyph-name="ocircumflex" horiz-adv-x="537" unicode="ô" /><glyph d="M491 237Q491 183 474 137.5Q457 92 427.5 59Q398 26 357.5 8Q317 -10 269 -10Q221 -10 180 8Q139 26 109.5 58.5Q80 91 63 136.5Q46 182 46 236Q46 291 63 336.5Q80 382 109.5 415Q139 448 180 466Q221 484 269 484Q317 484 357.5 466Q398 448 427.5 415Q457 382 474 336.5Q491 291 491 237ZM402 266Q402 353 366.5 397.5Q331 442 269 442Q206 442 170.5 398Q135 354 135 267V207Q135 120 170.5 76Q206 32 269 32Q331 32 366.5 76Q402 120 402 207ZM341 557Q324 557 301.5 564Q279 571 257.5 579Q236 587 217 594Q198 601 187 601Q167 601 160 588Q153 575 153 553H115Q115 604 135.5 634.5Q156 665 196 665Q214 665 235 658Q256 651 277 642Q298 633 317.5 626Q337 619 351 619Q371 619 377.5 633Q384 647 384 669H422Q422 618 401.5 587.5Q381 557 341 557Z" glyph-name="otilde" horiz-adv-x="537" unicode="õ" /><glyph d="M491 237Q491 183 474 137.5Q457 92 427.5 59Q398 26 357.5 8Q317 -10 269 -10Q221 -10 180 8Q139 26 109.5 58.5Q80 91 63 136.5Q46 182 46 236Q46 291 63 336.5Q80 382 109.5 415Q139 448 180 466Q221 484 269 484Q317 484 357.5 466Q398 448 427.5 415Q457 382 474 336.5Q491 291 491 237ZM402 266Q402 353 366.5 397.5Q331 442 269 442Q206 442 170.5 398Q135 354 135 267V207Q135 120 170.5 76Q206 32 269 32Q331 32 366.5 76Q402 120 402 207ZM309 554 309 666H395V554ZM141 554 141 666H227V554Z" glyph-name="odieresis" horiz-adv-x="537" unicode="ö" /><glyph d="M198 426 198 544H295V426ZM198 115 198 232H295V115ZM50 301 50 359H443V301Z" glyph-name="divide" horiz-adv-x="493" unicode="÷" /><glyph d="M494 237Q494 183 477 137.5Q460 92 430.5 59Q401 26 360.5 8Q320 -10 272 -10Q213 -10 166 16L111 -76Q102 -70 92.5 -65Q83 -60 74 -54Q89 -31 103.5 -8Q118 15 132 39Q94 72 71.5 122Q49 172 49 236Q49 291 66 336.5Q83 382 112.5 415Q142 448 183 466Q224 484 272 484Q332 484 381 455L437 548L474 527L415 430Q452 398 473 348Q494 298 494 237ZM405 266Q405 334 382 375Q334 296 286.5 217Q239 138 191 58Q223 32 272 32Q334 32 369.5 76Q405 120 405 207ZM355 412Q320 442 272 442Q209 442 173.5 398Q138 354 138 267V207Q138 136 163 91Z" glyph-name="oslash" horiz-adv-x="544" unicode="ø" /><glyph d="M96 429 23 429V474H175V127Q175 115 178 102.5Q181 90 189 79Q197 68 211 61Q225 54 247 54Q278 54 314 76.5Q350 99 411 151V429H335V474H495Q495 422 492.5 353Q490 284 490 199V45H563V0L410 -10Q410 -3 410.5 11.5Q411 26 411.5 43Q412 60 412.5 77Q413 94 413 107Q390 84 366.5 62.5Q343 41 319 25Q295 9 270.5 -0.5Q246 -10 222 -10Q155 -10 125.5 24Q96 58 96 115ZM431 540 381 530L164 705L269 712Z" glyph-name="ugrave" horiz-adv-x="591" unicode="ù" /><glyph d="M96 429 23 429V474H175V127Q175 115 178 102.5Q181 90 189 79Q197 68 211 61Q225 54 247 54Q278 54 314 76.5Q350 99 411 151V429H335V474H495Q495 422 492.5 353Q490 284 490 199V45H563V0L410 -10Q410 -3 410.5 11.5Q411 26 411.5 43Q412 60 412.5 77Q413 94 413 107Q390 84 366.5 62.5Q343 41 319 25Q295 9 270.5 -0.5Q246 -10 222 -10Q155 -10 125.5 24Q96 58 96 115ZM431 705 214 530L164 540L326 712Z" glyph-name="uacute" horiz-adv-x="591" unicode="ú" /><glyph d="M96 429 23 429V474H175V127Q175 115 178 102.5Q181 90 189 79Q197 68 211 61Q225 54 247 54Q278 54 314 76.5Q350 99 411 151V429H335V474H495Q495 422 492.5 353Q490 284 490 199V45H563V0L410 -10Q410 -3 410.5 11.5Q411 26 411.5 43Q412 60 412.5 77Q413 94 413 107Q390 84 366.5 62.5Q343 41 319 25Q295 9 270.5 -0.5Q246 -10 222 -10Q155 -10 125.5 24Q96 58 96 115ZM327 715 457 540L407 530L298 658L189 530L139 540L269 715Z" glyph-name="ucircumflex" horiz-adv-x="591" unicode="û" /><glyph d="M96 429 23 429V474H175V127Q175 115 178 102.5Q181 90 189 79Q197 68 211 61Q225 54 247 54Q278 54 314 76.5Q350 99 411 151V429H335V474H495Q495 422 492.5 353Q490 284 490 199V45H563V0L410 -10Q410 -3 410.5 11.5Q411 26 411.5 43Q412 60 412.5 77Q413 94 413 107Q390 84 366.5 62.5Q343 41 319 25Q295 9 270.5 -0.5Q246 -10 222 -10Q155 -10 125.5 24Q96 58 96 115ZM339 554 339 666H425V554ZM171 554 171 666H257V554Z" glyph-name="udieresis" horiz-adv-x="591" unicode="ü" /><glyph d="M478 429 209 -250L59 -240V-195L173 -185L245 -8L77 429H5V474H153L293 82L424 429H353V474H533V429ZM422 705 205 530L155 540L317 712Z" glyph-name="yacute" horiz-adv-x="539" unicode="ý" /><glyph d="M164 411Q202 453 240 468.5Q278 484 323 484Q420 484 470 421.5Q520 359 520 251Q520 127 465 58.5Q410 -10 301 -10Q251 -10 218.5 1Q186 12 164 26V-205H255V-250H17V-205H84V687L4 697V742H164ZM297 430Q270 430 246 422.5Q222 415 203.5 398Q185 381 174.5 353.5Q164 326 164 286V60Q177 54 194 50Q209 46 228 43Q247 40 271 40Q359 40 395 85Q431 130 431 218V259Q431 342 398.5 386Q366 430 297 430Z" glyph-name="thorn" horiz-adv-x="569" unicode="þ" /><glyph d="M478 429 209 -250L59 -240V-195L173 -185L245 -8L77 429H5V474H153L293 82L424 429H353V474H533V429ZM309 554 309 666H395V554ZM141 554 141 666H227V554Z" glyph-name="ydieresis" horiz-adv-x="539" unicode="ÿ" /><glyph d="M79 52 317 710H407L652 52H727V0H450V52H552L474 270H216L141 52H248V0H-3V52ZM234 322 457 322L349 634H343ZM226 784 226 841H500V784Z" glyph-name="Amacron" horiz-adv-x="727" unicode="Ā" /><glyph d="M169 -10Q112 -10 77 23Q42 56 42 107Q42 144 56.5 168.5Q71 193 96 208.5Q121 224 155.5 232.5Q190 241 229 247L328 262V349Q328 384 307 408.5Q286 433 230 433Q207 433 181 429Q155 425 141 422L123 323H74L72 441Q121 460 170.5 472Q220 484 266 484Q293 484 318 477Q343 470 363 455Q383 440 395 416.5Q407 393 407 360V47H471V5L326 -5L329 62Q274 22 238.5 6Q203 -10 169 -10ZM211 197Q161 186 143.5 168.5Q126 151 126 116V111Q126 87 140.5 67.5Q155 48 193 48Q219 48 249.5 58.5Q280 69 328 98V223ZM112 558 112 615H386V558Z" glyph-name="amacron" horiz-adv-x="499" unicode="ā" /><glyph d="M79 52 317 710H407L652 52H727V0H450V52H552L474 270H216L141 52H248V0H-3V52ZM234 322 457 322L349 634H343ZM363 822Q397 822 415.5 843.5Q434 865 434 914H488Q488 845 454 806Q420 767 363 767Q306 767 272 806Q238 845 238 914H292Q292 865 310.5 843.5Q329 822 363 822Z" glyph-name="Abreve" horiz-adv-x="727" unicode="Ă" /><glyph d="M169 -10Q112 -10 77 23Q42 56 42 107Q42 144 56.5 168.5Q71 193 96 208.5Q121 224 155.5 232.5Q190 241 229 247L328 262V349Q328 384 307 408.5Q286 433 230 433Q207 433 181 429Q155 425 141 422L123 323H74L72 441Q121 460 170.5 472Q220 484 266 484Q293 484 318 477Q343 470 363 455Q383 440 395 416.5Q407 393 407 360V47H471V5L326 -5L329 62Q274 22 238.5 6Q203 -10 169 -10ZM211 197Q161 186 143.5 168.5Q126 151 126 116V111Q126 87 140.5 67.5Q155 48 193 48Q219 48 249.5 58.5Q280 69 328 98V223ZM249 596Q283 596 301.5 617.5Q320 639 320 688H374Q374 619 340 580Q306 541 249 541Q192 541 158 580Q124 619 124 688H178Q178 639 196.5 617.5Q215 596 249 596Z" glyph-name="abreve" horiz-adv-x="499" unicode="ă" /><glyph d="M79 52 317 710H407L652 52H727V0H700Q659 -21 630 -54Q601 -87 601 -125Q601 -152 618 -165Q635 -178 665 -178Q679 -178 696.5 -176Q714 -174 727 -171L726 -201Q707 -209 681.5 -214Q656 -219 635 -219Q586 -219 559 -196Q532 -173 532 -135Q532 -110 543 -89Q554 -68 570 -51Q586 -34 605.5 -21.5Q625 -9 641 0H450V52H552L474 270H216L141 52H248V0H-3V52ZM234 322 457 322L349 634H343Z" glyph-name="Aogonek" horiz-adv-x="727" unicode="Ą" /><glyph d="M169 -10Q112 -10 77 23Q42 56 42 107Q42 144 56.5 168.5Q71 193 96 208.5Q121 224 155.5 232.5Q190 241 229 247L328 262V349Q328 384 307 408.5Q286 433 230 433Q207 433 181 429Q155 425 141 422L123 323H74L72 441Q121 460 170.5 472Q220 484 266 484Q293 484 318 477Q343 470 363 455Q383 440 395 416.5Q407 393 407 360V47H471V5L451 3Q407 -17 376 -51Q345 -85 345 -125Q345 -152 362 -165Q379 -178 409 -178Q423 -178 440.5 -176Q458 -174 471 -171L470 -201Q451 -209 425.5 -214Q400 -219 379 -219Q330 -219 303 -196Q276 -173 276 -135Q276 -111 286.5 -90Q297 -69 312.5 -52Q328 -35 347 -22.5Q366 -10 382 -1L326 -5L329 62Q274 22 238.5 6Q203 -10 169 -10ZM211 197Q161 186 143.5 168.5Q126 151 126 116V111Q126 87 140.5 67.5Q155 48 193 48Q219 48 249.5 58.5Q280 69 328 98V223Z" glyph-name="aogonek" horiz-adv-x="499" unicode="ą" /><glyph d="M149 366Q149 293 165.5 233Q182 173 216 130.5Q250 88 301 65Q352 42 422 42Q457 42 484.5 45.5Q512 49 531 53Q554 57 571 63L609 189H662L642 29Q613 18 576 10Q543 2 500 -4Q457 -10 402 -10Q323 -10 259 15.5Q195 41 149.5 87.5Q104 134 79.5 200Q55 266 55 348Q55 439 83.5 507Q112 575 162 620Q212 665 280.5 687.5Q349 710 430 710Q452 710 479 708.5Q506 707 535 704Q564 701 593 697Q622 693 646 687L642 509H589L573 643Q538 652 495.5 655Q453 658 419 658Q362 658 312.5 642.5Q263 627 226.5 592Q190 557 169.5 501.5Q149 446 149 366ZM492 931 275 756L225 766L387 938Z" glyph-name="Cacute" horiz-adv-x="717" unicode="Ć" /><glyph d="M433 21Q393 3 346 -3.5Q299 -10 267 -10Q212 -10 170.5 9Q129 28 101.5 61.5Q74 95 60.5 139.5Q47 184 47 235Q47 289 62 334.5Q77 380 105.5 413Q134 446 175 465Q216 484 268 484Q292 484 316.5 481.5Q341 479 362 475Q383 471 398.5 468Q414 465 419 463L414 346H369L350 429Q341 431 330 433Q319 434 306.5 435Q294 436 279 436Q207 436 171 391.5Q135 347 135 261V214Q135 128 175.5 82.5Q216 37 293 37Q303 37 316 38.5Q329 40 341 42Q355 44 369 47L401 143H445ZM375 705 158 530L108 540L270 712Z" glyph-name="cacute" horiz-adv-x="484" unicode="ć" /><glyph d="M149 366Q149 293 165.5 233Q182 173 216 130.5Q250 88 301 65Q352 42 422 42Q457 42 484.5 45.5Q512 49 531 53Q554 57 571 63L609 189H662L642 29Q613 18 576 10Q543 2 500 -4Q457 -10 402 -10Q323 -10 259 15.5Q195 41 149.5 87.5Q104 134 79.5 200Q55 266 55 348Q55 439 83.5 507Q112 575 162 620Q212 665 280.5 687.5Q349 710 430 710Q452 710 479 708.5Q506 707 535 704Q564 701 593 697Q622 693 646 687L642 509H589L573 643Q538 652 495.5 655Q453 658 419 658Q362 658 312.5 642.5Q263 627 226.5 592Q190 557 169.5 501.5Q149 446 149 366ZM387 941 517 766L467 756L358 884L249 756L199 766L329 941Z" glyph-name="Ccircumflex" horiz-adv-x="717" unicode="Ĉ" /><glyph d="M433 21Q393 3 346 -3.5Q299 -10 267 -10Q212 -10 170.5 9Q129 28 101.5 61.5Q74 95 60.5 139.5Q47 184 47 235Q47 289 62 334.5Q77 380 105.5 413Q134 446 175 465Q216 484 268 484Q292 484 316.5 481.5Q341 479 362 475Q383 471 398.5 468Q414 465 419 463L414 346H369L350 429Q341 431 330 433Q319 434 306.5 435Q294 436 279 436Q207 436 171 391.5Q135 347 135 261V214Q135 128 175.5 82.5Q216 37 293 37Q303 37 316 38.5Q329 40 341 42Q355 44 369 47L401 143H445ZM271 715 401 540L351 530L242 658L133 530L83 540L213 715Z" glyph-name="ccircumflex" horiz-adv-x="484" unicode="ĉ" /><glyph d="M149 366Q149 293 165.5 233Q182 173 216 130.5Q250 88 301 65Q352 42 422 42Q457 42 484.5 45.5Q512 49 531 53Q554 57 571 63L609 189H662L642 29Q613 18 576 10Q543 2 500 -4Q457 -10 402 -10Q323 -10 259 15.5Q195 41 149.5 87.5Q104 134 79.5 200Q55 266 55 348Q55 439 83.5 507Q112 575 162 620Q212 665 280.5 687.5Q349 710 430 710Q452 710 479 708.5Q506 707 535 704Q564 701 593 697Q622 693 646 687L642 509H589L573 643Q538 652 495.5 655Q453 658 419 658Q362 658 312.5 642.5Q263 627 226.5 592Q190 557 169.5 501.5Q149 446 149 366ZM304 793 304 906H413V793Z" glyph-name="Cdotaccent" horiz-adv-x="717" unicode="Ċ" /><glyph d="M433 21Q393 3 346 -3.5Q299 -10 267 -10Q212 -10 170.5 9Q129 28 101.5 61.5Q74 95 60.5 139.5Q47 184 47 235Q47 289 62 334.5Q77 380 105.5 413Q134 446 175 465Q216 484 268 484Q292 484 316.5 481.5Q341 479 362 475Q383 471 398.5 468Q414 465 419 463L414 346H369L350 429Q341 431 330 433Q319 434 306.5 435Q294 436 279 436Q207 436 171 391.5Q135 347 135 261V214Q135 128 175.5 82.5Q216 37 293 37Q303 37 316 38.5Q329 40 341 42Q355 44 369 47L401 143H445ZM187 567 187 680H296V567Z" glyph-name="cdotaccent" horiz-adv-x="484" unicode="ċ" /><glyph d="M149 366Q149 293 165.5 233Q182 173 216 130.5Q250 88 301 65Q352 42 422 42Q457 42 484.5 45.5Q512 49 531 53Q554 57 571 63L609 189H662L642 29Q613 18 576 10Q543 2 500 -4Q457 -10 402 -10Q323 -10 259 15.5Q195 41 149.5 87.5Q104 134 79.5 200Q55 266 55 348Q55 439 83.5 507Q112 575 162 620Q212 665 280.5 687.5Q349 710 430 710Q452 710 479 708.5Q506 707 535 704Q564 701 593 697Q622 693 646 687L642 509H589L573 643Q538 652 495.5 655Q453 658 419 658Q362 658 312.5 642.5Q263 627 226.5 592Q190 557 169.5 501.5Q149 446 149 366ZM329 756 199 931L249 941L358 813L467 941L517 931L387 756Z" glyph-name="Ccaron" horiz-adv-x="717" unicode="Č" /><glyph d="M433 21Q393 3 346 -3.5Q299 -10 267 -10Q212 -10 170.5 9Q129 28 101.5 61.5Q74 95 60.5 139.5Q47 184 47 235Q47 289 62 334.5Q77 380 105.5 413Q134 446 175 465Q216 484 268 484Q292 484 316.5 481.5Q341 479 362 475Q383 471 398.5 468Q414 465 419 463L414 346H369L350 429Q341 431 330 433Q319 434 306.5 435Q294 436 279 436Q207 436 171 391.5Q135 347 135 261V214Q135 128 175.5 82.5Q216 37 293 37Q303 37 316 38.5Q329 40 341 42Q355 44 369 47L401 143H445ZM213 530 83 705L133 715L242 587L351 715L401 705L271 530Z" glyph-name="ccaron" horiz-adv-x="484" unicode="č" /><glyph d="M732 357Q732 266 704 198.5Q676 131 626 87Q576 43 507 21.5Q438 0 356 0H45V52H140V648H45V700H365Q444 700 511 679.5Q578 659 627 617Q676 575 704 510.5Q732 446 732 357ZM641 347Q641 438 618.5 496.5Q596 555 556.5 588.5Q517 622 463 635Q409 648 345 648H227V52H343Q410 52 465 65Q520 78 559 111.5Q598 145 619.5 202Q641 259 641 347ZM364 756 234 931L284 941L393 813L502 941L552 931L422 756Z" glyph-name="Dcaron" horiz-adv-x="787" unicode="Ď" /><glyph d="M264 484Q315 484 349 472.5Q383 461 404 447V687L327 697V742H484V45H549V5L399 -5L404 63Q366 21 327.5 5.5Q289 -10 244 -10Q148 -10 98.5 56Q49 122 49 231Q49 287 62 333.5Q75 380 101.5 413.5Q128 447 168.5 465.5Q209 484 264 484ZM272 44Q299 44 323 51.5Q347 59 365 75.5Q383 92 393.5 119.5Q404 147 404 187V414Q391 420 374 424Q359 428 339.5 431Q320 434 296 434Q208 434 172.5 389Q137 344 137 255V215Q137 132 170 88Q203 44 272 44ZM790 667 673 412H623L693 700H790Z" glyph-name="dcaron" horiz-adv-x="816" unicode="ď" /><glyph d="M734 358Q734 267 706 199.5Q678 132 628 87.5Q578 43 509 21.5Q440 0 358 0H47V52H142V323H52V375H142V648H47V700H367Q446 700 513 680Q580 660 629 618Q678 576 706 511.5Q734 447 734 358ZM643 347Q643 438 620.5 496.5Q598 555 558.5 588.5Q519 622 465 635Q411 648 347 648H229V375H439V323H229V52H345Q412 52 467 65Q522 78 561 111.5Q600 145 621.5 202Q643 259 643 347Z" glyph-name="Dcroat" horiz-adv-x="789" unicode="Đ" /><glyph d="M484 573 484 45H549V5L399 -5L404 63Q366 21 327.5 5.5Q289 -10 244 -10Q148 -10 98.5 56Q49 122 49 231Q49 287 62 333.5Q75 380 101.5 413.5Q128 447 168.5 465.5Q209 484 264 484Q315 484 349 472.5Q383 461 404 447V573H259V618H404V687L327 697V742H484V618H531V573ZM272 44Q299 44 323 51.5Q347 59 365 75.5Q383 92 393.5 119.5Q404 147 404 187V414Q391 420 374 424Q359 428 339.5 431Q320 434 296 434Q208 434 172.5 389Q137 344 137 255V215Q137 132 170 88Q203 44 272 44Z" glyph-name="dcroat" horiz-adv-x="581" unicode="đ" /><glyph d="M617 0 45 0V52H140V648H45V700H587V520H538L507 648H227V375H378L385 470H437V224H385L378 323H227V52H537L578 179H628ZM198 784 198 841H472V784Z" glyph-name="Emacron" horiz-adv-x="671" unicode="Ē" /><glyph d="M135 278 135 232Q135 135 181 94Q227 53 303 53Q325 53 350 58Q375 63 397 69Q422 75 446 84L437 43Q389 19 338.5 4.5Q288 -10 250 -10Q200 -10 162.5 7.5Q125 25 99.5 56Q74 87 61 130Q48 173 48 224Q48 277 61 324.5Q74 372 101 407.5Q128 443 170 463.5Q212 484 269 484Q354 484 398.5 434.5Q443 385 443 308Q443 301 443 292.5Q443 284 442 278ZM357 320Q357 379 333.5 412Q310 445 254 445Q201 445 172.5 410.5Q144 376 137 310ZM110 558 110 615H384V558Z" glyph-name="emacron" horiz-adv-x="494" unicode="ē" /><glyph d="M617 0 45 0V52H140V648H45V700H587V520H538L507 648H227V375H378L385 470H437V224H385L378 323H227V52H537L578 179H628ZM335 822Q369 822 387.5 843.5Q406 865 406 914H460Q460 845 426 806Q392 767 335 767Q278 767 244 806Q210 845 210 914H264Q264 865 282.5 843.5Q301 822 335 822Z" glyph-name="Ebreve" horiz-adv-x="671" unicode="Ĕ" /><glyph d="M135 278 135 232Q135 135 181 94Q227 53 303 53Q325 53 350 58Q375 63 397 69Q422 75 446 84L437 43Q389 19 338.5 4.5Q288 -10 250 -10Q200 -10 162.5 7.5Q125 25 99.5 56Q74 87 61 130Q48 173 48 224Q48 277 61 324.5Q74 372 101 407.5Q128 443 170 463.5Q212 484 269 484Q354 484 398.5 434.5Q443 385 443 308Q443 301 443 292.5Q443 284 442 278ZM357 320Q357 379 333.5 412Q310 445 254 445Q201 445 172.5 410.5Q144 376 137 310ZM247 596Q281 596 299.5 617.5Q318 639 318 688H372Q372 619 338 580Q304 541 247 541Q190 541 156 580Q122 619 122 688H176Q176 639 194.5 617.5Q213 596 247 596Z" glyph-name="ebreve" horiz-adv-x="494" unicode="ĕ" /><glyph d="M617 0 45 0V52H140V648H45V700H587V520H538L507 648H227V375H378L385 470H437V224H385L378 323H227V52H537L578 179H628ZM281 793 281 906H390V793Z" glyph-name="Edotaccent" horiz-adv-x="671" unicode="Ė" /><glyph d="M135 278 135 232Q135 135 181 94Q227 53 303 53Q325 53 350 58Q375 63 397 69Q422 75 446 84L437 43Q389 19 338.5 4.5Q288 -10 250 -10Q200 -10 162.5 7.5Q125 25 99.5 56Q74 87 61 130Q48 173 48 224Q48 277 61 324.5Q74 372 101 407.5Q128 443 170 463.5Q212 484 269 484Q354 484 398.5 434.5Q443 385 443 308Q443 301 443 292.5Q443 284 442 278ZM357 320Q357 379 333.5 412Q310 445 254 445Q201 445 172.5 410.5Q144 376 137 310ZM192 567 192 680H301V567Z" glyph-name="edotaccent" horiz-adv-x="494" unicode="ė" /><glyph d="M617 0 565 0Q524 -21 495 -54Q466 -87 466 -125Q466 -152 483 -165Q500 -178 530 -178Q544 -178 561.5 -176Q579 -174 592 -171L591 -201Q572 -209 546.5 -214Q521 -219 500 -219Q451 -219 424 -196Q397 -173 397 -135Q397 -110 408 -89Q419 -68 435 -51Q451 -34 470.5 -21.5Q490 -9 506 0H45V52H140V648H45V700H587V520H538L507 648H227V375H378L385 470H437V224H385L378 323H227V52H537L578 179H628Z" glyph-name="Eogonek" horiz-adv-x="671" unicode="Ę" /><glyph d="M135 278 135 232Q135 135 181 94Q227 53 303 53Q325 53 350 58Q375 63 397 69Q422 75 446 84L437 43Q415 32 392.5 23Q370 14 347 7Q327 -2 308.5 -15.5Q290 -29 276 -46.5Q262 -64 253.5 -84Q245 -104 245 -125Q245 -152 262 -165Q279 -178 309 -178Q323 -178 340.5 -176Q358 -174 371 -171L370 -201Q351 -209 325.5 -214Q300 -219 279 -219Q230 -219 203 -196Q176 -173 176 -135Q176 -113 183.5 -94.5Q191 -76 202.5 -60Q214 -44 228.5 -31.5Q243 -19 257 -10H250Q200 -10 162.5 7.5Q125 25 99.5 56Q74 87 61 130Q48 173 48 224Q48 277 61 324.5Q74 372 101 407.5Q128 443 170 463.5Q212 484 269 484Q354 484 398.5 434.5Q443 385 443 308Q443 301 443 292.5Q443 284 442 278ZM357 320Q357 379 333.5 412Q310 445 254 445Q201 445 172.5 410.5Q144 376 137 310Z" glyph-name="eogonek" horiz-adv-x="494" unicode="ę" /><glyph d="M617 0 45 0V52H140V648H45V700H587V520H538L507 648H227V375H378L385 470H437V224H385L378 323H227V52H537L578 179H628ZM306 756 176 931L226 941L335 813L444 941L494 931L364 756Z" glyph-name="Ecaron" horiz-adv-x="671" unicode="Ě" /><glyph d="M135 278 135 232Q135 135 181 94Q227 53 303 53Q325 53 350 58Q375 63 397 69Q422 75 446 84L437 43Q389 19 338.5 4.5Q288 -10 250 -10Q200 -10 162.5 7.5Q125 25 99.5 56Q74 87 61 130Q48 173 48 224Q48 277 61 324.5Q74 372 101 407.5Q128 443 170 463.5Q212 484 269 484Q354 484 398.5 434.5Q443 385 443 308Q443 301 443 292.5Q443 284 442 278ZM357 320Q357 379 333.5 412Q310 445 254 445Q201 445 172.5 410.5Q144 376 137 310ZM218 530 88 705L138 715L247 587L356 715L406 705L276 530Z" glyph-name="ecaron" horiz-adv-x="494" unicode="ě" /><glyph d="M53 347Q53 438 83 506Q113 574 165.5 619.5Q218 665 288.5 687.5Q359 710 440 710Q462 710 488.5 708.5Q515 707 543.5 704Q572 701 600 697Q628 693 652 687L647 509H594L578 643Q543 652 503.5 655Q464 658 430 658Q373 658 321.5 642.5Q270 627 231 592Q192 557 169.5 501Q147 445 147 365Q147 290 167 230.5Q187 171 224.5 129.5Q262 88 315.5 65.5Q369 43 436 43Q476 43 504.5 45.5Q533 48 552 52Q574 55 589 60V269H457V321H750V269H676V28Q642 17 600 9Q561 1 513 -4.5Q465 -10 406 -10Q328 -10 263 15.5Q198 41 151.5 88Q105 135 79 200.5Q53 266 53 347ZM420 941 550 766L500 756L391 884L282 756L232 766L362 941Z" glyph-name="Gcircumflex" horiz-adv-x="783" unicode="Ĝ" /><glyph d="M513 482 513 417Q512 417 511.5 416.5Q511 416 510 416L391 425Q418 399 431 367.5Q444 336 444 303Q444 264 429.5 232Q415 200 389.5 176.5Q364 153 328.5 140Q293 127 251 127Q233 127 211 131Q189 135 173 140Q165 130 155 108Q145 86 145 60Q145 37 162.5 24Q180 11 226 8L379 -1Q442 -5 476 -36Q510 -67 510 -113Q510 -164 483.5 -197Q457 -230 416 -248.5Q375 -267 326 -274.5Q277 -282 232 -282Q187 -282 150 -274.5Q113 -267 86.5 -252Q60 -237 45.5 -214Q31 -191 31 -159Q31 -114 64 -85.5Q97 -57 150 -46Q141 -44 129.5 -39Q118 -34 108.5 -25Q99 -16 92 -2Q85 12 85 33Q85 67 102 95Q119 123 134 142L143 153Q101 178 79.5 217Q58 256 58 304Q58 343 72.5 376Q87 409 112.5 433Q138 457 173.5 470.5Q209 484 251 484Q268 484 291 481.5Q314 479 328 474ZM356 323Q356 386 327 414.5Q298 443 251 443Q204 443 175 415Q146 387 146 323V288Q146 224 175 195.5Q204 167 251 167Q298 167 327 196Q356 225 356 288ZM441 -143Q441 -105 416.5 -89.5Q392 -74 346 -72Q320 -71 293.5 -69.5Q267 -68 244.5 -67Q222 -66 206 -65.5Q190 -65 185 -65Q171 -65 156 -69.5Q141 -74 129 -83.5Q117 -93 109 -107Q101 -121 101 -140Q101 -182 137.5 -208Q174 -234 264 -234Q293 -234 324 -231.5Q355 -229 381 -220Q407 -211 424 -193Q441 -175 441 -143ZM287 715 417 540L367 530L258 658L149 530L99 540L229 715Z" glyph-name="gcircumflex" horiz-adv-x="517" unicode="ĝ" /><glyph d="M53 347Q53 438 83 506Q113 574 165.5 619.5Q218 665 288.5 687.5Q359 710 440 710Q462 710 488.5 708.5Q515 707 543.5 704Q572 701 600 697Q628 693 652 687L647 509H594L578 643Q543 652 503.5 655Q464 658 430 658Q373 658 321.5 642.5Q270 627 231 592Q192 557 169.5 501Q147 445 147 365Q147 290 167 230.5Q187 171 224.5 129.5Q262 88 315.5 65.5Q369 43 436 43Q476 43 504.5 45.5Q533 48 552 52Q574 55 589 60V269H457V321H750V269H676V28Q642 17 600 9Q561 1 513 -4.5Q465 -10 406 -10Q328 -10 263 15.5Q198 41 151.5 88Q105 135 79 200.5Q53 266 53 347ZM391 822Q425 822 443.5 843.5Q462 865 462 914H516Q516 845 482 806Q448 767 391 767Q334 767 300 806Q266 845 266 914H320Q320 865 338.5 843.5Q357 822 391 822Z" glyph-name="Gbreve" horiz-adv-x="783" unicode="Ğ" /><glyph d="M513 482 513 417Q512 417 511.5 416.5Q511 416 510 416L391 425Q418 399 431 367.5Q444 336 444 303Q444 264 429.5 232Q415 200 389.5 176.5Q364 153 328.5 140Q293 127 251 127Q233 127 211 131Q189 135 173 140Q165 130 155 108Q145 86 145 60Q145 37 162.5 24Q180 11 226 8L379 -1Q442 -5 476 -36Q510 -67 510 -113Q510 -164 483.5 -197Q457 -230 416 -248.5Q375 -267 326 -274.5Q277 -282 232 -282Q187 -282 150 -274.5Q113 -267 86.5 -252Q60 -237 45.5 -214Q31 -191 31 -159Q31 -114 64 -85.5Q97 -57 150 -46Q141 -44 129.5 -39Q118 -34 108.5 -25Q99 -16 92 -2Q85 12 85 33Q85 67 102 95Q119 123 134 142L143 153Q101 178 79.5 217Q58 256 58 304Q58 343 72.5 376Q87 409 112.5 433Q138 457 173.5 470.5Q209 484 251 484Q268 484 291 481.5Q314 479 328 474ZM356 323Q356 386 327 414.5Q298 443 251 443Q204 443 175 415Q146 387 146 323V288Q146 224 175 195.5Q204 167 251 167Q298 167 327 196Q356 225 356 288ZM441 -143Q441 -105 416.5 -89.5Q392 -74 346 -72Q320 -71 293.5 -69.5Q267 -68 244.5 -67Q222 -66 206 -65.5Q190 -65 185 -65Q171 -65 156 -69.5Q141 -74 129 -83.5Q117 -93 109 -107Q101 -121 101 -140Q101 -182 137.5 -208Q174 -234 264 -234Q293 -234 324 -231.5Q355 -229 381 -220Q407 -211 424 -193Q441 -175 441 -143ZM248 596Q282 596 300.5 617.5Q319 639 319 688H373Q373 619 339 580Q305 541 248 541Q191 541 157 580Q123 619 123 688H177Q177 639 195.5 617.5Q214 596 248 596Z" glyph-name="gbreve" horiz-adv-x="517" unicode="ğ" /><glyph d="M53 347Q53 438 83 506Q113 574 165.5 619.5Q218 665 288.5 687.5Q359 710 440 710Q462 710 488.5 708.5Q515 707 543.5 704Q572 701 600 697Q628 693 652 687L647 509H594L578 643Q543 652 503.5 655Q464 658 430 658Q373 658 321.5 642.5Q270 627 231 592Q192 557 169.5 501Q147 445 147 365Q147 290 167 230.5Q187 171 224.5 129.5Q262 88 315.5 65.5Q369 43 436 43Q476 43 504.5 45.5Q533 48 552 52Q574 55 589 60V269H457V321H750V269H676V28Q642 17 600 9Q561 1 513 -4.5Q465 -10 406 -10Q328 -10 263 15.5Q198 41 151.5 88Q105 135 79 200.5Q53 266 53 347ZM337 793 337 906H446V793Z" glyph-name="Gdotaccent" horiz-adv-x="783" unicode="Ġ" /><glyph d="M513 482 513 417Q512 417 511.5 416.5Q511 416 510 416L391 425Q418 399 431 367.5Q444 336 444 303Q444 264 429.5 232Q415 200 389.5 176.5Q364 153 328.5 140Q293 127 251 127Q233 127 211 131Q189 135 173 140Q165 130 155 108Q145 86 145 60Q145 37 162.5 24Q180 11 226 8L379 -1Q442 -5 476 -36Q510 -67 510 -113Q510 -164 483.5 -197Q457 -230 416 -248.5Q375 -267 326 -274.5Q277 -282 232 -282Q187 -282 150 -274.5Q113 -267 86.5 -252Q60 -237 45.5 -214Q31 -191 31 -159Q31 -114 64 -85.5Q97 -57 150 -46Q141 -44 129.5 -39Q118 -34 108.5 -25Q99 -16 92 -2Q85 12 85 33Q85 67 102 95Q119 123 134 142L143 153Q101 178 79.5 217Q58 256 58 304Q58 343 72.5 376Q87 409 112.5 433Q138 457 173.5 470.5Q209 484 251 484Q268 484 291 481.5Q314 479 328 474ZM356 323Q356 386 327 414.5Q298 443 251 443Q204 443 175 415Q146 387 146 323V288Q146 224 175 195.5Q204 167 251 167Q298 167 327 196Q356 225 356 288ZM441 -143Q441 -105 416.5 -89.5Q392 -74 346 -72Q320 -71 293.5 -69.5Q267 -68 244.5 -67Q222 -66 206 -65.5Q190 -65 185 -65Q171 -65 156 -69.5Q141 -74 129 -83.5Q117 -93 109 -107Q101 -121 101 -140Q101 -182 137.5 -208Q174 -234 264 -234Q293 -234 324 -231.5Q355 -229 381 -220Q407 -211 424 -193Q441 -175 441 -143ZM196 567 196 680H305V567Z" glyph-name="gdotaccent" horiz-adv-x="517" unicode="ġ" /><glyph d="M53 347Q53 438 83 506Q113 574 165.5 619.5Q218 665 288.5 687.5Q359 710 440 710Q462 710 488.5 708.5Q515 707 543.5 704Q572 701 600 697Q628 693 652 687L647 509H594L578 643Q543 652 503.5 655Q464 658 430 658Q373 658 321.5 642.5Q270 627 231 592Q192 557 169.5 501Q147 445 147 365Q147 290 167 230.5Q187 171 224.5 129.5Q262 88 315.5 65.5Q369 43 436 43Q476 43 504.5 45.5Q533 48 552 52Q574 55 589 60V269H457V321H750V269H676V28Q642 17 600 9Q561 1 513 -4.5Q465 -10 406 -10Q328 -10 263 15.5Q198 41 151.5 88Q105 135 79 200.5Q53 266 53 347ZM475 -119 358 -370H308L378 -82H475Z" glyph-name="Gcommaaccent" horiz-adv-x="783" unicode="Ģ" /><glyph d="M513 482 513 417Q512 417 511.5 416.5Q511 416 510 416L391 425Q418 399 431 367.5Q444 336 444 303Q444 264 429.5 232Q415 200 389.5 176.5Q364 153 328.5 140Q293 127 251 127Q233 127 211 131Q189 135 173 140Q165 130 155 108Q145 86 145 60Q145 37 162.5 24Q180 11 226 8L379 -1Q442 -5 476 -36Q510 -67 510 -113Q510 -164 483.5 -197Q457 -230 416 -248.5Q375 -267 326 -274.5Q277 -282 232 -282Q187 -282 150 -274.5Q113 -267 86.5 -252Q60 -237 45.5 -214Q31 -191 31 -159Q31 -114 64 -85.5Q97 -57 150 -46Q141 -44 129.5 -39Q118 -34 108.5 -25Q99 -16 92 -2Q85 12 85 33Q85 67 102 95Q119 123 134 142L143 153Q101 178 79.5 217Q58 256 58 304Q58 343 72.5 376Q87 409 112.5 433Q138 457 173.5 470.5Q209 484 251 484Q268 484 291 481.5Q314 479 328 474ZM356 323Q356 386 327 414.5Q298 443 251 443Q204 443 175 415Q146 387 146 323V288Q146 224 175 195.5Q204 167 251 167Q298 167 327 196Q356 225 356 288ZM441 -143Q441 -105 416.5 -89.5Q392 -74 346 -72Q320 -71 293.5 -69.5Q267 -68 244.5 -67Q222 -66 206 -65.5Q190 -65 185 -65Q171 -65 156 -69.5Q141 -74 129 -83.5Q117 -93 109 -107Q101 -121 101 -140Q101 -182 137.5 -208Q174 -234 264 -234Q293 -234 324 -231.5Q355 -229 381 -220Q407 -211 424 -193Q441 -175 441 -143ZM183 586 295 802H343L276 559H183Z" glyph-name="gcommaaccent" horiz-adv-x="517" unicode="ģ" /><glyph d="M615 648 520 648V700H797V648H702V52H797V0H520V52H615V325H227V52H322V0H45V52H140V648H45V700H322V648H227V377H615ZM450 941 580 766L530 756L421 884L312 756L262 766L392 941Z" glyph-name="Hcircumflex" horiz-adv-x="842" unicode="Ĥ" /><glyph d="M186 742Q185 701 181.5 621Q178 541 178 401V368Q201 391 225 412Q249 433 274 449Q299 465 324.5 474.5Q350 484 375 484Q442 484 472 450Q502 416 502 359V45H577V0H347V45H423V347Q423 357 419.5 369.5Q416 382 408 393Q400 404 385.5 411.5Q371 419 349 419Q317 419 278 397Q239 375 179 323V45H255V0H25V45H100V687L28 697V742ZM328 979 458 804L408 794L299 922L190 794L140 804L270 979Z" glyph-name="hcircumflex" horiz-adv-x="598" unicode="ĥ" /><glyph d="M797 543 797 491H702V52H797V0H520V52H615V325H227V52H322V0H45V52H140V491H45V543H140V648H45V700H322V648H227V543H615V648H520V700H797V648H702V543ZM615 491 227 491V377H615Z" glyph-name="Hbar" horiz-adv-x="842" unicode="Ħ" /><glyph d="M186 742 181 618H324V573H180Q179 538 178.5 495Q178 452 178 401V368Q201 391 225 412Q249 433 274 449Q299 465 324.5 474.5Q350 484 375 484Q442 484 472 450Q502 416 502 359V45H577V0H347V45H423V347Q423 357 419.5 369.5Q416 382 408 393Q400 404 385.5 411.5Q371 419 349 419Q317 419 278 397Q239 375 179 323V45H255V0H25V45H100V573H52V618H100V687L28 697V742Z" glyph-name="hbar" horiz-adv-x="598" unicode="ħ" /><glyph d="M40 0 40 52H156V648H40V700H359V648H243V52H359V0ZM272 783Q255 783 232.5 790Q210 797 188.5 805Q167 813 148 820Q129 827 118 827Q98 827 91 814Q84 801 84 779H46Q46 830 66.5 860.5Q87 891 127 891Q145 891 166 884Q187 877 208 868Q229 859 248.5 852Q268 845 282 845Q302 845 308.5 859Q315 873 315 895H353Q353 844 332.5 813.5Q312 783 272 783Z" glyph-name="Itilde" horiz-adv-x="399" unicode="Ĩ" /><glyph d="M38 0 38 45H130V429H43V474H209V45H294V0ZM229 557Q212 557 189.5 564Q167 571 145.5 579Q124 587 105 594Q86 601 75 601Q55 601 48 588Q41 575 41 553H3Q3 604 23.5 634.5Q44 665 84 665Q102 665 123 658Q144 651 165 642Q186 633 205.5 626Q225 619 239 619Q259 619 265.5 633Q272 647 272 669H310Q310 618 289.5 587.5Q269 557 229 557Z" glyph-name="itilde" horiz-adv-x="313" unicode="ĩ" /><glyph d="M38 0 38 45H130V429H43V474H209V45H294V0ZM20 558 20 615H294V558Z" glyph-name="imacron" horiz-adv-x="313" unicode="ī" /><glyph d="M40 0 40 52H156V648H40V700H359V648H243V52H359V0ZM200 822Q234 822 252.5 843.5Q271 865 271 914H325Q325 845 291 806Q257 767 200 767Q143 767 109 806Q75 845 75 914H129Q129 865 147.5 843.5Q166 822 200 822Z" glyph-name="Ibreve" horiz-adv-x="399" unicode="Ĭ" /><glyph d="M296 0Q261 -19 235 -52.5Q209 -86 209 -125Q209 -152 226 -165Q243 -178 273 -178Q287 -178 304.5 -176Q322 -174 335 -171L334 -201Q315 -209 289.5 -214Q264 -219 243 -219Q194 -219 167 -196Q140 -173 140 -135Q140 -110 149.5 -89Q159 -68 173.5 -51Q188 -34 205.5 -21.5Q223 -9 238 0H40V52H156V648H40V700H359V648H243V52H359V0Z" glyph-name="Iogonek" horiz-adv-x="399" unicode="Į" /><glyph d="M241 0Q206 -19 180 -52.5Q154 -86 154 -125Q154 -152 171 -165Q188 -178 218 -178Q232 -178 249.5 -176Q267 -174 280 -171L279 -201Q260 -209 234.5 -214Q209 -219 188 -219Q139 -219 112 -196Q85 -173 85 -135Q85 -110 94.5 -89Q104 -68 118.5 -51Q133 -34 150.5 -21.5Q168 -9 183 0H38V45H130V429H43V474H209V45H294V0ZM122 580 122 694H214V580Z" glyph-name="iogonek" horiz-adv-x="313" unicode="į" /><glyph d="M40 0 40 52H156V648H40V700H359V648H243V52H359V0ZM145 793 145 906H254V793Z" glyph-name="Idotaccent" horiz-adv-x="399" unicode="İ" /><glyph d="M38 0 38 45H130V429H43V474H209V45H294V0Z" glyph-name="dotlessi" horiz-adv-x="313" unicode="ı" /><glyph d="M40 0 40 52H156V648H40V700H359V648H243V52H359V0ZM673 648 612 648V10Q612 -33 584 -78Q556 -123 481 -179L445 -147L525 -47V648H440V700H693Z" glyph-name="IJ" horiz-adv-x="736" unicode="Ĳ" /><glyph d="M45 0 45 45H130V429H45V474H209V45H294V0ZM122 580 122 694H214V580ZM490 -108Q490 -127 487.5 -144Q485 -161 477 -177Q469 -193 454 -208.5Q439 -224 414 -240L366 -270L338 -240L411 -175V429H344V474H490ZM404 580 404 694H496V580Z" glyph-name="ij" horiz-adv-x="574" unicode="ĳ" /><glyph d="M274 648 213 648V10Q213 -33 185 -78Q157 -123 82 -179L46 -147L126 -47V648H41V700H294ZM198 941 328 766L278 756L169 884L60 756L10 766L140 941Z" glyph-name="Jcircumflex" horiz-adv-x="337" unicode="Ĵ" /><glyph d="M177 -108Q177 -127 174.5 -144Q172 -161 164 -177Q156 -193 141 -208.5Q126 -224 101 -240L53 -270L25 -240L98 -175V429H31V474H177ZM160 715 290 540L240 530L131 658L22 530L-28 540L102 715Z" glyph-name="jcircumflex" horiz-adv-x="261" unicode="ĵ" /><glyph d="M561 0 309 321H227V52H318V0H45V52H140V648H45V700H318V648H227V369H303L556 648H450V700H708V648H624L373 372L633 52H723V0ZM453 -119 336 -370H286L356 -82H453Z" glyph-name="Kcommaaccent" horiz-adv-x="739" unicode="Ķ" /><glyph d="M25 45 100 45V687L30 697V742H179V276H276L416 429H314V474H523V429H482L325 265L495 45H557V0H428L257 232H179V45H253V0H25ZM369 -119 252 -370H202L272 -82H369Z" glyph-name="kcommaaccent" horiz-adv-x="572" unicode="ķ" /><glyph d="M25 45 100 45V419L30 429V474H179V261H278L438 429H349V474H561V429H507L334 250L518 45H582V0H453L264 217H179V45H253V0H25Z" glyph-name="kgreenlandic" horiz-adv-x="597" unicode="ĸ" /><glyph d="M600 0 45 0V52H140V648H45V700H323V648H227V52H520L571 184H621ZM455 931 238 756L188 766L350 938Z" glyph-name="Lacute" horiz-adv-x="643" unicode="Ĺ" /><glyph d="M18 0 18 45H104V687L24 697V742H183V45H269V0ZM278 966 61 791L11 801L173 973Z" glyph-name="lacute" horiz-adv-x="288" unicode="ĺ" /><glyph d="M600 0 45 0V52H140V648H45V700H323V648H227V52H520L571 184H621ZM405 -119 288 -370H238L308 -82H405Z" glyph-name="Lcommaaccent" horiz-adv-x="643" unicode="Ļ" /><glyph d="M18 0 18 45H104V687L24 697V742H183V45H269V0ZM203 -119 86 -370H36L106 -82H203Z" glyph-name="lcommaaccent" horiz-adv-x="288" unicode="ļ" /><glyph d="M600 0 45 0V52H140V648H45V700H323V648H227V52H520L571 184H621ZM555 667 438 412H388L458 700H555Z" glyph-name="Lcaron" horiz-adv-x="643" unicode="Ľ" /><glyph d="M18 0 18 45H104V687L24 697V742H183V45H269V0ZM493 667 376 412H326L396 700H493Z" glyph-name="lcaron" horiz-adv-x="519" unicode="ľ" /><glyph d="M600 0 45 0V52H140V648H45V700H323V648H227V52H520L571 184H621ZM413 286 413 416H522V286Z" glyph-name="Ldot" horiz-adv-x="643" unicode="Ŀ" /><glyph d="M18 0 18 45H104V687L24 697V742H183V45H269V0ZM309 297 309 427H418V297Z" glyph-name="ldot" horiz-adv-x="508" unicode="ŀ" /><glyph d="M230 327 230 52H493L544 184H594L573 0H48V52H143V298L47 266V315L143 346V648H48V700H326V648H230V376L476 457V408Z" glyph-name="Lslash" horiz-adv-x="642" unicode="Ł" /><glyph d="M114 383 114 687L34 697V742H193V429L276 477V429L193 381V45H279V0H29V45H114V336L29 287V335Z" glyph-name="lslash" horiz-adv-x="301" unicode="ł" /><glyph d="M691 648 691 0H620L195 607V52H301V0H45V52H140V648H45V700H234L635 123V648H532V700H787V648ZM543 931 326 756L276 766L438 938Z" glyph-name="Nacute" horiz-adv-x="819" unicode="Ń" /><glyph d="M521 45 596 45V0H366V45H442V347Q442 359 438.5 371.5Q435 384 427 394.5Q419 405 404.5 412Q390 419 368 419Q336 419 297 397Q258 375 198 323V45H274V0H44V45H119V429H39V474L199 484Q198 461 197 429.5Q196 398 196 367Q219 390 243 411Q267 432 292.5 448.5Q318 465 343.5 474.5Q369 484 394 484Q461 484 491 450Q521 416 521 359ZM442 705 225 530L175 540L337 712Z" glyph-name="nacute" horiz-adv-x="617" unicode="ń" /><glyph d="M691 648 691 0H620L195 607V52H301V0H45V52H140V648H45V700H234L635 123V648H532V700H787V648ZM493 -119 376 -370H326L396 -82H493Z" glyph-name="Ncommaaccent" horiz-adv-x="819" unicode="Ņ" /><glyph d="M521 45 596 45V0H366V45H442V347Q442 359 438.5 371.5Q435 384 427 394.5Q419 405 404.5 412Q390 419 368 419Q336 419 297 397Q258 375 198 323V45H274V0H44V45H119V429H39V474L199 484Q198 461 197 429.5Q196 398 196 367Q219 390 243 411Q267 432 292.5 448.5Q318 465 343.5 474.5Q369 484 394 484Q461 484 491 450Q521 416 521 359ZM392 -119 275 -370H225L295 -82H392Z" glyph-name="ncommaaccent" horiz-adv-x="617" unicode="ņ" /><glyph d="M691 648 691 0H620L195 607V52H301V0H45V52H140V648H45V700H234L635 123V648H532V700H787V648ZM380 756 250 931L300 941L409 813L518 941L568 931L438 756Z" glyph-name="Ncaron" horiz-adv-x="819" unicode="Ň" /><glyph d="M521 45 596 45V0H366V45H442V347Q442 359 438.5 371.5Q435 384 427 394.5Q419 405 404.5 412Q390 419 368 419Q336 419 297 397Q258 375 198 323V45H274V0H44V45H119V429H39V474L199 484Q198 461 197 429.5Q196 398 196 367Q219 390 243 411Q267 432 292.5 448.5Q318 465 343.5 474.5Q369 484 394 484Q461 484 491 450Q521 416 521 359ZM279 530 149 705L199 715L308 587L417 715L467 705L337 530Z" glyph-name="ncaron" horiz-adv-x="617" unicode="ň" /><glyph d="M521 45 596 45V0H366V45H442V347Q442 359 438.5 371.5Q435 384 427 394.5Q419 405 404.5 412Q390 419 368 419Q336 419 297 397Q258 375 198 323V45H274V0H44V45H119V429H39V474L199 484Q198 461 197 429.5Q196 398 196 367Q219 390 243 411Q267 432 292.5 448.5Q318 465 343.5 474.5Q369 484 394 484Q461 484 491 450Q521 416 521 359ZM247 828 130 573H80L150 861H247Z" glyph-name="napostrophe" horiz-adv-x="617" unicode="ŉ" /><glyph d="M691 648 691 -92Q691 -135 663 -180Q635 -225 560 -281L524 -249L604 -149V23L195 607V52H301V0H45V52H140V648H45V700H234L635 123V648H532V700H787V648Z" glyph-name="Eng" horiz-adv-x="819" unicode="Ŋ" /><glyph d="M521 45 596 45V0H521V-108Q521 -127 518.5 -144Q516 -161 508 -177Q500 -193 485 -208.5Q470 -224 445 -240L397 -270L369 -240L442 -175V347Q442 359 438.5 371.5Q435 384 427 394.5Q419 405 404.5 412Q390 419 368 419Q336 419 297 397Q258 375 198 323V45H274V0H44V45H119V429H39V474L199 484Q198 461 197 429.5Q196 398 196 367Q219 390 243 411Q267 432 292.5 448.5Q318 465 343.5 474.5Q369 484 394 484Q461 484 491 450Q521 416 521 359Z" glyph-name="eng" horiz-adv-x="617" unicode="ŋ" /><glyph d="M382 -10Q312 -10 252.5 16Q193 42 149 89.5Q105 137 80 203Q55 269 55 348Q55 427 80 493.5Q105 560 149 608Q193 656 252.5 683Q312 710 382 710Q452 710 511.5 683Q571 656 614.5 608Q658 560 683 493.5Q708 427 708 348Q708 269 683 203Q658 137 614.5 89.5Q571 42 511.5 16Q452 -10 382 -10ZM382 661Q325 661 281.5 640Q238 619 208.5 580.5Q179 542 164 487.5Q149 433 149 365V334Q149 266 164 211.5Q179 157 208.5 118.5Q238 80 281.5 59.5Q325 39 382 39Q439 39 482 59.5Q525 80 554.5 118.5Q584 157 599 211.5Q614 266 614 334V365Q614 433 599 487.5Q584 542 554.5 580.5Q525 619 482 640Q439 661 382 661ZM245 784 245 841H519V784Z" glyph-name="Omacron" horiz-adv-x="764" unicode="Ō" /><glyph d="M491 237Q491 183 474 137.5Q457 92 427.5 59Q398 26 357.5 8Q317 -10 269 -10Q221 -10 180 8Q139 26 109.5 58.5Q80 91 63 136.5Q46 182 46 236Q46 291 63 336.5Q80 382 109.5 415Q139 448 180 466Q221 484 269 484Q317 484 357.5 466Q398 448 427.5 415Q457 382 474 336.5Q491 291 491 237ZM402 266Q402 353 366.5 397.5Q331 442 269 442Q206 442 170.5 398Q135 354 135 267V207Q135 120 170.5 76Q206 32 269 32Q331 32 366.5 76Q402 120 402 207ZM131 558 131 615H405V558Z" glyph-name="omacron" horiz-adv-x="537" unicode="ō" /><glyph d="M382 -10Q312 -10 252.5 16Q193 42 149 89.5Q105 137 80 203Q55 269 55 348Q55 427 80 493.5Q105 560 149 608Q193 656 252.5 683Q312 710 382 710Q452 710 511.5 683Q571 656 614.5 608Q658 560 683 493.5Q708 427 708 348Q708 269 683 203Q658 137 614.5 89.5Q571 42 511.5 16Q452 -10 382 -10ZM382 661Q325 661 281.5 640Q238 619 208.5 580.5Q179 542 164 487.5Q149 433 149 365V334Q149 266 164 211.5Q179 157 208.5 118.5Q238 80 281.5 59.5Q325 39 382 39Q439 39 482 59.5Q525 80 554.5 118.5Q584 157 599 211.5Q614 266 614 334V365Q614 433 599 487.5Q584 542 554.5 580.5Q525 619 482 640Q439 661 382 661ZM382 822Q416 822 434.5 843.5Q453 865 453 914H507Q507 845 473 806Q439 767 382 767Q325 767 291 806Q257 845 257 914H311Q311 865 329.5 843.5Q348 822 382 822Z" glyph-name="Obreve" horiz-adv-x="764" unicode="Ŏ" /><glyph d="M491 237Q491 183 474 137.5Q457 92 427.5 59Q398 26 357.5 8Q317 -10 269 -10Q221 -10 180 8Q139 26 109.5 58.5Q80 91 63 136.5Q46 182 46 236Q46 291 63 336.5Q80 382 109.5 415Q139 448 180 466Q221 484 269 484Q317 484 357.5 466Q398 448 427.5 415Q457 382 474 336.5Q491 291 491 237ZM402 266Q402 353 366.5 397.5Q331 442 269 442Q206 442 170.5 398Q135 354 135 267V207Q135 120 170.5 76Q206 32 269 32Q331 32 366.5 76Q402 120 402 207ZM268 596Q302 596 320.5 617.5Q339 639 339 688H393Q393 619 359 580Q325 541 268 541Q211 541 177 580Q143 619 143 688H197Q197 639 215.5 617.5Q234 596 268 596Z" glyph-name="obreve" horiz-adv-x="537" unicode="ŏ" /><glyph d="M382 -10Q312 -10 252.5 16Q193 42 149 89.5Q105 137 80 203Q55 269 55 348Q55 427 80 493.5Q105 560 149 608Q193 656 252.5 683Q312 710 382 710Q452 710 511.5 683Q571 656 614.5 608Q658 560 683 493.5Q708 427 708 348Q708 269 683 203Q658 137 614.5 89.5Q571 42 511.5 16Q452 -10 382 -10ZM382 661Q325 661 281.5 640Q238 619 208.5 580.5Q179 542 164 487.5Q149 433 149 365V334Q149 266 164 211.5Q179 157 208.5 118.5Q238 80 281.5 59.5Q325 39 382 39Q439 39 482 59.5Q525 80 554.5 118.5Q584 157 599 211.5Q614 266 614 334V365Q614 433 599 487.5Q584 542 554.5 580.5Q525 619 482 640Q439 661 382 661ZM422 931 205 756L155 766L317 938ZM608 931 391 756L341 766L503 938Z" glyph-name="Ohungarumlaut" horiz-adv-x="764" unicode="Ő" /><glyph d="M491 237Q491 183 474 137.5Q457 92 427.5 59Q398 26 357.5 8Q317 -10 269 -10Q221 -10 180 8Q139 26 109.5 58.5Q80 91 63 136.5Q46 182 46 236Q46 291 63 336.5Q80 382 109.5 415Q139 448 180 466Q221 484 269 484Q317 484 357.5 466Q398 448 427.5 415Q457 382 474 336.5Q491 291 491 237ZM402 266Q402 353 366.5 397.5Q331 442 269 442Q206 442 170.5 398Q135 354 135 267V207Q135 120 170.5 76Q206 32 269 32Q331 32 366.5 76Q402 120 402 207ZM309 705 92 530L42 540L204 712ZM495 705 278 530L228 540L390 712Z" glyph-name="ohungarumlaut" horiz-adv-x="537" unicode="ő" /><glyph d="M416 0Q337 0 270.5 20Q204 40 156.5 82Q109 124 82.5 189Q56 254 56 343Q56 434 84 501Q112 568 162 612.5Q212 657 280.5 678.5Q349 700 430 700H1001V520H952L921 648H641V375H792L799 470H851V224H799L792 323H641V52H944L985 179H1035L1024 0ZM148 354Q148 264 174 205.5Q200 147 243.5 113Q287 79 342.5 65.5Q398 52 457 52H554V648H445Q379 648 324.5 635.5Q270 623 230.5 590Q191 557 169.5 500Q148 443 148 354Z" glyph-name="OE" horiz-adv-x="1080" unicode="Œ" /><glyph d="M491 278 491 229Q491 181 504 147.5Q517 114 539.5 93Q562 72 593 62.5Q624 53 659 53Q681 53 705 58Q729 63 749 69Q772 75 794 84L785 43Q737 19 690 4.5Q643 -10 605 -10Q545 -10 502.5 14.5Q460 39 436 82Q408 36 364.5 13Q321 -10 264 -10Q216 -10 176 8Q136 26 107.5 58.5Q79 91 63 136.5Q47 182 47 236Q47 291 63 336.5Q79 382 108.5 415Q138 448 178 466Q218 484 266 484Q325 484 369.5 458.5Q414 433 440 383Q467 429 512.5 456.5Q558 484 625 484Q709 484 754 434.5Q799 385 799 308Q799 301 799 292.5Q799 284 798 278ZM403 261Q403 348 367.5 393.5Q332 439 270 439Q207 439 171.5 393.5Q136 348 136 262V212Q136 125 171 79.5Q206 34 269 34Q331 34 367 79.5Q403 125 403 212ZM712 320Q712 379 688.5 412Q665 445 610 445Q557 445 528 410.5Q499 376 493 310Z" glyph-name="oe" horiz-adv-x="846" unicode="œ" /><glyph d="M584 0 366 291Q360 290 347.5 289.5Q335 289 327 289Q318 289 305 290Q292 291 278 292.5Q264 294 250.5 296Q237 298 227 300V52H325V0H45V52H140V648H45V700H376Q426 700 464 684.5Q502 669 528.5 643.5Q555 618 568.5 584Q582 550 582 512Q582 473 570.5 441.5Q559 410 540 386.5Q521 363 496 347Q471 331 445 322L654 52H749V0ZM491 498Q491 573 448 610.5Q405 648 329 648H227V346H365Q374 346 395 350.5Q416 355 437.5 371Q459 387 475 417Q491 447 491 498ZM520 931 303 756L253 766L415 938Z" glyph-name="Racute" horiz-adv-x="726" unicode="Ŕ" /><glyph d="M246 423Q275 455 297.5 469.5Q320 484 341 484Q364 484 384 481.5Q404 479 413 477L399 392Q390 395 379 398Q369 400 357.5 401.5Q346 403 333 403Q304 403 270.5 381Q237 359 198 326V45H293V0H44V45H119V429H39V474L202 484Q202 476 201 462Q200 448 199 431.5Q198 415 197 398Q196 381 196 367ZM346 705 129 530L79 540L241 712Z" glyph-name="racute" horiz-adv-x="425" unicode="ŕ" /><glyph d="M584 0 366 291Q360 290 347.5 289.5Q335 289 327 289Q318 289 305 290Q292 291 278 292.5Q264 294 250.5 296Q237 298 227 300V52H325V0H45V52H140V648H45V700H376Q426 700 464 684.5Q502 669 528.5 643.5Q555 618 568.5 584Q582 550 582 512Q582 473 570.5 441.5Q559 410 540 386.5Q521 363 496 347Q471 331 445 322L654 52H749V0ZM491 498Q491 573 448 610.5Q405 648 329 648H227V346H365Q374 346 395 350.5Q416 355 437.5 371Q459 387 475 417Q491 447 491 498ZM446 -119 329 -370H279L349 -82H446Z" glyph-name="Rcommaaccent" horiz-adv-x="726" unicode="Ŗ" /><glyph d="M246 423Q275 455 297.5 469.5Q320 484 341 484Q364 484 384 481.5Q404 479 413 477L399 392Q390 395 379 398Q369 400 357.5 401.5Q346 403 333 403Q304 403 270.5 381Q237 359 198 326V45H293V0H44V45H119V429H39V474L202 484Q202 476 201 462Q200 448 199 431.5Q198 415 197 398Q196 381 196 367ZM213 -119 96 -370H46L116 -82H213Z" glyph-name="rcommaaccent" horiz-adv-x="425" unicode="ŗ" /><glyph d="M584 0 366 291Q360 290 347.5 289.5Q335 289 327 289Q318 289 305 290Q292 291 278 292.5Q264 294 250.5 296Q237 298 227 300V52H325V0H45V52H140V648H45V700H376Q426 700 464 684.5Q502 669 528.5 643.5Q555 618 568.5 584Q582 550 582 512Q582 473 570.5 441.5Q559 410 540 386.5Q521 363 496 347Q471 331 445 322L654 52H749V0ZM491 498Q491 573 448 610.5Q405 648 329 648H227V346H365Q374 346 395 350.5Q416 355 437.5 371Q459 387 475 417Q491 447 491 498ZM334 756 204 931L254 941L363 813L472 941L522 931L392 756Z" glyph-name="Rcaron" horiz-adv-x="726" unicode="Ř" /><glyph d="M246 423Q275 455 297.5 469.5Q320 484 341 484Q364 484 384 481.5Q404 479 413 477L399 392Q390 395 379 398Q369 400 357.5 401.5Q346 403 333 403Q304 403 270.5 381Q237 359 198 326V45H293V0H44V45H119V429H39V474L202 484Q202 476 201 462Q200 448 199 431.5Q198 415 197 398Q196 381 196 367ZM184 530 54 705L104 715L213 587L322 715L372 705L242 530Z" glyph-name="rcaron" horiz-adv-x="425" unicode="ř" /><glyph d="M144 553Q144 511 170 482.5Q196 454 235 432Q274 410 319.5 389.5Q365 369 404 343Q443 317 469 281.5Q495 246 495 192Q495 144 477 106Q459 68 427.5 42.5Q396 17 353.5 3.5Q311 -10 263 -10Q219 -10 167 -5.5Q115 -1 75 13L69 189H119L154 49Q174 44 201.5 41Q229 38 256 38Q298 38 329 48.5Q360 59 379.5 76.5Q399 94 408.5 117.5Q418 141 418 168Q418 211 392 239Q366 267 326.5 289Q287 311 241.5 331Q196 351 156.5 377.5Q117 404 91 440.5Q65 477 65 532Q65 564 77.5 596Q90 628 116.5 653.5Q143 679 184 694.5Q225 710 282 710Q315 710 346.5 707Q378 704 403 701Q432 696 459 691L453 518H402L379 650Q368 653 354 655Q340 656 321.5 657.5Q303 659 278 659Q252 659 227.5 652.5Q203 646 184.5 632.5Q166 619 155 599Q144 579 144 553ZM406 931 189 756L139 766L301 938Z" glyph-name="Sacute" horiz-adv-x="546" unicode="Ś" /><glyph d="M127 371Q127 343 146 325.5Q165 308 193.5 294.5Q222 281 255 269Q288 257 316 241Q344 225 363 201.5Q382 178 382 141Q382 102 368.5 73.5Q355 45 331 26.5Q307 8 274.5 -1Q242 -10 204 -10Q165 -10 125 -5Q85 0 58 9V138H101L120 42Q125 40 144.5 36Q164 32 196 32Q255 32 281.5 52Q308 72 308 111Q308 141 289 158Q270 175 242 187.5Q214 200 181 211.5Q148 223 120 240Q92 257 73 283.5Q54 310 54 353Q54 375 62.5 398.5Q71 422 90.5 441Q110 460 141.5 472Q173 484 219 484Q242 484 266 482Q290 480 311 478Q335 475 358 471Q357 456 355.5 434.5Q354 413 353 393Q351 370 350 346H305L295 435Q284 437 272 439Q261 440 247 441Q233 442 218 442Q173 442 150 423.5Q127 405 127 371ZM347 705 130 530L80 540L242 712Z" glyph-name="sacute" horiz-adv-x="426" unicode="ś" /><glyph d="M144 553Q144 511 170 482.5Q196 454 235 432Q274 410 319.5 389.5Q365 369 404 343Q443 317 469 281.5Q495 246 495 192Q495 144 477 106Q459 68 427.5 42.5Q396 17 353.5 3.5Q311 -10 263 -10Q219 -10 167 -5.5Q115 -1 75 13L69 189H119L154 49Q174 44 201.5 41Q229 38 256 38Q298 38 329 48.5Q360 59 379.5 76.5Q399 94 408.5 117.5Q418 141 418 168Q418 211 392 239Q366 267 326.5 289Q287 311 241.5 331Q196 351 156.5 377.5Q117 404 91 440.5Q65 477 65 532Q65 564 77.5 596Q90 628 116.5 653.5Q143 679 184 694.5Q225 710 282 710Q315 710 346.5 707Q378 704 403 701Q432 696 459 691L453 518H402L379 650Q368 653 354 655Q340 656 321.5 657.5Q303 659 278 659Q252 659 227.5 652.5Q203 646 184.5 632.5Q166 619 155 599Q144 579 144 553ZM302 941 432 766L382 756L273 884L164 756L114 766L244 941Z" glyph-name="Scircumflex" horiz-adv-x="546" unicode="Ŝ" /><glyph d="M127 371Q127 343 146 325.5Q165 308 193.5 294.5Q222 281 255 269Q288 257 316 241Q344 225 363 201.5Q382 178 382 141Q382 102 368.5 73.5Q355 45 331 26.5Q307 8 274.5 -1Q242 -10 204 -10Q165 -10 125 -5Q85 0 58 9V138H101L120 42Q125 40 144.5 36Q164 32 196 32Q255 32 281.5 52Q308 72 308 111Q308 141 289 158Q270 175 242 187.5Q214 200 181 211.5Q148 223 120 240Q92 257 73 283.5Q54 310 54 353Q54 375 62.5 398.5Q71 422 90.5 441Q110 460 141.5 472Q173 484 219 484Q242 484 266 482Q290 480 311 478Q335 475 358 471Q357 456 355.5 434.5Q354 413 353 393Q351 370 350 346H305L295 435Q284 437 272 439Q261 440 247 441Q233 442 218 442Q173 442 150 423.5Q127 405 127 371ZM242 715 372 540L322 530L213 658L104 530L54 540L184 715Z" glyph-name="scircumflex" horiz-adv-x="426" unicode="ŝ" /><glyph d="M377 -163Q377 -181 370.5 -198.5Q364 -216 349 -230Q334 -244 310 -252.5Q286 -261 251 -261Q218 -261 195.5 -253Q173 -245 168 -241L174 -207Q182 -209 198.5 -212.5Q215 -216 235 -216Q267 -216 288 -203.5Q309 -191 309 -166Q309 -147 297.5 -135.5Q286 -124 268.5 -118Q251 -112 230 -110Q209 -108 191 -108L246 -10Q204 -9 157.5 -4Q111 1 75 13L69 189H119L154 49Q174 44 201.5 41Q229 38 256 38Q298 38 329 48.5Q360 59 379.5 76.5Q399 94 408.5 117.5Q418 141 418 168Q418 211 392 239Q366 267 326.5 289Q287 311 241.5 331Q196 351 156.5 377.5Q117 404 91 440.5Q65 477 65 532Q65 564 77.5 596Q90 628 116.5 653.5Q143 679 184 694.5Q225 710 282 710Q315 710 346.5 707Q378 704 403 701Q432 696 459 691L453 518H402L379 650Q368 653 354 655Q340 656 321.5 657.5Q303 659 278 659Q252 659 227.5 652.5Q203 646 184.5 632.5Q166 619 155 599Q144 579 144 553Q144 511 170 482.5Q196 454 235 432Q274 410 319.5 389.5Q365 369 404 343Q443 317 469 281.5Q495 246 495 192Q495 146 478.5 110Q462 74 433.5 48.5Q405 23 366.5 8.5Q328 -6 283 -9L261 -72Q291 -72 313 -80Q335 -88 349.5 -100.5Q364 -113 370.5 -129.5Q377 -146 377 -163Z" glyph-name="Scedilla" horiz-adv-x="546" unicode="Ş" /><glyph d="M317 -163Q317 -181 310.5 -198.5Q304 -216 289 -230Q274 -244 250 -252.5Q226 -261 191 -261Q158 -261 135.5 -253Q113 -245 108 -241L114 -207Q122 -209 138.5 -212.5Q155 -216 175 -216Q207 -216 228 -203.5Q249 -191 249 -166Q249 -147 237.5 -135.5Q226 -124 208.5 -118Q191 -112 170 -110Q149 -108 131 -108L186 -10Q151 -8 116.5 -3.5Q82 1 58 9V138H101L120 42Q125 40 144.5 36Q164 32 196 32Q255 32 281.5 52Q308 72 308 111Q308 141 289 158Q270 175 242 187.5Q214 200 181 211.5Q148 223 120 240Q92 257 73 283.5Q54 310 54 353Q54 375 62.5 398.5Q71 422 90.5 441Q110 460 141.5 472Q173 484 219 484Q242 484 266 482Q290 480 311 478Q335 475 358 471Q357 456 355.5 434.5Q354 413 353 393Q351 370 350 346H305L295 435Q284 437 272 439Q261 440 247 441Q233 442 218 442Q173 442 150 423.5Q127 405 127 371Q127 343 146 325.5Q165 308 193.5 294.5Q222 281 255 269Q288 257 316 241Q344 225 363 201.5Q382 178 382 141Q382 68 337 31.5Q292 -5 223 -9L201 -72Q231 -72 253 -80Q275 -88 289.5 -100.5Q304 -113 310.5 -129.5Q317 -146 317 -163Z" glyph-name="scedilla" horiz-adv-x="426" unicode="ş" /><glyph d="M144 553Q144 511 170 482.5Q196 454 235 432Q274 410 319.5 389.5Q365 369 404 343Q443 317 469 281.5Q495 246 495 192Q495 144 477 106Q459 68 427.5 42.5Q396 17 353.5 3.5Q311 -10 263 -10Q219 -10 167 -5.5Q115 -1 75 13L69 189H119L154 49Q174 44 201.5 41Q229 38 256 38Q298 38 329 48.5Q360 59 379.5 76.5Q399 94 408.5 117.5Q418 141 418 168Q418 211 392 239Q366 267 326.5 289Q287 311 241.5 331Q196 351 156.5 377.5Q117 404 91 440.5Q65 477 65 532Q65 564 77.5 596Q90 628 116.5 653.5Q143 679 184 694.5Q225 710 282 710Q315 710 346.5 707Q378 704 403 701Q432 696 459 691L453 518H402L379 650Q368 653 354 655Q340 656 321.5 657.5Q303 659 278 659Q252 659 227.5 652.5Q203 646 184.5 632.5Q166 619 155 599Q144 579 144 553ZM241 756 111 931L161 941L270 813L379 941L429 931L299 756Z" glyph-name="Scaron" horiz-adv-x="546" unicode="Š" /><glyph d="M127 371Q127 343 146 325.5Q165 308 193.5 294.5Q222 281 255 269Q288 257 316 241Q344 225 363 201.5Q382 178 382 141Q382 102 368.5 73.5Q355 45 331 26.5Q307 8 274.5 -1Q242 -10 204 -10Q165 -10 125 -5Q85 0 58 9V138H101L120 42Q125 40 144.5 36Q164 32 196 32Q255 32 281.5 52Q308 72 308 111Q308 141 289 158Q270 175 242 187.5Q214 200 181 211.5Q148 223 120 240Q92 257 73 283.5Q54 310 54 353Q54 375 62.5 398.5Q71 422 90.5 441Q110 460 141.5 472Q173 484 219 484Q242 484 266 482Q290 480 311 478Q335 475 358 471Q357 456 355.5 434.5Q354 413 353 393Q351 370 350 346H305L295 435Q284 437 272 439Q261 440 247 441Q233 442 218 442Q173 442 150 423.5Q127 405 127 371ZM179 530 49 705L99 715L208 587L317 715L367 705L237 530Z" glyph-name="scaron" horiz-adv-x="426" unicode="š" /><glyph d="M655 700 655 517H606L577 648H386V52H501V0H184V52H299V648H110L81 517H32V700ZM390 -119 273 -370H223L293 -82H390Z" glyph-name="Tcommaaccent" horiz-adv-x="686" unicode="Ţ" /><glyph d="M335 35Q316 24 294 15Q274 7 250 1Q226 -5 200 -5Q167 -5 148 5.5Q129 16 119 33Q109 50 106 71Q103 92 103 114V429H16V470L104 483V626H182V474H320L315 429H182V121Q182 84 194.5 67.5Q207 51 235 51Q261 51 290.5 58Q320 65 335 73ZM261 -119 144 -370H94L164 -82H261Z" glyph-name="tcommaaccent" horiz-adv-x="355" unicode="ţ" /><glyph d="M655 700 655 517H606L577 648H386V52H501V0H184V52H299V648H110L81 517H32V700ZM314 756 184 931L234 941L343 813L452 941L502 931L372 756Z" glyph-name="Tcaron" horiz-adv-x="686" unicode="Ť" /><glyph d="M335 35Q316 24 294 15Q274 7 250 1Q226 -5 200 -5Q167 -5 148 5.5Q129 16 119 33Q109 50 106 71Q103 92 103 114V429H16V470L104 483V626H182V474H320L315 429H182V121Q182 84 194.5 67.5Q207 51 235 51Q261 51 290.5 58Q320 65 335 73ZM423 808 306 553H256L326 841H423Z" glyph-name="tcaron" horiz-adv-x="355" unicode="ť" /><glyph d="M501 52 501 0H184V52H299V325H153V377H299V648H110L81 517H32V700H655V517H606L577 648H386V377H533V325H386V52Z" glyph-name="Tbar" horiz-adv-x="686" unicode="Ŧ" /><glyph d="M182 121Q182 84 194.5 67.5Q207 51 235 51Q261 51 290.5 58Q320 65 335 73V35Q316 24 294 15Q274 7 250 1Q226 -5 200 -5Q167 -5 148 5.5Q129 16 119 33Q109 50 106 71Q103 92 103 114V280H16V325H103V429H16V470L104 483V626H182V474H320L315 429H182V325H320L315 280H182Z" glyph-name="tbar" horiz-adv-x="355" unicode="ŧ" /><glyph d="M672 648 672 218Q672 169 652.5 127Q633 85 596.5 54.5Q560 24 508.5 7Q457 -10 393 -10Q317 -10 264 8Q211 26 178.5 56Q146 86 131.5 125Q117 164 117 205V648H22V700H308V648H204V237Q204 198 212.5 162.5Q221 127 243 100Q265 73 304 57Q343 41 404 41Q504 41 559.5 91Q615 141 615 226V648H513V700H766V648ZM466 783Q449 783 426.5 790Q404 797 382.5 805Q361 813 342 820Q323 827 312 827Q292 827 285 814Q278 801 278 779H240Q240 830 260.5 860.5Q281 891 321 891Q339 891 360 884Q381 877 402 868Q423 859 442.5 852Q462 845 476 845Q496 845 502.5 859Q509 873 509 895H547Q547 844 526.5 813.5Q506 783 466 783Z" glyph-name="Utilde" horiz-adv-x="787" unicode="Ũ" /><glyph d="M96 429 23 429V474H175V127Q175 115 178 102.5Q181 90 189 79Q197 68 211 61Q225 54 247 54Q278 54 314 76.5Q350 99 411 151V429H335V474H495Q495 422 492.5 353Q490 284 490 199V45H563V0L410 -10Q410 -3 410.5 11.5Q411 26 411.5 43Q412 60 412.5 77Q413 94 413 107Q390 84 366.5 62.5Q343 41 319 25Q295 9 270.5 -0.5Q246 -10 222 -10Q155 -10 125.5 24Q96 58 96 115ZM368 557Q351 557 328.5 564Q306 571 284.5 579Q263 587 244 594Q225 601 214 601Q194 601 187 588Q180 575 180 553H142Q142 604 162.5 634.5Q183 665 223 665Q241 665 262 658Q283 651 304 642Q325 633 344.5 626Q364 619 378 619Q398 619 404.5 633Q411 647 411 669H449Q449 618 428.5 587.5Q408 557 368 557Z" glyph-name="utilde" horiz-adv-x="591" unicode="ũ" /><glyph d="M672 648 672 218Q672 169 652.5 127Q633 85 596.5 54.5Q560 24 508.5 7Q457 -10 393 -10Q317 -10 264 8Q211 26 178.5 56Q146 86 131.5 125Q117 164 117 205V648H22V700H308V648H204V237Q204 198 212.5 162.5Q221 127 243 100Q265 73 304 57Q343 41 404 41Q504 41 559.5 91Q615 141 615 226V648H513V700H766V648ZM256 784 256 841H530V784Z" glyph-name="Umacron" horiz-adv-x="787" unicode="Ū" /><glyph d="M96 429 23 429V474H175V127Q175 115 178 102.5Q181 90 189 79Q197 68 211 61Q225 54 247 54Q278 54 314 76.5Q350 99 411 151V429H335V474H495Q495 422 492.5 353Q490 284 490 199V45H563V0L410 -10Q410 -3 410.5 11.5Q411 26 411.5 43Q412 60 412.5 77Q413 94 413 107Q390 84 366.5 62.5Q343 41 319 25Q295 9 270.5 -0.5Q246 -10 222 -10Q155 -10 125.5 24Q96 58 96 115ZM158 558 158 615H432V558Z" glyph-name="umacron" horiz-adv-x="591" unicode="ū" /><glyph d="M672 648 672 218Q672 169 652.5 127Q633 85 596.5 54.5Q560 24 508.5 7Q457 -10 393 -10Q317 -10 264 8Q211 26 178.5 56Q146 86 131.5 125Q117 164 117 205V648H22V700H308V648H204V237Q204 198 212.5 162.5Q221 127 243 100Q265 73 304 57Q343 41 404 41Q504 41 559.5 91Q615 141 615 226V648H513V700H766V648ZM393 822Q427 822 445.5 843.5Q464 865 464 914H518Q518 845 484 806Q450 767 393 767Q336 767 302 806Q268 845 268 914H322Q322 865 340.5 843.5Q359 822 393 822Z" glyph-name="Ubreve" horiz-adv-x="787" unicode="Ŭ" /><glyph d="M96 429 23 429V474H175V127Q175 115 178 102.5Q181 90 189 79Q197 68 211 61Q225 54 247 54Q278 54 314 76.5Q350 99 411 151V429H335V474H495Q495 422 492.5 353Q490 284 490 199V45H563V0L410 -10Q410 -3 410.5 11.5Q411 26 411.5 43Q412 60 412.5 77Q413 94 413 107Q390 84 366.5 62.5Q343 41 319 25Q295 9 270.5 -0.5Q246 -10 222 -10Q155 -10 125.5 24Q96 58 96 115ZM295 596Q329 596 347.5 617.5Q366 639 366 688H420Q420 619 386 580Q352 541 295 541Q238 541 204 580Q170 619 170 688H224Q224 639 242.5 617.5Q261 596 295 596Z" glyph-name="ubreve" horiz-adv-x="591" unicode="ŭ" /><glyph d="M672 648 672 218Q672 169 652.5 127Q633 85 596.5 54.5Q560 24 508.5 7Q457 -10 393 -10Q317 -10 264 8Q211 26 178.5 56Q146 86 131.5 125Q117 164 117 205V648H22V700H308V648H204V237Q204 198 212.5 162.5Q221 127 243 100Q265 73 304 57Q343 41 404 41Q504 41 559.5 91Q615 141 615 226V648H513V700H766V648ZM275 872Q275 896 284.5 917Q294 938 310 953.5Q326 969 347.5 977.5Q369 986 393 986Q417 986 438.5 977.5Q460 969 476 953.5Q492 938 501.5 917Q511 896 511 872Q511 848 501.5 827Q492 806 476 790.5Q460 775 438.5 766.5Q417 758 393 758Q369 758 347.5 766.5Q326 775 310 790.5Q294 806 284.5 827Q275 848 275 872ZM324 872Q324 841 342 819Q360 797 393 797Q427 797 444.5 819Q462 841 462 872Q462 902 444.5 924Q427 946 393 946Q360 946 342 924Q324 902 324 872Z" glyph-name="Uring" horiz-adv-x="787" unicode="Ů" /><glyph d="M96 429 23 429V474H175V127Q175 115 178 102.5Q181 90 189 79Q197 68 211 61Q225 54 247 54Q278 54 314 76.5Q350 99 411 151V429H335V474H495Q495 422 492.5 353Q490 284 490 199V45H563V0L410 -10Q410 -3 410.5 11.5Q411 26 411.5 43Q412 60 412.5 77Q413 94 413 107Q390 84 366.5 62.5Q343 41 319 25Q295 9 270.5 -0.5Q246 -10 222 -10Q155 -10 125.5 24Q96 58 96 115ZM177 646Q177 670 186.5 691Q196 712 212 727.5Q228 743 249.5 751.5Q271 760 295 760Q319 760 340.5 751.5Q362 743 378 727.5Q394 712 403.5 691Q413 670 413 646Q413 622 403.5 601Q394 580 378 564.5Q362 549 340.5 540.5Q319 532 295 532Q271 532 249.5 540.5Q228 549 212 564.5Q196 580 186.5 601Q177 622 177 646ZM226 646Q226 615 244 593Q262 571 295 571Q329 571 346.5 593Q364 615 364 646Q364 676 346.5 698Q329 720 295 720Q262 720 244 698Q226 676 226 646Z" glyph-name="uring" horiz-adv-x="591" unicode="ů" /><glyph d="M672 648 672 218Q672 169 652.5 127Q633 85 596.5 54.5Q560 24 508.5 7Q457 -10 393 -10Q317 -10 264 8Q211 26 178.5 56Q146 86 131.5 125Q117 164 117 205V648H22V700H308V648H204V237Q204 198 212.5 162.5Q221 127 243 100Q265 73 304 57Q343 41 404 41Q504 41 559.5 91Q615 141 615 226V648H513V700H766V648ZM620 931 403 756L353 766L515 938ZM434 931 217 756L167 766L329 938Z" glyph-name="Uhungarumlaut" horiz-adv-x="787" unicode="Ű" /><glyph d="M96 429 23 429V474H175V127Q175 115 178 102.5Q181 90 189 79Q197 68 211 61Q225 54 247 54Q278 54 314 76.5Q350 99 411 151V429H335V474H495Q495 422 492.5 353Q490 284 490 199V45H563V0L410 -10Q410 -3 410.5 11.5Q411 26 411.5 43Q412 60 412.5 77Q413 94 413 107Q390 84 366.5 62.5Q343 41 319 25Q295 9 270.5 -0.5Q246 -10 222 -10Q155 -10 125.5 24Q96 58 96 115ZM522 705 305 530L255 540L417 712ZM336 705 119 530L69 540L231 712Z" glyph-name="uhungarumlaut" horiz-adv-x="591" unicode="ű" /><glyph d="M672 648 672 218Q672 137 620 78Q568 19 477 -1Q442 -21 417 -54Q392 -87 392 -125Q392 -152 409 -165Q426 -178 456 -178Q470 -178 487.5 -176Q505 -174 518 -171L517 -201Q498 -209 472.5 -214Q447 -219 426 -219Q377 -219 350 -196Q323 -173 323 -135Q323 -113 330.5 -94.5Q338 -76 349.5 -60Q361 -44 375.5 -31.5Q390 -19 404 -10H393Q317 -10 264 8Q211 26 178.5 56Q146 86 131.5 125Q117 164 117 205V648H22V700H308V648H204V237Q204 198 212.5 162.5Q221 127 243 100Q265 73 304 57Q343 41 404 41Q504 41 559.5 91Q615 141 615 226V648H513V700H766V648Z" glyph-name="Uogonek" horiz-adv-x="787" unicode="Ų" /><glyph d="M96 429 23 429V474H175V127Q175 115 178 102.5Q181 90 189 79Q197 68 211 61Q225 54 247 54Q278 54 314 76.5Q350 99 411 151V429H335V474H495Q495 422 492.5 353Q490 284 490 199V45H563V0L533 -2Q498 -22 473.5 -54.5Q449 -87 449 -125Q449 -152 466 -165Q483 -178 513 -178Q527 -178 544.5 -176Q562 -174 575 -171L574 -201Q555 -209 529.5 -214Q504 -219 483 -219Q434 -219 407 -196Q380 -173 380 -135Q380 -112 388 -92.5Q396 -73 409 -56.5Q422 -40 437 -27.5Q452 -15 467 -6L410 -10Q410 -3 410.5 11.5Q411 26 411.5 43Q412 60 412.5 77Q413 94 413 107Q390 84 366.5 62.5Q343 41 319 25Q295 9 270.5 -0.5Q246 -10 222 -10Q155 -10 125.5 24Q96 58 96 115Z" glyph-name="uogonek" horiz-adv-x="591" unicode="ų" /><glyph d="M1059 648 813 0H728L566 428L408 0H323L78 648H2V700H272V648H174L384 81L539 499L483 648H407V700H677V648H579L789 81L998 648H899V700H1142V648ZM597 941 727 766L677 756L568 884L459 756L409 766L539 941Z" glyph-name="Wcircumflex" horiz-adv-x="1137" unicode="Ŵ" /><glyph d="M617 69 740 429H663V474H857V429H791L637 0H562L430 390L302 0H226L71 429H6V474H241V429H158L280 69L418 474H480ZM460 715 590 540L540 530L431 658L322 530L272 540L402 715Z" glyph-name="wcircumflex" horiz-adv-x="863" unicode="ŵ" /><glyph d="M606 648 389 246V52H504V0H186V52H301V245L82 648H-1V700H284V648H183L367 298L546 648H437V700H687V648ZM373 941 503 766L453 756L344 884L235 756L185 766L315 941Z" glyph-name="Ycircumflex" horiz-adv-x="689" unicode="Ŷ" /><glyph d="M478 429 209 -250L59 -240V-195L173 -185L245 -8L77 429H5V474H153L293 82L424 429H353V474H533V429ZM298 715 428 540L378 530L269 658L160 530L110 540L240 715Z" glyph-name="ycircumflex" horiz-adv-x="539" unicode="ŷ" /><glyph d="M606 648 389 246V52H504V0H186V52H301V245L82 648H-1V700H284V648H183L367 298L546 648H437V700H687V648ZM390 782 390 894H476V782ZM222 782 222 894H308V782Z" glyph-name="Ydieresis" horiz-adv-x="689" unicode="Ÿ" /><glyph d="M613 0 44 0V44L506 648H149L119 515H70V700H612V656L148 52H533L566 184H613ZM469 931 252 756L202 766L364 938Z" glyph-name="Zacute" horiz-adv-x="672" unicode="Ź" /><glyph d="M449 0 40 0V35L348 429H127L111 314H67L60 474H442V432L141 45H377L419 169H459ZM387 705 170 530L120 540L282 712Z" glyph-name="zacute" horiz-adv-x="507" unicode="ź" /><glyph d="M613 0 44 0V44L506 648H149L119 515H70V700H612V656L148 52H533L566 184H613ZM281 793 281 906H390V793Z" glyph-name="Zdotaccent" horiz-adv-x="672" unicode="Ż" /><glyph d="M449 0 40 0V35L348 429H127L111 314H67L60 474H442V432L141 45H377L419 169H459ZM199 567 199 680H308V567Z" glyph-name="zdotaccent" horiz-adv-x="507" unicode="ż" /><glyph d="M613 0 44 0V44L506 648H149L119 515H70V700H612V656L148 52H533L566 184H613ZM310 758 180 933L230 943L339 815L448 943L498 933L368 758Z" glyph-name="Zcaron" horiz-adv-x="672" unicode="Ž" /><glyph d="M449 0 40 0V35L348 429H127L111 314H67L60 474H442V432L141 45H377L419 169H459ZM221 530 91 705L141 715L250 587L359 715L409 705L279 530Z" glyph-name="zcaron" horiz-adv-x="507" unicode="ž" /><glyph d="M192 45 284 45V0H36V45H113V429H50V474H113V592Q113 669 157 708Q201 747 277 747Q295 747 311.5 746Q328 745 341 745Q356 743 369 742L383 628L346 621L311 699Q305 700 296.5 700Q288 700 283 700Q253 700 235 691Q217 682 207.5 667.5Q198 653 195 634.5Q192 616 192 596Z" glyph-name="longs" horiz-adv-x="288" unicode="ſ" /><glyph d="M168 -99Q158 -176 110 -212.5Q62 -249 -13 -249Q-31 -249 -46.5 -248Q-62 -247 -74 -247Q-87 -245 -99 -244L-103 -130L-65 -123L-38 -204Q-33 -205 -24 -205Q-15 -205 -10 -205Q19 -205 37 -196Q55 -187 65.5 -173Q76 -159 81 -140.5Q86 -122 88 -103L136 284H26L32 329H141L173 592Q182 669 230 705.5Q278 742 355 742Q373 742 388.5 741Q404 740 416 740Q430 738 442 737L445 623L407 616L379 697Q374 698 365.5 698Q357 698 352 698Q323 698 305 689.5Q287 681 276.5 666.5Q266 652 261.5 633.5Q257 615 254 594L221 329H336L326 284H216Z" glyph-name="florin" horiz-adv-x="355" unicode="ƒ" /><glyph d="M144 553Q144 511 170 482.5Q196 454 235 432Q274 410 319.5 389.5Q365 369 404 343Q443 317 469 281.5Q495 246 495 192Q495 144 477 106Q459 68 427.5 42.5Q396 17 353.5 3.5Q311 -10 263 -10Q219 -10 167 -5.5Q115 -1 75 13L69 189H119L154 49Q174 44 201.5 41Q229 38 256 38Q298 38 329 48.5Q360 59 379.5 76.5Q399 94 408.5 117.5Q418 141 418 168Q418 211 392 239Q366 267 326.5 289Q287 311 241.5 331Q196 351 156.5 377.5Q117 404 91 440.5Q65 477 65 532Q65 564 77.5 596Q90 628 116.5 653.5Q143 679 184 694.5Q225 710 282 710Q315 710 346.5 707Q378 704 403 701Q432 696 459 691L453 518H402L379 650Q368 653 354 655Q340 656 321.5 657.5Q303 659 278 659Q252 659 227.5 652.5Q203 646 184.5 632.5Q166 619 155 599Q144 579 144 553ZM332 -119 215 -370H165L235 -82H332Z" glyph-name="Scommaaccent" horiz-adv-x="546" unicode="Ș" /><glyph d="M127 371Q127 343 146 325.5Q165 308 193.5 294.5Q222 281 255 269Q288 257 316 241Q344 225 363 201.5Q382 178 382 141Q382 102 368.5 73.5Q355 45 331 26.5Q307 8 274.5 -1Q242 -10 204 -10Q165 -10 125 -5Q85 0 58 9V138H101L120 42Q125 40 144.5 36Q164 32 196 32Q255 32 281.5 52Q308 72 308 111Q308 141 289 158Q270 175 242 187.5Q214 200 181 211.5Q148 223 120 240Q92 257 73 283.5Q54 310 54 353Q54 375 62.5 398.5Q71 422 90.5 441Q110 460 141.5 472Q173 484 219 484Q242 484 266 482Q290 480 311 478Q335 475 358 471Q357 456 355.5 434.5Q354 413 353 393Q351 370 350 346H305L295 435Q284 437 272 439Q261 440 247 441Q233 442 218 442Q173 442 150 423.5Q127 405 127 371ZM272 -119 155 -370H105L175 -82H272Z" glyph-name="scommaaccent" horiz-adv-x="426" unicode="ș" /><glyph d="M655 700 655 517H606L577 648H386V52H501V0H184V52H299V648H110L81 517H32V700Z" glyph-name="uni021A" horiz-adv-x="686" unicode="Ț" /><glyph d="M335 35Q316 24 294 15Q274 7 250 1Q226 -5 200 -5Q167 -5 148 5.5Q129 16 119 33Q109 50 106 71Q103 92 103 114V429H16V470L104 483V626H182V474H320L315 429H182V121Q182 84 194.5 67.5Q207 51 235 51Q261 51 290.5 58Q320 65 335 73ZM261 -119 144 -370H94L164 -82H261Z" glyph-name="uni021B" horiz-adv-x="355" unicode="ț" /><glyph d="M177 -108Q177 -127 174.5 -144Q172 -161 164 -177Q156 -193 141 -208.5Q126 -224 101 -240L53 -270L25 -240L98 -175V429H31V474H177Z" glyph-name="dotlessj" horiz-adv-x="261" unicode="ȷ" /><glyph d="M217 667 100 412H50L120 700H217Z" glyph-name="apostrophe" horiz-adv-x="243" unicode="ʼ" /><glyph d="M268 715 398 540L348 530L239 658L130 530L80 540L210 715Z" glyph-name="circumflex" horiz-adv-x="478" unicode="ˆ" /><glyph d="M210 530 80 705L130 715L239 587L348 715L398 705L268 530Z" glyph-name="caron" horiz-adv-x="478" unicode="ˇ" /><glyph d="M80 558 80 615H354V558Z" glyph-name="uni02C9" horiz-adv-x="434" unicode="ˉ" /><glyph d="M205 596Q239 596 257.5 617.5Q276 639 276 688H330Q330 619 296 580Q262 541 205 541Q148 541 114 580Q80 619 80 688H134Q134 639 152.5 617.5Q171 596 205 596Z" glyph-name="breve" horiz-adv-x="410" unicode="˘" /><glyph d="M80 567 80 680H189V567Z" glyph-name="dotaccent" horiz-adv-x="269" unicode="˙" /><glyph d="M80 646Q80 670 89.5 691Q99 712 115 727.5Q131 743 152.5 751.5Q174 760 198 760Q222 760 243.5 751.5Q265 743 281 727.5Q297 712 306.5 691Q316 670 316 646Q316 622 306.5 601Q297 580 281 564.5Q265 549 243.5 540.5Q222 532 198 532Q174 532 152.5 540.5Q131 549 115 564.5Q99 580 89.5 601Q80 622 80 646ZM129 646Q129 615 147 593Q165 571 198 571Q232 571 249.5 593Q267 615 267 646Q267 676 249.5 698Q232 720 198 720Q165 720 147 698Q129 676 129 646Z" glyph-name="ring" horiz-adv-x="396" unicode="˚" /><glyph d="M251 7Q231 -2 212.5 -15.5Q194 -29 180 -46.5Q166 -64 157.5 -84Q149 -104 149 -125Q149 -152 166 -165Q183 -178 213 -178Q227 -178 244.5 -176Q262 -174 275 -171L274 -201Q255 -209 229.5 -214Q204 -219 183 -219Q134 -219 107 -196Q80 -173 80 -135Q80 -104 94.5 -79Q109 -54 129.5 -35Q150 -16 171 -4Q192 8 205 13L235 25L250 15Z" glyph-name="ogonek" horiz-adv-x="355" unicode="˛" /><glyph d="M306 557Q289 557 266.5 564Q244 571 222.5 579Q201 587 182 594Q163 601 152 601Q132 601 125 588Q118 575 118 553H80Q80 604 100.5 634.5Q121 665 161 665Q179 665 200 658Q221 651 242 642Q263 633 282.5 626Q302 619 316 619Q336 619 342.5 633Q349 647 349 669H387Q387 618 366.5 587.5Q346 557 306 557Z" glyph-name="tilde" horiz-adv-x="467" unicode="˜" /><glyph d="M347 705 130 530L80 540L242 712ZM533 705 316 530L266 540L428 712Z" glyph-name="hungarumlaut" horiz-adv-x="613" unicode="˝" /><glyph d="M38 0 38 45H133V429H43V474H646L641 429H525V120Q525 84 537 67Q549 50 578 50Q605 50 635 57.5Q665 65 678 72V34Q659 23 637 14Q617 5 593 -1Q569 -7 543 -7Q510 -7 491 3.5Q472 14 462 31Q452 48 449 69.5Q446 91 446 113V429H210V45H296V0Z" glyph-name="pi" horiz-adv-x="708" unicode="π" /><glyph d="M1059 648 813 0H728L566 428L408 0H323L78 648H2V700H272V648H174L384 81L539 499L483 648H407V700H677V648H579L789 81L998 648H899V700H1142V648ZM702 766 652 756L435 931L540 938Z" glyph-name="Wgrave" horiz-adv-x="1137" unicode="Ẁ" /><glyph d="M617 69 740 429H663V474H857V429H791L637 0H562L430 390L302 0H226L71 429H6V474H241V429H158L280 69L418 474H480ZM565 540 515 530L298 705L403 712Z" glyph-name="wgrave" horiz-adv-x="863" unicode="ẁ" /><glyph d="M1059 648 813 0H728L566 428L408 0H323L78 648H2V700H272V648H174L384 81L539 499L483 648H407V700H677V648H579L789 81L998 648H899V700H1142V648ZM702 931 485 756L435 766L597 938Z" glyph-name="Wacute" horiz-adv-x="1137" unicode="Ẃ" /><glyph d="M617 69 740 429H663V474H857V429H791L637 0H562L430 390L302 0H226L71 429H6V474H241V429H158L280 69L418 474H480ZM565 705 348 530L298 540L460 712Z" glyph-name="wacute" horiz-adv-x="863" unicode="ẃ" /><glyph d="M1059 648 813 0H728L566 428L408 0H323L78 648H2V700H272V648H174L384 81L539 499L483 648H407V700H677V648H579L789 81L998 648H899V700H1142V648ZM609 780 609 892H695V780ZM441 780 441 892H527V780Z" glyph-name="Wdieresis" horiz-adv-x="1137" unicode="Ẅ" /><glyph d="M617 69 740 429H663V474H857V429H791L637 0H562L430 390L302 0H226L71 429H6V474H241V429H158L280 69L418 474H480ZM472 554 472 666H558V554ZM304 554 304 666H390V554Z" glyph-name="wdieresis" horiz-adv-x="863" unicode="ẅ" /><glyph d="M606 648 389 246V52H504V0H186V52H301V245L82 648H-1V700H284V648H183L367 298L546 648H437V700H687V648ZM478 766 428 756L211 931L316 938Z" glyph-name="Ygrave" horiz-adv-x="689" unicode="Ỳ" /><glyph d="M478 429 209 -250L59 -240V-195L173 -185L245 -8L77 429H5V474H153L293 82L424 429H353V474H533V429ZM403 540 353 530L136 705L241 712Z" glyph-name="ygrave" horiz-adv-x="539" unicode="ỳ" /><glyph d="M66 278 66 335H500V278Z" glyph-name="endash" horiz-adv-x="566" unicode="–" /><glyph d="M66 278 66 335H840V278Z" glyph-name="emdash" horiz-adv-x="906" unicode="—" /><glyph d="M51 445 168 700H218L148 412H51Z" glyph-name="quoteleft" horiz-adv-x="252" unicode="‘" /><glyph d="M217 667 100 412H50L120 700H217Z" glyph-name="quoteright" horiz-adv-x="243" unicode="’" /><glyph d="M191 115 74 -136H24L94 152H191Z" glyph-name="quotesinglbase" horiz-adv-x="261" unicode="‚" /><glyph d="M225 445 342 700H392L322 412H225ZM51 445 168 700H218L148 412H51Z" glyph-name="quotedblleft" horiz-adv-x="426" unicode="“" /><glyph d="M217 667 100 412H50L120 700H217ZM391 667 274 412H224L294 700H391Z" glyph-name="quotedblright" horiz-adv-x="417" unicode="”" /><glyph d="M191 115 74 -136H24L94 152H191ZM366 115 249 -136H199L269 152H366Z" glyph-name="quotedblbase" horiz-adv-x="436" unicode="„" /><glyph d="M35 419 35 482H184V700H255V482H404V419H255V72H184V419Z" glyph-name="dagger" horiz-adv-x="439" unicode="†" /><glyph d="M195 63 195 419H46V482H195V700H266V482H415V419H266V63H415V0H266V-218H195V0H46V63Z" glyph-name="daggerdbl" horiz-adv-x="461" unicode="‡" /><glyph d="M334 343Q334 314 323 288.5Q312 263 293 244Q274 225 248.5 214Q223 203 194 203Q165 203 139.5 214Q114 225 95 244Q76 263 65 288.5Q54 314 54 343Q54 372 65 397.5Q76 423 95 442Q114 461 139.5 472Q165 483 194 483Q223 483 248.5 472Q274 461 293 442Q312 423 323 397.5Q334 372 334 343Z" glyph-name="bullet" horiz-adv-x="388" unicode="•" /><glyph d="M78 0 78 130H187V0ZM406 0 406 130H515V0ZM734 0 734 130H843V0Z" glyph-name="ellipsis" horiz-adv-x="921" unicode="…" /><glyph d="M355 526Q355 482 340.5 449.5Q326 417 303 395.5Q280 374 252.5 363.5Q225 353 199 353Q173 353 145.5 363.5Q118 374 95.5 395.5Q73 417 58.5 449.5Q44 482 44 526Q44 570 58.5 603Q73 636 95.5 657.5Q118 679 145.5 689.5Q173 700 199 700Q225 700 252.5 689.5Q280 679 303 657.5Q326 636 340.5 603Q355 570 355 526ZM279 526Q279 592 261.5 626Q244 660 199 660Q154 660 136.5 626Q119 592 119 526Q119 461 136.5 426Q154 391 199 391Q244 391 261.5 426.5Q279 462 279 526ZM158 0 100 0L679 700H734ZM785 163Q785 119 770.5 86.5Q756 54 733.5 32.5Q711 11 683.5 0.5Q656 -10 630 -10Q604 -10 576.5 0.5Q549 11 526 32.5Q503 54 488.5 86.5Q474 119 474 163Q474 207 488.5 240Q503 273 526 294.5Q549 316 576.5 326.5Q604 337 630 337Q656 337 683.5 326.5Q711 316 733.5 294.5Q756 273 770.5 240Q785 207 785 163ZM710 163Q710 229 692.5 263.5Q675 298 630 298Q585 298 567 263.5Q549 229 549 163Q549 98 567 63.5Q585 29 630 29Q675 29 692.5 64Q710 99 710 163ZM1161 163Q1161 119 1146.5 86.5Q1132 54 1109.5 32.5Q1087 11 1059.5 0.5Q1032 -10 1006 -10Q980 -10 952.5 0.5Q925 11 902 32.5Q879 54 864.5 86.5Q850 119 850 163Q850 207 864.5 240Q879 273 902 294.5Q925 316 952.5 326.5Q980 337 1006 337Q1032 337 1059.5 326.5Q1087 316 1109.5 294.5Q1132 273 1146.5 240Q1161 207 1161 163ZM1086 163Q1086 229 1068.5 263.5Q1051 298 1006 298Q961 298 943 263.5Q925 229 925 163Q925 98 943 63.5Q961 29 1006 29Q1051 29 1068.5 64Q1086 99 1086 163Z" glyph-name="perthousand" horiz-adv-x="1196" unicode="‰" /><glyph d="M25 235 25 239L176 474H237L114 237L237 0H176Z" glyph-name="guilsinglleft" horiz-adv-x="281" unicode="‹" /><glyph d="M105 0 44 0L166 237L44 474H105L256 239V235Z" glyph-name="guilsinglright" horiz-adv-x="281" unicode="›" /><glyph d="M465 685 -169 -13Q-177 -6 -185.5 0.5Q-194 7 -202 15L434 712Z" glyph-name="fraction" horiz-adv-x="263" unicode="⁄" /><glyph d="M331 483Q331 441 321 406Q311 371 293 346.5Q275 322 249 308Q223 294 191 294Q159 294 133 308Q107 322 88.5 346.5Q70 371 60 406Q50 441 50 483V512Q50 554 60 589Q70 624 88.5 649Q107 674 133 688Q159 702 191 702Q223 702 249 688Q275 674 293 649Q311 624 321 589Q331 554 331 512ZM261 516Q261 542 259 569Q257 596 249.5 618Q242 640 228 654Q214 668 191 668Q168 668 154 654Q140 640 132.5 618Q125 596 122.5 569Q120 542 120 516V479Q120 453 122.5 426Q125 399 132.5 377.5Q140 356 154 342Q168 328 191 328Q214 328 228 342Q242 356 249.5 377.5Q257 399 259 426Q261 453 261 479Z" glyph-name="zerosuperior" horiz-adv-x="382" unicode="⁰" /><glyph d="M285 418 285 336H337V301H169V336H223V418H40V454L216 697H285V457H349V418ZM223 457 223 649L85 457Z" glyph-name="foursuperior" horiz-adv-x="382" unicode="⁴" /><glyph d="M146 555Q176 555 207.5 549Q239 543 264 528.5Q289 514 305 489.5Q321 465 321 427Q321 398 309 373.5Q297 349 275 331.5Q253 314 222.5 304Q192 294 155 294Q134 294 109 296Q84 298 60 304L61 393H98L111 332Q121 330 134 329Q147 328 156 328Q210 328 237 353.5Q264 379 264 416Q264 442 252 457.5Q240 473 221 482Q202 491 178.5 494Q155 497 132 497Q118 497 103.5 496.5Q89 496 75 495L81 694H312L310 641H116L114 555Z" glyph-name="fivesuperior" horiz-adv-x="382" unicode="⁵" /><glyph d="M192 329Q232 329 251.5 354Q271 379 271 412Q271 463 238 488.5Q205 514 160 514Q153 514 146 514Q139 514 132 512Q124 498 117.5 474.5Q111 451 111 431Q111 412 115 394Q119 376 129 361.5Q139 347 154.5 338Q170 329 192 329ZM322 706Q316 703 295 690.5Q274 678 248 657.5Q222 637 195 609Q168 581 149 546Q168 550 189 550Q258 550 297 514.5Q336 479 336 425Q336 402 327 378.5Q318 355 300 336.5Q282 318 255 306Q228 294 191 294Q164 294 138 302.5Q112 311 91.5 329Q71 347 58 374Q45 401 45 438Q45 481 62 518.5Q79 556 105 587Q131 618 161.5 643Q192 668 219.5 685.5Q247 703 268 713Q289 723 294 724Z" glyph-name="sixsuperior" horiz-adv-x="382" unicode="⁶" /><glyph d="M167 301 94 301L280 640H105L91 573H53L52 694H329V661Z" glyph-name="sevensuperior" horiz-adv-x="382" unicode="⁷" /><glyph d="M334 406Q334 358 296 326Q258 294 189 294Q118 294 83 325.5Q48 357 48 400Q48 440 72 465Q96 490 134 503Q99 521 82 547Q65 573 65 599Q65 625 75.5 644Q86 663 104 676.5Q122 690 146 696.5Q170 703 196 703Q220 703 242 697Q264 691 281 679Q298 667 308.5 649Q319 631 319 607Q319 589 312 574.5Q305 560 294 549Q283 538 269 530Q255 522 241 516Q334 479 334 406ZM273 395Q273 426 242 446.5Q211 467 163 487Q110 458 110 404Q110 370 131.5 348.5Q153 327 194 327Q226 327 249.5 343.5Q273 360 273 395ZM129 613Q129 590 147.5 571Q166 552 211 533Q237 544 251.5 565Q266 586 266 610Q266 635 248.5 652.5Q231 670 194 670Q161 670 145 653Q129 636 129 613Z" glyph-name="eightsuperior" horiz-adv-x="382" unicode="⁸" /><glyph d="M189 666Q149 666 129.5 641Q110 616 110 583Q110 532 143 506.5Q176 481 221 481Q228 481 235 481Q242 481 249 483Q257 497 263.5 520.5Q270 544 270 564Q270 583 266 601Q262 619 252 633.5Q242 648 227 657Q212 666 189 666ZM59 289Q65 292 86 304.5Q107 317 133 337.5Q159 358 186 386.5Q213 415 232 449Q213 445 192 445Q123 445 84 480.5Q45 516 45 570Q45 593 54 616.5Q63 640 81 659Q99 678 126 689.5Q153 701 190 701Q217 701 243 692.5Q269 684 289.5 666Q310 648 323 621Q336 594 336 557Q336 514 319 476.5Q302 439 276.5 408Q251 377 220 352Q189 327 161.5 309.5Q134 292 113 282.5Q92 273 87 271Z" glyph-name="ninesuperior" horiz-adv-x="382" unicode="⁹" /><glyph d="M331 179Q331 137 321 102Q311 67 293 42.5Q275 18 249 4Q223 -10 191 -10Q159 -10 133 4Q107 18 88.5 42.5Q70 67 60 102Q50 137 50 179V208Q50 250 60 285Q70 320 88.5 345Q107 370 133 384Q159 398 191 398Q223 398 249 384Q275 370 293 345Q311 320 321 285Q331 250 331 208ZM261 212Q261 238 259 265Q257 292 249.5 314Q242 336 228 350Q214 364 191 364Q168 364 154 350Q140 336 132.5 314Q125 292 122.5 265Q120 238 120 212V175Q120 149 122.5 122Q125 95 132.5 73.5Q140 52 154 38Q168 24 191 24Q214 24 228 38Q242 52 249.5 73.5Q257 95 259 122Q261 149 261 175Z" glyph-name="zeroinferior" horiz-adv-x="405" unicode="₀" /><glyph d="M76 0 76 39L161 44V339L81 318V355L191 397H224V44L306 39V0Z" glyph-name="oneinferior" horiz-adv-x="405" unicode="₁" /><glyph d="M323 0 58 0V39L183 167Q215 199 231.5 232Q248 265 248 297Q248 317 241.5 329.5Q235 342 224.5 349.5Q214 357 200.5 359.5Q187 362 173 362Q162 362 153 361Q144 360 138 360Q130 358 123 357L114 284H77L71 383Q86 388 105 392Q122 395 143.5 397.5Q165 400 193 400Q256 400 287.5 373Q319 346 319 309Q319 275 302.5 246Q286 217 258 190L121 54H275L296 106H327Z" glyph-name="twoinferior" horiz-adv-x="405" unicode="₂" /><glyph d="M120 227Q185 227 215.5 245Q246 263 246 306Q246 330 229 346Q212 362 174 362Q167 362 157.5 361.5Q148 361 139 360Q129 359 118 358L104 301H70L66 381Q85 386 107 390Q126 393 148 395.5Q170 398 193 398Q214 398 234.5 394Q255 390 272 380.5Q289 371 299.5 354.5Q310 338 310 314Q310 279 284 254.5Q258 230 218 220Q270 218 297.5 190.5Q325 163 325 121Q325 98 314 74.5Q303 51 282 32.5Q261 14 230 2Q199 -10 158 -10Q118 -10 92.5 -4.5Q67 1 56 5V85H93L107 27Q109 27 123 25.5Q137 24 148 24Q202 24 230.5 47Q259 70 259 112Q259 149 234.5 165Q210 181 169 181Q158 181 142.5 179.5Q127 178 113 177Z" glyph-name="threeinferior" horiz-adv-x="405" unicode="₃" /><glyph d="M285 117 285 35H337V0H169V35H223V117H40V153L216 396H285V156H349V117ZM223 156 223 348L85 156Z" glyph-name="fourinferior" horiz-adv-x="405" unicode="₄" /><glyph d="M146 251Q176 251 207.5 245Q239 239 264 224.5Q289 210 305 185.5Q321 161 321 123Q321 94 309 69.5Q297 45 275 27.5Q253 10 222.5 0Q192 -10 155 -10Q134 -10 109 -8Q84 -6 60 0L61 89H98L111 28Q121 26 134 25Q147 24 156 24Q210 24 237 49.5Q264 75 264 112Q264 138 252 153.5Q240 169 221 178Q202 187 178.5 190Q155 193 132 193Q118 193 103.5 192.5Q89 192 75 191L81 390H312L310 337H116L114 251Z" glyph-name="fiveinferior" horiz-adv-x="405" unicode="₅" /><glyph d="M192 25Q232 25 251.5 50Q271 75 271 108Q271 159 238 184.5Q205 210 160 210Q153 210 146 210Q139 210 132 208Q124 194 117.5 170.5Q111 147 111 127Q111 108 115 90Q119 72 129 57.5Q139 43 154.5 34Q170 25 192 25ZM322 402Q316 399 295 386.5Q274 374 248 353.5Q222 333 195 305Q168 277 149 242Q168 246 189 246Q258 246 297 210.5Q336 175 336 121Q336 98 327 74.5Q318 51 300 32.5Q282 14 255 2Q228 -10 191 -10Q164 -10 138 -1.5Q112 7 91.5 25Q71 43 58 70Q45 97 45 134Q45 177 62 214.5Q79 252 105 283Q131 314 161.5 339Q192 364 219.5 381.5Q247 399 268 409Q289 419 294 420Z" glyph-name="sixinferior" horiz-adv-x="405" unicode="₆" /><glyph d="M167 0 94 0L280 339H105L91 272H53L52 393H329V360Z" glyph-name="seveninferior" horiz-adv-x="405" unicode="₇" /><glyph d="M334 102Q334 54 296 22Q258 -10 189 -10Q118 -10 83 21.5Q48 53 48 96Q48 136 72 161Q96 186 134 199Q99 217 82 243Q65 269 65 295Q65 321 75.5 340Q86 359 104 372.5Q122 386 146 392.5Q170 399 196 399Q220 399 242 393Q264 387 281 375Q298 363 308.5 345Q319 327 319 303Q319 285 312 270.5Q305 256 294 245Q283 234 269 226Q255 218 241 212Q334 175 334 102ZM273 91Q273 122 242 142.5Q211 163 163 183Q110 154 110 100Q110 66 131.5 44.5Q153 23 194 23Q226 23 249.5 39.5Q273 56 273 91ZM129 309Q129 286 147.5 267Q166 248 211 229Q237 240 251.5 261Q266 282 266 306Q266 331 248.5 348.5Q231 366 194 366Q161 366 145 349Q129 332 129 309Z" glyph-name="eightinferior" horiz-adv-x="405" unicode="₈" /><glyph d="M189 363Q149 363 129.5 338Q110 313 110 280Q110 229 143 203.5Q176 178 221 178Q228 178 235 178Q242 178 249 180Q257 194 263.5 217.5Q270 241 270 261Q270 280 266 298Q262 316 252 330.5Q242 345 227 354Q212 363 189 363ZM59 -14Q65 -11 86 1.5Q107 14 133 34.5Q159 55 186 83.5Q213 112 232 146Q213 142 192 142Q123 142 84 177.5Q45 213 45 267Q45 290 54 313.5Q63 337 81 356Q99 375 126 386.5Q153 398 190 398Q217 398 243 389.5Q269 381 289.5 363Q310 345 323 318Q336 291 336 254Q336 211 319 173.5Q302 136 276.5 105Q251 74 220 49Q189 24 161.5 6.5Q134 -11 113 -21Q92 -31 87 -32Z" glyph-name="nineinferior" horiz-adv-x="405" unicode="₉" /><glyph d="M195 350Q195 336 195 321.5Q195 307 197 292H491V236H205Q222 146 276.5 93.5Q331 41 437 41Q472 41 497 44.5Q522 48 539 52Q559 56 572 62L595 163H648L636 28Q613 17 581 9Q551 1 511 -4.5Q471 -10 417 -10Q289 -10 212 55.5Q135 121 112 236H41V292H103Q102 304 101.5 316.5Q101 329 101 342Q101 353 101.5 364.5Q102 376 103 387H41V442H110Q134 573 221 637Q308 701 445 701Q489 701 534 694.5Q579 688 627 677L621 525H568L554 633Q520 642 493.5 645.5Q467 649 435 649Q389 649 349.5 638Q310 627 280 602Q250 577 229.5 538Q209 499 200 442H491V387H195Z" glyph-name="Euro" horiz-adv-x="697" unicode="€" /><glyph d="M28 222Q41 230 54 238.5Q67 247 77.5 254.5Q88 262 96 267.5Q104 273 106 274V537Q106 618 139 664Q172 710 241 710Q298 710 329.5 672Q361 634 361 569Q361 521 347 478Q333 435 309 398Q285 361 253.5 329Q222 297 188 271V149Q188 113 195 91Q202 69 212.5 57Q223 45 236.5 41Q250 37 263 37Q289 37 311 54.5Q333 72 339 110L384 95Q377 61 361.5 40.5Q346 20 327.5 8.5Q309 -3 290.5 -6.5Q272 -10 258 -10Q224 -10 196 -0.5Q168 9 148 31Q128 53 117 89.5Q106 126 106 181V219Q100 214 82.5 203Q65 192 51 182ZM188 327Q228 361 252.5 393.5Q277 426 290.5 457.5Q304 489 308.5 518Q313 547 313 573Q313 611 296.5 634.5Q280 658 250 658Q230 658 218 648.5Q206 639 199 624Q192 609 190 590Q188 571 188 552Z" glyph-name="afii61289" horiz-adv-x="451" unicode="ℓ" /><glyph d="M383 700 383 582H347L329 657H246V376H303V333H122V376H178V657H96L78 582H41V700ZM746 333 746 376H805V616L691 402H653L549 614V376H604V333H447V376H501V657H447V700H583L688 482L801 700H927V657H873V376H927V333Z" glyph-name="trademark" horiz-adv-x="985" unicode="™" /><glyph d="M376 711Q440 711 499.5 694.5Q559 678 605 643Q651 608 678.5 553.5Q706 499 706 423Q706 377 690.5 335Q675 293 645.5 259.5Q616 226 574.5 204.5Q533 183 480 177V72H600L630 149H660V0H433V207Q472 215 506 230Q540 245 564.5 272Q589 299 603 340.5Q617 382 617 441Q617 490 601.5 532Q586 574 555.5 604.5Q525 635 480 652.5Q435 670 376 670Q317 670 272.5 652.5Q228 635 198 604.5Q168 574 152.5 532Q137 490 137 441Q137 382 151 340.5Q165 299 189.5 272Q214 245 247.5 230Q281 215 320 207V0H93V149H123L153 72H273V177Q221 183 179 204.5Q137 226 107.5 259.5Q78 293 62.5 335Q47 377 47 423Q47 499 74.5 553.5Q102 608 148 643Q194 678 253 694.5Q312 711 376 711Z" glyph-name="Omega" horiz-adv-x="754" unicode="Ω" /><glyph d="M186 159Q186 125 215 97.5Q244 70 285 50.5Q326 31 371.5 20.5Q417 10 450 10Q532 10 601 44.5Q670 79 721 136H781Q724 66 640 27Q556 -12 450 -12Q364 -12 287.5 17.5Q211 47 154 98.5Q97 150 63.5 219Q30 288 30 367Q30 444 63.5 512.5Q97 581 154 632Q211 683 287.5 712.5Q364 742 450 742Q539 742 616 712Q693 682 750 629.5Q807 577 839.5 507.5Q872 438 872 358H196Q186 358 186 346ZM705 377Q715 377 715 386V574Q715 586 710 599.5Q705 613 697 624Q646 672 583.5 697.5Q521 723 450 723Q378 723 318 697.5Q258 672 206 624Q198 613 192 599.5Q186 586 186 574V386Q186 377 196 377Z" glyph-name="estimated" horiz-adv-x="896" unicode="℮" /><glyph d="M773 230Q838 230 868.5 248Q899 266 899 309Q899 333 882 349Q865 365 827 365Q820 365 810.5 364.5Q801 364 792 363Q782 362 771 361L757 304H723L719 384Q738 389 760 393Q779 396 801 398.5Q823 401 846 401Q867 401 887.5 397Q908 393 925 383.5Q942 374 952.5 357.5Q963 341 963 317Q963 282 937 257.5Q911 233 871 223Q923 221 950.5 193.5Q978 166 978 124Q978 101 967 77.5Q956 54 935 35.5Q914 17 883 5Q852 -7 811 -7Q771 -7 745.5 -1.5Q720 4 709 8V88H746L760 30Q762 30 776 28.5Q790 27 801 27Q855 27 883.5 50Q912 73 912 115Q912 152 887.5 168Q863 184 822 184Q811 184 795.5 182.5Q780 181 766 180ZM871 685 237 -13Q229 -6 220.5 0.5Q212 7 204 15L840 712ZM96 301 96 340L181 345V640L101 619V656L211 698H244V345L326 340V301Z" glyph-name="onethird" horiz-adv-x="1075" unicode="⅓" /><glyph d="M344 301 79 301V340L204 468Q236 500 252.5 533Q269 566 269 598Q269 618 262.5 630.5Q256 643 245.5 650.5Q235 658 221.5 660.5Q208 663 194 663Q183 663 174 662Q165 661 159 661Q151 659 144 658L135 585H98L92 684Q107 689 126 693Q143 696 164.5 698.5Q186 701 214 701Q277 701 308.5 674Q340 647 340 610Q340 576 323.5 547Q307 518 279 491L142 355H296L317 407H348ZM773 230Q838 230 868.5 248Q899 266 899 309Q899 333 882 349Q865 365 827 365Q820 365 810.5 364.5Q801 364 792 363Q782 362 771 361L757 304H723L719 384Q738 389 760 393Q779 396 801 398.5Q823 401 846 401Q867 401 887.5 397Q908 393 925 383.5Q942 374 952.5 357.5Q963 341 963 317Q963 282 937 257.5Q911 233 871 223Q923 221 950.5 193.5Q978 166 978 124Q978 101 967 77.5Q956 54 935 35.5Q914 17 883 5Q852 -7 811 -7Q771 -7 745.5 -1.5Q720 4 709 8V88H746L760 30Q762 30 776 28.5Q790 27 801 27Q855 27 883.5 50Q912 73 912 115Q912 152 887.5 168Q863 184 822 184Q811 184 795.5 182.5Q780 181 766 180ZM871 685 237 -13Q229 -6 220.5 0.5Q212 7 204 15L840 712Z" glyph-name="twothirds" horiz-adv-x="1075" unicode="⅔" /><glyph d="M978 105Q978 57 940 25Q902 -7 833 -7Q762 -7 727 24.5Q692 56 692 99Q692 139 716 164Q740 189 778 202Q743 220 726 246Q709 272 709 298Q709 324 719.5 343Q730 362 748 375.5Q766 389 790 395.5Q814 402 840 402Q864 402 886 396Q908 390 925 378Q942 366 952.5 348Q963 330 963 306Q963 288 956 273.5Q949 259 938 248Q927 237 913 229Q899 221 885 215Q978 178 978 105ZM917 94Q917 125 886 145.5Q855 166 807 186Q754 157 754 103Q754 69 775.5 47.5Q797 26 838 26Q870 26 893.5 42.5Q917 59 917 94ZM773 312Q773 289 791.5 270Q810 251 855 232Q881 243 895.5 264Q910 285 910 309Q910 334 892.5 351.5Q875 369 838 369Q805 369 789 352Q773 335 773 312ZM871 685 237 -13Q229 -6 220.5 0.5Q212 7 204 15L840 712ZM96 301 96 340L181 345V640L101 619V656L211 698H244V345L326 340V301Z" glyph-name="oneeighth" horiz-adv-x="1075" unicode="⅛" /><glyph d="M162 531Q227 531 257.5 549Q288 567 288 610Q288 634 271 650Q254 666 216 666Q209 666 199.5 665.5Q190 665 181 664Q171 663 160 662L146 605H112L108 685Q127 690 149 694Q168 697 190 699.5Q212 702 235 702Q256 702 276.5 698Q297 694 314 684.5Q331 675 341.5 658.5Q352 642 352 618Q352 583 326 558.5Q300 534 260 524Q312 522 339.5 494.5Q367 467 367 425Q367 402 356 378.5Q345 355 324 336.5Q303 318 272 306Q241 294 200 294Q160 294 134.5 299.5Q109 305 98 309V389H135L149 331Q151 331 165 329.5Q179 328 190 328Q244 328 272.5 351Q301 374 301 416Q301 453 276.5 469Q252 485 211 485Q200 485 184.5 483.5Q169 482 155 481ZM871 685 237 -13Q229 -6 220.5 0.5Q212 7 204 15L840 712ZM978 105Q978 57 940 25Q902 -7 833 -7Q762 -7 727 24.5Q692 56 692 99Q692 139 716 164Q740 189 778 202Q743 220 726 246Q709 272 709 298Q709 324 719.5 343Q730 362 748 375.5Q766 389 790 395.5Q814 402 840 402Q864 402 886 396Q908 390 925 378Q942 366 952.5 348Q963 330 963 306Q963 288 956 273.5Q949 259 938 248Q927 237 913 229Q899 221 885 215Q978 178 978 105ZM917 94Q917 125 886 145.5Q855 166 807 186Q754 157 754 103Q754 69 775.5 47.5Q797 26 838 26Q870 26 893.5 42.5Q917 59 917 94ZM773 312Q773 289 791.5 270Q810 251 855 232Q881 243 895.5 264Q910 285 910 309Q910 334 892.5 351.5Q875 369 838 369Q805 369 789 352Q773 335 773 312Z" glyph-name="threeeighths" horiz-adv-x="1075" unicode="⅜" /><glyph d="M186 555Q216 555 247.5 549Q279 543 304 528.5Q329 514 345 489.5Q361 465 361 427Q361 398 349 373.5Q337 349 315 331.5Q293 314 262.5 304Q232 294 195 294Q174 294 149 296Q124 298 100 304L101 393H138L151 332Q161 330 174 329Q187 328 196 328Q250 328 277 353.5Q304 379 304 416Q304 442 292 457.5Q280 473 261 482Q242 491 218.5 494Q195 497 172 497Q158 497 143.5 496.5Q129 496 115 495L121 694H352L350 641H156L154 555ZM871 685 237 -13Q229 -6 220.5 0.5Q212 7 204 15L840 712ZM978 105Q978 57 940 25Q902 -7 833 -7Q762 -7 727 24.5Q692 56 692 99Q692 139 716 164Q740 189 778 202Q743 220 726 246Q709 272 709 298Q709 324 719.5 343Q730 362 748 375.5Q766 389 790 395.5Q814 402 840 402Q864 402 886 396Q908 390 925 378Q942 366 952.5 348Q963 330 963 306Q963 288 956 273.5Q949 259 938 248Q927 237 913 229Q899 221 885 215Q978 178 978 105ZM917 94Q917 125 886 145.5Q855 166 807 186Q754 157 754 103Q754 69 775.5 47.5Q797 26 838 26Q870 26 893.5 42.5Q917 59 917 94ZM773 312Q773 289 791.5 270Q810 251 855 232Q881 243 895.5 264Q910 285 910 309Q910 334 892.5 351.5Q875 369 838 369Q805 369 789 352Q773 335 773 312Z" glyph-name="fiveeighths" horiz-adv-x="1075" unicode="⅝" /><glyph d="M978 105Q978 57 940 25Q902 -7 833 -7Q762 -7 727 24.5Q692 56 692 99Q692 139 716 164Q740 189 778 202Q743 220 726 246Q709 272 709 298Q709 324 719.5 343Q730 362 748 375.5Q766 389 790 395.5Q814 402 840 402Q864 402 886 396Q908 390 925 378Q942 366 952.5 348Q963 330 963 306Q963 288 956 273.5Q949 259 938 248Q927 237 913 229Q899 221 885 215Q978 178 978 105ZM917 94Q917 125 886 145.5Q855 166 807 186Q754 157 754 103Q754 69 775.5 47.5Q797 26 838 26Q870 26 893.5 42.5Q917 59 917 94ZM773 312Q773 289 791.5 270Q810 251 855 232Q881 243 895.5 264Q910 285 910 309Q910 334 892.5 351.5Q875 369 838 369Q805 369 789 352Q773 335 773 312ZM232 301 159 301L345 640H170L156 573H118L117 694H394V661ZM871 685 237 -13Q229 -6 220.5 0.5Q212 7 204 15L840 712Z" glyph-name="seveneighths" horiz-adv-x="1075" unicode="⅞" /><glyph d="M39 236Q39 291 55 336.5Q71 382 99.5 415Q128 448 167.5 466Q207 484 255 484Q284 484 313 476Q342 468 365 452Q345 505 309 552Q273 599 235.5 636.5Q198 674 165.5 700Q133 726 121 735L175 745Q176 745 199 733Q222 721 256.5 696Q291 671 331 631.5Q371 592 405 536.5Q439 481 462 409Q485 337 485 247Q485 193 469.5 146.5Q454 100 425 65Q396 30 354 10Q312 -10 259 -10Q209 -10 168 8.5Q127 27 98.5 59.5Q70 92 54.5 137Q39 182 39 236ZM395 261Q395 348 359.5 393.5Q324 439 262 439Q199 439 163.5 393.5Q128 348 128 262V210Q128 123 163.5 78.5Q199 34 262 34Q324 34 359.5 78Q395 122 395 209Z" glyph-name="partialdiff" horiz-adv-x="532" unicode="∂" /><glyph d="M30 0 30 41L333 701H408L701 42V0ZM91 48 600 48L350 622Z" glyph-name="Delta" horiz-adv-x="733" unicode="∆" /><glyph d="M239 648 239 -198H355V-250H36V-198H152V648H36V700H801V648H685V-198H801V-250H482V-198H598V648Z" glyph-name="product" horiz-adv-x="837" unicode="∏" /><glyph d="M101 -202 530 -196L591 -76H630L611 -250H27V-217L335 213L27 669V700H591L597 539H558L500 649L146 654L421 246Z" glyph-name="summation" horiz-adv-x="657" unicode="∑" /><glyph d="M75 301 75 359H434V301Z" glyph-name="minus" horiz-adv-x="509" unicode="−" /><glyph d="M465 685 -169 -13Q-177 -6 -185.5 0.5Q-194 7 -202 15L434 712Z" glyph-name="uni2215" horiz-adv-x="263" unicode="∕" /><glyph d="M82 297 82 427H191V297Z" glyph-name="uni2219" horiz-adv-x="273" unicode="∙" /><glyph d="M667 768 338 -250H257L69 272H4V317H236V272H164L315 -164L605 768Z" glyph-name="radical" horiz-adv-x="648" unicode="√" /><glyph d="M246 199Q284 199 312.5 211.5Q341 224 362.5 243Q384 262 398.5 284.5Q413 307 421 326Q403 359 384 390.5Q365 422 343 446.5Q321 471 294.5 486Q268 501 234 501Q201 501 176.5 488.5Q152 476 135.5 455.5Q119 435 110.5 408Q102 381 102 351Q102 319 111.5 291.5Q121 264 139.5 243.5Q158 223 185 211Q212 199 246 199ZM463 407Q474 439 492 467.5Q510 496 534.5 518Q559 540 590.5 553Q622 566 658 566Q702 566 736.5 548.5Q771 531 794.5 502Q818 473 830.5 436Q843 399 843 360Q843 314 830 273.5Q817 233 791.5 202.5Q766 172 729 154Q692 136 643 136Q606 136 576.5 148Q547 160 522 181Q497 202 476.5 231.5Q456 261 438 295Q427 264 408.5 235.5Q390 207 365.5 185Q341 163 309.5 150Q278 137 242 137Q198 137 164 154.5Q130 172 106.5 201Q83 230 70.5 267Q58 304 58 343Q58 389 71 429.5Q84 470 109 500.5Q134 531 171 549Q208 567 257 567Q294 567 324 555Q354 543 378.5 521.5Q403 500 424 471Q445 442 463 407ZM654 504Q617 504 588 491.5Q559 479 538 460Q517 441 502.5 419Q488 397 480 377Q498 343 517 311.5Q536 280 558 255.5Q580 231 606.5 216Q633 201 667 201Q699 201 723.5 213.5Q748 226 764.5 247Q781 268 789.5 295Q798 322 798 351Q798 383 788.5 411Q779 439 760.5 459.5Q742 480 715 492Q688 504 654 504Z" glyph-name="infinity" horiz-adv-x="901" unicode="∞" /><glyph d="M204 -99Q194 -176 146 -212.5Q98 -249 23 -249Q5 -249 -10.5 -248Q-26 -247 -38 -247Q-51 -245 -63 -244L-67 -130L-29 -123L-2 -204Q3 -205 12 -205Q21 -205 26 -205Q55 -205 73 -196Q91 -187 101.5 -173Q112 -159 117 -140.5Q122 -122 124 -103L209 592Q218 669 266 705.5Q314 742 391 742Q409 742 424.5 741Q440 740 452 740Q466 738 478 737L481 623L443 616L415 697Q410 698 401.5 698Q393 698 388 698Q359 698 341 689.5Q323 681 312.5 666.5Q302 652 297.5 633.5Q293 615 290 594Z" glyph-name="integral" horiz-adv-x="477" unicode="∫" /><glyph d="M364 384Q347 384 314 392Q281 400 246.5 409Q212 418 182.5 426Q153 434 142 434Q122 434 114 420.5Q106 407 106 381H66Q66 440 89 471Q112 502 152 502Q170 502 202.5 494Q235 486 269.5 477Q304 468 335 460Q366 452 380 452Q400 452 407.5 465.5Q415 479 415 505H453Q453 445 428.5 414.5Q404 384 364 384ZM364 207Q347 207 314 215Q281 223 246.5 232Q212 241 182.5 249Q153 257 142 257Q122 257 114 243.5Q106 230 106 204H66Q66 263 89 294Q112 325 152 325Q170 325 202.5 317Q235 309 269.5 300Q304 291 335 283Q366 275 380 275Q400 275 407.5 288.5Q415 302 415 328H453Q453 268 428.5 237.5Q404 207 364 207Z" glyph-name="approxequal" horiz-adv-x="514" unicode="≈" /><glyph d="M266 386 230 284H406V226H209L139 30H86L156 226H47V284H177L213 386H47V444H234L306 647H359L287 444H406V386Z" glyph-name="notequal" horiz-adv-x="451" unicode="≠" /><glyph d="M48 395 48 399L332 634H405L158 393L405 160H332ZM48 0 48 58H415V0Z" glyph-name="lessequal" horiz-adv-x="466" unicode="≤" /><glyph d="M51 0 51 58H418V0ZM135 160 61 160L309 393L61 634H135L418 399V395Z" glyph-name="greaterequal" horiz-adv-x="466" unicode="≥" /><glyph d="M472 230 285 642L97 230L285 -191ZM251 -250 34 231L251 700H319L536 230L319 -250Z" glyph-name="lozenge" horiz-adv-x="569" unicode="◊" /><glyph d="M1058 734Q1106 684 1132.5 615.5Q1159 547 1159 473Q1159 363 1110.5 265Q1062 167 986 85.5Q910 4 816.5 -59Q723 -122 634 -162Q618 -170 603 -170Q588 -170 572 -162Q479 -120 385.5 -55.5Q292 9 217.5 91Q143 173 96.5 270.5Q50 368 50 475Q50 550 77 618.5Q104 687 152 737Q198 784 258.5 807Q319 830 387 830Q454 830 509.5 806Q565 782 609 744Q703 828 826 828Q893 828 953 804.5Q1013 781 1058 734ZM1115 474Q1115 541 1090.5 602Q1066 663 1021 708Q939 787 823 787Q757 787 702.5 762.5Q648 738 605 700Q555 743 500 765.5Q445 788 384 788Q270 788 189 710Q144 665 119 603.5Q94 542 94 473Q94 400 119 331.5Q144 263 184 205Q216 157 258.5 112Q301 67 355 25Q400 -11 442 -38.5Q484 -66 517 -85Q550 -104 571 -113.5Q592 -123 594 -124Q603 -128 612 -124Q614 -123 635 -113.5Q656 -104 689.5 -85Q723 -66 765.5 -39Q808 -12 853 24Q959 107 1024 203Q1067 266 1091 334.5Q1115 403 1115 474ZM823 751Q926 751 995 682Q1035 643 1056.5 588Q1078 533 1078 473Q1078 402 1053.5 339Q1029 276 994 223Q932 134 830 53Q792 23 755 -1.5Q718 -26 687.5 -44Q657 -62 634.5 -74Q612 -86 603 -90Q594 -86 571.5 -74Q549 -62 518.5 -44Q488 -26 451.5 -1Q415 24 377 54Q274 136 214 226Q175 283 153 346.5Q131 410 131 474Q131 535 153 590Q175 645 215 684Q286 752 387 752Q444 752 492.5 729.5Q541 707 579 675Q553 647 528 614Q503 581 480 540Q455 495 434.5 449.5Q414 404 399 361.5Q384 319 373.5 283Q363 247 357 221L307 231Q300 233 294 229Q288 225 286 218Q284 211 288 205.5Q292 200 300 198L435 169Q442 167 447.5 171Q453 175 455 182Q457 190 453 195.5Q449 201 442 203L394 213Q399 234 407.5 264.5Q416 295 428.5 331Q441 367 457 407Q473 447 494 487Q519 478 546.5 473Q574 468 603 468Q663 468 715 488Q735 449 751 409Q767 369 779 333Q791 297 799.5 266Q808 235 813 212L765 202Q758 200 754 194.5Q750 189 751 182Q753 174 759 170Q765 166 772 168L907 196Q914 198 918 203.5Q922 209 920 216Q919 224 913 228Q907 232 900 230L851 220Q851 221 850.5 221.5Q850 222 850 223Q844 249 833.5 285Q823 321 808 363.5Q793 406 773 452Q753 498 727 543Q684 621 632 674Q674 710 722 730.5Q770 751 823 751ZM752 97Q752 105 747 110Q742 115 734 115H555Q581 129 611 147Q641 165 667 188Q693 211 710.5 240Q728 269 728 304Q728 327 720 349Q712 371 696.5 388.5Q681 406 658 417Q635 428 605 428Q578 428 554 419.5Q530 411 512 396Q494 381 484 359.5Q474 338 474 312Q474 295 480 278.5Q486 262 497.5 248.5Q509 235 525 227Q541 219 561 219Q574 219 588 223Q602 227 613 236Q624 245 631.5 259Q639 273 639 292Q639 318 626 327Q613 336 603 336Q589 336 579.5 326.5Q570 317 570 304Q570 287 585 277Q587 275 583 265Q579 255 559 255Q536 255 524 274.5Q512 294 512 313Q512 349 537 371Q562 393 603 393Q646 393 667 365.5Q688 338 688 305Q688 283 678.5 263Q669 243 653 226Q637 209 618 194Q599 179 579 166Q541 142 511.5 127.5Q482 113 479 110Q471 100 475 90Q480 79 492 79H733Q752 79 752 97ZM822 545Q833 523 857 515Q886 507 912 522Q938 536 947 562Q956 588 944 611L911 678Q908 686 900 687.5Q892 689 886 686L751 612Q744 608 742 601Q740 594 744 587Q748 580 755 578Q762 576 769 580L796 595ZM996 492Q993 499 986 502Q978 504 972 501L843 439Q827 430 834 415L881 310Q888 294 904 301Q912 304 914.5 311Q917 318 914 324L874 414L907 429L922 396Q925 389 932 386.5Q939 384 946 387Q962 394 955 411L940 445L971 460L1003 388Q1006 381 1013 378.5Q1020 376 1027 379Q1034 382 1036.5 389Q1039 396 1036 403ZM603 506Q555 506 511 520Q531 555 554.5 588.5Q578 622 605 650Q630 624 653 591Q676 558 698 521Q655 506 603 506ZM259 575Q251 573 247 567Q243 561 245 553Q247 545 253 541Q259 537 267 539L371 562L380 540Q373 531 373 522Q373 511 380.5 503.5Q388 496 399 496Q410 496 416 504Q424 511 423.5 520.5Q423 530 420 538L357 697Q354 704 347.5 707Q341 710 333 707Q326 704 323 697.5Q320 691 323 683L357 597ZM231 412 345 372Q353 369 359.5 372Q366 375 368 383Q371 390 368 397Q365 404 357 406L242 447L257 494Q259 502 256 508.5Q253 515 245 517Q238 519 231 516Q224 513 222 505L179 373Q177 366 180 359Q183 352 191 350Q199 348 205.5 351Q212 354 214 362ZM828 613 887 645L912 595Q918 583 912 571Q906 559 895 553Q884 548 872 549Q860 550 854 561ZM571 3Q571 -11 580 -20.5Q589 -30 603 -30Q617 -30 626 -20Q635 -10 635 2Q635 16 626 25.5Q617 35 603 35Q589 35 580 25.5Q571 16 571 3ZM426 655Q426 641 435 631.5Q444 622 458 622Q472 622 481 632Q490 642 490 654Q490 668 481 677.5Q472 687 458 687Q444 687 435 677.5Q426 668 426 655Z" glyph-name="apple" horiz-adv-x="1209" unicode="" /><glyph d="M192 429 192 45H284V0H36V45H113V429H50V474H113V576Q113 658 152.5 700Q192 742 276 742Q284 742 300 741.5Q316 741 322 739Q321 737 317 720.5Q313 704 311 693Q306 694 297 694Q288 694 283 694Q253 694 235 683Q217 672 207.5 655.5Q198 639 195 618.5Q192 598 192 579V474H418V576Q418 658 457.5 700Q497 742 581 742Q589 742 605 741.5Q621 741 627 739Q626 737 622 720.5Q618 704 616 693Q611 694 602 694Q593 694 588 694Q558 694 540 683Q522 672 512.5 655.5Q503 639 500 618.5Q497 598 497 579V474H723V592Q723 669 767 708Q811 747 887 747Q905 747 921.5 746Q938 745 951 745Q966 743 979 742L993 628L956 621L921 699Q915 700 906.5 700Q898 700 893 700Q863 700 845 691Q827 682 817.5 667.5Q808 653 805 634.5Q802 616 802 596V474H906L901 429H802V45H894V0H646V45H723V429H497V45H589V0H341V45H418V429Z" glyph-name="f_f_f" horiz-adv-x="939" unicode="" /><glyph d="M802 474 797 429H664V121Q664 84 676.5 67.5Q689 51 717 51Q743 51 772.5 58Q802 65 817 73V35Q798 24 776 15Q756 7 732 1Q708 -5 682 -5Q649 -5 630 5.5Q611 16 601 33Q591 50 588 71Q585 92 585 114V429H498V470L586 483Q586 531 585.5 579Q585 627 585 675H406Q384 675 362.5 672.5Q341 670 325 662Q309 654 299 637.5Q289 621 289 594Q289 568 293.5 548Q298 528 300 523L258 522Q253 529 243 554Q233 579 233 606Q233 645 247.5 667.5Q262 690 286 701.5Q310 713 340.5 716Q371 719 404 719Q447 719 490 718.5Q533 718 569 717Q605 716 631.5 715.5Q658 715 667 715Q666 675 666 633Q665 594 664.5 553Q664 512 664 474ZM433 21Q393 3 346 -3.5Q299 -10 267 -10Q212 -10 170.5 9Q129 28 101.5 61.5Q74 95 60.5 139.5Q47 184 47 235Q47 289 62 334.5Q77 380 105.5 413Q134 446 175 465Q216 484 268 484Q292 484 316.5 481.5Q341 479 362 475Q383 471 398.5 468Q414 465 419 463L414 346H369L350 429Q341 431 330 433Q319 434 306.5 435Q294 436 279 436Q207 436 171 391.5Q135 347 135 261V214Q135 128 175.5 82.5Q216 37 293 37Q303 37 316 38.5Q329 40 341 42Q355 44 369 47L401 143H445Z" glyph-name="ct" horiz-adv-x="837" unicode="" /><glyph d="M38 0 38 45H130V429H43V474H209V45H294V0ZM122 580 122 694H214V580Z" glyph-name="i.locl" horiz-adv-x="313" unicode="" /><glyph d="M362 -39 404 611L73 372V439L420 730H425L773 439V372L442 612L464 -39Z" glyph-name="arrow.up" horiz-adv-x="850" unicode="" /><glyph d="M464 730 442 79L773 319V252L425 -39H420L73 252V319L404 80L362 730Z" glyph-name="arrow.down" horiz-adv-x="850" unicode="" /><glyph d="M652 30 222 520L157 117L109 164L149 615L153 619L604 659L652 612L248 547L724 103Z" glyph-name="arrowup.left" horiz-adv-x="850" unicode="" /><glyph d="M109 103 585 547L181 612L229 659L680 619L684 615L724 164L676 117L611 520L181 30Z" glyph-name="arrowup.right" horiz-adv-x="850" unicode="" /><glyph d="M724 586 248 142L652 77L604 30L153 70L149 74L109 525L157 572L222 169L652 659Z" glyph-name="arrowdown.left" horiz-adv-x="850" unicode="" /><glyph d="M181 659 611 169L676 572L724 525L684 74L680 70L229 30L181 77L585 142L109 586Z" glyph-name="arrowdown.right" horiz-adv-x="850" unicode="" /><glyph d="M598 365Q598 412 587 450Q576 488 556 515.5Q536 543 508 558Q480 573 445 573Q410 573 381.5 558Q353 543 333 515.5Q313 488 302 450Q291 412 291 365V335Q291 289 302 250.5Q313 212 333 184.5Q353 157 381.5 142Q410 127 445 127Q480 127 508 142Q536 157 556 184.5Q576 212 587 250.5Q598 289 598 335ZM522 330Q522 302 519.5 272.5Q517 243 508.5 219Q500 195 485 180Q470 165 445 165Q420 165 404.5 180Q389 195 381 219Q373 243 370.5 272.5Q368 302 368 330V370Q368 398 370.5 427.5Q373 457 381 481Q389 505 404.5 520.5Q420 536 445 536Q470 536 485 520.5Q500 505 508.5 481Q517 457 519.5 427.5Q522 398 522 370ZM50 349Q50 431 81 503Q112 575 165.5 628.5Q219 682 291 713Q363 744 445 744Q527 744 599 713Q671 682 724.5 628.5Q778 575 809 503Q840 431 840 349Q840 267 809 195Q778 123 724.5 69.5Q671 16 599 -15Q527 -46 445 -46Q363 -46 291 -15Q219 16 165.5 69.5Q112 123 81 195Q50 267 50 349Z" glyph-name="orn.1" horiz-adv-x="890" unicode="" /><glyph d="M50 349Q50 431 81 503Q112 575 165.5 628.5Q219 682 291 713Q363 744 445 744Q527 744 599 713Q671 682 724.5 628.5Q778 575 809 503Q840 431 840 349Q840 267 809 195Q778 123 724.5 69.5Q671 16 599 -15Q527 -46 445 -46Q363 -46 291 -15Q219 16 165.5 69.5Q112 123 81 195Q50 267 50 349ZM566 145 566 188L478 192V581H442L305 533V493L407 517V192L317 188V145Z" glyph-name="orn.2" horiz-adv-x="890" unicode="" /><glyph d="M50 349Q50 431 81 503Q112 575 165.5 628.5Q219 682 291 713Q363 744 445 744Q527 744 599 713Q671 682 724.5 628.5Q778 575 809 503Q840 431 840 349Q840 267 809 195Q778 123 724.5 69.5Q671 16 599 -15Q527 -46 445 -46Q363 -46 291 -15Q219 16 165.5 69.5Q112 123 81 195Q50 267 50 349ZM590 255 555 255L536 198H369L483 313Q504 334 522.5 353.5Q541 373 555 392.5Q569 412 577 432.5Q585 453 585 477Q585 518 550.5 547Q516 576 447 576Q417 576 392.5 573Q368 570 350 567Q332 564 322 561Q312 558 312 558L316 447H357L366 530Q368 530 385 532.5Q402 535 426 535Q441 535 456 532Q471 529 482.5 521Q494 513 501 499Q508 485 508 464Q508 428 488.5 390.5Q469 353 433 317L299 181V138H590Z" glyph-name="orn.3" horiz-adv-x="890" unicode="" /><glyph d="M50 349Q50 431 81 503Q112 575 165.5 628.5Q219 682 291 713Q363 744 445 744Q527 744 599 713Q671 682 724.5 628.5Q778 575 809 503Q840 431 840 349Q840 267 809 195Q778 123 724.5 69.5Q671 16 599 -15Q527 -46 445 -46Q363 -46 291 -15Q219 16 165.5 69.5Q112 123 81 195Q50 267 50 349ZM359 331Q367 332 388.5 334Q410 336 423 336Q468 336 494.5 318.5Q521 301 521 260Q521 214 491.5 189.5Q462 165 404 165Q398 165 389.5 165.5Q381 166 373 167Q364 167 355 168L341 243H299L300 144Q311 140 341 133.5Q371 127 414 127Q459 127 493 139.5Q527 152 549.5 172Q572 192 583.5 217Q595 242 595 268Q595 315 564.5 346Q534 377 477 380Q520 390 548 417Q576 444 576 482Q576 508 564.5 525.5Q553 543 535 553.5Q517 564 494.5 568.5Q472 573 450 573Q424 573 399.5 570Q375 567 356 564Q333 559 313 554L315 469H352L367 530Q379 531 390 532Q401 533 411 533.5Q421 534 429 534Q471 534 489 516.5Q507 499 507 473Q507 425 471.5 404Q436 383 367 383Z" glyph-name="orn.4" horiz-adv-x="890" unicode="" /><glyph d="M50 349Q50 431 81 503Q112 575 165.5 628.5Q219 682 291 713Q363 744 445 744Q527 744 599 713Q671 682 724.5 628.5Q778 575 809 503Q840 431 840 349Q840 267 809 195Q778 123 724.5 69.5Q671 16 599 -15Q527 -46 445 -46Q363 -46 291 -15Q219 16 165.5 69.5Q112 123 81 195Q50 267 50 349ZM278 315 439 525V315ZM575 273 575 315H505V576H431L239 326V273H439V183H380V144H561V183H505V273Z" glyph-name="orn.5" horiz-adv-x="890" unicode="" /><glyph d="M50 349Q50 431 81 503Q112 575 165.5 628.5Q219 682 291 713Q363 744 445 744Q527 744 599 713Q671 682 724.5 628.5Q778 575 809 503Q840 431 840 349Q840 267 809 195Q778 123 724.5 69.5Q671 16 599 -15Q527 -46 445 -46Q363 -46 291 -15Q219 16 165.5 69.5Q112 123 81 195Q50 267 50 349ZM370 414 370 507H580V565H331L324 347Q354 350 384 350Q409 350 435 346.5Q461 343 482 333.5Q503 324 516 306.5Q529 289 529 261Q529 221 499 193Q469 165 410 165Q400 165 386 166.5Q372 168 361 170L347 248H307V139Q332 133 359 130.5Q386 128 409 128Q449 128 482.5 138.5Q516 149 540 168.5Q564 188 577 214.5Q590 241 590 273Q590 314 572.5 341.5Q555 369 528 385Q501 401 467 407.5Q433 414 400 414Z" glyph-name="orn.6" horiz-adv-x="890" unicode="" /><glyph d="M50 349Q50 431 81 503Q112 575 165.5 628.5Q219 682 291 713Q363 744 445 744Q527 744 599 713Q671 682 724.5 628.5Q778 575 809 503Q840 431 840 349Q840 267 809 195Q778 123 724.5 69.5Q671 16 599 -15Q527 -46 445 -46Q363 -46 291 -15Q219 16 165.5 69.5Q112 123 81 195Q50 267 50 349ZM426 165Q401 165 383.5 175Q366 185 355 200.5Q344 216 339 236Q334 256 334 276Q334 299 341 322.5Q348 346 357 363Q366 365 374.5 366Q383 367 391 367Q442 367 475.5 339Q509 311 509 257Q509 221 489.5 193Q470 165 426 165ZM534 596Q528 595 505.5 584Q483 573 453 554Q423 535 389.5 508Q356 481 328 446.5Q300 412 281.5 371.5Q263 331 263 284Q263 244 277 214Q291 184 313.5 165Q336 146 364.5 136.5Q393 127 422 127Q462 127 492 140Q522 153 541.5 174Q561 195 570.5 220.5Q580 246 580 271Q580 329 537.5 367.5Q495 406 420 406Q408 406 397.5 405Q387 404 375 401Q396 439 425.5 469.5Q455 500 483.5 522.5Q512 545 535 558.5Q558 572 565 576Z" glyph-name="orn.7" horiz-adv-x="890" unicode="" /><glyph d="M50 349Q50 431 81 503Q112 575 165.5 628.5Q219 682 291 713Q363 744 445 744Q527 744 599 713Q671 682 724.5 628.5Q778 575 809 503Q840 431 840 349Q840 267 809 195Q778 123 724.5 69.5Q671 16 599 -15Q527 -46 445 -46Q363 -46 291 -15Q219 16 165.5 69.5Q112 123 81 195Q50 267 50 349ZM601 525 601 562H298L299 430H341L356 503H548L345 135H424Z" glyph-name="orn.8" horiz-adv-x="890" unicode="" /><glyph d="M50 349Q50 431 81 503Q112 575 165.5 628.5Q219 682 291 713Q363 744 445 744Q527 744 599 713Q671 682 724.5 628.5Q778 575 809 503Q840 431 840 349Q840 267 809 195Q778 123 724.5 69.5Q671 16 599 -15Q527 -46 445 -46Q363 -46 291 -15Q219 16 165.5 69.5Q112 123 81 195Q50 267 50 349ZM379 474Q379 501 397 519.5Q415 538 451 538Q490 538 509 519Q528 500 528 473Q528 447 512 424Q496 401 467 388Q419 410 399 429.5Q379 449 379 474ZM534 238Q534 200 508.5 182Q483 164 448 164Q408 164 383 187Q358 210 358 247Q358 280 371.5 302.5Q385 325 413 341Q465 318 499.5 294.5Q534 271 534 238ZM601 251Q601 330 501 369Q533 380 559 404Q585 428 585 469Q585 495 574 515Q563 535 544 548Q525 561 501 567.5Q477 574 451 574Q423 574 397 567Q371 560 351 545.5Q331 531 319.5 510Q308 489 308 461Q308 432 326.5 405Q345 378 383 358Q341 344 314.5 315.5Q288 287 288 242Q288 196 328 161.5Q368 127 444 127Q518 127 559.5 162.5Q601 198 601 251Z" glyph-name="orn.9" horiz-adv-x="890" unicode="" /><glyph d="M50 349Q50 431 81 503Q112 575 165.5 628.5Q219 682 291 713Q363 744 445 744Q527 744 599 713Q671 682 724.5 628.5Q778 575 809 503Q840 431 840 349Q840 267 809 195Q778 123 724.5 69.5Q671 16 599 -15Q527 -46 445 -46Q363 -46 291 -15Q219 16 165.5 69.5Q112 123 81 195Q50 267 50 349ZM447 535Q472 535 489 525Q506 515 517 499.5Q528 484 533 464Q538 444 538 424Q538 401 531.5 377Q525 353 516 336Q498 333 482 333Q431 333 397.5 361.5Q364 390 364 444Q364 480 383 507.5Q402 535 447 535ZM340 104Q346 106 368 116.5Q390 127 420 146Q450 165 483.5 192Q517 219 545 253.5Q573 288 591.5 328.5Q610 369 610 416Q610 457 596 486.5Q582 516 559.5 535Q537 554 508.5 563.5Q480 573 451 573Q411 573 381 560Q351 547 331.5 526.5Q312 506 302.5 480.5Q293 455 293 429Q293 401 304 376Q315 351 335.5 333Q356 315 386 304.5Q416 294 453 294Q465 294 476 295.5Q487 297 498 299Q477 261 447 230Q417 199 388.5 176.5Q360 154 337.5 140.5Q315 127 308 123Z" glyph-name="orn.10" horiz-adv-x="890" unicode="" /><glyph d="M304 700 304 570H195V700ZM159 146Q159 89 187.5 64Q216 39 264 39Q279 39 292 40Q305 41 314 43Q325 45 334 47L350 151H396L398 17Q376 9 351 4Q328 -2 300 -6Q272 -10 240 -10Q194 -10 160.5 2Q127 14 106 34Q85 54 75 79.5Q65 105 65 133Q65 191 88.5 236Q112 281 141.5 321.5Q171 362 198 402.5Q225 443 231 491H276Q276 443 257.5 400.5Q239 358 217.5 316.5Q196 275 177.5 233Q159 191 159 146Z" glyph-name="questiondown.alt" horiz-adv-x="421" unicode="" /><glyph d="M82 -10 96 335L111 489H155L170 335L184 -10ZM188 700 188 570H78V700Z" glyph-name="exclamdown.alt" horiz-adv-x="266" unicode="" /><glyph d="M66 325 66 377H333V325Z" glyph-name="hyphen.alt" horiz-adv-x="399" unicode="" /><glyph d="M66 325 66 377H500V325Z" glyph-name="endash.alt" horiz-adv-x="566" unicode="" /><glyph d="M66 325 66 377H840V325Z" glyph-name="emdash.alt" horiz-adv-x="906" unicode="" /><glyph d="M201 349 201 353L352 588H413L291 351L413 114H352ZM25 349 25 353L176 588H237L114 351L237 114H176Z" glyph-name="guillemotleft.alt" horiz-adv-x="457" unicode="" /><glyph d="M281 114 220 114L343 351L220 588H281L432 353V349ZM105 114 44 114L166 351L44 588H105L256 353V349Z" glyph-name="guillemotright.alt" horiz-adv-x="457" unicode="" /><glyph d="M25 349 25 353L176 588H237L114 351L237 114H176Z" glyph-name="guilsinglleft.alt" horiz-adv-x="281" unicode="" /><glyph d="M105 114 44 114L166 351L44 588H105L256 353V349Z" glyph-name="guilsinglright.alt" horiz-adv-x="281" unicode="" /><glyph d="M587 176Q532 136 495.5 120Q459 104 425 104Q368 104 333 137Q298 170 298 221Q298 258 312.5 282.5Q327 307 352 322.5Q377 338 411.5 346.5Q446 355 485 361L584 376V463Q584 479 579 494Q574 509 562.5 521Q551 533 532 540Q513 547 485 547Q469 547 453.5 545.5Q438 544 426 542Q412 539 400 536L382 437H332L330 555Q379 574 428 586Q477 598 523 598Q550 598 575 591Q600 584 620 569Q640 554 652 530.5Q664 507 664 474V210Q664 191 668.5 179.5Q673 168 680 162Q687 156 695.5 154Q704 152 712 152Q756 152 785.5 175Q815 198 833 235Q851 272 858.5 317.5Q866 363 866 408Q866 489 839.5 552.5Q813 616 765.5 660Q718 704 652.5 727.5Q587 751 508 751Q417 751 345 722Q273 693 222.5 640Q172 587 145 513Q118 439 118 349Q118 255 146.5 181Q175 107 227 55.5Q279 4 352 -23Q425 -50 514 -50Q554 -50 597.5 -45Q641 -40 683 -29.5Q725 -19 764 -3.5Q803 12 835 33V-9Q755 -56 675.5 -79Q596 -102 498 -102Q410 -102 328 -74Q246 -46 183 9.5Q120 65 82 148.5Q44 232 44 344Q44 445 78.5 528Q113 611 175 670.5Q237 730 323 763Q409 796 512 796Q617 796 696.5 762.5Q776 729 828.5 674.5Q881 620 907.5 551.5Q934 483 934 413Q934 352 919 296.5Q904 241 873 198Q842 155 796.5 129.5Q751 104 689 104Q637 104 614.5 126Q592 148 587 176ZM467 310Q417 299 399.5 282Q382 265 382 230V225Q382 201 396.5 181.5Q411 162 449 162Q475 162 505.5 172.5Q536 183 584 212V337Z" glyph-name="at.alt" horiz-adv-x="981" unicode="" /><glyph d="M347 705 130 530L80 540L242 712ZM533 705 316 530L266 540L428 712Z" glyph-name="hungarumlaut.cap" horiz-adv-x="613" unicode="" /><glyph d="M210 530 80 705L130 715L239 587L348 715L398 705L268 530Z" glyph-name="caron.cap" horiz-adv-x="478" unicode="" /><glyph d="M80 558 80 615H354V558Z" glyph-name="macron.cap" horiz-adv-x="434" unicode="" /><glyph d="M248 554 248 666H334V554ZM80 554 80 666H166V554Z" glyph-name="dieresis.cap" horiz-adv-x="414" unicode="" /><glyph d="M80 567 80 680H189V567Z" glyph-name="dotaccent.cap" horiz-adv-x="269" unicode="" /><glyph d="M268 715 398 540L348 530L239 658L130 530L80 540L210 715Z" glyph-name="circumflex.cap" horiz-adv-x="478" unicode="" /><glyph d="M347 705 130 530L80 540L242 712Z" glyph-name="acute.cap" horiz-adv-x="427" unicode="" /><glyph d="M347 540 297 530L80 705L185 712Z" glyph-name="grave.cap" horiz-adv-x="427" unicode="" /><glyph d="M210 530 80 705L130 715L239 587L348 715L398 705L268 530Z" glyph-name="caron.alt" horiz-adv-x="478" unicode="" /><glyph d="M51 445 168 700H218L148 412H51Z" glyph-name="revcommaaccent" horiz-adv-x="252" unicode="" /><glyph d="M191 -119 74 -370H24L94 -82H191Z" glyph-name="commaaccent" horiz-adv-x="261" unicode="" /><glyph d="M205 596Q239 596 257.5 617.5Q276 639 276 688H330Q330 619 296 580Q262 541 205 541Q148 541 114 580Q80 619 80 688H134Q134 639 152.5 617.5Q171 596 205 596Z" glyph-name="breve.cap" horiz-adv-x="410" unicode="" /><glyph d="M191 -119 74 -370H24L94 -82H191Z" glyph-name="commaaccent.cap" horiz-adv-x="261" unicode="" /><glyph d="M280 -10Q231 -10 189.5 9Q148 28 118 64Q88 100 71 152.5Q54 205 54 271V278Q54 344 71 396Q88 448 118 484Q148 520 189.5 539Q231 558 280 558Q329 558 370 539Q411 520 441 484Q471 448 488 396Q505 344 505 278V271Q505 205 488 152.5Q471 100 441 64Q411 28 370 9Q329 -10 280 -10ZM280 515Q238 515 212.5 496Q187 477 173 444Q159 411 154 366.5Q149 322 149 270Q149 220 154.5 176.5Q160 133 174 101Q188 69 213.5 51Q239 33 280 33Q321 33 346 51Q371 69 385.5 101Q400 133 405.5 176.5Q411 220 411 270Q411 322 406 366.5Q401 411 387 444Q373 477 347.5 496Q322 515 280 515Z" glyph-name="zero.tosf" horiz-adv-x="560" unicode="" /><glyph d="M100 0 100 51L239 58V478L109 432V482L283 557H324V58L459 51V0Z" glyph-name="one.tosf" horiz-adv-x="560" unicode="" /><glyph d="M491 160Q489 119 487.5 79.5Q486 40 484 0H68V58Q103 88 139 116Q175 144 210 173L263 217Q314 260 346 303Q378 346 378 391Q378 428 367.5 451.5Q357 475 339 488.5Q321 502 297.5 507.5Q274 513 248 513Q203 513 179 507Q155 501 153 499L141 379H93L84 532Q108 539 139 545Q166 550 201.5 554Q237 558 281 558Q381 558 428.5 519Q476 480 476 419Q476 388 464.5 361.5Q453 335 434 312Q415 289 390.5 268.5Q366 248 341 228L146 72H418L446 160Z" glyph-name="two.tosf" horiz-adv-x="560" unicode="" /><glyph d="M163 254Q207 254 248 261.5Q289 269 320.5 287Q352 305 370.5 334.5Q389 364 389 408Q389 453 357.5 482.5Q326 512 257 512Q225 512 198 507.5Q171 503 154 499L136 405H89L86 531Q115 539 148 545Q179 551 214 555Q249 559 288 559Q320 559 353.5 552Q387 545 414 528.5Q441 512 458 485Q475 458 475 418Q475 383 461.5 355Q448 327 425 306Q402 285 373 271Q344 257 312 249Q397 243 447 196.5Q497 150 497 73Q497 33 479.5 -7Q462 -47 428 -79.5Q394 -112 343 -132Q292 -152 225 -152Q191 -152 162 -148.5Q133 -145 111 -141Q85 -135 64 -129L63 12H111L133 -100Q138 -101 160.5 -104.5Q183 -108 209 -108Q306 -108 357.5 -63.5Q409 -19 409 61Q409 98 395 122.5Q381 147 358 162Q335 177 305.5 183Q276 189 245 189Q225 189 199.5 187Q174 185 154 182Z" glyph-name="three.tosf" horiz-adv-x="560" unicode="" /><glyph d="M417 78 417 -86H504V-131H246V-86H334V78H37V128L322 558H417V130H522V78ZM334 130 334 501L92 130Z" glyph-name="four.tosf" horiz-adv-x="560" unicode="" /><glyph d="M203 302Q253 302 303.5 291.5Q354 281 395.5 256Q437 231 463 188.5Q489 146 489 83Q489 32 469 -10.5Q449 -53 413 -83.5Q377 -114 327 -130.5Q277 -147 217 -147Q182 -147 143.5 -143.5Q105 -140 70 -130L71 17H117L140 -94Q157 -99 179 -101Q201 -103 219 -103Q267 -103 303.5 -90.5Q340 -78 365 -55.5Q390 -33 402.5 -3Q415 27 415 62Q415 110 393.5 140.5Q372 171 337.5 188.5Q303 206 261.5 212Q220 218 179 218Q160 218 138.5 217Q117 216 97 214L106 550H480V474H150L145 299Q148 299 156 299.5Q164 300 173 300.5Q182 301 190.5 301.5Q199 302 203 302Z" glyph-name="five.tosf" horiz-adv-x="560" unicode="" /><glyph d="M287 35Q324 35 350.5 48Q377 61 394 83Q411 105 419 134.5Q427 164 427 196Q427 240 413 275Q399 310 374 334Q349 358 314.5 370.5Q280 383 239 383Q207 383 171 374Q157 349 145 307.5Q133 266 133 225Q133 189 141.5 155Q150 121 168.5 94Q187 67 216 51Q245 35 287 35ZM498 723Q487 716 449.5 690.5Q412 665 365 625Q318 585 270 532Q222 479 190 416Q210 423 232 426Q254 429 276 429Q332 429 376.5 413Q421 397 451.5 368.5Q482 340 498.5 301.5Q515 263 515 218Q515 177 501 136.5Q487 96 457.5 63.5Q428 31 384 10.5Q340 -10 280 -10Q237 -10 194.5 4.5Q152 19 118.5 50Q85 81 64.5 128Q44 175 44 239Q44 314 72 379.5Q100 445 142.5 499.5Q185 554 236 597.5Q287 641 332.5 671.5Q378 702 412 719Q446 736 454 739Z" glyph-name="six.tosf" horiz-adv-x="560" unicode="" /><glyph d="M228 -137 132 -137L443 475H126L106 354H56L55 550H503V504Z" glyph-name="seven.tosf" horiz-adv-x="560" unicode="" /><glyph d="M513 183Q513 141 496.5 106Q480 71 449.5 45Q419 19 375.5 4.5Q332 -10 278 -10Q221 -10 178 4.5Q135 19 105.5 44Q76 69 61.5 101.5Q47 134 47 171Q47 207 59.5 236.5Q72 266 93.5 289.5Q115 313 143.5 330Q172 347 204 358Q140 387 108 430.5Q76 474 76 526Q76 570 93 603Q110 636 139 658Q168 680 206 691.5Q244 703 286 703Q324 703 359.5 693.5Q395 684 423 663.5Q451 643 468 612.5Q485 582 485 540Q485 506 472 480.5Q459 455 439 436Q419 417 393.5 403.5Q368 390 343 380Q424 348 468.5 300.5Q513 253 513 183ZM432 161Q432 190 421.5 212Q411 234 390.5 253Q370 272 341 288Q312 304 276 321L235 340Q187 313 160 271Q133 229 133 171Q133 108 174.5 70Q216 32 285 32Q312 32 338.5 40Q365 48 386 64Q407 80 419.5 104Q432 128 432 161ZM161 545Q161 518 170.5 498.5Q180 479 199 462.5Q218 446 246.5 430.5Q275 415 312 396Q363 419 390 460Q417 501 417 546Q417 593 384 627.5Q351 662 287 662Q255 662 231.5 652.5Q208 643 192 627Q176 611 168.5 589.5Q161 568 161 545Z" glyph-name="eight.tosf" horiz-adv-x="560" unicode="" /><glyph d="M272 512Q235 512 208.5 499.5Q182 487 165 465.5Q148 444 140 415Q132 386 132 354Q132 310 146 275Q160 240 184.5 215.5Q209 191 243.5 178Q278 165 319 165Q336 165 352.5 167Q369 169 388 173Q402 199 414 240Q426 281 426 323Q426 359 417.5 393Q409 427 390.5 453.5Q372 480 342.5 496Q313 512 272 512ZM62 -176Q73 -169 110 -144Q147 -119 194 -79Q241 -39 289 14.5Q337 68 369 131Q348 125 326 121.5Q304 118 283 118Q227 118 182.5 134.5Q138 151 107.5 180Q77 209 60.5 248Q44 287 44 332Q44 373 58 413.5Q72 454 101 486Q130 518 174 538Q218 558 278 558Q322 558 364 543.5Q406 529 440 498Q474 467 494.5 420.5Q515 374 515 309Q515 234 487 168.5Q459 103 416.5 48.5Q374 -6 323 -49.5Q272 -93 226.5 -123.5Q181 -154 147.5 -171Q114 -188 106 -191Z" glyph-name="nine.tosf" horiz-adv-x="560" unicode="" /><glyph d="M280 -10Q231 -10 189.5 9Q148 28 118 64Q88 100 71 152.5Q54 205 54 271V278Q54 344 71 396Q88 448 118 484Q148 520 189.5 539Q231 558 280 558Q329 558 370 539Q411 520 441 484Q471 448 488 396Q505 344 505 278V271Q505 205 488 152.5Q471 100 441 64Q411 28 370 9Q329 -10 280 -10ZM280 515Q238 515 212.5 496Q187 477 173 444Q159 411 154 366.5Q149 322 149 270Q149 220 154.5 176.5Q160 133 174 101Q188 69 213.5 51Q239 33 280 33Q321 33 346 51Q371 69 385.5 101Q400 133 405.5 176.5Q411 220 411 270Q411 322 406 366.5Q401 411 387 444Q373 477 347.5 496Q322 515 280 515Z" glyph-name="zero.posf" horiz-adv-x="560" unicode="" /><glyph d="M45 0 45 51L184 58V478L54 432V482L228 557H269V58L403 51V0Z" glyph-name="one.posf" horiz-adv-x="448" unicode="" /><glyph d="M486 160Q484 119 482.5 79.5Q481 40 479 0H62V58L258 217Q309 260 341 303Q373 346 373 391Q373 428 362 451.5Q351 475 333 488.5Q315 502 291.5 507.5Q268 513 242 513Q197 513 173.5 507Q150 501 147 499L136 379H88L79 532Q103 539 134 545Q161 550 196.5 554Q232 558 276 558Q376 558 423 519Q470 480 470 419Q470 388 458 361.5Q446 335 427 312Q408 289 384 268.5Q360 248 335 228L141 72H412L440 160Z" glyph-name="two.posf" horiz-adv-x="554" unicode="" /><glyph d="M159 254Q203 254 244 261.5Q285 269 316.5 287Q348 305 366.5 334.5Q385 364 385 408Q385 453 353.5 482.5Q322 512 253 512Q221 512 194 507.5Q167 503 150 499L132 405H85L82 531Q111 539 144 545Q175 551 210 555Q245 559 284 559Q316 559 349.5 552Q383 545 410 528.5Q437 512 454 485Q471 458 471 418Q471 383 457.5 355Q444 327 421 306Q398 285 369 271Q340 257 308 249Q393 243 443 196.5Q493 150 493 73Q493 33 475.5 -7Q458 -47 424 -79.5Q390 -112 339 -132Q288 -152 221 -152Q187 -152 158 -148.5Q129 -145 107 -141Q81 -135 60 -129L59 12H107L129 -100Q134 -101 156.5 -104.5Q179 -108 205 -108Q302 -108 353.5 -63.5Q405 -19 405 61Q405 98 391 122.5Q377 147 354 162Q331 177 301.5 183Q272 189 241 189Q221 189 195.5 187Q170 185 150 182Z" glyph-name="three.posf" horiz-adv-x="552" unicode="" /><glyph d="M414 78 414 -86H501V-131H243V-86H331V78H34V128L319 558H414V130H519V78ZM331 130 331 501L89 130Z" glyph-name="four.posf" horiz-adv-x="555" unicode="" /><glyph d="M198 302Q248 302 298.5 291.5Q349 281 390.5 256Q432 231 458 188.5Q484 146 484 83Q484 32 464 -10.5Q444 -53 408 -83.5Q372 -114 322 -130.5Q272 -147 212 -147Q177 -147 138.5 -143.5Q100 -140 65 -130L66 17H112L135 -94Q152 -99 174 -101Q196 -103 214 -103Q262 -103 298.5 -90.5Q335 -78 360 -55.5Q385 -33 397.5 -3Q410 27 410 62Q410 110 388.5 140.5Q367 171 332.5 188.5Q298 206 256.5 212Q215 218 174 218Q155 218 133.5 217Q112 216 92 214L101 550H475V474H145L140 299Q143 299 151 299.5Q159 300 168 300.5Q177 301 185.5 301.5Q194 302 198 302Z" glyph-name="five.posf" horiz-adv-x="554" unicode="" /><glyph d="M287 35Q324 35 350.5 48Q377 61 394 83Q411 105 419 134.5Q427 164 427 196Q427 240 413 275Q399 310 374 334Q349 358 314.5 370.5Q280 383 239 383Q207 383 171 374Q157 349 145 307.5Q133 266 133 225Q133 189 141.5 155Q150 121 168.5 94Q187 67 216 51Q245 35 287 35ZM498 723Q487 716 449.5 690.5Q412 665 365 625Q318 585 270 532Q222 479 190 416Q210 423 232 426Q254 429 276 429Q332 429 376.5 413Q421 397 451.5 368.5Q482 340 498.5 301.5Q515 263 515 218Q515 177 501 136.5Q487 96 457.5 63.5Q428 31 384 10.5Q340 -10 280 -10Q237 -10 194.5 4.5Q152 19 118.5 50Q85 81 64.5 128Q44 175 44 239Q44 314 72 379.5Q100 445 142.5 499.5Q185 554 236 597.5Q287 641 332.5 671.5Q378 702 412 719Q446 736 454 739Z" glyph-name="six.posf" horiz-adv-x="560" unicode="" /><glyph d="M213 -137 117 -137L428 475H111L91 354H41L40 550H488V504Z" glyph-name="seven.posf" horiz-adv-x="518" unicode="" /><glyph d="M513 183Q513 141 496.5 106Q480 71 449.5 45Q419 19 375.5 4.5Q332 -10 278 -10Q221 -10 178 4.5Q135 19 105.5 44Q76 69 61.5 101.5Q47 134 47 171Q47 207 59.5 236.5Q72 266 93.5 289.5Q115 313 143.5 330Q172 347 204 358Q140 387 108 430.5Q76 474 76 526Q76 570 93 603Q110 636 139 658Q168 680 206 691.5Q244 703 286 703Q324 703 359.5 693.5Q395 684 423 663.5Q451 643 468 612.5Q485 582 485 540Q485 506 472 480.5Q459 455 439 436Q419 417 393.5 403.5Q368 390 343 380Q424 348 468.5 300.5Q513 253 513 183ZM432 161Q432 190 421.5 212Q411 234 390.5 253Q370 272 341 288Q312 304 276 321L235 340Q187 313 160 271Q133 229 133 171Q133 108 174.5 70Q216 32 285 32Q312 32 338.5 40Q365 48 386 64Q407 80 419.5 104Q432 128 432 161ZM161 545Q161 518 170.5 498.5Q180 479 199 462.5Q218 446 246.5 430.5Q275 415 312 396Q363 419 390 460Q417 501 417 546Q417 593 384 627.5Q351 662 287 662Q255 662 231.5 652.5Q208 643 192 627Q176 611 168.5 589.5Q161 568 161 545Z" glyph-name="eight.posf" horiz-adv-x="560" unicode="" /><glyph d="M272 512Q235 512 208.5 499.5Q182 487 165 465.5Q148 444 140 415Q132 386 132 354Q132 310 146 275Q160 240 184.5 215.5Q209 191 243.5 178Q278 165 319 165Q336 165 352.5 167Q369 169 388 173Q402 199 414 240Q426 281 426 323Q426 359 417.5 393Q409 427 390.5 453.5Q372 480 342.5 496Q313 512 272 512ZM62 -176Q73 -169 110 -144Q147 -119 194 -79Q241 -39 289 14.5Q337 68 369 131Q348 125 326 121.5Q304 118 283 118Q227 118 182.5 134.5Q138 151 107.5 180Q77 209 60.5 248Q44 287 44 332Q44 373 58 413.5Q72 454 101 486Q130 518 174 538Q218 558 278 558Q322 558 364 543.5Q406 529 440 498Q474 467 494.5 420.5Q515 374 515 309Q515 234 487 168.5Q459 103 416.5 48.5Q374 -6 323 -49.5Q272 -93 226.5 -123.5Q181 -154 147.5 -171Q114 -188 106 -191Z" glyph-name="nine.posf" horiz-adv-x="560" unicode="" /><glyph d="M122 157Q122 112 150 81.5Q178 51 226 51Q259 51 288 65Q317 79 339.5 97Q362 115 376.5 131.5Q391 148 395 153L223 327Q165 273 143.5 232.5Q122 192 122 157ZM447 219 544 371H451V422H701V371H606Q576 325 543.5 279.5Q511 234 478 189L620 52H701V0H553L427 123Q423 118 405 96.5Q387 75 357 51.5Q327 28 286 9Q245 -10 195 -10Q155 -10 125 2Q95 14 75.5 33.5Q56 53 46.5 78Q37 103 37 130Q37 163 50.5 194Q64 225 86 253.5Q108 282 136.5 307.5Q165 333 196 356Q152 398 127 444Q102 490 102 544Q102 576 112.5 605.5Q123 635 144 658.5Q165 682 196 696Q227 710 268 710Q307 710 336 698Q365 686 384.5 666.5Q404 647 413.5 623.5Q423 600 423 576Q423 524 397 490Q371 456 339 434L312 461Q339 484 351.5 513.5Q364 543 364 572Q364 611 341.5 639.5Q319 668 274 668Q226 668 200 642Q174 616 174 569Q174 520 199 482Q224 444 262 406Z" glyph-name="ampersand.alt" horiz-adv-x="745" unicode="" /><glyph d="M331 653Q331 611 321 576Q311 541 293 516.5Q275 492 249 478Q223 464 191 464Q159 464 133 478Q107 492 88.5 516.5Q70 541 60 576Q50 611 50 653V682Q50 724 60 759Q70 794 88.5 819Q107 844 133 858Q159 872 191 872Q223 872 249 858Q275 844 293 819Q311 794 321 759Q331 724 331 682ZM261 686Q261 712 259 739Q257 766 249.5 788Q242 810 228 824Q214 838 191 838Q168 838 154 824Q140 810 132.5 788Q125 766 122.5 739Q120 712 120 686V649Q120 623 122.5 596Q125 569 132.5 547.5Q140 526 154 512Q168 498 191 498Q214 498 228 512Q242 526 249.5 547.5Q257 569 259 596Q261 623 261 649Z" glyph-name="zero.sups" horiz-adv-x="405" unicode="" /><glyph d="M76 471 76 510L161 515V810L81 789V826L191 868H224V515L306 510V471Z" glyph-name="one.sups" horiz-adv-x="405" unicode="" /><glyph d="M323 471 58 471V510L183 638Q215 670 231.5 703Q248 736 248 768Q248 788 241.5 800.5Q235 813 224.5 820.5Q214 828 200.5 830.5Q187 833 173 833Q162 833 153 832Q144 831 138 831Q130 829 123 828L114 755H77L71 854Q86 859 105 863Q122 866 143.5 868.5Q165 871 193 871Q256 871 287.5 844Q319 817 319 780Q319 746 302.5 717Q286 688 258 661L121 525H275L296 577H327Z" glyph-name="two.sups" horiz-adv-x="405" unicode="" /><glyph d="M120 701Q185 701 215.5 719Q246 737 246 780Q246 804 229 820Q212 836 174 836Q167 836 157.5 835.5Q148 835 139 834Q129 833 118 832L104 775H70L66 855Q85 860 107 864Q126 867 148 869.5Q170 872 193 872Q214 872 234.5 868Q255 864 272 854.5Q289 845 299.5 828.5Q310 812 310 788Q310 753 284 728.5Q258 704 218 694Q270 692 297.5 664.5Q325 637 325 595Q325 572 314 548.5Q303 525 282 506.5Q261 488 230 476Q199 464 158 464Q118 464 92.5 469.5Q67 475 56 479V559H93L107 501Q109 501 123 499.5Q137 498 148 498Q202 498 230.5 521Q259 544 259 586Q259 623 234.5 639Q210 655 169 655Q158 655 142.5 653.5Q127 652 113 651Z" glyph-name="three.sups" horiz-adv-x="405" unicode="" /><glyph d="M285 588 285 506H337V471H169V506H223V588H40V624L216 867H285V627H349V588ZM223 627 223 819L85 627Z" glyph-name="four.sups" horiz-adv-x="405" unicode="" /><glyph d="M146 725Q176 725 207.5 719Q239 713 264 698.5Q289 684 305 659.5Q321 635 321 597Q321 568 309 543.5Q297 519 275 501.5Q253 484 222.5 474Q192 464 155 464Q134 464 109 466Q84 468 60 474L61 563H98L111 502Q121 500 134 499Q147 498 156 498Q210 498 237 523.5Q264 549 264 586Q264 612 252 627.5Q240 643 221 652Q202 661 178.5 664Q155 667 132 667Q118 667 103.5 666.5Q89 666 75 665L81 864H312L310 811H116L114 725Z" glyph-name="five.sups" horiz-adv-x="405" unicode="" /><glyph d="M192 499Q232 499 251.5 524Q271 549 271 582Q271 633 238 658.5Q205 684 160 684Q153 684 146 684Q139 684 132 682Q124 668 117.5 644.5Q111 621 111 601Q111 582 115 564Q119 546 129 531.5Q139 517 154.5 508Q170 499 192 499ZM322 876Q316 873 295 860.5Q274 848 248 827.5Q222 807 195 779Q168 751 149 716Q168 720 189 720Q258 720 297 684.5Q336 649 336 595Q336 572 327 548.5Q318 525 300 506.5Q282 488 255 476Q228 464 191 464Q164 464 138 472.5Q112 481 91.5 499Q71 517 58 544Q45 571 45 608Q45 651 62 688.5Q79 726 105 757Q131 788 161.5 813Q192 838 219.5 855.5Q247 873 268 883Q289 893 294 894Z" glyph-name="six.sups" horiz-adv-x="405" unicode="" /><glyph d="M167 471 94 471L280 810H105L91 743H53L52 864H329V831Z" glyph-name="seven.sups" horiz-adv-x="405" unicode="" /><glyph d="M334 576Q334 528 296 496Q258 464 189 464Q118 464 83 495.5Q48 527 48 570Q48 610 72 635Q96 660 134 673Q99 691 82 717Q65 743 65 769Q65 795 75.5 814Q86 833 104 846.5Q122 860 146 866.5Q170 873 196 873Q220 873 242 867Q264 861 281 849Q298 837 308.5 819Q319 801 319 777Q319 759 312 744.5Q305 730 294 719Q283 708 269 700Q255 692 241 686Q334 649 334 576ZM273 565Q273 596 242 616.5Q211 637 163 657Q110 628 110 574Q110 540 131.5 518.5Q153 497 194 497Q226 497 249.5 513.5Q273 530 273 565ZM129 783Q129 760 147.5 741Q166 722 211 703Q237 714 251.5 735Q266 756 266 780Q266 805 248.5 822.5Q231 840 194 840Q161 840 145 823Q129 806 129 783Z" glyph-name="eight.sups" horiz-adv-x="405" unicode="" /><glyph d="M189 836Q149 836 129.5 811Q110 786 110 753Q110 702 143 676.5Q176 651 221 651Q228 651 235 651Q242 651 249 653Q257 667 263.5 690.5Q270 714 270 734Q270 753 266 771Q262 789 252 803.5Q242 818 227 827Q212 836 189 836ZM59 459Q65 462 86 474.5Q107 487 133 507.5Q159 528 186 556.5Q213 585 232 619Q213 615 192 615Q123 615 84 650.5Q45 686 45 740Q45 763 54 786.5Q63 810 81 829Q99 848 126 859.5Q153 871 190 871Q217 871 243 862.5Q269 854 289.5 836Q310 818 323 791Q336 764 336 727Q336 684 319 646.5Q302 609 276.5 578Q251 547 220 522Q189 497 161.5 479.5Q134 462 113 452Q92 442 87 441Z" glyph-name="nine.sups" horiz-adv-x="405" unicode="" /><glyph d="M331 3Q331 -39 321 -74Q311 -109 293 -133.5Q275 -158 249 -172Q223 -186 191 -186Q159 -186 133 -172Q107 -158 88.5 -133.5Q70 -109 60 -74Q50 -39 50 3V32Q50 74 60 109Q70 144 88.5 169Q107 194 133 208Q159 222 191 222Q223 222 249 208Q275 194 293 169Q311 144 321 109Q331 74 331 32ZM261 36Q261 62 259 89Q257 116 249.5 138Q242 160 228 174Q214 188 191 188Q168 188 154 174Q140 160 132.5 138Q125 116 122.5 89Q120 62 120 36V-1Q120 -27 122.5 -54Q125 -81 132.5 -102.5Q140 -124 154 -138Q168 -152 191 -152Q214 -152 228 -138Q242 -124 249.5 -102.5Q257 -81 259 -54Q261 -27 261 -1Z" glyph-name="zero.sinf" horiz-adv-x="405" unicode="" /><glyph d="M76 -176 76 -137L161 -132V163L81 142V179L191 221H224V-132L306 -137V-176Z" glyph-name="one.sinf" horiz-adv-x="405" unicode="" /></font>
</defs>
</svg>
