<?xml version="1.0" encoding="UTF-8" standalone="no"?>
<svg width="10px" height="10px" viewBox="0 0 10 10" version="1.1" xmlns="http://www.w3.org/2000/svg" xmlns:xlink="http://www.w3.org/1999/xlink">
    <!-- Generator: Sketch 3.6.1 (26313) - http://www.bohemiancoding.com/sketch -->
    <title>asdf</title>
    <desc>Created with Sketch.</desc>
    <defs></defs>
    <g id="Welcome" stroke="none" stroke-width="1" fill="none" fill-rule="evenodd">
        <g id="asdf" fill="#FFFFFF">
            <path d="M5.70113056,4.99962831 L8.85504104,1.84571783 C9.04831965,1.65243921 9.04831965,1.33823757 8.85504104,1.14495896 C8.66176243,0.951680347 8.34756079,0.951680347 8.15428217,1.14495896 L5.00037169,4.29886944 L1.8464612,1.14495896 C1.65318259,0.951680347 1.33898095,0.951680347 1.14570234,1.14495896 C0.951432554,1.33823757 0.951432554,1.65243921 1.14570234,1.84571783 L4.29961282,4.99962831 L1.14570234,8.1535388 C0.951432554,8.34681741 0.951432554,8.66101905 1.14570234,8.85429766 C1.24184606,8.95143255 1.36871612,9 1.49558619,9 C1.62245625,9 1.74932631,8.95143255 1.8464612,8.85429766 L5.00037169,5.70038718 L8.15428217,8.85429766 C8.25141707,8.95143255 8.37828713,9 8.50515719,9 C8.63202726,9 8.75790615,8.95143255 8.85504104,8.85429766 C9.04831965,8.66101905 9.04831965,8.34681741 8.85504104,8.1535388 L5.70113056,4.99962831 Z" id="Fill-1"></path>
        </g>
    </g>
</svg>