<svg style="position: absolute; width: 0; height: 0;" width="0" height="0" version="1.1" xmlns="http://www.w3.org/2000/svg" xmlns:xlink="http://www.w3.org/1999/xlink">
<defs>
<symbol id="icon-map" viewBox="0 0 33 40">
<title>map</title>
<path d="M16.587 0c-9.161 0-16.587 7.426-16.587 16.587 0 9.157 16.587 23.413 16.587 23.413s16.587-14.255 16.587-23.413c0-9.161-7.426-16.587-16.587-16.587zM16.587 24.377c-4.642 0-8.405-3.763-8.405-8.405s3.763-8.405 8.405-8.405c4.642 0 8.405 3.763 8.405 8.405-0.030 4.621-3.78 8.357-8.404 8.362z"></path>
<path fill="#dbe0ea" class="map-center" d="M23.932 15.93c0 4.057-3.288 7.345-7.345 7.345s-7.345-3.288-7.345-7.345c0-4.057 3.288-7.345 7.345-7.345s7.345 3.288 7.345 7.345z"></path>
<path fill="#231f20" class="map-rim" d="M16.587 7.515c-4.642 0-8.405 3.763-8.405 8.405s3.763 8.405 8.405 8.405c4.642 0 8.405-3.763 8.405-8.405-0.006-4.639-3.765-8.399-8.404-8.405zM16.587 23.275c-4.057 0-7.345-3.288-7.345-7.345s3.288-7.345 7.345-7.345c4.057 0 7.345 3.288 7.345 7.345-0.006 4.054-3.291 7.339-7.344 7.345z"></path>
</symbol>
<symbol id="icon-facebook" viewBox="0 0 40 40">
<title>facebook</title>
<path d="M39.167 20c-0.048-10.549-8.611-19.082-19.166-19.082-10.585 0-19.167 8.581-19.167 19.167 0 9.952 7.584 18.132 17.288 19.076l0.078-14.377h-5v-5.783h5v-4.25c0-5 3.017-7.633 7.417-7.633 0.061-0 0.133-0.001 0.206-0.001 1.471 0 2.924 0.079 4.355 0.233l-0.178 5.151h-3c-0.149-0.033-0.32-0.052-0.496-0.052-1.325 0-2.4 1.075-2.4 2.4 0 0.166 0.017 0.328 0.049 0.484l-0.003 3.668h5.7l-0.75 5.767h-5v14.017c8.681-1.963 15.067-9.611 15.067-18.75 0-0.012 0-0.024-0-0.035z"></path>
</symbol>
<symbol id="icon-twitter" viewBox="0 0 40 40">
<title>twitter</title>
<path d="M20 0.833c-10.585 0-19.167 8.581-19.167 19.167s8.581 19.167 19.167 19.167c10.585 0 19.167-8.581 19.167-19.167s-8.581-19.167-19.167-19.167zM31.667 15.483c0 0.233 0 0.467 0 0.7-0 8.523-6.91 15.433-15.433 15.433-3.088 0-5.964-0.907-8.377-2.469 0.255 0.049 0.482 0.056 0.71 0.056s0.456-0.007 0.681-0.021c2.496-0.010 4.818-0.88 6.659-2.333-2.359-0.059-4.316-1.598-5.012-3.711 0.336 0.042 0.734 0.088 1.144 0.088 0.46 0 0.907-0.058 1.332-0.168-2.534-0.513-4.383-2.694-4.387-5.308v-0c0.709 0.368 1.548 0.583 2.437 0.583 0.004 0 0.009 0 0.013 0-1.461-0.989-2.407-2.64-2.407-4.512 0-1.009 0.275-1.953 0.754-2.763 2.673 3.314 6.649 5.462 11.133 5.69-0.062-0.387-0.119-0.833-0.119-1.292 0-3.001 2.433-5.433 5.433-5.433 1.567 0 2.978 0.663 3.97 1.724 1.304-0.256 2.46-0.713 3.501-1.341-0.468 1.306-1.311 2.348-2.408 3.014 1.132-0.124 2.185-0.424 3.161-0.864-0.807 1.166-1.71 2.127-2.756 2.907z"></path>
</symbol>
<symbol id="icon-instagram" viewBox="0 0 40 40">
<title>instagram</title>
<path d="M20 39.167c10.585 0 19.167-8.581 19.167-19.167s-8.581-19.167-19.167-19.167c-10.585 0-19.167 8.581-19.167 19.167s8.581 19.167 19.167 19.167zM8.167 11.25c0-1.675 1.358-3.033 3.033-3.033h17.5c1.646 0.037 2.967 1.381 2.967 3.033 0 0 0 0.001 0 0.001v17.5c-0.009 1.668-1.364 3.017-3.033 3.017 0 0-0 0-0 0h-17.433c0 0-0 0-0 0-1.669 0-3.024-1.349-3.033-3.016v-17.501zM20 24.533c2.502-0.038 4.516-2.075 4.516-4.583 0-2.531-2.052-4.583-4.583-4.583s-4.583 2.052-4.583 4.583c0 0.017 0 0.035 0 0.052 0.074 2.512 2.126 4.522 4.649 4.531zM27.4 20.2c-0.064 3.936-3.27 7.102-7.216 7.102-0.065 0-0.129-0.001-0.194-0.003-0.021 0.001-0.056 0.001-0.091 0.001-3.945 0-7.15-3.165-7.216-7.095-0-0.007-0-0.009-0-0.010 0-0.718 0.11-1.41 0.313-2.061l-2.113 0.049v10c0 0.515 0.418 0.933 0.933 0.933h16.4c0.515 0 0.933-0.418 0.933-0.933v-10h-2.067c0.19 0.602 0.3 1.294 0.3 2.012 0 0.001 0 0.003 0 0.004zM25.433 15.5h2.667c0 0 0 0 0 0 0.589 0 1.067-0.478 1.067-1.067 0 0 0 0 0 0v-2.533c0-0.589-0.478-1.067-1.067-1.067 0 0 0 0 0 0h-2.667c0 0 0 0 0 0-0.589 0-1.067 0.478-1.067 1.067v2.533c0 0.589 0.478 1.067 1.067 1.067 0 0 0 0 0 0z"></path>
</symbol>
<symbol id="icon-arrow" viewBox="0 0 10 10">
<title>arrow</title>
<path d="M5.00029747,7 L0.103024739,0.77611922 C-0.05606617,0.572929214 -0.0278843518,0.274790608 0.166661103,0.107681071 C0.359388375,-0.0584789807 0.645752012,-0.0290449145 0.806661103,0.173195605 L5.00029747,5.50455954 L9.19393383,0.173195605 C9.35484292,-0.0290449145 9.64120656,-0.0584789807 9.83393383,0.107681071 C10.0284793,0.274790608 10.0566611,0.572929214 9.89757019,0.77611922 L5.00029747,7 Z"></path>
</symbol>
<symbol id="icon-close" viewBox="0 0 10 10">
<title>close</title>
<path d="M5.70113056,4.99962831 L8.85504104,1.84571783 C9.04831965,1.65243921 9.04831965,1.33823757 8.85504104,1.14495896 C8.66176243,0.951680347 8.34756079,0.951680347 8.15428217,1.14495896 L5.00037169,4.29886944 L1.8464612,1.14495896 C1.65318259,0.951680347 1.33898095,0.951680347 1.14570234,1.14495896 C0.951432554,1.33823757 0.951432554,1.65243921 1.14570234,1.84571783 L4.29961282,4.99962831 L1.14570234,8.1535388 C0.951432554,8.34681741 0.951432554,8.66101905 1.14570234,8.85429766 C1.24184606,8.95143255 1.36871612,9 1.49558619,9 C1.62245625,9 1.74932631,8.95143255 1.8464612,8.85429766 L5.00037169,5.70038718 L8.15428217,8.85429766 C8.25141707,8.95143255 8.37828713,9 8.50515719,9 C8.63202726,9 8.75790615,8.95143255 8.85504104,8.85429766 C9.04831965,8.66101905 9.04831965,8.34681741 8.85504104,8.1535388 L5.70113056,4.99962831 Z"></path>
</symbol>
<symbol id="icon-eho" viewBox="0 0 100 50">
<title>EHO</title>
<path d="M12.2622,19.1555 C12.0212,19.3165 11.5792,19.5715 11.5282,19.7185 C11.4182,20.0505 11.5282,20.7705 11.5282,21.2775 L11.5282,32.3135 L35.9922,32.3135 L35.9922,19.7185 C31.8972,16.9705 27.8062,14.2275 23.6892,11.4955 C19.8822,14.0305 16.0762,16.6095 12.2622,19.1555 L12.2622,19.1555 Z M42.4512,17.5595 L42.4512,22.5635 C41.7242,22.4945 40.8542,22.5565 40.0652,22.5385 C39.9882,27.4255 40.0582,32.4635 40.0292,37.4165 C29.1502,37.4205 18.2642,37.4205 7.4552,37.3475 L7.4552,22.5385 C6.7022,22.4615 5.8032,22.5235 5.0002,22.5015 L5.0002,17.4645 C10.7532,13.5225 16.7372,9.6975 22.5012,5.7345 C22.8192,5.5115 23.4262,5.0005 23.7292,5.0005 C24.0172,5.0005 24.5692,5.5005 24.9202,5.7345 C25.3542,6.0265 25.7532,6.2535 26.1112,6.4975 C30.8302,9.6355 35.4442,12.8245 40.0942,15.9405 C40.7522,16.3795 41.9362,17.0735 42.4512,17.5595 L42.4512,17.5595 Z" id="Fill-1" fill="#231F1F"></path>
<path d="M17.295,18.4921 L30.157,18.4921 C30.135,20.3041 30.212,22.0141 30.187,23.8251 L17.262,23.8251 L17.262,18.5911 L17.295,18.4921 Z" id="Fill-3" fill="#231F1F"></path>
<path d="M17.3297,24.6544 L30.2217,24.6544 L30.2217,29.9874 L17.2927,29.9874 L17.2927,24.7534 L17.3297,24.6544 Z" id="Fill-5" fill="#231F1F"></path>
<path d="M11.1652,38.61 C10.3322,39.162 10.7962,41.247 12.0892,40.63 L11.7242,40.495 L11.8592,40.265 C12.1112,40.272 12.1882,40.444 12.3962,40.495 C13.1712,39.633 12.2792,37.865 11.1652,38.61 M12.6192,40.732 L13.1232,40.959 L13.0172,41.189 C12.7472,41.156 12.6122,40.988 12.3962,40.897 L12.0272,41.028 C10.3432,41.324 9.9562,39.235 10.9022,38.376 C12.4222,37.35 13.8022,39.604 12.6192,40.732" id="Fill-7" fill="#231F1F"></path>
<path d="M25.9143,40.6959 C27.4853,41.2509 27.7663,38.2559 26.1113,38.5039 C25.0743,38.6719 25.1323,40.4149 25.9143,40.6959 M26.2763,38.1749 C28.1133,38.0909 28.0953,41.3939 25.9803,41.0249 L25.3443,40.7289 C24.8293,40.2869 24.8773,39.1139 25.1873,38.6799 C25.4173,38.3359 25.7723,38.1969 26.2763,38.1749" id="Fill-9" fill="#231F1F"></path>
<path d="M32.9398,39.0089 L32.6368,39.0089 C32.4908,38.8559 32.5268,38.6549 32.3078,38.5409 C31.7668,38.2669 30.8138,38.8669 31.4498,39.2389 C31.8548,39.4769 32.8598,39.3709 33.0058,40.0029 C33.2578,41.0729 31.5878,41.3289 31.0478,40.7619 C30.9018,40.6089 30.8498,40.3499 30.7808,40.1009 L31.0838,40.1009 L31.3508,40.5319 C31.7558,40.9049 32.6698,40.7079 32.6728,40.2659 C32.6878,39.4769 31.0368,39.9039 30.9158,39.1329 C30.6928,37.8109 32.9948,37.8799 32.9398,39.0089" id="Fill-11" fill="#231F1F"></path>
<path d="M39.8696,39.0089 L39.5406,39.0749 C39.5116,38.5889 38.8686,38.3769 38.4086,38.5049 C37.5826,38.7459 37.4516,40.2799 38.2146,40.6309 C38.6386,40.8249 39.2556,40.6599 39.5666,40.4669 L39.5666,39.9039 L38.7376,39.9039 L38.7376,39.5679 L39.9356,39.5679 L39.9356,40.5649 C39.5776,40.9379 39.0476,41.1169 38.4416,41.0289 C37.2686,40.8569 36.9436,39.0349 37.8716,38.3769 C38.4706,37.9569 39.8146,38.1099 39.8696,39.0089" id="Fill-13" fill="#231F1F"></path>
<path d="M9.936,38.1764 L9.936,38.5054 L8.321,38.5054 C8.237,38.7314 8.299,39.0974 8.281,39.3674 L9.837,39.3674 L9.837,39.7034 L8.281,39.7034 L8.281,40.6314 C8.793,40.7084 9.439,40.6424 10.005,40.6714 L10.005,40.9964 L7.912,40.9964 L7.912,38.1764 L9.936,38.1764 Z" id="Fill-15" fill="#231F1F"></path>
<path d="M13.9492,38.1764 C14.0842,38.8344 13.6972,40.1524 14.1132,40.5654 C14.2962,40.7484 14.9132,40.8134 15.1732,40.5944 C15.6482,40.2114 15.2312,38.9504 15.3702,38.1764 L15.7722,38.1764 C15.7022,39.3054 16.0242,40.7224 15.1732,40.9964 C14.8442,41.1094 14.3512,41.0664 14.1502,40.9964 C13.3322,40.7294 13.5982,39.3524 13.5512,38.2784 L13.9492,38.1764 Z" id="Fill-17" fill="#231F1F"></path>
<path d="M16.868,39.8287 C17.175,39.8107 17.569,39.8767 17.832,39.8027 C17.61,39.4377 17.529,38.9297 17.328,38.5387 C17.189,38.9847 17.029,39.4087 16.868,39.8287 L16.868,39.8287 Z M17.562,38.1777 C17.935,39.1127 18.285,40.0627 18.691,40.9607 L18.256,40.9937 C18.161,40.7087 18.048,40.4317 17.957,40.1357 L16.799,40.1357 C16.66,40.3837 16.59,40.7237 16.47,40.9937 L16.075,40.9937 C16.43,40.0657 16.78,39.1237 17.131,38.1777 L17.562,38.1777 Z" id="Fill-19" fill="#231F1F"></path>
<path d="M19.3202,38.1764 L19.3202,40.6314 C19.7152,40.7084 20.2592,40.6424 20.7152,40.6714 L20.7152,40.9964 L18.9552,40.9964 L18.9552,38.1764 L19.3202,38.1764 Z" id="Fill-21" fill="#231F1F"></path>
<path d="M22.6357,38.1764 L22.6357,39.3054 C23.0377,39.3814 23.5857,39.3164 24.0527,39.3384 L24.0527,38.1764 L24.4257,38.1764 L24.4257,40.9964 L24.0527,40.9964 L24.0527,39.6744 L22.6357,39.6744 L22.6357,40.9964 L22.2377,40.9964 L22.2377,38.1764 L22.6357,38.1764 Z" id="Fill-23" fill="#231F1F"></path>
<path d="M28.4641,38.1764 C28.5481,39.0714 28.2191,40.3714 28.8621,40.6974 C30.3961,41.0294 29.8121,39.2654 29.9251,38.1764 L30.2911,38.1764 C30.1961,39.2464 30.5791,40.6164 29.7901,40.9604 C29.5821,41.0554 29.0631,41.1134 28.7011,40.9964 C27.8691,40.7224 28.1501,39.3854 28.0991,38.2784 L28.4641,38.1764 Z" id="Fill-25" fill="#231F1F"></path>
<mask id="mask-2" fill="white">
    <use xlink:href="#path-1"></use>
</mask>
<g id="Clip-28"></g>
<path d="M33.574,40.993 L33.969,40.993 L33.969,38.18 L33.574,38.18 L33.574,40.993 Z" id="Fill-27" fill="#231F1F" mask="url(#mask-2)"></path>
<path d="M34.995,38.1764 C35.474,38.9254 35.956,39.6744 36.453,40.4014 L36.453,38.1764 L36.818,38.1764 L36.818,40.9964 C36.365,41.1244 36.226,40.7404 36.062,40.4664 C35.7,39.9114 35.284,39.2794 34.962,38.8044 L34.962,40.9964 L34.6,40.9964 L34.6,38.1764 L34.995,38.1764 Z" id="Fill-29" fill="#231F1F" mask="url(#mask-2)"></path>
<path d="M8.2508,42.4913 C7.8378,43.2543 8.2438,44.3653 8.8458,44.5483 C10.7498,45.1033 10.8588,41.6583 9.0108,41.9873 C8.6598,42.0563 8.3788,42.2503 8.2508,42.4913 M8.8758,41.6253 L8.9158,41.5893 C11.1258,41.1543 11.3088,44.6063 9.6358,44.9423 C7.2788,45.4973 7.0708,41.8523 8.8758,41.6253" id="Fill-30" fill="#231F1F" mask="url(#mask-2)"></path>
<path d="M18.6503,41.9536 C17.3023,42.1476 17.3793,44.9456 19.1873,44.5726 C20.4663,44.1016 20.0493,41.7596 18.6503,41.9536 M18.5183,41.6246 C20.9403,41.1246 21.1303,45.4756 18.3943,44.9416 C16.9663,44.6566 16.8423,41.7456 18.5183,41.6246" id="Fill-31" fill="#231F1F" mask="url(#mask-2)"></path>
<path d="M13.3552,42.8859 C13.7392,42.0059 12.5442,41.9329 11.7592,42.0239 L11.7592,43.1819 C12.3322,43.1559 13.1652,43.3169 13.3552,42.8859 M11.7992,43.5799 C11.7182,43.9559 11.7842,44.4709 11.7592,44.9099 L11.3312,44.9099 L11.3312,41.6259 C12.3802,41.6259 13.5742,41.4799 13.8232,42.2869 C13.8882,42.8679 13.6802,43.1889 13.4242,43.4449 C12.9752,43.5869 12.4022,43.6019 11.7992,43.5799" id="Fill-32" fill="#231F1F" mask="url(#mask-2)"></path>
<path d="M14.8102,42.023 L14.8102,43.181 C15.3942,43.159 16.1362,43.294 16.3702,42.922 C16.6882,41.921 15.6392,41.994 14.8102,42.023 M14.8432,43.579 C14.7662,43.955 14.8322,44.474 14.8102,44.913 L14.3792,44.913 L14.3792,41.625 C15.0402,41.647 16.3262,41.49 16.6952,41.99 C16.9842,42.374 16.9622,43.049 16.5342,43.382 C16.1652,43.667 15.5112,43.55 14.8432,43.579" id="Fill-33" fill="#231F1F" mask="url(#mask-2)"></path>
<path d="M23.13,42.422 C23.031,41.845 22.125,42.013 21.406,41.991 L21.406,43.087 C22.242,43.098 23.262,43.2 23.13,42.422 M22.666,43.416 C23.192,43.763 23.47,44.362 23.799,44.902 L23.262,44.902 C22.801,44.259 22.695,43.262 21.406,43.445 L21.406,44.902 L20.978,44.902 L20.978,41.626 C21.756,41.633 22.593,41.571 23.192,41.757 C23.817,42.185 23.609,43.514 22.666,43.416" id="Fill-34" fill="#231F1F" mask="url(#mask-2)"></path>
<path d="M26.5755,41.6241 L26.5755,42.0221 L25.5495,42.0221 C25.4685,42.9211 25.5415,43.9581 25.5165,44.9121 L25.0855,44.9121 L25.0855,42.0221 L23.9965,42.0221 L24.0255,41.6241 L26.5755,41.6241 Z" id="Fill-35" fill="#231F1F" mask="url(#mask-2)"></path>
<path d="M27.4734,41.6241 C27.5974,42.5191 27.1484,44.2611 27.9004,44.5461 C28.2584,44.6741 28.8214,44.5941 29.0294,44.3131 C29.4494,43.7391 28.9894,42.4901 29.1614,41.6241 L29.5884,41.6241 C29.4494,42.5371 29.8334,43.7061 29.4604,44.4441 C29.2234,44.9121 28.2184,45.1751 27.5754,44.8391 C26.7794,44.4261 27.1114,42.9141 27.0384,41.7261 L27.4734,41.6241 Z" id="Fill-36" fill="#231F1F" mask="url(#mask-2)"></path>
<path d="M30.7538,41.6241 C31.3128,42.4901 31.8858,43.3371 32.4748,44.1741 L32.4748,41.6241 L32.8758,41.6241 L32.8758,44.9121 C32.3608,45.0511 32.2118,44.5831 32.0108,44.2801 C31.5938,43.6401 31.1048,42.9141 30.7138,42.3581 L30.7138,44.9121 L30.3188,44.9121 L30.3188,41.6241 L30.7538,41.6241 Z" id="Fill-37" fill="#231F1F" mask="url(#mask-2)"></path>
<path d="M33.6627,41.7271 L33.6627,44.9091 L34.1047,44.9091 L34.1047,41.6251 L33.6627,41.7271 Z" id="Fill-38" fill="#231F1F" mask="url(#mask-2)"></path>
<path d="M37.2113,41.6241 L37.2113,42.0221 L36.1523,42.0221 C36.0793,42.9211 36.1443,43.9581 36.1193,44.9121 L35.6883,44.9121 L35.6883,42.0221 L34.6283,42.0221 L34.6613,41.6241 L37.2113,41.6241 Z" id="Fill-39" fill="#231F1F" mask="url(#mask-2)"></path>
<path d="M37.3154,41.6585 L37.8454,41.6255 C38.1414,42.1695 38.5244,42.6225 38.8054,43.1815 C39.1204,42.6415 39.4784,42.1585 39.7994,41.6255 L40.2964,41.6255 C39.9824,42.0715 39.6864,42.5715 39.3394,43.0755 L39.0034,43.5435 C38.9044,43.9565 39.0724,44.3695 39.0034,44.9025 L38.5754,44.9025 C38.5174,44.3835 38.6594,43.9785 38.5754,43.5795 C38.5174,43.2845 38.1704,42.9485 37.9764,42.6485 C37.7134,42.2535 37.5234,41.9215 37.3154,41.6585" id="Fill-40" fill="#231F1F" mask="url(#mask-2)"></path>
<path d="M79.0547,9.2502 C79.0547,11.2032 77.4727,12.7782 75.5227,12.7782 C73.5737,12.7782 71.9987,11.2032 71.9987,9.2502 C71.9987,7.3042 73.5737,5.7222 75.5227,5.7222 C77.4727,5.7222 79.0547,7.3042 79.0547,9.2502" id="Fill-41" fill="#231F1F" mask="url(#mask-2)"></path>
<path d="M85.0644,34.026 C84.3834,38.831 80.2594,42.524 75.2674,42.524 C69.8084,42.524 65.3794,38.095 65.3794,32.632 C65.3794,28.968 67.3724,25.774 70.3344,24.06 L69.9994,21.444 C65.8094,23.424 62.9064,27.695 62.9064,32.632 C62.9064,39.46 68.4394,45 75.2674,45 C81.6244,45 86.8594,40.203 87.5514,34.026 L85.0644,34.026 Z" id="Fill-42" fill="#231F1F" mask="url(#mask-2)"></path>
<path d="M90.5473,27.545 L79.1463,27.545 L79.1393,27.501 L78.6423,23.274 C83.5723,23.112 86.4233,23.458 86.2833,19.992 C83.2923,19.97 80.7803,19.992 78.2563,20.011 L77.8923,16.902 C77.6753,15.103 76.0413,13.816 74.2463,14.029 C72.4473,14.239 71.1603,15.872 71.3693,17.671 L72.6203,28.266 L72.6943,28.66 C72.8263,29.693 72.9623,30.827 73.1423,32.144 L88.2483,32.144 C90.9853,39.034 90.4373,45.001 95.7933,43.625 C93.9353,38.376 92.1553,33.174 90.5473,27.545" id="Fill-43" fill="#231F1F" mask="url(#mask-2)"></path>
</symbol>
</defs>
</svg>